# This file uses centimeters as units for non-parametric coordinates.

mtllib Corridor_roof_half.mtl
g default
v 0.000000 -0.183734 0.000000
v 6.000000 -0.179967 0.000000
v 0.625000 -0.176202 0.000000
v 5.375000 -0.179968 0.000000
v 4.571404 -0.448025 0.000000
v 1.428596 -0.448025 0.000000
v 6.000000 -0.179967 0.748855
v 5.375000 -0.179968 0.748855
v 4.571404 -0.448025 0.748855
v 1.428596 -0.448025 0.748855
v 0.625000 -0.176202 0.748855
v 0.000000 -0.183734 0.748855
vt 0.375000 0.750000
vt 0.625000 0.750000
vt 0.406250 0.750000
vt 0.593750 0.750000
vt 0.546875 0.750000
vt 0.453125 0.750000
vt 0.625000 0.838758
vt 0.593750 0.838758
vt 0.546875 0.838758
vt 0.453125 0.838758
vt 0.406250 0.838758
vt 0.375000 0.838758
vn -0.181913 -0.983315 0.000000
vn -0.181913 -0.983315 0.000000
vn 0.012051 -0.999927 0.000000
vn 0.012051 -0.999927 0.000000
vn 0.000002 -1.000000 0.000000
vn 0.000002 -1.000000 0.000000
vn 0.184419 -0.982848 0.000000
vn 0.184419 -0.982848 0.000000
vn 0.316431 -0.948616 0.000000
vn 0.316431 -0.948616 0.000000
vn -0.320423 -0.947275 0.000000
vn -0.320423 -0.947275 0.000000
vn 0.000000 -1.000000 0.000000
vn 0.000000 -1.000000 0.000000
vn 0.000000 -1.000000 0.000000
vn 0.000000 -1.000000 0.000000
s 1
g Corridor_roof_short Reactor_room
usemtl initialShadingGroup
f 3/3/1 11/11/2 12/12/3 1/1/4
s 2
f 2/2/5 7/7/6 8/8/7 4/4/8
f 8/8/7 9/9/9 5/5/10 4/4/8
s 1
f 6/6/11 10/10/12 11/11/2 3/3/1
s off
f 9/9/13 10/10/14 6/6/15 5/5/16
