# This file uses centimeters as units for non-parametric coordinates.

mtllib Warehouse_wall_lower.mtl
g default
v 0.000000 0.000000 0.000000
v 3.000000 0.000000 0.000000
v 0.000000 2.500000 0.000000
v 3.000000 2.500000 0.000000
vt 0.375000 0.000000
vt 0.625000 0.000000
vt 0.375000 0.250000
vt 0.625000 0.250000
vn 0.000000 0.000000 1.000000
vn 0.000000 0.000000 1.000000
vn 0.000000 0.000000 1.000000
vn 0.000000 0.000000 1.000000
s off
g Lower_wall Warehouse
usemtl initialShadingGroup
f 1/1/1 2/2/2 4/4/3 3/3/4
