# This file uses centimeters as units for non-parametric coordinates.

mtllib Warehouse_floor.mtl
g default
v 0.000000 0.000000 6.000000
v 6.000000 0.000000 6.000000
v 0.000000 0.000000 0.000000
v 6.000000 0.000000 0.000000
vt 0.375000 0.250000
vt 0.625000 0.250000
vt 0.375000 0.500000
vt 0.625000 0.500000
vn 0.000000 1.000000 0.000000
vn 0.000000 1.000000 0.000000
vn 0.000000 1.000000 0.000000
vn 0.000000 1.000000 0.000000
s off
g Floor_tile Warehouse
usemtl initialShadingGroup
f 1/1/1 2/2/2 4/4/3 3/3/4
