# This file uses centimeters as units for non-parametric coordinates.

mtllib Warehouse_shelves.mtl
g default
v 3.038229 0.000000 0.976351
v 2.961771 0.000000 0.976351
v 3.038229 1.998398 0.976351
v 2.961771 1.998398 0.976351
v 3.038229 1.998398 -0.023649
v 2.961771 1.998398 -0.023649
v 3.038229 0.000000 -0.023649
v 2.961771 0.000000 -0.023649
v 3.038229 0.118751 -0.023649
v 3.038229 0.118750 0.976351
v 2.961771 0.118750 0.976351
v 2.961771 0.118751 -0.023649
v 3.038229 0.204613 -0.023649
v 2.961771 0.204613 -0.023649
v 2.961771 0.204612 0.976351
v 3.038229 0.204612 0.976351
v 3.038229 1.757032 -0.023649
v 2.961771 1.757032 -0.023649
v 2.961771 1.757031 0.976351
v 3.038229 1.757031 0.976351
v 2.961771 0.979020 0.976351
v 2.961771 0.979020 -0.023649
v 3.038229 0.979020 -0.023649
v 3.038229 0.979020 0.976351
v 2.961771 0.886811 0.976351
v 2.961771 0.886811 -0.023649
v 3.038229 0.886811 -0.023649
v 3.038229 0.886811 0.976351
v 3.038229 1.660990 -0.023649
v 2.961771 1.660990 -0.023649
v 2.961771 1.660990 0.976351
v 3.038229 1.660990 0.976351
v 3.038229 1.998398 0.949341
v 2.961771 1.998398 0.949341
v 2.961771 1.757031 0.949342
v 2.961771 1.660990 0.949342
v 2.961771 0.979020 0.949341
v 2.961771 0.886811 0.949341
v 2.961771 0.204612 0.949342
v 2.961771 0.118750 0.949341
v 2.961771 0.000000 0.949342
v 3.038229 0.000000 0.949342
v 3.038229 0.118750 0.949342
v 3.038229 0.204612 0.949341
v 3.038229 0.886811 0.949342
v 3.038229 0.979020 0.949342
v 3.038229 1.660990 0.949341
v 3.038229 1.757031 0.949341
v 3.038229 0.000000 0.000000
v 2.961771 0.000000 0.000000
v 2.961771 0.118751 0.000000
v 2.961771 0.204613 0.000000
v 2.961771 0.886811 0.000000
v 2.961771 0.979020 0.000000
v 2.961771 1.660990 0.000000
v 2.961771 1.757032 0.000000
v 2.961771 1.998398 0.000000
v 3.038229 1.998398 0.000000
v 3.038229 1.757032 0.000000
v 3.038229 1.660990 0.000000
v 3.038229 0.979020 0.000000
v 3.038229 0.886811 0.000000
v 3.038229 0.204613 0.000000
v 3.038229 0.118751 0.000000
v 0.000000 0.000000 0.976351
v 0.076459 0.000000 0.976351
v 0.000000 1.998398 0.976351
v 0.076459 1.998398 0.976351
v 0.000000 1.998398 -0.023649
v 0.076459 1.998398 -0.023649
v 0.000000 0.000000 -0.023649
v 0.076459 0.000000 -0.023649
v 0.000000 0.118751 -0.023649
v 0.000000 0.118750 0.976351
v 0.076459 0.118750 0.976351
v 0.076459 0.118751 -0.023649
v 0.000000 0.204613 -0.023649
v 0.076459 0.204613 -0.023649
v 0.076459 0.204612 0.976351
v 0.000000 0.204612 0.976351
v 0.000000 1.757032 -0.023649
v 0.076459 1.757032 -0.023649
v 0.076459 1.757031 0.976351
v 0.000000 1.757031 0.976351
v 0.076459 0.979020 0.976351
v 0.076459 0.979020 -0.023649
v 0.000000 0.979020 -0.023649
v 0.000000 0.979020 0.976351
v 0.076459 0.886811 0.976351
v 0.076459 0.886811 -0.023649
v 0.000000 0.886811 -0.023649
v 0.000000 0.886811 0.976351
v 0.000000 1.660990 -0.023649
v 0.076459 1.660990 -0.023649
v 0.076459 1.660990 0.976351
v 0.000000 1.660990 0.976351
v 0.000000 1.998398 0.949341
v 0.076459 1.998398 0.949341
v 0.076459 1.757031 0.949342
v 0.076459 1.660990 0.949342
v 0.076459 0.979020 0.949341
v 0.076459 0.886811 0.949341
v 0.076459 0.204612 0.949342
v 0.076459 0.118750 0.949341
v 0.076459 0.000000 0.949342
v 0.000000 0.000000 0.949342
v 0.000000 0.118750 0.949342
v 0.000000 0.204612 0.949341
v 0.000000 0.886811 0.949342
v 0.000000 0.979020 0.949342
v 0.000000 1.660990 0.949341
v 0.000000 1.757031 0.949341
v 0.000000 0.000000 0.000000
v 0.076459 0.000000 0.000000
v 0.076459 0.118751 0.000000
v 0.076459 0.204613 0.000000
v 0.076459 0.886811 0.000000
v 0.076459 0.979020 0.000000
v 0.076459 1.660990 0.000000
v 0.076459 1.757032 0.000000
v 0.076459 1.998398 0.000000
v 0.000000 1.998398 0.000000
v 0.000000 1.757032 0.000000
v 0.000000 1.660990 0.000000
v 0.000000 0.979020 0.000000
v 0.000000 0.886811 0.000000
v 0.000000 0.204613 0.000000
v 0.000000 0.118751 0.000000
vt 0.375000 0.000000
vt 0.625000 0.000000
vt 0.375000 0.250000
vt 0.625000 0.250000
vt 0.375000 0.500000
vt 0.625000 0.500000
vt 0.375000 0.750000
vt 0.625000 0.750000
vt 0.375000 1.000000
vt 0.625000 1.000000
vt 0.875000 0.000000
vt 0.875000 0.250000
vt 0.125000 0.000000
vt 0.125000 0.250000
vt 0.125000 0.014856
vt 0.375000 0.735144
vt 0.375000 0.014856
vt 0.625000 0.014856
vt 0.625000 0.735144
vt 0.875000 0.014856
vt 0.125000 0.025597
vt 0.375000 0.724403
vt 0.625000 0.724403
vt 0.875000 0.025597
vt 0.625000 0.025597
vt 0.375000 0.025597
vt 0.125000 0.219805
vt 0.375000 0.530195
vt 0.625000 0.530195
vt 0.875000 0.219805
vt 0.625000 0.219805
vt 0.375000 0.219805
vt 0.625000 0.122476
vt 0.625000 0.627524
vt 0.875000 0.122476
vt 0.125000 0.122476
vt 0.375000 0.627524
vt 0.375000 0.122476
vt 0.625000 0.110940
vt 0.625000 0.639060
vt 0.875000 0.110940
vt 0.125000 0.110940
vt 0.375000 0.639060
vt 0.375000 0.110940
vt 0.125000 0.207790
vt 0.375000 0.542210
vt 0.625000 0.542210
vt 0.875000 0.207790
vt 0.625000 0.207790
vt 0.375000 0.207790
vt 0.368248 0.250000
vt 0.375000 0.256752
vt 0.625000 0.256752
vt 0.631752 0.250000
vt 0.631752 0.219805
vt 0.631752 0.207790
vt 0.631752 0.122476
vt 0.631752 0.110940
vt 0.631752 0.025597
vt 0.631752 0.014856
vt 0.625000 0.993248
vt 0.631752 0.000000
vt 0.368248 0.000000
vt 0.375000 0.993248
vt 0.368248 0.014856
vt 0.368248 0.025597
vt 0.368248 0.110940
vt 0.368248 0.122476
vt 0.368248 0.207790
vt 0.368248 0.219805
vt 0.130912 0.000000
vt 0.375000 0.755912
vt 0.625000 0.755912
vt 0.869088 0.000000
vt 0.869088 0.014856
vt 0.869088 0.025597
vt 0.869088 0.110940
vt 0.869088 0.122476
vt 0.869088 0.207790
vt 0.869088 0.219805
vt 0.625000 0.494088
vt 0.869088 0.250000
vt 0.130912 0.250000
vt 0.375000 0.494088
vt 0.130912 0.219805
vt 0.130912 0.207790
vt 0.130912 0.122476
vt 0.130912 0.110940
vt 0.130912 0.025597
vt 0.130912 0.014856
vt 0.375000 0.256752
vt 0.625000 0.256752
vt 0.625000 0.494088
vt 0.375000 0.494088
vt 0.375000 0.755912
vt 0.625000 0.755912
vt 0.625000 0.993248
vt 0.375000 0.993248
vt 0.375000 0.014856
vt 0.625000 0.014856
vt 0.625000 0.025597
vt 0.375000 0.025597
vt 0.375000 0.724403
vt 0.625000 0.724403
vt 0.625000 0.735144
vt 0.375000 0.735144
vt 0.130912 0.025597
vt 0.130912 0.014856
vt 0.368248 0.014856
vt 0.368248 0.025597
vt 0.368248 0.000000
vt 0.130912 0.000000
vt 0.625000 0.000000
vt 0.375000 0.000000
vt 0.869088 0.000000
vt 0.869088 0.014856
vt 0.631752 0.014856
vt 0.631752 0.000000
vt 0.625000 0.750000
vt 0.375000 0.750000
vt 0.375000 0.500000
vt 0.625000 0.500000
vt 0.625000 0.530195
vt 0.375000 0.530195
vt 0.631752 0.250000
vt 0.631752 0.219805
vt 0.869088 0.219805
vt 0.869088 0.250000
vt 0.375000 0.219805
vt 0.625000 0.219805
vt 0.625000 0.250000
vt 0.375000 0.250000
vt 0.130912 0.250000
vt 0.130912 0.219805
vt 0.368248 0.219805
vt 0.368248 0.250000
vt 0.631752 0.207790
vt 0.631752 0.122476
vt 0.869088 0.122476
vt 0.869088 0.207790
vt 0.375000 0.542210
vt 0.625000 0.542210
vt 0.625000 0.627524
vt 0.375000 0.627524
vt 0.130912 0.207790
vt 0.130912 0.122476
vt 0.368248 0.122476
vt 0.368248 0.207790
vt 0.375000 0.122476
vt 0.625000 0.122476
vt 0.625000 0.207790
vt 0.375000 0.207790
vt 0.625000 0.639060
vt 0.375000 0.639060
vt 0.130912 0.110940
vt 0.368248 0.110940
vt 0.375000 0.110940
vt 0.625000 0.110940
vt 0.631752 0.110940
vt 0.631752 0.025597
vt 0.869088 0.025597
vt 0.869088 0.110940
vt 0.625000 1.000000
vt 0.375000 1.000000
vt 0.875000 0.000000
vt 0.875000 0.014856
vt 0.875000 0.025597
vt 0.875000 0.110940
vt 0.875000 0.122476
vt 0.875000 0.207790
vt 0.875000 0.219805
vt 0.875000 0.250000
vt 0.125000 0.219805
vt 0.125000 0.250000
vt 0.125000 0.207790
vt 0.125000 0.122476
vt 0.125000 0.110940
vt 0.125000 0.025597
vt 0.125000 0.014856
vt 0.125000 0.000000
vn 0.000000 1.000000 0.000000
vn 0.000000 1.000000 0.000000
vn 0.000000 1.000000 0.000000
vn 0.000000 1.000000 0.000000
vn 0.000000 -1.000000 0.000000
vn 0.000000 -1.000000 0.000000
vn 0.000000 -1.000000 0.000000
vn 0.000000 -1.000000 0.000000
vn 0.000000 0.000000 1.000000
vn 0.000000 0.000000 1.000000
vn 0.000000 0.000000 1.000000
vn 0.000000 0.000000 1.000000
vn 0.000000 0.000000 -1.000000
vn 0.000000 0.000000 -1.000000
vn 0.000000 0.000000 -1.000000
vn 0.000000 0.000000 -1.000000
vn 1.000000 -0.000000 0.000000
vn 1.000000 -0.000000 0.000000
vn 1.000000 -0.000000 0.000000
vn 1.000000 -0.000000 0.000000
vn 1.000000 0.000000 0.000000
vn 1.000000 0.000000 0.000000
vn 0.000000 0.000000 1.000000
vn 0.000000 0.000000 1.000000
vn -1.000000 0.000000 0.000000
vn -1.000000 0.000000 0.000000
vn -1.000000 0.000000 0.000000
vn -1.000000 0.000000 0.000000
vn 0.000000 0.000000 -1.000000
vn 0.000000 0.000000 -1.000000
vn 0.000000 0.000000 -1.000000
vn 0.000000 0.000000 -1.000000
vn 0.000000 0.000000 -1.000000
vn 0.000000 0.000000 -1.000000
vn -1.000000 -0.000000 0.000000
vn -1.000000 -0.000000 0.000000
vn -1.000000 -0.000000 0.000000
vn -1.000000 -0.000000 0.000000
vn 0.000000 0.000000 1.000000
vn 0.000000 0.000000 1.000000
vn 0.000000 0.000000 1.000000
vn 0.000000 0.000000 1.000000
vn 1.000000 0.000000 0.000000
vn 1.000000 0.000000 0.000000
vn 1.000000 0.000000 0.000000
vn 1.000000 0.000000 0.000000
vn -1.000000 0.000000 0.000000
vn -1.000000 0.000000 0.000000
vn -1.000000 0.000000 0.000000
vn -1.000000 0.000000 0.000000
vn 0.000000 0.000000 -1.000000
vn 0.000000 0.000000 -1.000000
vn 0.000000 0.000000 -1.000000
vn 0.000000 0.000000 -1.000000
vn 1.000000 -0.000000 0.000000
vn 1.000000 -0.000000 0.000000
vn 1.000000 -0.000000 0.000000
vn 1.000000 -0.000000 0.000000
vn 0.000000 0.000000 1.000000
vn 0.000000 0.000000 1.000000
vn 0.000000 0.000000 1.000000
vn 0.000000 0.000000 1.000000
vn 0.000000 0.000000 -1.000000
vn 0.000000 0.000000 -1.000000
vn 1.000000 0.000000 0.000000
vn 1.000000 0.000000 0.000000
vn 0.000000 0.000000 1.000000
vn 0.000000 0.000000 1.000000
vn -1.000000 -0.000000 0.000000
vn -1.000000 -0.000000 0.000000
vn -1.000000 -0.000000 0.000000
vn -1.000000 -0.000000 0.000000
vn 0.000000 1.000000 0.000000
vn 0.000000 1.000000 0.000000
vn -1.000000 0.000000 0.000000
vn -1.000000 0.000000 0.000000
vn -1.000000 0.000000 0.000000
vn -1.000000 0.000000 0.000000
vn -1.000000 0.000000 0.000000
vn -1.000000 0.000000 0.000000
vn -1.000000 -0.000001 0.000000
vn -1.000000 -0.000001 0.000000
vn 0.000000 -1.000000 0.000000
vn 0.000000 -1.000000 0.000000
vn 1.000000 0.000000 0.000000
vn 1.000000 -0.000001 0.000000
vn 1.000000 0.000000 0.000000
vn 1.000000 0.000000 0.000000
vn 1.000000 -0.000000 0.000000
vn 1.000000 -0.000000 0.000000
vn 1.000000 0.000000 0.000000
vn 1.000000 0.000000 0.000000
vn 0.000000 -1.000000 0.000000
vn 0.000000 -1.000000 0.000000
vn -1.000000 0.000000 0.000000
vn -1.000000 0.000000 0.000000
vn -1.000000 0.000000 0.000000
vn -1.000000 -0.000000 0.000000
vn -1.000000 0.000000 0.000000
vn -1.000000 0.000000 0.000000
vn -1.000000 -0.000000 0.000000
vn -1.000000 -0.000000 0.000000
vn 0.000000 1.000000 0.000000
vn 0.000000 1.000000 0.000000
vn 1.000000 0.000000 0.000000
vn 1.000000 0.000000 0.000000
vn 1.000000 0.000000 0.000000
vn 1.000000 0.000000 0.000000
vn 1.000000 0.000000 0.000000
vn 1.000000 0.000000 0.000000
vn 1.000000 0.000000 0.000000
vn 1.000000 0.000000 0.000000
vn 0.000000 -0.000003 1.000000
vn 0.000000 -0.000003 1.000000
vn 0.000000 -0.000003 1.000000
vn 0.000000 -0.000003 1.000000
vn 0.000000 -1.000000 -0.000000
vn 0.000000 -1.000000 -0.000000
vn 0.000000 -1.000000 -0.000000
vn 0.000000 -1.000000 -0.000000
vn 0.000000 -0.000002 -1.000000
vn 0.000000 -0.000002 -1.000000
vn 0.000000 -0.000002 -1.000000
vn 0.000000 -0.000002 -1.000000
vn 0.000000 1.000000 0.000001
vn 0.000000 1.000000 0.000001
vn 0.000000 1.000000 0.000001
vn 0.000000 1.000000 0.000001
vn 0.000000 0.000000 1.000000
vn 0.000000 0.000000 1.000000
vn 0.000000 0.000000 1.000000
vn 0.000000 0.000000 1.000000
vn 0.000000 -1.000000 -0.000000
vn 0.000000 -1.000000 -0.000000
vn 0.000000 -1.000000 -0.000000
vn 0.000000 -1.000000 -0.000000
vn 0.000000 0.000000 -1.000000
vn 0.000000 0.000000 -1.000000
vn 0.000000 0.000000 -1.000000
vn 0.000000 0.000000 -1.000000
vn 0.000000 0.000000 1.000000
vn 0.000000 0.000000 1.000000
vn 0.000000 0.000000 1.000000
vn 0.000000 0.000000 1.000000
vn 0.000000 0.000000 -1.000000
vn 0.000000 0.000000 -1.000000
vn 0.000000 0.000000 -1.000000
vn 0.000000 0.000000 -1.000000
vn 0.000000 1.000000 0.000000
vn 0.000000 1.000000 0.000000
vn 0.000000 1.000000 0.000000
vn 0.000000 1.000000 0.000000
vn 0.000000 1.000000 0.000000
vn 0.000000 1.000000 0.000000
vn 0.000000 1.000000 0.000000
vn 0.000000 1.000000 0.000000
vn 0.000000 -1.000000 0.000000
vn 0.000000 -1.000000 0.000000
vn 0.000000 -1.000000 0.000000
vn 0.000000 -1.000000 0.000000
vn 0.000000 0.000000 1.000000
vn 0.000000 0.000000 1.000000
vn 0.000000 0.000000 1.000000
vn 0.000000 0.000000 1.000000
vn 0.000000 0.000000 -1.000000
vn 0.000000 0.000000 -1.000000
vn 0.000000 0.000000 -1.000000
vn 0.000000 0.000000 -1.000000
vn -1.000000 0.000000 0.000000
vn -1.000000 0.000000 0.000000
vn -1.000000 0.000000 0.000000
vn -1.000000 0.000000 0.000000
vn -1.000000 0.000000 0.000000
vn -1.000000 0.000000 0.000000
vn 0.000000 0.000000 1.000000
vn 0.000000 0.000000 1.000000
vn 1.000000 0.000000 -0.000000
vn 1.000000 0.000000 -0.000000
vn 1.000000 0.000000 0.000000
vn 1.000000 0.000000 0.000000
vn 0.000000 0.000000 -1.000000
vn 0.000000 0.000000 -1.000000
vn 0.000000 0.000000 -1.000000
vn 0.000000 0.000000 -1.000000
vn 0.000000 0.000000 -1.000000
vn 0.000000 0.000000 -1.000000
vn 1.000000 0.000000 0.000000
vn 1.000000 0.000000 0.000000
vn 1.000000 0.000000 -0.000000
vn 1.000000 0.000000 0.000000
vn 0.000000 0.000000 1.000000
vn 0.000000 0.000000 1.000000
vn 0.000000 0.000000 1.000000
vn 0.000000 0.000000 1.000000
vn -1.000000 0.000000 0.000000
vn -1.000000 0.000000 0.000000
vn -1.000000 0.000000 0.000000
vn -1.000000 0.000000 0.000000
vn 1.000000 -0.000000 -0.000000
vn 1.000000 -0.000000 -0.000000
vn 1.000000 -0.000000 -0.000000
vn 1.000000 -0.000000 -0.000000
vn 0.000000 0.000000 -1.000000
vn 0.000000 0.000000 -1.000000
vn 0.000000 0.000000 -1.000000
vn 0.000000 0.000000 -1.000000
vn -1.000000 0.000000 0.000000
vn -1.000000 0.000000 0.000000
vn -1.000000 0.000000 0.000000
vn -1.000000 0.000000 0.000000
vn 0.000000 0.000000 1.000000
vn 0.000000 0.000000 1.000000
vn 0.000000 0.000000 1.000000
vn 0.000000 0.000000 1.000000
vn 0.000000 0.000000 -1.000000
vn 0.000000 0.000000 -1.000000
vn -1.000000 0.000000 0.000000
vn -1.000000 0.000000 0.000000
vn 0.000000 0.000000 1.000000
vn 0.000000 0.000000 1.000000
vn 1.000000 0.000000 0.000000
vn 1.000000 0.000000 0.000000
vn 1.000000 0.000000 -0.000000
vn 1.000000 0.000000 -0.000000
vn 0.000000 1.000000 0.000000
vn 0.000000 1.000000 0.000000
vn 1.000000 0.000000 0.000000
vn 1.000000 0.000000 0.000000
vn 1.000000 0.000000 0.000000
vn 1.000000 0.000000 0.000000
vn 1.000000 0.000000 0.000000
vn 1.000000 0.000000 0.000000
vn 1.000000 0.000000 0.000000
vn 1.000000 0.000000 0.000000
vn 0.000000 -1.000000 0.000000
vn 0.000000 -1.000000 0.000000
vn -1.000000 0.000000 0.000000
vn -1.000000 0.000000 0.000000
vn -1.000000 0.000000 0.000000
vn -1.000000 0.000000 0.000000
vn -1.000000 0.000000 0.000000
vn -1.000000 0.000000 0.000000
vn -1.000000 0.000000 0.000000
vn -1.000000 0.000000 0.000000
vn 0.000000 -1.000000 0.000000
vn 0.000000 -1.000000 0.000000
vn 1.000000 0.000000 -0.000001
vn 1.000000 -0.000000 -0.000001
vn 1.000000 0.000000 -0.000001
vn 1.000000 0.000000 -0.000001
vn 1.000000 -0.000000 -0.000001
vn 1.000000 -0.000000 -0.000001
vn 1.000000 0.000000 -0.000001
vn 1.000000 0.000000 -0.000001
vn 0.000000 1.000000 0.000000
vn 0.000000 1.000000 0.000000
vn -1.000000 0.000000 0.000000
vn -1.000000 0.000000 0.000000
vn -1.000000 0.000000 0.000000
vn -1.000000 0.000000 0.000000
vn -1.000000 0.000000 0.000000
vn -1.000000 0.000000 0.000000
vn -1.000000 0.000000 0.000000
vn -1.000000 0.000000 0.000000
vn 0.000000 1.000000 0.000000
vn 0.000000 1.000000 0.000000
vn 0.000000 1.000000 0.000000
vn 0.000000 1.000000 0.000000
vn 0.000000 -1.000000 -0.000001
vn 0.000000 -1.000000 -0.000001
vn 0.000000 -1.000000 -0.000001
vn 0.000000 -1.000000 -0.000001
s 1
g Shelf_01 Warehouse
usemtl initialShadingGroup
f 33/52/1 58/84/2 57/81/3 34/53/4
s 2
f 49/72/5 42/64/6 41/61/7 50/73/8
s 3
f 10/17/9 16/26/10 15/25/11 11/18/12
s 4
f 13/22/13 9/16/14 12/19/15 14/23/16
s 5
f 63/89/17 44/66/18 43/65/19 64/90/20
f 42/63/21 49/71/22 64/90/20 43/65/19
s 3
f 2/2/23 1/1/24 10/17/9 11/18/12
s 6
f 50/74/25 41/62/26 40/60/27 51/75/28
s 4
f 9/16/14 7/7/29 8/8/30 12/19/15
f 5/5/31 17/28/32 18/29/33 6/6/34
s 6
f 34/54/35 57/82/36 56/80/37 35/55/38
s 3
f 20/32/39 3/3/40 4/4/41 19/31/42
s 5
f 58/83/43 33/51/44 48/70/45 59/85/46
s 6
f 36/56/47 55/79/48 54/78/49 37/57/50
s 4
f 29/46/51 23/37/52 22/34/53 30/47/54
s 5
f 60/86/55 47/69/56 46/68/57 61/87/58
s 3
f 24/38/59 32/50/60 31/49/61 21/33/62
s 4
f 23/37/52 27/43/63 26/40/64 22/34/53
s 5
f 61/87/58 46/68/57 45/67/65 62/88/66
s 3
f 28/44/67 24/38/59 21/33/62 25/39/68
s 6
f 38/58/69 53/77/70 52/76/71 39/59/72
s 4
f 27/43/63 13/22/13 14/23/16 26/40/64
s 5
f 62/88/66 45/67/65 44/66/18 63/89/17
s 3
f 16/26/10 28/44/67 25/39/68 15/25/11
s 4
f 18/29/33 17/28/32 29/46/51 30/47/54
s 3
f 32/50/60 20/32/39 19/31/42 31/49/61
s 5
f 59/85/46 48/70/45 47/69/56 60/86/55
s 1
f 3/3/73 33/52/1 34/53/4 4/4/74
s 6
f 19/31/75 4/4/76 34/54/35 35/55/38
f 31/49/77 19/31/75 35/55/38 36/56/47
f 21/33/78 31/49/77 36/56/47 37/57/50
f 25/39/79 21/33/78 37/57/50 38/58/69
f 15/25/80 25/39/79 38/58/69 39/59/72
f 11/18/81 15/25/80 39/59/72 40/60/27
f 41/62/26 2/2/82 11/18/81 40/60/27
s 2
f 42/64/6 1/9/83 2/10/84 41/61/7
s 5
f 1/1/85 42/63/21 43/65/19 10/17/86
f 44/66/18 16/26/87 10/17/86 43/65/19
f 45/67/65 28/44/88 16/26/87 44/66/18
f 46/68/57 24/38/89 28/44/88 45/67/65
f 47/69/56 32/50/90 24/38/89 46/68/57
f 48/70/45 20/32/91 32/50/90 47/69/56
f 33/51/44 3/3/92 20/32/91 48/70/45
s 2
f 7/7/93 49/72/5 50/73/8 8/8/94
s 6
f 8/11/95 50/74/25 51/75/28 12/20/96
f 52/76/71 14/24/97 12/20/96 51/75/28
f 53/77/70 26/41/98 14/24/97 52/76/71
f 54/78/49 22/35/99 26/41/98 53/77/70
f 55/79/48 30/48/100 22/35/99 54/78/49
f 56/80/37 18/30/101 30/48/100 55/79/48
f 57/82/36 6/12/102 18/30/101 56/80/37
s 1
f 58/84/2 5/5/103 6/6/104 57/81/3
s 5
f 17/27/105 5/14/106 58/83/43 59/85/46
f 29/45/107 17/27/105 59/85/46 60/86/55
f 23/36/108 29/45/107 60/86/55 61/87/58
f 27/42/109 23/36/108 61/87/58 62/88/66
f 13/21/110 27/42/109 62/88/66 63/89/17
f 9/15/111 13/21/110 63/89/17 64/90/20
f 49/71/22 7/13/112 9/15/111 64/90/20
s off
f 40/60/113 39/59/114 103/160/115 104/117/116
f 51/75/117 40/60/118 104/117/119 115/116/120
f 52/76/121 51/75/122 115/116/123 116/161/124
f 39/59/125 52/76/126 116/161/127 103/160/128
f 38/58/129 37/57/130 101/138/131 102/159/132
f 53/77/133 38/58/134 102/159/135 117/162/136
f 54/78/137 53/77/138 117/162/139 118/139/140
f 36/56/141 35/55/142 99/126/143 100/137/144
f 56/80/145 55/79/146 119/140/147 120/127/148
f 35/55/149 56/80/150 120/127/151 99/126/152
s 14
f 97/91/153 98/92/154 121/93/155 122/94/156
s 15
f 113/95/157 114/96/158 105/97/159 106/98/160
s 16
f 74/99/161 75/100/162 79/101/163 80/102/164
s 17
f 77/103/165 78/104/166 76/105/167 73/106/168
s 18
f 127/107/169 128/108/170 107/109/171 108/110/172
f 106/111/173 107/109/171 128/108/170 113/112/174
s 16
f 66/113/175 75/100/162 74/99/161 65/114/176
s 19
f 114/115/177 115/116/178 104/117/179 105/118/180
s 17
f 73/106/168 76/105/167 72/119/181 71/120/182
f 69/121/183 70/122/184 82/123/185 81/124/186
s 19
f 98/125/187 99/126/188 120/127/189 121/128/190
s 16
f 84/129/191 83/130/192 68/131/193 67/132/194
s 18
f 122/133/195 123/134/196 112/135/197 97/136/198
s 19
f 100/137/199 101/138/200 118/139/201 119/140/202
s 17
f 93/141/203 94/142/204 86/143/205 87/144/206
s 18
f 124/145/207 125/146/208 110/147/209 111/148/210
s 16
f 88/149/211 85/150/212 95/151/213 96/152/214
s 17
f 87/144/206 86/143/205 90/153/215 91/154/216
s 18
f 125/146/208 126/155/217 109/156/218 110/147/209
s 16
f 92/157/219 89/158/220 85/150/212 88/149/211
s 19
f 102/159/221 103/160/222 116/161/223 117/162/224
s 17
f 91/154/216 90/153/215 78/104/166 77/103/165
s 18
f 126/155/217 127/107/169 108/110/172 109/156/218
s 16
f 80/102/164 79/101/163 89/158/220 92/157/219
s 17
f 82/123/185 94/142/204 93/141/203 81/124/186
s 16
f 96/152/214 95/151/213 83/130/192 84/129/191
s 18
f 123/134/196 124/145/207 111/148/210 112/135/197
s 14
f 67/132/225 68/131/226 98/92/154 97/91/153
s 19
f 83/130/227 99/126/188 98/125/187 68/131/228
f 95/151/229 100/137/199 99/126/188 83/130/227
f 85/150/230 101/138/200 100/137/199 95/151/229
f 89/158/231 102/159/221 101/138/200 85/150/230
f 79/101/232 103/160/222 102/159/221 89/158/231
f 75/100/233 104/117/179 103/160/222 79/101/232
f 105/118/180 104/117/179 75/100/233 66/113/234
s 15
f 106/98/160 105/97/159 66/163/235 65/164/236
s 18
f 65/114/237 74/99/238 107/109/171 106/111/173
f 108/110/172 107/109/171 74/99/238 80/102/239
f 109/156/218 108/110/172 80/102/239 92/157/240
f 110/147/209 109/156/218 92/157/240 88/149/241
f 111/148/210 110/147/209 88/149/241 96/152/242
f 112/135/197 111/148/210 96/152/242 84/129/243
f 97/136/198 112/135/197 84/129/243 67/132/244
s 15
f 71/120/245 72/119/246 114/96/158 113/95/157
s 19
f 72/165/247 76/166/248 115/116/178 114/115/177
f 116/161/223 115/116/178 76/166/248 78/167/249
f 117/162/224 116/161/223 78/167/249 90/168/250
f 118/139/201 117/162/224 90/168/250 86/169/251
f 119/140/202 118/139/201 86/169/251 94/170/252
f 120/127/189 119/140/202 94/170/252 82/171/253
f 121/128/190 120/127/189 82/171/253 70/172/254
s 14
f 122/94/156 121/93/155 70/122/255 69/121/256
s 18
f 81/173/257 123/134/196 122/133/195 69/174/258
f 93/175/259 124/145/207 123/134/196 81/173/257
f 87/176/260 125/146/208 124/145/207 93/175/259
f 91/177/261 126/155/217 125/146/208 87/176/260
f 77/178/262 127/107/169 126/155/217 91/177/261
f 73/179/263 128/108/170 127/107/169 77/178/262
f 113/112/174 128/108/170 73/179/263 71/180/264
s off
f 54/78/265 118/139/266 101/138/267 37/57/268
f 36/56/269 100/137/270 119/140/271 55/79/272
