# This file uses centimeters as units for non-parametric coordinates.

mtllib Hallway_stairs.mtl
g default
v -6.000000 3.811450 -5.793832
v 0.000000 3.811450 -5.793832
v 0.000000 4.000000 -5.793832
v -6.000000 4.000000 -5.793832
v -6.000000 4.000000 -7.000000
v 0.000000 4.000000 -7.000000
v -6.000000 3.811450 -6.013790
v 0.000000 3.811450 -6.013790
v 0.000000 3.436429 -6.015042
v -6.000000 3.436429 -6.015042
v -6.000000 3.247880 -4.808874
v 0.000000 3.247880 -4.808874
v 0.000000 3.436429 -4.808874
v -6.000000 3.436429 -4.808874
v -6.000000 3.247880 -5.028833
v 0.000000 3.247880 -5.028833
v 0.000000 2.869934 -5.029445
v -6.000000 2.869934 -5.029445
v -6.000000 2.681384 -3.823276
v 0.000000 2.681384 -3.823276
v 0.000000 2.869934 -3.823276
v -6.000000 2.869934 -3.823276
v -6.000000 2.681384 -4.043235
v 0.000000 2.681384 -4.043235
v 0.000000 2.297863 -4.043235
v -6.000000 2.297863 -4.043235
v -6.000000 2.108873 -2.837538
v 0.000000 2.108873 -2.837538
v 0.000000 2.297423 -2.837538
v -6.000000 2.297423 -2.837538
v -6.000000 2.108873 -3.057497
v 0.000000 2.108873 -3.057497
v 0.000000 1.732409 -3.056952
v -6.000000 1.732409 -3.056952
v -6.000000 1.543860 -1.850784
v 0.000000 1.543860 -1.850784
v 0.000000 1.732409 -1.850784
v -6.000000 1.732409 -1.850784
v -6.000000 1.543860 -2.070744
v 0.000000 1.543860 -2.070744
v 0.000000 1.166055 -2.075710
v -6.000000 1.166055 -2.075710
v -6.000000 0.977505 -0.869543
v 0.000000 0.977505 -0.869543
v 0.000000 1.166055 -0.869543
v -6.000000 1.166055 -0.869543
v -6.000000 0.977505 -1.089500
v 0.000000 0.977505 -1.089500
v 0.000000 0.597554 -1.095279
v -6.000000 0.597554 -1.095279
v -6.000000 0.409004 0.219957
v 0.000000 0.409004 0.219957
v 0.000000 0.597554 0.219957
v -6.000000 0.597554 0.219957
v -6.000000 0.409004 0.000000
v 0.000000 0.409004 0.000000
v 0.000000 0.000000 0.000000
v -6.000000 0.000000 0.000000
vt 0.375000 0.000000
vt 0.625000 0.000000
vt 0.625000 0.250000
vt 0.375000 0.250000
vt 0.375000 0.500000
vt 0.625000 0.500000
vt 0.375000 0.917215
vt 0.625000 0.917215
vt 0.625000 1.000000
vt 0.375000 1.000000
vt 0.375000 0.917215
vt 0.625000 0.917215
vt 0.375000 0.000000
vt 0.625000 0.000000
vt 0.625000 0.250000
vt 0.375000 0.250000
vt 0.375000 0.499988
vt 0.625000 0.499984
vt 0.375000 0.917215
vt 0.625000 0.917215
vt 0.625000 1.000000
vt 0.375000 1.000000
vt 0.375000 0.917215
vt 0.625000 0.917215
vt 0.375000 0.000000
vt 0.625000 0.000000
vt 0.625000 0.250000
vt 0.375000 0.250000
vt 0.375000 0.499988
vt 0.625000 0.499984
vt 0.375000 0.917215
vt 0.625000 0.917215
vt 0.625000 1.000000
vt 0.375000 1.000000
vt 0.375000 0.917215
vt 0.625000 0.917215
vt 0.375000 0.000000
vt 0.625000 0.000000
vt 0.625000 0.250000
vt 0.375000 0.250000
vt 0.375000 0.499908
vt 0.625000 0.499905
vt 0.375000 0.917215
vt 0.625000 0.917215
vt 0.625000 1.000000
vt 0.375000 1.000000
vt 0.375000 0.917215
vt 0.625000 0.917215
vt 0.375000 0.000000
vt 0.625000 0.000000
vt 0.625000 0.250000
vt 0.375000 0.250000
vt 0.375000 0.499988
vt 0.625000 0.499984
vt 0.375000 0.917215
vt 0.625000 0.917215
vt 0.625000 1.000000
vt 0.375000 1.000000
vt 0.375000 0.917215
vt 0.625000 0.917215
vt 0.375000 0.000000
vt 0.625000 0.000000
vt 0.625000 0.250000
vt 0.375000 0.250000
vt 0.375000 0.499988
vt 0.625000 0.499984
vt 0.375000 0.917215
vt 0.625000 0.917215
vt 0.625000 1.000000
vt 0.375000 1.000000
vt 0.375000 0.917215
vt 0.625000 0.917215
vt 0.375000 0.000000
vt 0.625000 0.000000
vt 0.625000 0.250000
vt 0.375000 0.250000
vt 0.375000 0.499988
vt 0.625000 0.499984
vt 0.375000 0.917215
vt 0.625000 0.917215
vt 0.625000 1.000000
vt 0.375000 1.000000
vt 0.375000 0.917215
vt 0.625000 0.917215
vn 0.000000 0.000000 1.000000
vn 0.000000 0.000000 1.000000
vn 0.000000 0.000000 1.000000
vn 0.000000 0.000000 1.000000
vn 0.000000 1.000000 0.000000
vn 0.000000 1.000000 0.000000
vn 0.000000 1.000000 0.000000
vn 0.000000 1.000000 0.000000
vn 0.000000 -1.000000 0.000000
vn 0.000000 -1.000000 0.000000
vn 0.000000 -1.000000 0.000000
vn 0.000000 -1.000000 0.000000
vn 0.000000 0.000000 1.000000
vn 0.000000 0.000000 1.000000
vn 0.000000 0.000000 1.000000
vn 0.000000 0.000000 1.000000
vn 0.000000 0.000000 1.000000
vn 0.000000 0.000000 1.000000
vn 0.000000 0.000000 1.000000
vn 0.000000 0.000000 1.000000
vn 0.000000 1.000000 0.000000
vn 0.000000 1.000000 0.000000
vn 0.000000 1.000000 0.000000
vn 0.000000 1.000000 0.000000
vn 0.000000 -1.000000 0.000000
vn 0.000000 -1.000000 0.000000
vn 0.000000 -1.000000 0.000000
vn 0.000000 -1.000000 0.000000
vn 0.000000 0.000000 1.000000
vn 0.000000 0.000000 1.000000
vn 0.000000 0.000000 1.000000
vn 0.000000 0.000000 1.000000
vn 0.000000 0.000000 1.000000
vn 0.000000 0.000000 1.000000
vn 0.000000 0.000000 1.000000
vn 0.000000 0.000000 1.000000
vn 0.000000 1.000000 0.000000
vn 0.000000 1.000000 0.000000
vn 0.000000 1.000000 0.000000
vn 0.000000 1.000000 0.000000
vn 0.000000 -1.000000 0.000000
vn 0.000000 -1.000000 0.000000
vn 0.000000 -1.000000 0.000000
vn 0.000000 -1.000000 0.000000
vn 0.000000 0.000000 1.000000
vn 0.000000 0.000000 1.000000
vn 0.000000 0.000000 1.000000
vn 0.000000 0.000000 1.000000
vn 0.000000 0.000000 1.000000
vn 0.000000 0.000000 1.000000
vn 0.000000 0.000000 1.000000
vn 0.000000 0.000000 1.000000
vn 0.000000 1.000000 0.000000
vn 0.000000 1.000000 0.000000
vn 0.000000 1.000000 0.000000
vn 0.000000 1.000000 0.000000
vn 0.000000 -1.000000 0.000000
vn 0.000000 -1.000000 0.000000
vn 0.000000 -1.000000 0.000000
vn 0.000000 -1.000000 0.000000
vn 0.000000 0.000000 1.000000
vn 0.000000 0.000000 1.000000
vn 0.000000 0.000000 1.000000
vn 0.000000 0.000000 1.000000
vn 0.000000 0.000000 1.000000
vn 0.000000 0.000000 1.000000
vn 0.000000 0.000000 1.000000
vn 0.000000 0.000000 1.000000
vn 0.000000 1.000000 0.000000
vn 0.000000 1.000000 0.000000
vn 0.000000 1.000000 0.000000
vn 0.000000 1.000000 0.000000
vn 0.000000 -1.000000 0.000000
vn 0.000000 -1.000000 0.000000
vn 0.000000 -1.000000 0.000000
vn 0.000000 -1.000000 0.000000
vn 0.000000 0.000000 1.000000
vn 0.000000 0.000000 1.000000
vn 0.000000 0.000000 1.000000
vn 0.000000 0.000000 1.000000
vn 0.000000 0.000000 1.000000
vn 0.000000 0.000000 1.000000
vn 0.000000 0.000000 1.000000
vn 0.000000 0.000000 1.000000
vn 0.000000 1.000000 0.000000
vn 0.000000 1.000000 0.000000
vn 0.000000 1.000000 0.000000
vn 0.000000 1.000000 0.000000
vn 0.000000 -1.000000 0.000000
vn 0.000000 -1.000000 0.000000
vn 0.000000 -1.000000 0.000000
vn 0.000000 -1.000000 0.000000
vn 0.000000 0.000000 1.000000
vn 0.000000 0.000000 1.000000
vn 0.000000 0.000000 1.000000
vn 0.000000 0.000000 1.000000
vn 0.000000 0.000000 1.000000
vn 0.000000 0.000000 1.000000
vn 0.000000 0.000000 1.000000
vn 0.000000 0.000000 1.000000
vn 0.000000 1.000000 0.000000
vn 0.000000 1.000000 0.000000
vn 0.000000 1.000000 0.000000
vn 0.000000 1.000000 0.000000
vn 0.000000 -1.000000 0.000000
vn 0.000000 -1.000000 0.000000
vn 0.000000 -1.000000 0.000000
vn 0.000000 -1.000000 0.000000
vn 0.000000 0.000000 1.000000
vn 0.000000 0.000000 1.000000
vn 0.000000 0.000000 1.000000
vn 0.000000 0.000000 1.000000
s off
g Hallway_stairs2
usemtl Hallway_stairs1:initialShadingGroup
f 1/1/1 2/2/2 3/3/3 4/4/4
f 5/5/5 4/4/6 3/3/7 6/6/8
f 7/7/9 8/8/10 2/9/11 1/10/12
f 8/8/13 7/7/14 10/11/15 9/12/16
f 11/13/17 12/14/18 13/15/19 14/16/20
f 10/17/21 14/16/22 13/15/23 9/18/24
f 15/19/25 16/20/26 12/21/27 11/22/28
f 16/20/29 15/19/30 18/23/31 17/24/32
f 19/25/33 20/26/34 21/27/35 22/28/36
f 18/29/37 22/28/38 21/27/39 17/30/40
f 23/31/41 24/32/42 20/33/43 19/34/44
f 24/32/45 23/31/46 26/35/47 25/36/48
f 27/37/49 28/38/50 29/39/51 30/40/52
f 26/41/53 30/40/54 29/39/55 25/42/56
f 31/43/57 32/44/58 28/45/59 27/46/60
f 32/44/61 31/43/62 34/47/63 33/48/64
f 35/49/65 36/50/66 37/51/67 38/52/68
f 34/53/69 38/52/70 37/51/71 33/54/72
f 39/55/73 40/56/74 36/57/75 35/58/76
f 40/56/77 39/55/78 42/59/79 41/60/80
f 43/61/81 44/62/82 45/63/83 46/64/84
f 42/65/85 46/64/86 45/63/87 41/66/88
f 47/67/89 48/68/90 44/69/91 43/70/92
f 48/68/93 47/67/94 50/71/95 49/72/96
f 51/73/97 52/74/98 53/75/99 54/76/100
f 50/77/101 54/76/102 53/75/103 49/78/104
f 55/79/105 56/80/106 52/81/107 51/82/108
f 56/80/109 55/79/110 58/83/111 57/84/112
