# This file uses centimeters as units for non-parametric coordinates.

mtllib Hallway_roof.mtl
g default
v 0.000000 0.000000 -6.000000
v 0.000000 0.000000 0.000000
v -6.000000 0.000000 0.000000
v -6.000000 0.000000 -6.000000
v -1.500000 0.000000 0.000000
v -1.500000 0.000000 -6.000000
v -4.500000 0.000000 -6.000000
v -4.500000 0.000000 0.000000
v -5.625000 0.000000 -6.000000
v -5.625000 0.000000 0.000000
v -0.375000 0.000000 0.000000
v -0.375000 0.000000 -6.000000
v 0.000000 0.000000 -5.625000
v -0.375000 0.000000 -5.625000
v -1.500000 0.000000 -5.625000
v -4.500000 0.000000 -5.625000
v -5.625000 0.000000 -5.625000
v -6.000000 0.000000 -5.625000
v -6.000000 0.000000 -0.375000
v -5.625000 0.000000 -0.375000
v -4.500000 0.000000 -0.375000
v -1.500000 0.000000 -0.375000
v -0.375000 0.000000 -0.375000
v 0.000000 0.000000 -0.375000
v -2.250000 0.000000 -6.000000
v -2.250000 0.000000 -5.625000
v -2.250000 0.000000 -0.375000
v -2.250000 0.000000 0.000000
v -3.750000 0.000000 0.000000
v -3.750000 0.000000 -0.375000
v -3.750000 0.000000 -5.625000
v -3.750000 0.000000 -6.000000
v -0.375000 0.200001 -5.625000
v -1.500000 0.200001 -5.625000
v -1.500000 0.200001 -0.375000
v -0.375000 0.200001 -0.375000
v -2.250000 0.200001 -5.625000
v -3.750000 0.200001 -5.625000
v -3.750000 0.200001 -0.375000
v -2.250000 0.200001 -0.375000
v -4.500000 0.200001 -5.625000
v -5.625000 0.200001 -5.625000
v -5.625000 0.200001 -0.375000
v -4.500000 0.200001 -0.375000
vt 0.609375 0.500000
vt 0.609941 0.496740
vt 0.625647 0.496740
vt 0.625000 0.500000
vt 0.634701 0.451108
vt 0.617864 0.451108
vt 0.618430 0.447848
vt 0.635348 0.447848
vt 0.374353 0.496740
vt 0.390059 0.496740
vt 0.390625 0.500000
vt 0.375000 0.500000
vt 0.364652 0.447848
vt 0.381571 0.447848
vt 0.382136 0.451108
vt 0.365299 0.451108
vt 0.387230 0.480443
vt 0.371119 0.480443
vt 0.368533 0.467405
vt 0.384966 0.467405
vt 0.631468 0.467405
vt 0.628881 0.480443
vt 0.612770 0.480443
vt 0.615034 0.467405
vt 0.632761 0.460886
vt 0.616166 0.460886
vt 0.367239 0.460886
vt 0.383834 0.460886
vt 0.372413 0.486962
vt 0.388361 0.486962
vt 0.627587 0.486962
vt 0.611639 0.486962
vt 0.382136 0.451108
vt 0.617864 0.451108
vt 0.616166 0.460886
vt 0.383834 0.460886
vt 0.612770 0.480443
vt 0.387230 0.480443
vt 0.384966 0.467405
vt 0.615034 0.467405
vt 0.609941 0.496740
vt 0.390059 0.496740
vt 0.388361 0.486962
vt 0.611639 0.486962
vt 0.434266 0.467405
vt 0.434266 0.467405
vt 0.436207 0.486962
vt 0.436207 0.486962
vt 0.433619 0.460886
vt 0.500000 0.480443
vt 0.500000 0.480443
vt 0.433619 0.460886
vt 0.500000 0.486962
vt 0.401399 0.467405
vt 0.401399 0.467405
vt 0.500000 0.486962
vt 0.400429 0.460886
vt 0.435560 0.480443
vt 0.435560 0.480443
vt 0.400429 0.460886
vt 0.595690 0.486962
vt 0.595690 0.486962
vt 0.610507 0.493481
vt 0.610507 0.493481
vt 0.403340 0.480443
vt 0.403340 0.480443
vt 0.386098 0.473924
vt 0.386098 0.473924
vt 0.609941 0.496740
vt 0.609941 0.496740
vt 0.615034 0.467405
vt 0.615034 0.467405
vt 0.609941 0.496740
vt 0.609941 0.496740
vt 0.612770 0.480443
vt 0.612770 0.480443
vt 0.612770 0.480443
vt 0.615034 0.467405
vt 0.615034 0.467405
vt 0.612770 0.480443
vt 0.384966 0.467405
vt 0.384966 0.467405
vt 0.390059 0.496740
vt 0.390059 0.496740
vt 0.384966 0.467405
vt 0.384966 0.467405
vt 0.388361 0.486962
vt 0.388361 0.486962
vt 0.388361 0.486962
vt 0.390059 0.496740
vt 0.390059 0.496740
vt 0.388361 0.486962
vn 0.000000 -1.000000 0.000000
vn 0.000000 -1.000000 0.000000
vn 0.000000 -1.000000 0.000000
vn 0.000000 -1.000000 0.000000
vn 0.000000 -1.000000 0.000000
vn 0.000000 -1.000000 0.000000
vn 0.000000 -1.000000 0.000000
vn 0.000000 -1.000000 0.000000
vn 0.000000 -1.000000 0.000000
vn 0.000000 -1.000000 0.000000
vn 0.000000 -1.000000 0.000000
vn 0.000000 -1.000000 0.000000
vn 0.000000 -1.000000 0.000000
vn 0.000000 -1.000000 0.000000
vn 0.000000 -1.000000 0.000000
vn 0.000000 -1.000000 0.000000
vn 0.000000 -1.000000 0.000000
vn 0.000000 -1.000000 0.000000
vn 0.000000 -1.000000 0.000000
vn 0.000000 -1.000000 0.000000
vn 0.000000 -1.000000 0.000000
vn 0.000000 -1.000000 0.000000
vn 0.000000 -1.000000 0.000000
vn 0.000000 -1.000000 0.000000
vn 0.000000 -1.000000 0.000000
vn 0.000000 -1.000000 0.000000
vn 0.000000 -1.000000 0.000000
vn 0.000000 -1.000000 0.000000
vn 0.000000 -1.000000 0.000000
vn 0.000000 -1.000000 0.000000
vn 0.000000 -1.000000 0.000000
vn 0.000000 -1.000000 0.000000
vn 0.000000 -1.000000 0.000000
vn 0.000000 -1.000000 0.000000
vn 0.000000 -1.000000 0.000000
vn 0.000000 -1.000000 0.000000
vn 0.000000 -1.000000 0.000000
vn 0.000000 -1.000000 0.000000
vn 0.000000 -1.000000 0.000000
vn 0.000000 -1.000000 0.000000
vn 0.000000 -1.000000 0.000000
vn 0.000000 -1.000000 0.000000
vn 0.000000 -1.000000 0.000000
vn 0.000000 -1.000000 0.000000
vn 0.000000 -1.000000 0.000000
vn 0.000000 -1.000000 0.000000
vn 0.000000 -1.000000 0.000000
vn 0.000000 -1.000000 0.000000
vn 0.000000 -1.000000 0.000000
vn 0.000000 -1.000000 0.000000
vn 0.000000 -1.000000 0.000000
vn 0.000000 -1.000000 0.000000
vn 0.000000 -1.000000 0.000000
vn 0.000000 -1.000000 0.000000
vn 0.000000 -1.000000 0.000000
vn 0.000000 -1.000000 0.000000
vn 0.000000 -1.000000 0.000000
vn 0.000000 -1.000000 0.000000
vn 0.000000 -1.000000 0.000000
vn 0.000000 -1.000000 0.000000
vn 0.000000 -1.000000 0.000000
vn 0.000000 -1.000000 0.000000
vn 0.000000 -1.000000 0.000000
vn 0.000000 -1.000000 0.000000
vn 0.000000 -1.000000 0.000000
vn 0.000000 -1.000000 0.000000
vn 0.000000 -1.000000 0.000000
vn 0.000000 -1.000000 0.000000
vn 0.000000 -1.000000 0.000000
vn 0.000000 -1.000000 0.000000
vn 0.000000 -1.000000 0.000000
vn 0.000000 -1.000000 0.000000
vn 0.000000 -1.000000 0.000000
vn 0.000000 -1.000000 0.000000
vn 0.000000 -1.000000 0.000000
vn 0.000000 -1.000000 0.000000
vn 0.000000 -1.000000 0.000000
vn 0.000000 -1.000000 0.000000
vn 0.000000 -1.000000 0.000000
vn 0.000000 -1.000000 0.000000
vn 0.000000 -1.000000 0.000000
vn 0.000000 -1.000000 0.000000
vn 0.000000 -1.000000 0.000000
vn 0.000000 -1.000000 0.000000
vn -1.000000 0.000000 0.000000
vn -1.000000 0.000000 0.000000
vn -1.000000 0.000000 0.000000
vn -1.000000 0.000000 0.000000
vn 0.000000 0.000000 1.000000
vn 0.000000 0.000000 1.000000
vn 0.000000 0.000000 1.000000
vn 0.000000 0.000000 1.000000
vn 1.000000 0.000000 0.000000
vn 1.000000 0.000000 0.000000
vn 1.000000 0.000000 0.000000
vn 1.000000 0.000000 0.000000
vn -0.000000 0.000000 -1.000000
vn -0.000000 0.000000 -1.000000
vn -0.000000 0.000000 -1.000000
vn -0.000000 0.000000 -1.000000
vn -1.000000 0.000000 0.000000
vn -1.000000 0.000000 0.000000
vn -1.000000 0.000000 0.000000
vn -1.000000 0.000000 0.000000
vn 0.000000 0.000000 1.000000
vn 0.000000 0.000000 1.000000
vn 0.000000 0.000000 1.000000
vn 0.000000 0.000000 1.000000
vn 1.000000 0.000000 0.000000
vn 1.000000 0.000000 0.000000
vn 1.000000 0.000000 0.000000
vn 1.000000 0.000000 0.000000
vn -0.000000 0.000000 -1.000000
vn -0.000000 0.000000 -1.000000
vn -0.000000 0.000000 -1.000000
vn -0.000000 0.000000 -1.000000
vn -1.000000 0.000000 0.000000
vn -1.000000 0.000000 0.000000
vn -1.000000 0.000000 0.000000
vn -1.000000 0.000000 0.000000
vn 0.000000 0.000000 1.000000
vn 0.000000 0.000000 1.000000
vn 0.000000 0.000000 1.000000
vn 0.000000 0.000000 1.000000
vn 1.000000 0.000000 0.000000
vn 1.000000 0.000000 0.000000
vn 1.000000 0.000000 0.000000
vn 1.000000 0.000000 0.000000
vn -0.000000 0.000000 -1.000000
vn -0.000000 0.000000 -1.000000
vn -0.000000 0.000000 -1.000000
vn -0.000000 0.000000 -1.000000
s off
g Hallway_roof1
usemtl Server_room_wall_door_large:initialShadingGroup20
f 13/1/1 14/2/2 12/3/3 1/4/4
f 9/5/5 17/6/6 18/7/7 4/8/8
f 11/9/9 23/10/10 24/11/11 2/12/12
f 3/13/13 19/14/14 20/15/15 10/16/16
f 27/17/17 28/18/18 29/19/19 30/20/20
f 32/21/21 25/22/22 26/23/23 31/24/24
f 17/6/25 9/5/26 7/25/27 16/26/28
f 8/27/29 10/16/30 20/15/31 21/28/32
f 23/10/33 11/9/34 5/29/35 22/30/36
f 6/31/37 12/3/38 14/2/39 15/32/40
f 19/14/41 18/7/42 17/6/43 20/15/44
f 43/33/45 42/34/46 41/35/47 44/36/48
f 37/37/49 40/38/50 39/39/51 38/40/52
f 33/41/53 36/42/54 35/43/55 34/44/56
f 13/1/57 24/11/58 23/10/59 14/2/60
f 6/31/61 15/32/62 26/23/63 25/22/64
f 22/30/65 27/17/66 26/23/67 15/32/68
f 28/18/69 27/17/70 22/30/71 5/29/72
f 8/27/73 21/28/74 30/20/75 29/19/76
f 16/26/77 31/24/78 30/20/79 21/28/80
f 32/21/81 31/24/82 16/26/83 7/25/84
f 33/45/85 14/46/86 23/47/87 36/48/88
f 33/49/89 34/50/90 15/51/91 14/52/92
f 34/53/93 35/54/94 22/55/95 15/56/96
f 35/57/97 36/58/98 23/59/99 22/60/100
f 37/69/101 26/70/102 27/71/103 40/72/104
f 37/73/105 38/61/106 31/62/107 26/74/108
f 39/75/109 30/76/110 31/63/111 38/64/112
f 39/77/113 40/78/114 27/79/115 30/80/116
f 41/81/117 16/82/118 21/83/119 44/84/120
f 41/85/121 42/65/122 17/66/123 16/86/124
f 42/67/125 43/87/126 20/88/127 17/68/128
f 43/89/129 44/90/130 21/91/131 20/92/132
