# This file uses centimeters as units for non-parametric coordinates.

mtllib Server_room_wall_back.mtl
g default
v -8.000000 0.000000 0.000000
v 0.000000 0.000000 0.000000
v 0.000000 6.000000 0.000000
v -8.000000 6.000000 0.000000
vt 0.364652 0.447848
vt 0.635348 0.447848
vt 0.625000 0.500000
vt 0.375000 0.500000
vn 0.000000 0.000000 1.000000
vn 0.000000 0.000000 1.000000
vn 0.000000 0.000000 1.000000
vn 0.000000 0.000000 1.000000
s off
g Server_room_wall_back1
usemtl Server_room_wall_door_large:initialShadingGroup20
f 3/1/1 4/2/2 1/3/3 2/4/4
