# This file uses centimeters as units for non-parametric coordinates.

mtllib Server_room_roof_lip_small.mtl
g default
v -4.000000 1.000000 -8.000000
v -0.388157 -0.000000 -8.000000
v -0.388157 -0.000000 0.000000
v -4.000000 1.000000 -4.000000
v -8.000000 0.000000 0.000000
v -8.000000 1.000000 -4.000000
v -2.000000 -0.000000 -8.000000
v -2.000000 -0.000000 -2.000000
v -8.000000 0.000000 -2.000000
v -3.000000 1.000000 -3.000000
v -8.000000 1.000000 -3.000000
v -3.000000 1.000000 -8.000000
v -8.000000 0.250000 -2.250000
v -2.250000 0.250000 -2.250000
v -2.250000 0.250000 -8.000000
v -0.388157 -0.000000 -7.000000
v -2.000000 -0.000000 -7.000000
v -2.250000 0.250000 -7.000000
v -3.000000 1.000000 -7.000000
v -4.000000 1.000000 -7.000000
v -7.000000 0.000000 0.000000
v -7.000000 0.000000 -2.000000
v -7.000000 0.250000 -2.250000
v -7.000000 1.000000 -3.000000
v -7.000000 1.000000 -4.000000
v -4.000000 1.000000 -4.500000
v -3.000000 1.000000 -4.500000
v -2.250000 0.250000 -4.500000
v -2.000000 -0.000000 -4.500000
v -0.388157 -0.000000 -4.500000
v -4.500000 -0.000000 0.000000
v -4.500000 -0.000000 -2.000000
v -4.500000 0.250000 -2.250000
v -4.500000 1.000000 -3.000000
v -4.500000 1.000000 -4.000000
v -2.320709 0.179289 -7.000000
v -3.070709 0.929289 -7.000000
v -3.070709 0.929289 -4.500000
v -2.320709 0.179289 -4.500000
v -7.000000 0.179289 -2.320711
v -7.000000 0.929289 -3.070711
v -4.500000 0.179289 -2.320711
v -4.500000 0.929289 -3.070711
v -2.391422 0.249999 -6.900002
v -2.999996 0.858578 -6.900002
v -2.999996 0.858578 -4.600000
v -2.391422 0.249999 -4.600000
v -6.900000 0.250000 -2.391422
v -6.900000 0.858578 -3.000000
v -4.600002 0.250000 -2.391422
v -4.600002 0.858578 -3.000000
v -2.356068 0.285355 -6.900002
v -2.964642 0.893932 -6.900002
v -2.964642 0.893932 -4.600000
v -2.356068 0.285355 -4.600000
v -6.900000 0.285355 -2.356068
v -6.900000 0.893934 -2.964645
v -4.600002 0.285355 -2.356068
v -4.600002 0.893934 -2.964645
vt 0.625000 0.500000
vt 0.375000 0.500000
vt 0.365932 0.447849
vt 0.630174 0.473924
vt 0.000000 0.000000
vt 0.999974 -0.999991
vt 1.000000 1.000000
vt 0.000000 1.000000
vt 0.500000 0.500000
vt 0.499717 0.460886
vt 0.500009 -0.499995
vt 0.500000 1.000000
vt 0.565468 0.467405
vt 0.249991 -0.249996
vt 0.250000 1.000000
vt 0.562500 0.500000
vt 0.437500 1.000000
vt 0.437504 -0.437496
vt 0.516155 0.462516
vt 0.515625 0.500000
vt 0.372733 0.486962
vt 0.499929 0.490222
vt 0.515757 0.490629
vt 0.563242 0.491851
vt 0.626294 0.493481
vt 0.564726 0.475554
vt 0.437502 0.281252
vt 0.437503 -0.078122
vt 0.249993 0.062503
vt 0.999993 0.500002
vt 0.500002 0.625001
vt 0.437501 0.640626
vt 0.375000 0.656251
vt 0.249998 0.687501
vt 0.000000 0.750000
vt 0.629527 0.477183
vt 0.565097 0.471480
vt 0.532425 0.468627
vt 0.516088 0.467201
vt 0.499752 0.465775
vt 0.367065 0.454367
vt 0.999977 -0.749992
vt 0.500008 -0.312496
vt 0.437504 -0.257809
vt 0.249992 -0.093747
vt 0.000000 0.125000
vt 0.515757 0.490629
vt 0.563242 0.491851
vt 0.564726 0.475554
vt 0.375000 0.656251
vt 0.437502 0.281252
vt 0.249998 0.687501
vt 0.437503 -0.078122
vt 0.249993 0.062503
vt 0.532425 0.468627
vt 0.437504 -0.257809
vt 0.249992 -0.093747
vt 0.515757 0.490629
vt 0.563242 0.491851
vt 0.564726 0.475554
vt 0.375000 0.656251
vt 0.437502 0.281252
vt 0.249998 0.687501
vt 0.437503 -0.078122
vt 0.249993 0.062503
vt 0.532425 0.468627
vt 0.437504 -0.257809
vt 0.249992 -0.093747
vt 0.515757 0.490629
vt 0.563242 0.491851
vt 0.564726 0.475554
vt 0.437501 0.640626
vt 0.375000 0.656251
vt 0.437502 0.281252
vt 0.249998 0.687501
vt 0.437503 -0.078122
vt 0.249993 0.062503
vt 0.565097 0.471480
vt 0.532425 0.468627
vt 0.516088 0.467201
vt 0.437504 -0.257809
vt 0.249992 -0.093747
vt 0.249998 0.687501
vt 0.249998 0.687501
vt 0.249998 0.687501
vt 0.249998 0.687501
vn -0.000000 -1.000000 0.000000
vn -0.000000 -1.000000 0.000000
vn -0.000000 -1.000000 0.000000
vn -0.000000 -1.000000 -0.000000
vn -0.000000 -1.000000 0.000000
vn -0.000000 -1.000000 0.000000
vn -0.000000 -1.000000 0.000000
vn -0.000000 -1.000000 0.000000
vn -0.000000 -1.000000 0.000000
vn -0.000000 -1.000000 -0.000000
vn -0.000000 -1.000000 0.000000
vn -0.000000 -1.000000 0.000000
vn -0.000000 -1.000000 0.000000
vn -0.000000 -1.000000 0.000000
vn -0.000000 -1.000000 0.000000
vn -0.000000 -1.000000 0.000000
vn -0.000000 -0.707107 -0.707107
vn -0.000000 -0.707107 -0.707107
vn -0.000000 -0.707107 -0.707107
vn -0.000000 -0.707107 -0.707107
vn -0.707107 -0.707107 0.000000
vn -0.707107 -0.707107 0.000000
vn -0.707107 -0.707107 0.000000
vn -0.707107 -0.707107 0.000000
vn -0.000000 -0.707107 -0.707107
vn -0.000000 -0.707107 -0.707107
vn -0.000000 -0.707107 -0.707107
vn -0.000000 -0.707107 -0.707107
vn -0.707107 -0.707107 0.000000
vn -0.707107 -0.707107 0.000000
vn -0.707107 -0.707107 0.000000
vn -0.707107 -0.707107 0.000000
vn -0.000000 -1.000000 0.000000
vn -0.000000 -1.000000 0.000000
vn -0.000000 -1.000000 0.000000
vn -0.000000 -1.000000 0.000000
vn -0.707107 -0.707107 0.000000
vn -0.707107 -0.707107 0.000000
vn -0.707107 -0.707107 0.000000
vn -0.707107 -0.707107 0.000000
vn -0.707108 -0.707106 0.000000
vn -0.707108 -0.707106 0.000000
vn -0.707108 -0.707106 0.000000
vn -0.707108 -0.707106 0.000000
vn -0.000000 -1.000000 0.000000
vn -0.000000 -1.000000 0.000000
vn -0.000000 -1.000000 0.000000
vn -0.000000 -1.000000 0.000000
vn -0.000000 -1.000000 0.000000
vn -0.000000 -1.000000 0.000000
vn -0.000000 -1.000000 0.000000
vn -0.000000 -1.000000 0.000000
vn -0.000000 -0.707107 -0.707107
vn -0.000000 -0.707107 -0.707107
vn -0.000000 -0.707107 -0.707107
vn -0.000000 -0.707107 -0.707107
vn -0.000000 -0.707107 -0.707107
vn -0.000000 -0.707107 -0.707107
vn -0.000000 -0.707107 -0.707107
vn -0.000000 -0.707107 -0.707107
vn -0.000000 -1.000000 0.000000
vn -0.000000 -1.000000 0.000000
vn -0.000000 -1.000000 0.000000
vn -0.000000 -1.000000 0.000000
vn -0.000000 -1.000000 0.000000
vn -0.000000 -1.000000 0.000000
vn -0.000000 -1.000000 0.000000
vn -0.000000 -1.000000 0.000000
vn -0.707109 -0.707104 0.000000
vn -0.707109 -0.707104 0.000000
vn -0.707109 -0.707104 0.000000
vn -0.707109 -0.707104 0.000000
vn -0.707107 -0.707107 0.000000
vn -0.707107 -0.707107 0.000000
vn -0.707107 -0.707107 0.000000
vn -0.707107 -0.707107 0.000000
vn -0.000000 -1.000000 0.000000
vn -0.000000 -1.000000 0.000000
vn -0.000000 -1.000000 0.000000
vn -0.000000 -1.000000 0.000000
vn -0.000000 -1.000000 0.000000
vn -0.000000 -1.000000 0.000000
vn -0.000000 -1.000000 0.000000
vn -0.000000 -1.000000 0.000000
vn -0.000000 -0.707107 -0.707107
vn -0.000000 -0.707107 -0.707107
vn -0.000000 -0.707107 -0.707107
vn -0.000000 -0.707107 -0.707107
vn -0.000000 -0.707106 -0.707108
vn -0.000000 -0.707106 -0.707108
vn -0.000000 -0.707106 -0.707108
vn -0.000000 -0.707106 -0.707108
vn -0.000000 -1.000000 0.000000
vn -0.000000 -1.000000 0.000000
vn -0.000000 -1.000000 0.000000
vn -0.000000 -1.000000 0.000000
vn 0.707116 -0.707097 0.000000
vn 0.707116 -0.707097 0.000000
vn 0.707116 -0.707097 0.000000
vn 0.707116 -0.707097 0.000000
vn -0.000000 0.000000 -1.000000
vn -0.000000 0.000000 -1.000000
vn -0.000000 0.000000 -1.000000
vn -0.000000 0.000000 -1.000000
vn -0.707116 0.707097 0.000000
vn -0.707116 0.707097 0.000000
vn -0.707116 0.707097 0.000000
vn -0.707116 0.707097 0.000000
vn 0.000000 0.000000 1.000000
vn 0.000000 0.000000 1.000000
vn 0.000000 0.000000 1.000000
vn 0.000000 0.000000 1.000000
vn -1.000000 0.000000 0.000000
vn -1.000000 0.000000 0.000000
vn -1.000000 0.000000 0.000000
vn -1.000000 0.000000 0.000000
vn 0.000000 0.707107 -0.707107
vn 0.000000 0.707107 -0.707107
vn 0.000000 0.707107 -0.707107
vn 0.000000 0.707107 -0.707107
vn -0.000000 -0.707109 0.707105
vn -0.000000 -0.707109 0.707105
vn -0.000000 -0.707109 0.707105
vn -0.000000 -0.707109 0.707105
vn 1.000000 -0.000000 0.000000
vn 1.000000 -0.000000 0.000000
vn 1.000000 -0.000000 0.000000
vn 1.000000 -0.000000 0.000000
vn -0.707099 -0.707115 0.000000
vn -0.707099 -0.707115 0.000000
vn -0.707099 -0.707115 0.000000
vn -0.707099 -0.707115 0.000000
vn -0.707112 -0.707102 -0.000004
vn -0.707112 -0.707102 -0.000004
vn -0.707112 -0.707102 -0.000004
vn -0.707112 -0.707102 -0.000004
vn -0.707104 -0.707110 0.000000
vn -0.707104 -0.707110 0.000000
vn -0.707104 -0.707110 0.000000
vn -0.707104 -0.707110 0.000000
vn -0.707106 -0.707108 0.000002
vn -0.707106 -0.707108 0.000002
vn -0.707106 -0.707108 0.000002
vn -0.707106 -0.707108 0.000002
vn -0.000000 -0.707092 -0.707121
vn -0.000000 -0.707092 -0.707121
vn -0.000000 -0.707092 -0.707121
vn -0.000000 -0.707092 -0.707121
vn -0.000000 -0.707110 -0.707104
vn -0.000000 -0.707110 -0.707104
vn -0.000000 -0.707110 -0.707104
vn -0.000000 -0.707110 -0.707104
vn -0.000000 -0.707110 -0.707104
vn -0.000000 -0.707110 -0.707104
vn -0.000000 -0.707110 -0.707104
vn -0.000000 -0.707110 -0.707104
vn -0.000000 -0.707105 -0.707108
vn -0.000000 -0.707105 -0.707108
vn -0.000000 -0.707105 -0.707108
vn -0.000000 -0.707105 -0.707108
vn -0.707123 0.707091 0.000000
vn -0.707123 0.707091 0.000000
vn -0.707123 0.707091 0.000000
vn -0.707123 0.707091 0.000000
vn 0.000000 0.000000 1.000000
vn 0.000000 0.000000 1.000000
vn 0.000000 0.000000 1.000000
vn 0.000000 0.000000 1.000000
vn 0.707080 -0.707133 0.000000
vn 0.707080 -0.707133 0.000000
vn 0.707080 -0.707133 0.000000
vn 0.707080 -0.707133 0.000000
vn 0.000011 -0.000000 -1.000000
vn 0.000011 -0.000000 -1.000000
vn 0.000011 -0.000000 -1.000000
vn 0.000011 -0.000000 -1.000000
vn 1.000000 -0.000000 0.000000
vn 1.000000 -0.000000 0.000000
vn 1.000000 -0.000000 0.000000
vn 1.000000 -0.000000 0.000000
vn -0.000000 -0.707096 0.707117
vn -0.000000 -0.707096 0.707117
vn -0.000000 -0.707096 0.707117
vn -0.000000 -0.707096 0.707117
vn 0.000000 0.707101 -0.707113
vn 0.000000 0.707101 -0.707113
vn 0.000000 0.707101 -0.707113
vn 0.000000 0.707101 -0.707113
vn -1.000000 0.000017 0.000000
vn -1.000000 0.000017 0.000000
vn -1.000000 0.000017 0.000000
vn -1.000000 0.000017 0.000000
s off
g polySurface2907 Roof
usemtl initialShadingGroup
f 12/16/1 19/24/2 20/25/3 1/1/4
f 4/5/5 10/14/6 34/45/7 35/46/8
f 7/9/9 2/2/10 16/21/11 17/22/12
f 31/42/13 32/43/14 8/11/15 3/6/16
f 32/43/17 33/44/18 14/18/19 8/11/20
f 7/9/21 17/22/22 18/23/23 15/20/24
f 10/14/25 14/18/26 33/44/27 34/45/28
f 12/16/29 15/20/30 18/23/31 19/24/32
f 29/40/33 30/41/34 3/3/35 8/10/36
f 28/39/37 29/40/38 8/10/39 14/19/40
f 10/13/41 27/37/42 28/39/43 14/19/44
f 26/36/45 27/37/46 10/13/47 4/4/48
f 5/7/49 9/12/50 22/31/51 21/30/52
f 13/17/53 23/32/54 22/31/55 9/12/56
f 13/17/57 11/15/58 24/34/59 23/32/60
f 25/35/61 24/34/62 11/15/63 6/8/64
f 27/37/65 26/36/66 20/25/67 19/24/68
f 54/78/69 53/70/70 52/69/71 55/80/72
f 29/40/73 28/39/74 18/23/75 17/22/76
f 16/21/77 30/41/78 29/40/79 17/22/80
f 22/31/81 32/43/82 31/42/83 21/30/84
f 33/44/85 32/43/86 22/31/87 23/32/88
f 58/81/89 56/72/90 57/75/91 59/82/92
f 25/35/93 35/46/94 34/45/95 24/34/96
f 36/47/97 18/23/98 28/83/99 39/52/100
f 37/48/101 19/24/102 18/23/103 36/47/104
f 38/51/105 27/27/106 19/24/107 37/48/108
f 39/52/109 28/84/110 27/33/111 38/50/112
f 40/53/113 23/28/114 24/26/115 41/49/116
f 41/55/117 24/38/118 34/45/119 43/57/120
f 42/56/121 33/44/122 23/29/123 40/54/124
f 43/57/125 34/45/126 33/44/127 42/56/128
f 44/58/129 36/47/130 39/52/131 47/63/132
f 45/59/133 37/48/134 36/47/135 44/58/136
f 46/62/137 38/51/138 37/48/139 45/59/140
f 47/63/141 39/52/142 38/50/143 46/61/144
f 48/64/145 40/53/146 41/49/147 49/60/148
f 49/66/149 41/55/150 43/57/151 51/68/152
f 50/67/153 42/56/154 40/54/155 48/65/156
f 51/68/157 43/57/158 42/56/159 50/67/160
f 52/69/161 44/58/162 47/63/163 55/85/164
f 52/69/165 53/70/166 45/59/167 44/58/168
f 53/70/169 54/74/170 46/62/171 45/59/172
f 54/73/173 55/86/174 47/63/175 46/61/176
f 56/76/177 48/64/178 49/60/179 57/71/180
f 57/79/181 49/66/182 51/68/183 59/82/184
f 56/77/185 58/81/186 50/67/187 48/65/188
f 58/81/189 59/82/190 51/68/191 50/67/192
