# This file uses centimeters as units for non-parametric coordinates.

mtllib Server_room_roof_tile.mtl
g default
v 4.000000 0.000000 4.000000
v 0.000000 0.000000 4.000000
v 0.000000 0.000000 0.000000
v 4.000000 0.000000 0.000000
v 1.000000 0.000000 0.000000
v 1.000000 0.000000 4.000000
v 3.000000 0.000000 4.000000
v 3.000000 0.000000 0.000000
v 0.000000 0.000000 3.000000
v 1.160507 0.000000 2.849655
v 2.839493 0.000000 2.849655
v 4.000000 0.000000 3.000000
v 4.000000 0.000000 1.000000
v 2.839493 0.000000 1.150345
v 1.160507 0.000000 1.150345
v 0.000000 0.000000 1.000000
v 0.000000 0.000000 3.500000
v 1.000000 0.000000 3.500000
v 3.000000 0.000000 3.500000
v 4.000000 0.000000 3.500000
v 0.500000 0.000000 0.000000
v 0.500000 0.000000 1.000000
v 0.500000 0.000000 3.000000
v 0.500000 0.000000 3.500000
v 0.500000 0.000000 4.000000
v 3.500000 0.000000 4.000000
v 3.500000 0.000000 3.500000
v 3.500000 0.000000 3.000000
v 3.500000 0.000000 1.000000
v 3.500000 0.000000 0.000000
v 4.000000 0.000000 0.500000
v 3.500000 0.000000 0.500000
v 3.000000 0.000000 0.500000
v 1.000000 0.000000 0.500000
v 0.500000 0.000000 0.500000
v 0.000000 0.000000 0.500000
v 1.000000 0.200000 3.500000
v 1.000000 0.200000 3.000000
v 3.000000 0.200000 3.500000
v 3.000000 0.200000 3.000000
v 0.500000 0.200000 1.000000
v 1.000000 0.200000 1.000000
v 0.500000 0.200000 3.000000
v 0.500000 0.200000 3.500000
v 3.500000 0.200000 3.500000
v 3.500000 0.200000 3.000000
v 3.500000 0.200000 1.000000
v 3.000000 0.200000 1.000000
v 3.500000 0.200000 0.500000
v 3.000000 0.200000 0.500000
v 1.000000 0.200000 0.500000
v 0.500000 0.200000 0.500000
vt 0.593750 0.500000
vt 0.594720 0.493481
vt 0.626294 0.493481
vt 0.625000 0.500000
vt 0.373707 0.493481
vt 0.405280 0.493481
vt 0.406250 0.500000
vt 0.375000 0.500000
vt 0.563147 0.493481
vt 0.562500 0.500000
vt 0.437500 0.500000
vt 0.436853 0.493481
vt 0.364652 0.447848
vt 0.398489 0.447848
vt 0.399459 0.454367
vt 0.365946 0.454367
vt 0.432326 0.447848
vt 0.567674 0.447848
vt 0.567027 0.454367
vt 0.432973 0.454367
vt 0.634055 0.454367
vt 0.600541 0.454367
vt 0.601511 0.447848
vt 0.635348 0.447848
vt 0.404310 0.486962
vt 0.372413 0.486962
vt 0.367239 0.460886
vt 0.400429 0.460886
vt 0.563794 0.486962
vt 0.436207 0.486962
vt 0.433619 0.460886
vt 0.566381 0.460886
vt 0.632761 0.460886
vt 0.627587 0.486962
vt 0.595690 0.486962
vt 0.599571 0.460886
vt 0.436207 0.486962
vt 0.563794 0.486962
vt 0.563147 0.493481
vt 0.436853 0.493481
vt 0.433619 0.460886
vt 0.404310 0.486962
vt 0.400429 0.460886
vt 0.405280 0.493481
vt 0.595690 0.486962
vt 0.594720 0.493481
vt 0.566381 0.460886
vt 0.599571 0.460886
vt 0.567027 0.454367
vt 0.600541 0.454367
vt 0.432973 0.454367
vt 0.399459 0.454367
vn 0.000000 -1.000000 0.000000
vn 0.000000 -1.000000 0.000000
vn 0.000000 -1.000000 0.000000
vn 0.000000 -1.000000 0.000000
vn 0.000000 -1.000000 0.000000
vn 0.000000 -1.000000 0.000000
vn 0.000000 -1.000000 0.000000
vn 0.000000 -1.000000 0.000000
vn 0.000000 -1.000000 0.000000
vn 0.000000 -1.000000 0.000000
vn 0.000000 -1.000000 0.000000
vn 0.000000 -1.000000 0.000000
vn 0.000000 -1.000000 0.000000
vn 0.000000 -1.000000 0.000000
vn 0.000000 -1.000000 0.000000
vn 0.000000 -1.000000 0.000000
vn 0.000000 -1.000000 0.000000
vn 0.000000 -1.000000 0.000000
vn 0.000000 -1.000000 0.000000
vn 0.000000 -1.000000 0.000000
vn 0.000000 -1.000000 0.000000
vn 0.000000 -1.000000 0.000000
vn 0.000000 -1.000000 0.000000
vn 0.000000 -1.000000 0.000000
vn 0.000000 -1.000000 0.000000
vn 0.000000 -1.000000 0.000000
vn 0.000000 -1.000000 0.000000
vn 0.000000 -1.000000 0.000000
vn 0.000000 -1.000000 0.000000
vn 0.000000 -1.000000 0.000000
vn 0.000000 -1.000000 0.000000
vn 0.000000 -1.000000 0.000000
vn 0.000000 -1.000000 0.000000
vn 0.000000 -1.000000 0.000000
vn 0.000000 -1.000000 0.000000
vn 0.000000 -1.000000 0.000000
vn 0.000000 -1.000000 0.000000
vn 0.000000 -1.000000 0.000000
vn 0.000000 -1.000000 0.000000
vn 0.000000 -1.000000 0.000000
vn 0.000000 -1.000000 0.000000
vn 0.000000 -1.000000 0.000000
vn 0.000000 -1.000000 0.000000
vn 0.000000 -1.000000 0.000000
vn 0.000000 -1.000000 0.000000
vn 0.000000 -1.000000 0.000000
vn 0.000000 -1.000000 0.000000
vn 0.000000 -1.000000 0.000000
vn 0.000000 -1.000000 0.000000
vn 0.000000 -1.000000 0.000000
vn 0.000000 -1.000000 0.000000
vn 0.000000 -1.000000 0.000000
vn 0.000000 -1.000000 0.000000
vn 0.000000 -1.000000 0.000000
vn 0.000000 -1.000000 0.000000
vn 0.000000 -1.000000 0.000000
vn 0.000000 -1.000000 0.000000
vn 0.000000 -1.000000 0.000000
vn 0.000000 -1.000000 0.000000
vn 0.000000 -1.000000 0.000000
vn 0.000000 -1.000000 0.000000
vn 0.000000 -1.000000 0.000000
vn 0.000000 -1.000000 0.000000
vn 0.000000 -1.000000 0.000000
vn 0.000000 -1.000000 0.000000
vn 0.000000 -1.000000 0.000000
vn 0.000000 -1.000000 0.000000
vn 0.000000 -1.000000 0.000000
vn 0.000000 -1.000000 0.000000
vn 0.000000 -1.000000 0.000000
vn 0.000000 -1.000000 0.000000
vn 0.000000 -1.000000 0.000000
vn 0.000000 -1.000000 0.000000
vn 0.000000 -1.000000 0.000000
vn 0.000000 -1.000000 0.000000
vn 0.000000 -1.000000 0.000000
vn 0.000000 -1.000000 0.000000
vn 0.000000 -1.000000 0.000000
vn 0.000000 -1.000000 0.000000
vn 0.000000 -1.000000 0.000000
vn 0.000000 -1.000000 0.000000
vn 0.000000 -1.000000 0.000000
vn 0.000000 -1.000000 0.000000
vn 0.000000 -1.000000 0.000000
vn 0.000000 -1.000000 0.000000
vn 0.000000 -1.000000 0.000000
vn 0.000000 -1.000000 0.000000
vn 0.000000 -1.000000 0.000000
vn 0.000000 -1.000000 0.000000
vn 0.000000 -1.000000 0.000000
vn 0.000000 -1.000000 0.000000
vn 0.000000 -1.000000 0.000000
vn 0.000000 -1.000000 0.000000
vn 0.000000 -1.000000 0.000000
vn 0.000000 -1.000000 0.000000
vn 0.000000 -1.000000 0.000000
vn 0.000000 -1.000000 0.000000
vn 0.000000 -1.000000 0.000000
vn 0.000000 -1.000000 0.000000
vn 0.000000 -1.000000 0.000000
vn 0.000000 -0.600883 0.799337
vn 0.000000 -0.600883 0.799337
vn 0.000000 -0.600883 0.799337
vn 0.000000 -0.600883 0.799337
vn 0.000000 0.000000 -1.000000
vn 0.000000 0.000000 -1.000000
vn 0.000000 0.000000 -1.000000
vn 0.000000 0.000000 -1.000000
vn -0.779903 -0.625901 0.000000
vn -0.779903 -0.625901 0.000000
vn -0.779903 -0.625901 0.000000
vn -0.779903 -0.625901 0.000000
vn 1.000000 -0.000000 0.000000
vn 1.000000 -0.000000 0.000000
vn 1.000000 -0.000000 0.000000
vn 1.000000 -0.000000 0.000000
vn 1.000000 -0.000000 0.000000
vn 1.000000 -0.000000 0.000000
vn 1.000000 -0.000000 0.000000
vn 1.000000 -0.000000 0.000000
vn 0.000000 0.000000 -1.000000
vn 0.000000 0.000000 -1.000000
vn 0.000000 0.000000 -1.000000
vn 0.000000 0.000000 -1.000000
vn -1.000000 0.000000 0.000000
vn -1.000000 0.000000 0.000000
vn -1.000000 0.000000 0.000000
vn -1.000000 0.000000 0.000000
vn 0.000000 0.000000 -1.000000
vn 0.000000 0.000000 -1.000000
vn 0.000000 0.000000 -1.000000
vn 0.000000 0.000000 -1.000000
vn 0.779903 -0.625901 0.000000
vn 0.779903 -0.625901 0.000000
vn 0.779903 -0.625901 0.000000
vn 0.779903 -0.625901 0.000000
vn -1.000000 0.000000 0.000000
vn -1.000000 0.000000 0.000000
vn -1.000000 0.000000 0.000000
vn -1.000000 0.000000 0.000000
vn 0.000000 0.000000 1.000000
vn 0.000000 0.000000 1.000000
vn 0.000000 0.000000 1.000000
vn 0.000000 0.000000 1.000000
vn -1.000000 0.000000 0.000000
vn -1.000000 0.000000 0.000000
vn -1.000000 0.000000 0.000000
vn -1.000000 0.000000 0.000000
vn 0.000000 -0.600883 -0.799337
vn 0.000000 -0.600883 -0.799337
vn 0.000000 -0.600883 -0.799337
vn 0.000000 -0.600883 -0.799337
vn 0.000000 0.000000 1.000000
vn 0.000000 0.000000 1.000000
vn 0.000000 0.000000 1.000000
vn 0.000000 0.000000 1.000000
vn 1.000000 -0.000000 0.000000
vn 1.000000 -0.000000 0.000000
vn 1.000000 -0.000000 0.000000
vn 1.000000 -0.000000 0.000000
vn 0.000000 0.000000 1.000000
vn 0.000000 0.000000 1.000000
vn 0.000000 0.000000 1.000000
vn 0.000000 0.000000 1.000000
s off
g Server_room_roof_tile1
usemtl Server_room_roof_tile:initialShadingGroup
f 26/1/1 27/2/2 20/3/3 1/4/4
f 17/5/5 24/6/6 25/7/7 2/8/8
f 19/9/9 7/10/10 6/11/11 18/12/12
f 3/13/13 21/14/14 35/15/15 36/16/16
f 5/17/17 8/18/18 33/19/19 34/20/20
f 31/21/21 32/22/22 30/23/23 4/24/24
f 23/25/25 9/26/26 16/27/27 22/28/28
f 11/29/29 10/30/30 15/31/31 14/32/32
f 13/33/33 12/34/34 28/35/35 29/36/36
f 9/26/37 23/25/38 24/6/39 17/5/40
f 38/37/41 40/38/42 39/39/43 37/40/44
f 20/3/45 27/2/46 28/35/47 12/34/48
f 34/20/49 35/15/50 21/14/51 5/17/52
f 42/41/53 38/37/54 43/42/55 41/43/56
f 44/44/57 43/42/58 38/37/59 37/40/60
f 25/7/61 24/6/62 18/12/63 6/11/64
f 7/10/65 19/9/66 27/2/67 26/1/68
f 46/45/69 45/46/70 39/39/71 40/38/72
f 46/45/73 40/38/74 48/47/75 47/48/76
f 30/23/77 32/22/78 33/19/79 8/18/80
f 13/33/81 29/36/82 32/22/83 31/21/84
f 50/49/85 49/50/86 47/48/87 48/47/88
f 50/49/89 48/47/90 42/41/91 51/51/92
f 41/43/93 52/52/94 51/51/95 42/41/96
f 36/16/97 35/15/98 22/28/99 16/27/100
f 38/37/101 10/30/102 11/29/103 40/38/104
f 37/40/105 39/39/106 19/9/107 18/12/108
f 42/41/109 15/31/110 10/30/111 38/37/112
f 41/43/113 43/42/114 23/25/115 22/28/116
f 24/6/117 23/25/118 43/42/119 44/44/120
f 18/12/121 24/6/122 44/44/123 37/40/124
f 28/35/125 27/2/126 45/46/127 46/45/128
f 27/2/129 19/9/130 39/39/131 45/46/132
f 40/38/133 11/29/134 14/32/135 48/47/136
f 46/45/137 47/48/138 29/36/139 28/35/140
f 33/19/141 32/22/142 49/50/143 50/49/144
f 32/22/145 29/36/146 47/48/147 49/50/148
f 48/47/149 14/32/150 15/31/151 42/41/152
f 50/49/153 51/51/154 34/20/155 33/19/156
f 22/28/157 35/15/158 52/52/159 41/43/160
f 35/15/161 34/20/162 51/51/163 52/52/164
