# This file uses centimeters as units for non-parametric coordinates.

mtllib Reactor_middle_wall_door.mtl
g default
v 39.151691 0.000000 0.000000
v 39.151691 10.000702 0.000000
v 31.031698 0.003496 -8.260843
v 30.986431 10.003960 -8.279551
v 27.572981 0.003158 -8.309814
v 27.575846 10.002106 -8.279551
v 26.575846 0.001404 -5.424156
v 26.575846 9.695245 -7.424156
v 39.151691 5.000351 0.000000
v 30.636507 5.001755 -8.424156
v 27.575846 5.001755 -8.424156
v 26.575846 5.001755 -5.424156
v 25.575846 10.002106 -8.279551
v 25.575846 9.695245 -7.424156
v 25.575846 0.001404 -5.424156
v 25.575846 5.001755 -5.424156
v 0.000000 0.000000 0.000000
v 0.000000 10.000702 0.000000
v 8.119992 0.003496 -8.260843
v 8.165260 10.003960 -8.279551
v 11.578712 0.003158 -8.309814
v 11.575846 10.002106 -8.279551
v 12.575846 -0.000486 -5.424128
v 12.575846 9.695245 -7.424156
v 0.000000 5.000351 0.000000
v 8.515184 5.001755 -8.424156
v 11.575846 5.001755 -8.424156
v 12.575846 5.001755 -5.424156
v 13.575846 10.002106 -8.279551
v 13.575847 9.695245 -7.424156
v 13.575847 -0.000486 -5.424128
v 13.575847 5.001755 -5.424156
v 2.192968 0.000231 -2.200432
v 2.160603 5.000566 -2.112562
v 2.148092 10.001056 -2.125128
v 5.643731 9.990671 -5.580608
v 5.691397 4.991903 -5.653069
v 5.723700 0.001209 -5.740768
v 36.958721 0.000231 -2.200432
v 36.935474 5.000586 -2.169060
v 36.912228 10.000632 -2.137691
v 33.396988 10.001736 -5.693582
v 33.404743 5.001520 -5.709398
v 33.427994 0.001209 -5.740768
vt 0.371331 0.778055
vt 0.370370 0.984762
vt 0.225046 0.984807
vt 0.225367 0.778093
vt 0.125392 0.984899
vt 0.023985 0.984823
vt 0.023985 0.778103
vt 0.110925 0.778103
vt 0.972655 0.436519
vt 0.897702 0.423833
vt 0.815020 0.229799
vt 0.978633 0.229799
vt 0.372292 0.571335
vt 0.226328 0.571376
vt 0.023866 0.571456
vt 0.127263 0.571470
vt 0.815020 0.023080
vt 0.973906 0.023152
vt 0.824536 0.462173
vt 0.741854 0.462173
vt 0.741853 0.426810
vt 0.783195 0.426810
vt 0.796477 0.226390
vt 0.755135 0.226390
vt 0.755135 0.019671
vt 0.796477 0.019671
vt 0.796477 0.420423
vt 0.755136 0.420423
vt 0.548388 0.787909
vt 0.637710 0.787918
vt 0.637192 0.994643
vt 0.548388 0.994628
vt 0.885948 0.994763
vt 0.900414 0.787967
vt 0.982406 0.787967
vt 0.982406 0.994686
vt 0.020398 0.445781
vt 0.014419 0.239061
vt 0.182981 0.239061
vt 0.100299 0.433095
vt 0.548388 0.581190
vt 0.639048 0.581199
vt 0.884076 0.581334
vt 0.982524 0.581320
vt 0.019146 0.032415
vt 0.182983 0.032264
vt 0.163080 0.462173
vt 0.204421 0.426810
vt 0.245762 0.426810
vt 0.245762 0.462173
vt 0.217703 0.226390
vt 0.217703 0.019593
vt 0.259044 0.019593
vt 0.259044 0.226390
vt 0.217703 0.420423
vt 0.259044 0.420423
vt 0.783676 0.787560
vt 0.785011 0.581239
vt 0.781706 0.994213
vt 0.462951 0.571326
vt 0.462951 0.778045
vt 0.462952 0.984764
vn -0.704050 -0.004892 0.710133
vn -0.704042 -0.004891 0.710142
vn -0.712030 0.002468 0.702144
vn -0.712034 0.002478 0.702141
vn 0.000008 -0.028902 0.999582
vn 0.000008 -0.028902 0.999582
vn 0.000008 -0.028902 0.999582
vn 0.000008 -0.028902 0.999582
vn 0.881250 0.088852 0.464224
vn 0.881250 0.088852 0.464224
vn 0.881250 0.088852 0.464223
vn 0.881250 0.088852 0.464224
vn -0.706463 -0.006246 0.707723
vn -0.706460 -0.006244 0.707725
vn -0.709621 -0.013141 0.704461
vn -0.709623 -0.013149 0.704458
vn -0.007510 0.027468 0.999595
vn -0.007510 0.027468 0.999594
vn -0.007510 0.027468 0.999594
vn -0.007510 0.027468 0.999594
vn 0.946963 0.003403 0.321326
vn 0.946963 0.003403 0.321326
vn 0.946963 0.003403 0.321326
vn 0.946963 0.003403 0.321326
vn 0.000000 0.941266 0.337666
vn 0.000000 0.941266 0.337666
vn 0.000000 0.941266 0.337666
vn 0.000000 0.941266 0.337666
vn 0.000000 0.000000 1.000000
vn 0.000000 0.000000 1.000000
vn 0.000000 0.000000 1.000000
vn 0.000000 0.000000 1.000000
vn 0.000000 0.392015 0.919959
vn 0.000000 0.392015 0.919959
vn 0.000000 0.392015 0.919959
vn 0.000000 0.392015 0.919959
vn 0.701207 0.001773 0.712956
vn 0.703922 0.000672 0.710277
vn 0.703919 0.000673 0.710280
vn 0.701207 0.001773 0.712956
vn -0.000008 -0.028902 0.999582
vn -0.000008 -0.028902 0.999582
vn -0.000008 -0.028902 0.999582
vn -0.000008 -0.028902 0.999582
vn -0.881250 0.088852 0.464224
vn -0.881250 0.088852 0.464224
vn -0.881250 0.088852 0.464224
vn -0.881250 0.088852 0.464224
vn 0.703783 -0.003964 0.710404
vn 0.706451 -0.006377 0.707733
vn 0.706407 -0.006337 0.707778
vn 0.703783 -0.003964 0.710404
vn 0.007510 0.027468 0.999594
vn 0.007510 0.027468 0.999594
vn 0.007510 0.027468 0.999595
vn 0.007510 0.027468 0.999594
vn -0.946963 0.003403 0.321326
vn -0.946963 0.003403 0.321326
vn -0.946963 0.003403 0.321326
vn -0.946963 0.003403 0.321326
vn 0.000000 0.941266 0.337666
vn 0.000000 0.941266 0.337666
vn 0.000000 0.941266 0.337666
vn 0.000000 0.941266 0.337666
vn 0.000000 0.000006 1.000000
vn 0.000000 0.000006 1.000000
vn 0.000000 0.000006 1.000000
vn 0.000000 0.000006 1.000000
vn 0.000000 0.392015 0.919959
vn 0.000000 0.392015 0.919959
vn 0.000000 0.392015 0.919959
vn 0.000000 0.392015 0.919959
vn 0.000000 0.392015 0.919959
vn 0.000000 0.392015 0.919959
vn 0.000000 0.392015 0.919959
vn 0.000000 0.392015 0.919959
vn 0.000000 0.941266 0.337666
vn 0.000000 0.941266 0.337667
vn 0.000000 0.941266 0.337667
vn 0.000000 0.941266 0.337666
vn 0.709621 -0.013182 0.704461
vn 0.709659 -0.013314 0.704419
vn 0.711746 -0.020542 0.702137
vn 0.711746 -0.020542 0.702137
vn 0.709713 0.005710 0.704467
vn 0.709812 0.005846 0.704367
vn 0.715122 0.013261 0.698874
vn 0.715122 0.013261 0.698874
vn 0.703919 0.000673 0.710280
vn 0.703922 0.000672 0.710277
vn 0.709812 0.005846 0.704367
vn 0.709713 0.005710 0.704467
vn 0.706407 -0.006337 0.707778
vn 0.706451 -0.006377 0.707733
vn 0.709659 -0.013314 0.704419
vn 0.709621 -0.013182 0.704461
vn -0.703897 -0.003865 0.710291
vn -0.703897 -0.003865 0.710291
vn -0.706460 -0.006244 0.707725
vn -0.706463 -0.006246 0.707723
vn -0.694983 -0.003871 0.719016
vn -0.694983 -0.003871 0.719016
vn -0.704042 -0.004891 0.710142
vn -0.704050 -0.004892 0.710133
vn -0.712034 0.002478 0.702141
vn -0.712030 0.002468 0.702144
vn -0.715220 0.013259 0.698774
vn -0.715220 0.013259 0.698774
vn -0.709623 -0.013149 0.704458
vn -0.709621 -0.013141 0.704461
vn -0.711726 -0.020520 0.702157
vn -0.711726 -0.020520 0.702157
s off
g Reactor_middle_wall_door1
usemtl lambert2SG
f 40/1/1 41/2/2 42/3/3 43/4/4
f 4/5/5 6/6/6 11/7/7 10/8/8
f 6/9/9 8/10/10 12/11/11 11/12/12
f 39/13/13 40/1/14 43/4/15 44/14/16
f 11/7/17 5/15/18 3/16/19 10/8/20
f 12/11/21 7/17/22 5/18/23 11/12/24
f 6/19/25 13/20/26 14/21/27 8/22/28
f 12/23/29 16/24/30 15/25/31 7/26/32
f 8/27/33 14/28/34 16/24/35 12/23/36
f 25/29/37 34/30/38 35/31/39 18/32/40
f 20/33/41 26/34/42 27/35/43 22/36/44
f 22/37/45 27/38/46 28/39/47 24/40/48
f 17/41/49 33/42/50 34/30/51 25/29/52
f 27/35/53 26/34/54 19/43/55 21/44/56
f 28/39/57 27/38/58 21/45/59 23/46/60
f 22/47/61 24/48/62 30/49/63 29/50/64
f 28/51/65 23/52/66 31/53/67 32/54/68
f 24/55/69 28/51/70 32/54/71 30/56/72
f 16/24/73 14/28/74 30/56/75 32/54/76
f 14/21/77 13/20/78 29/50/79 30/49/80
f 37/57/81 38/58/82 19/43/83 26/34/84
f 36/59/85 37/57/86 26/34/87 20/33/88
f 35/31/89 34/30/90 37/57/91 36/59/92
f 34/30/93 33/42/94 38/58/95 37/57/96
f 1/60/97 9/61/98 40/1/99 39/13/100
f 9/61/101 2/62/102 41/2/103 40/1/104
f 43/4/105 42/3/106 4/5/107 10/8/108
f 44/14/109 43/4/110 10/8/111 3/16/112
