# This file uses centimeters as units for non-parametric coordinates.

mtllib Reactor_roof.mtl
g default
v 3.000000 -0.000002 -7.500000
v -3.000000 -0.000002 -7.500000
v 7.500000 -0.000002 -3.000000
v -7.500000 -0.000002 -3.000000
v 7.500000 -0.000002 3.000000
v -7.500000 -0.000002 3.000000
v 3.000000 -0.000002 7.500000
v -3.000000 -0.000002 7.500000
v 6.553264 -4.497917 -16.197674
v -6.553264 -4.497917 -16.197678
v 16.197666 -4.497919 -6.553272
v 16.197666 -4.497917 6.553257
v -16.197666 -4.497919 -6.553272
v -16.197666 -4.497917 6.553257
v 6.553266 -4.497917 16.197659
v -6.553266 -4.497917 16.197659
v 5.250000 -0.000002 5.250000
v 11.316425 -4.500317 11.316418
v 0.000000 -0.000002 7.500000
v 0.000000 -4.499475 16.319237
v -5.250000 -0.000002 5.250000
v -11.316426 -4.500317 11.316418
v -7.500000 -0.000002 0.000000
v -16.319246 -4.499475 -0.000008
v -5.250000 -0.000002 -5.250000
v -11.316424 -4.500317 -11.316435
v 0.000000 -0.000002 -7.500000
v 0.000002 -4.499475 -16.319256
v 5.250000 -0.000002 -5.250000
v 11.316429 -4.500315 -11.316427
v 7.500000 -0.000002 0.000000
v 16.319246 -4.499475 -0.000008
v 0.000000 0.000000 0.000000
vt 0.279117 0.500000
vt 0.500000 0.500000
vt 0.345382 0.654618
vt 0.279117 0.588353
vt 0.005702 0.699983
vt 0.154661 0.845339
vt 0.500000 0.720883
vt 0.500000 0.998008
vt 0.300017 0.994298
vt 0.411647 0.720883
vt 0.001992 0.500000
vt 0.005702 0.300017
vt 0.279117 0.411646
vt 0.699983 0.994298
vt 0.588353 0.720883
vt 0.654618 0.654618
vt 0.845339 0.845339
vt 0.720883 0.500000
vt 0.998008 0.500000
vt 0.994298 0.699983
vt 0.720883 0.588353
vt 0.300017 0.005702
vt 0.411647 0.279117
vt 0.345382 0.345382
vt 0.154661 0.154661
vt 0.994298 0.300017
vt 0.720883 0.411646
vt 0.654618 0.345382
vt 0.845339 0.154661
vt 0.500000 0.279117
vt 0.500000 0.001992
vt 0.699983 0.005702
vt 0.588353 0.279117
vn 0.000000 -1.000000 0.000000
vn 0.000000 -1.000000 0.000000
vn 0.000000 -1.000000 0.000000
vn 0.000000 -1.000000 0.000000
vn -0.329994 -0.885302 0.327633
vn -0.329994 -0.885302 0.327633
vn -0.328814 -0.885304 0.328814
vn -0.328814 -0.885304 0.328814
vn 0.000000 -0.890768 0.454459
vn 0.000000 -0.890768 0.454459
vn 0.000000 -0.890768 0.454459
vn 0.000000 -0.890768 0.454459
vn -0.454459 -0.890768 0.000000
vn -0.454459 -0.890768 0.000000
vn -0.454459 -0.890768 0.000000
vn -0.454459 -0.890768 0.000000
vn 0.327633 -0.885302 0.329994
vn 0.327633 -0.885302 0.329994
vn 0.328814 -0.885304 0.328814
vn 0.328814 -0.885304 0.328814
vn 0.454459 -0.890768 0.000000
vn 0.454459 -0.890768 0.000000
vn 0.454459 -0.890768 0.000000
vn 0.454459 -0.890768 0.000000
vn -0.327634 -0.885302 -0.329995
vn -0.327634 -0.885302 -0.329995
vn -0.328814 -0.885303 -0.328815
vn -0.328815 -0.885303 -0.328815
vn 0.329995 -0.885302 -0.327633
vn 0.329995 -0.885302 -0.327633
vn 0.328814 -0.885303 -0.328815
vn 0.328814 -0.885304 -0.328814
vn 0.000000 -0.890768 -0.454459
vn 0.000000 -0.890768 -0.454459
vn 0.000000 -0.890768 -0.454459
vn 0.000000 -0.890768 -0.454459
vn -0.328815 -0.885303 -0.328815
vn -0.328814 -0.885303 -0.328815
vn -0.329995 -0.885302 -0.327634
vn -0.329995 -0.885302 -0.327634
vn 0.000000 -0.890768 -0.454459
vn 0.000000 -0.890768 -0.454459
vn 0.000000 -0.890768 -0.454459
vn 0.000000 -0.890768 -0.454459
vn 0.328814 -0.885304 -0.328814
vn 0.328814 -0.885303 -0.328815
vn 0.327633 -0.885302 -0.329995
vn 0.327633 -0.885302 -0.329995
vn 0.454459 -0.890768 0.000000
vn 0.454459 -0.890768 0.000000
vn 0.454459 -0.890768 0.000000
vn 0.454459 -0.890768 0.000000
vn 0.328814 -0.885304 0.328814
vn 0.328814 -0.885304 0.328814
vn 0.329995 -0.885302 0.327633
vn 0.329994 -0.885302 0.327633
vn 0.000000 -0.890768 0.454459
vn 0.000000 -0.890768 0.454459
vn 0.000000 -0.890768 0.454459
vn 0.000000 -0.890768 0.454459
vn -0.328814 -0.885304 0.328814
vn -0.328814 -0.885304 0.328814
vn -0.327633 -0.885302 0.329995
vn -0.327633 -0.885302 0.329995
vn -0.454459 -0.890768 0.000000
vn -0.454459 -0.890768 0.000000
vn -0.454459 -0.890768 0.000000
vn -0.454459 -0.890768 0.000000
vn 0.000000 -1.000000 0.000000
vn 0.000000 -1.000000 0.000000
vn 0.000000 -1.000000 0.000000
vn 0.000000 -1.000000 0.000000
vn 0.000000 -1.000000 0.000000
vn 0.000000 -1.000000 0.000000
vn 0.000000 -1.000000 0.000000
vn 0.000000 -1.000000 0.000000
vn 0.000000 -1.000000 0.000000
vn 0.000000 -1.000000 0.000000
vn 0.000000 -1.000000 0.000000
vn 0.000000 -1.000000 0.000000
vn 0.000000 -1.000000 0.000000
vn 0.000000 -1.000000 0.000000
vn 0.000000 -1.000000 0.000000
vn 0.000000 -1.000000 0.000000
vn 0.000000 -1.000000 0.000000
vn 0.000000 -1.000000 0.000000
vn 0.000000 -1.000000 0.000000
vn 0.000000 -1.000000 0.000000
vn 0.000000 -1.000000 0.000000
vn 0.000000 -1.000000 0.000000
vn 0.000000 -1.000000 0.000000
vn 0.000000 -1.000000 0.000000
vn 0.000000 -1.000000 0.000000
vn 0.000000 -1.000000 0.000000
vn 0.000000 -1.000000 0.000000
vn 0.000000 -1.000000 0.000000
s off
g Reactor_roof1
usemtl lambert2SG
f 31/1/1 33/2/2 29/3/3 3/4/4
f 11/5/5 3/4/6 29/3/7 30/6/8
f 27/7/9 28/8/10 9/9/11 1/10/12
f 31/1/13 32/11/14 12/12/15 5/13/16
f 10/14/17 2/15/18 25/16/19 26/17/20
f 23/18/21 24/19/22 13/20/23 4/21/24
f 15/22/25 7/23/26 17/24/27 18/25/28
f 14/26/29 6/27/30 21/28/31 22/29/32
f 19/30/33 20/31/34 16/32/35 8/33/36
f 18/25/37 17/24/38 5/13/39 12/12/40
f 7/23/41 15/22/42 20/31/43 19/30/44
f 22/29/45 21/28/46 8/33/47 16/32/48
f 6/27/49 14/26/50 24/19/51 23/18/52
f 26/17/53 25/16/54 4/21/55 13/20/56
f 2/15/57 10/14/58 28/8/59 27/7/60
f 30/6/61 29/3/62 1/10/63 9/9/64
f 3/4/65 11/5/66 32/11/67 31/1/68
f 19/30/69 33/2/70 17/24/71 7/23/72
f 33/2/73 23/18/74 4/21/75 25/16/76
f 29/3/77 33/2/78 27/7/79 1/10/80
f 17/24/81 33/2/82 31/1/83 5/13/84
f 33/2/85 21/28/86 6/27/87 23/18/88
f 8/33/89 21/28/90 33/2/91 19/30/92
f 27/7/93 33/2/94 25/16/95 2/15/96
