# This file uses centimeters as units for non-parametric coordinates.

mtllib Reactor_middle_wall.mtl
g default
v 0.000000 0.000000 0.000000
v 0.000000 10.000702 0.000000
v 19.575846 -0.001404 -8.424156
v 19.575846 9.999298 -8.424156
v 11.455853 0.002094 -0.163313
v 11.410587 10.002556 -0.144608
v 17.333813 10.000193 -6.150742
v 17.382877 -0.001173 -6.223724
v 13.852147 -0.000195 -2.683388
v 14.061183 10.001499 -2.832304
v 7.500000 0.000700 -0.101896
v 7.507733 10.001923 -0.095146
v 2.500001 -0.014051 -0.030714
v 2.933279 10.001179 -0.037174
vt 0.155602 0.705791
vt 0.153432 0.263551
vt 0.356239 0.263594
vt 0.346996 0.705849
vt 0.503104 0.705896
vt 0.501102 0.263695
vt 0.666296 0.263633
vt 0.665954 0.705868
vt 0.025340 0.263540
vt 0.025340 0.705752
vt 0.869879 0.262981
vt 0.850721 0.705835
vt 0.970698 0.263603
vt 0.970698 0.705814
vn -0.710051 0.002151 -0.704147
vn -0.710052 0.002139 -0.704146
vn -0.713533 0.002282 -0.700618
vn -0.713407 0.002308 -0.700747
vn -0.014108 0.001246 -0.999900
vn -0.014108 0.001246 -0.999900
vn -0.013768 0.000732 -0.999905
vn -0.013768 0.000733 -0.999905
vn -0.710183 0.000827 -0.704017
vn -0.710052 0.002139 -0.704146
vn -0.710051 0.002151 -0.704147
vn -0.710183 0.000827 -0.704017
vn -0.713407 0.002308 -0.700747
vn -0.713533 0.002282 -0.700618
vn -0.718111 0.001349 -0.695928
vn -0.718111 0.001349 -0.695928
vn -0.013768 0.000733 -0.999905
vn -0.013768 0.000732 -0.999905
vn -0.013116 0.000175 -0.999914
vn -0.013141 0.000185 -0.999914
vn -0.013141 0.000185 -0.999914
vn -0.013116 0.000175 -0.999914
vn -0.012494 -0.000052 -0.999922
vn -0.012494 -0.000052 -0.999922
s off
g Reactor_middle_wall1
usemtl lambert2SG
f 7/1/1 8/2/2 9/3/3 10/4/4
f 6/5/5 5/6/6 11/7/7 12/8/8
f 3/9/9 8/2/10 7/1/11 4/10/12
f 10/4/13 9/3/14 5/6/15 6/5/16
f 12/8/17 11/7/18 13/11/19 14/12/20
f 14/12/21 13/11/22 1/13/23 2/14/24
