# This file uses centimeters as units for non-parametric coordinates.

mtllib Warehouse_lights.mtl
g default
v -0.500000 0.000000 2.000000
v 0.500000 0.000000 2.000000
v -0.500000 0.472019 2.000000
v 0.500000 0.472019 2.000000
v -0.500000 0.472019 -2.000000
v 0.500000 0.472019 -2.000000
v -0.500000 0.000000 -2.000000
v 0.500000 0.000000 -2.000000
v -0.500000 0.354068 2.000000
v 0.500000 0.354068 2.000000
v 0.500000 0.354068 -2.000000
v -0.500000 0.354068 -2.000000
v -0.500000 0.177034 2.000000
v 0.500000 0.177034 2.000000
v 0.500000 0.177034 -2.000000
v -0.500000 0.177034 -2.000000
v -0.375000 0.000000 2.000000
v -0.375000 0.000000 -2.000000
v -0.375000 0.177034 -2.000000
v -0.375000 0.354068 -2.000000
v -0.375000 0.472019 -2.000000
v -0.375000 0.472019 2.000000
v -0.375000 0.354068 2.000000
v -0.375000 0.177034 2.000000
v 0.375000 0.354068 -2.000000
v 0.375000 0.177034 -2.000000
v 0.375000 0.000000 -2.000000
v 0.375000 0.000000 2.000000
v 0.375000 0.177034 2.000000
v 0.375000 0.354068 2.000000
v 0.375000 0.472019 2.000000
v 0.375000 0.472019 -2.000000
v 0.500000 0.265551 -2.000000
v 0.500000 0.265551 2.000000
v 0.375000 0.265551 2.000000
v -0.375000 0.265551 2.000000
v -0.500000 0.265551 2.000000
v -0.500000 0.265551 -2.000000
v -0.375000 0.265551 -2.000000
v 0.375000 0.265551 -2.000000
v -0.375000 0.265551 2.000000
v -0.375000 0.265551 -2.000000
v -0.375000 0.354068 2.000000
v -0.375000 0.354068 -2.000000
v 0.375000 0.265551 -2.000000
v 0.375000 0.265551 2.000000
v 0.375000 0.354068 -2.000000
v 0.375000 0.354068 2.000000
v 0.000000 0.177034 2.000000
v 0.000000 0.177034 -2.000000
v -0.375000 0.177034 2.000000
v -0.375000 0.177034 -2.000000
v 0.375000 0.177034 -2.000000
v 0.375000 0.177034 2.000000
vt 0.375000 0.000000
vt 0.625000 0.000000
vt 0.375000 0.250000
vt 0.625000 0.250000
vt 0.375000 0.500000
vt 0.625000 0.500000
vt 0.375000 0.750000
vt 0.625000 0.750000
vt 0.375000 1.000000
vt 0.625000 1.000000
vt 0.875000 0.000000
vt 0.875000 0.250000
vt 0.125000 0.000000
vt 0.125000 0.250000
vt 0.375000 0.125000
vt 0.625000 0.125000
vt 0.625000 0.625000
vt 0.875000 0.125000
vt 0.125000 0.125000
vt 0.375000 0.625000
vt 0.375000 0.062500
vt 0.625000 0.062500
vt 0.625000 0.687500
vt 0.875000 0.062500
vt 0.125000 0.062500
vt 0.375000 0.687500
vt 0.406250 0.000000
vt 0.406250 1.000000
vt 0.406250 0.750000
vt 0.406250 0.687500
vt 0.406250 0.625000
vt 0.406250 0.500000
vt 0.406250 0.250000
vt 0.406250 0.125000
vt 0.406250 0.062500
vt 0.593750 0.625000
vt 0.593750 0.687500
vt 0.593750 0.750000
vt 0.593750 0.000000
vt 0.593750 1.000000
vt 0.593750 0.062500
vt 0.593750 0.125000
vt 0.593750 0.250000
vt 0.593750 0.500000
vt 0.625000 0.656250
vt 0.875000 0.093750
vt 0.625000 0.093750
vt 0.593750 0.093750
vt 0.406250 0.093750
vt 0.375000 0.093750
vt 0.125000 0.093750
vt 0.375000 0.656250
vt 0.406250 0.656250
vt 0.593750 0.656250
vt 0.125000 0.093750
vt 0.375000 0.093750
vt 0.375000 0.125000
vt 0.125000 0.125000
vt 0.625000 0.093750
vt 0.875000 0.093750
vt 0.875000 0.125000
vt 0.625000 0.125000
vt 0.500000 0.750000
vt 0.500000 1.000000
vt 0.406250 1.000000
vt 0.406250 0.750000
vt 0.593750 0.750000
vt 0.593750 1.000000
vn 0.000000 0.000000 1.000000
vn 0.000000 0.000000 1.000000
vn 0.000000 0.000000 1.000000
vn 0.000000 0.000000 1.000000
vn 0.000000 0.000000 -1.000000
vn 0.000000 0.000000 -1.000000
vn 0.000000 0.000000 -1.000000
vn 0.000000 0.000000 -1.000000
vn 0.000000 -1.000000 0.000000
vn 0.000000 -1.000000 0.000000
vn 0.000000 -1.000000 0.000000
vn 0.000000 -1.000000 0.000000
vn 1.000000 0.000000 0.000000
vn 1.000000 0.000000 0.000000
vn 1.000000 0.000000 0.000000
vn 1.000000 0.000000 0.000000
vn -1.000000 0.000000 0.000000
vn -1.000000 0.000000 0.000000
vn -1.000000 0.000000 0.000000
vn -1.000000 0.000000 0.000000
vn 0.000000 0.000000 1.000000
vn 0.000000 0.000000 1.000000
vn 0.000000 0.000000 1.000000
vn 0.000000 0.000000 1.000000
vn 1.000000 0.000000 0.000000
vn 1.000000 0.000000 0.000000
vn 1.000000 0.000000 0.000000
vn 1.000000 0.000000 0.000000
vn 0.000000 0.000000 -1.000000
vn 0.000000 0.000000 -1.000000
vn 0.000000 0.000000 -1.000000
vn 0.000000 0.000000 -1.000000
vn -1.000000 0.000000 0.000000
vn -1.000000 0.000000 0.000000
vn -1.000000 0.000000 0.000000
vn -1.000000 0.000000 0.000000
vn 1.000000 0.000000 0.000000
vn 1.000000 0.000000 0.000000
vn -1.000000 0.000000 0.000000
vn -1.000000 0.000000 0.000000
vn 0.000000 -1.000000 0.000000
vn 0.000000 -1.000000 0.000000
vn 0.000000 -1.000000 0.000000
vn 0.000000 -1.000000 0.000000
vn 0.000000 -1.000000 0.000000
vn 0.000000 -1.000000 0.000000
vn 0.000000 0.000000 -1.000000
vn 0.000000 0.000000 -1.000000
vn 0.000000 0.000000 -1.000000
vn 0.000000 0.000000 -1.000000
vn 0.000000 0.000000 -1.000000
vn 0.000000 0.000000 -1.000000
vn 0.000000 1.000000 0.000000
vn 0.000000 1.000000 0.000000
vn 0.000000 1.000000 0.000000
vn 0.000000 1.000000 0.000000
vn 0.000000 0.000000 1.000000
vn 0.000000 0.000000 1.000000
vn 0.000000 0.000000 1.000000
vn 0.000000 0.000000 1.000000
vn 0.000000 0.000000 1.000000
vn 0.000000 0.000000 1.000000
vn 0.000000 0.000000 -1.000000
vn 0.000000 0.000000 -1.000000
vn 0.000000 0.000000 -1.000000
vn 0.000000 0.000000 -1.000000
vn 0.000000 -1.000000 0.000000
vn 0.000000 -1.000000 0.000000
vn 0.000000 -1.000000 0.000000
vn 0.000000 -1.000000 0.000000
vn 0.000000 0.000000 1.000000
vn 0.000000 0.000000 1.000000
vn 0.000000 0.000000 1.000000
vn 0.000000 0.000000 1.000000
vn 0.000000 0.000000 1.000000
vn 0.000000 0.000000 1.000000
vn 0.000000 1.000000 0.000000
vn 0.000000 1.000000 0.000000
vn 0.000000 1.000000 0.000000
vn 0.000000 1.000000 0.000000
vn 0.000000 0.000000 -1.000000
vn 0.000000 0.000000 -1.000000
vn 1.000000 0.000000 0.000000
vn 1.000000 0.000000 0.000000
vn 1.000000 0.000000 0.000000
vn 1.000000 0.000000 0.000000
vn -1.000000 0.000000 0.000000
vn -1.000000 0.000000 0.000000
vn -1.000000 0.000000 0.000000
vn -1.000000 0.000000 0.000000
vn 0.000000 1.000000 0.000000
vn 0.000000 1.000000 0.000000
vn 0.000000 1.000000 0.000000
vn 0.000000 1.000000 0.000000
vn 0.000000 -1.000000 0.000000
vn 0.000000 -1.000000 0.000000
vn 0.000000 -1.000000 0.000000
vn 0.000000 -1.000000 0.000000
vn 0.000000 1.000000 0.000000
vn 0.000000 1.000000 0.000000
vn 0.000000 1.000000 0.000000
vn 0.000000 1.000000 0.000000
vn 0.000000 -1.000000 0.000000
vn 0.000000 -1.000000 0.000000
vn 0.000000 -1.000000 0.000000
vn 0.000000 -1.000000 0.000000
vn 1.000000 0.000000 0.000000
vn 1.000000 0.000000 0.000000
vn 1.000000 0.000000 0.000000
vn 1.000000 0.000000 0.000000
vn -1.000000 0.000000 0.000000
vn -1.000000 0.000000 0.000000
vn -1.000000 0.000000 0.000000
vn -1.000000 0.000000 0.000000
s 1
g Light Warehouse
usemtl initialShadingGroup
f 30/42/1 31/43/2 22/33/3 23/34/4
s 2
f 32/44/5 25/36/6 20/31/7 21/32/8
s 3
f 54/68/9 49/64/10 50/63/11 53/67/12
s off
f 4/4/13 10/16/14 11/18/15 6/12/16
f 9/15/17 3/3/18 5/14/19 12/19/20
s 1
f 24/35/21 29/41/22 35/48/23 36/49/24
s 5
f 34/47/25 14/22/26 15/24/27 33/46/28
s 2
f 39/53/29 40/54/30 26/37/31 19/30/32
s 6
f 13/21/33 37/50/34 38/51/35 16/25/36
s 5
f 14/22/26 2/2/37 8/11/38 15/24/27
s 6
f 1/1/39 13/21/33 16/25/36 7/13/40
s 3
f 49/64/10 51/65/41 52/66/42 50/63/11
s off
f 17/28/43 1/9/44 7/7/45 18/29/46
s 2
f 16/26/47 19/30/32 18/29/48 7/7/49
f 38/52/50 39/53/29 19/30/32 16/26/47
f 12/20/51 5/5/52 21/32/8 20/31/7
s 7
f 3/3/53 22/33/54 21/32/55 5/5/56
s 1
f 3/3/57 9/15/58 23/34/4 22/33/3
f 13/21/59 24/35/21 36/49/24 37/50/60
f 1/1/61 17/27/62 24/35/21 13/21/59
s 2
f 26/37/31 40/54/30 33/45/63 15/23/64
f 27/38/65 26/37/31 15/23/64 8/8/66
s off
f 2/10/67 28/40/68 27/38/69 8/8/70
s 1
f 29/41/22 28/39/71 2/2/72 14/22/73
f 34/47/74 35/48/23 29/41/22 14/22/73
f 10/16/75 4/4/76 31/43/2 30/42/1
s 7
f 32/44/77 31/43/78 4/4/79 6/6/80
s 2
f 6/6/81 11/17/82 25/36/6 32/44/5
s off
f 48/62/83 46/59/84 45/60/85 47/61/86
s 1
f 35/48/23 30/42/1 23/34/4 36/49/24
s off
f 41/56/87 43/57/88 44/58/89 42/55/90
s 2
f 20/31/7 25/36/6 40/54/30 39/53/29
s off
f 37/50/91 41/56/92 42/55/93 38/51/94
f 43/57/95 9/15/96 12/19/97 44/58/98
f 46/59/99 34/47/100 33/46/101 45/60/102
f 10/16/103 48/62/104 47/61/105 11/18/106
f 51/65/107 17/28/108 18/29/109 52/66/110
f 28/40/111 54/68/112 53/67/113 27/38/114
s 7
f 22/33/54 31/43/78 32/44/77 21/32/55
g default
v 0.086603 0.552019 1.450000
v 0.050000 0.552019 1.413398
v 0.000000 0.552019 1.400000
v -0.050000 0.552019 1.413398
v -0.086603 0.552019 1.450000
v -0.100000 0.552019 1.500000
v -0.086603 0.552019 1.550000
v -0.050000 0.552019 1.586603
v 0.000000 0.552019 1.600000
v 0.050000 0.552019 1.586603
v 0.086603 0.552019 1.550000
v 0.100000 0.552019 1.500000
v 0.170254 0.472019 1.401704
v 0.098296 0.472019 1.329746
v 0.098296 0.552019 1.329746
v 0.170254 0.552019 1.401704
v -0.000000 0.472019 1.303407
v -0.000000 0.552019 1.303407
v -0.098296 0.472019 1.329746
v -0.098296 0.552019 1.329746
v -0.170254 0.472019 1.401704
v -0.170254 0.552019 1.401704
v -0.196593 0.472019 1.500000
v -0.196593 0.552019 1.500000
v -0.170254 0.472019 1.598296
v -0.170254 0.552019 1.598296
v -0.098296 0.472019 1.670254
v -0.098296 0.552019 1.670254
v 0.000000 0.472019 1.696593
v 0.000000 0.552019 1.696593
v 0.098296 0.472019 1.670254
v 0.098296 0.552019 1.670254
v 0.170254 0.472019 1.598296
v 0.170254 0.552019 1.598296
v 0.196593 0.472019 1.500000
v 0.196593 0.552019 1.500000
v 0.086603 0.552019 -1.550000
v 0.050000 0.552019 -1.586603
v 0.000000 0.552019 -1.600000
v -0.050000 0.552019 -1.586603
v -0.086603 0.552019 -1.550000
v -0.100000 0.552019 -1.500000
v -0.086603 0.552019 -1.450000
v -0.050000 0.552019 -1.413397
v 0.000000 0.552019 -1.400000
v 0.050000 0.552019 -1.413397
v 0.086603 0.552019 -1.450000
v 0.100000 0.552019 -1.500000
v 0.170254 0.472019 -1.598296
v 0.098296 0.472019 -1.670254
v 0.098296 0.552019 -1.670254
v 0.170254 0.552019 -1.598296
v -0.000000 0.472019 -1.696593
v -0.000000 0.552019 -1.696593
v -0.098296 0.472019 -1.670254
v -0.098296 0.552019 -1.670254
v -0.170254 0.472019 -1.598296
v -0.170254 0.552019 -1.598296
v -0.196593 0.472019 -1.500000
v -0.196593 0.552019 -1.500000
v -0.170254 0.472019 -1.401704
v -0.170254 0.552019 -1.401704
v -0.098296 0.472019 -1.329746
v -0.098296 0.552019 -1.329746
v 0.000000 0.472019 -1.303407
v 0.000000 0.552019 -1.303407
v 0.098296 0.472019 -1.329746
v 0.098296 0.552019 -1.329746
v 0.170254 0.472019 -1.401704
v 0.170254 0.552019 -1.401704
v 0.196593 0.472019 -1.500000
v 0.196593 0.552019 -1.500000
v 0.086603 2.512019 1.450000
v 0.050000 2.512019 1.413398
v 0.000000 2.512019 1.400000
v -0.050000 2.512019 1.413398
v -0.086603 2.512019 1.450000
v -0.100000 2.512019 1.500000
v -0.086603 2.512019 1.550000
v -0.050000 2.512019 1.586603
v 0.000000 2.512019 1.600000
v 0.050000 2.512019 1.586603
v 0.086603 2.512019 1.550000
v 0.100000 2.512019 1.500000
v 0.086603 2.512019 -1.550000
v 0.050000 2.512019 -1.586603
v 0.000000 2.512019 -1.600000
v -0.050000 2.512019 -1.586603
v -0.086603 2.512019 -1.550000
v -0.100000 2.512019 -1.500000
v -0.086603 2.512019 -1.450000
v -0.050000 2.512019 -1.413397
v 0.000000 2.512019 -1.400000
v 0.050000 2.512019 -1.413397
v 0.086603 2.512019 -1.450000
v 0.100000 2.512019 -1.500000
vt 0.625000 0.320019
vt 0.375000 0.320019
vt 0.395833 0.320019
vt 0.416667 0.320019
vt 0.437500 0.320019
vt 0.458333 0.320019
vt 0.479167 0.320019
vt 0.500000 0.320019
vt 0.520833 0.320019
vt 0.541667 0.320019
vt 0.562500 0.320019
vt 0.583333 0.320019
vt 0.604167 0.320019
vt 0.375000 0.312500
vt 0.395833 0.312500
vt 0.395833 0.320019
vt 0.375000 0.320019
vt 0.416667 0.312500
vt 0.416667 0.320019
vt 0.437500 0.312500
vt 0.437500 0.320019
vt 0.458333 0.312500
vt 0.458333 0.320019
vt 0.479167 0.312500
vt 0.479167 0.320019
vt 0.500000 0.312500
vt 0.500000 0.320019
vt 0.520833 0.312500
vt 0.520833 0.320019
vt 0.541667 0.312500
vt 0.541667 0.320019
vt 0.562500 0.312500
vt 0.562500 0.320019
vt 0.583333 0.312500
vt 0.583333 0.320019
vt 0.604167 0.312500
vt 0.604167 0.320019
vt 0.625000 0.312500
vt 0.625000 0.320019
vt 0.375000 0.320019
vt 0.395833 0.320019
vt 0.416667 0.320019
vt 0.437500 0.320019
vt 0.458333 0.320019
vt 0.479167 0.320019
vt 0.500000 0.320019
vt 0.520833 0.320019
vt 0.541667 0.320019
vt 0.562500 0.320019
vt 0.583333 0.320019
vt 0.604167 0.320019
vt 0.625000 0.320019
vt 0.375000 0.312500
vt 0.395833 0.312500
vt 0.395833 0.320019
vt 0.375000 0.320019
vt 0.416667 0.312500
vt 0.416667 0.320019
vt 0.437500 0.312500
vt 0.437500 0.320019
vt 0.458333 0.312500
vt 0.458333 0.320019
vt 0.479167 0.312500
vt 0.479167 0.320019
vt 0.500000 0.312500
vt 0.500000 0.320019
vt 0.520833 0.312500
vt 0.520833 0.320019
vt 0.541667 0.312500
vt 0.541667 0.320019
vt 0.562500 0.312500
vt 0.562500 0.320019
vt 0.583333 0.312500
vt 0.583333 0.320019
vt 0.604167 0.312500
vt 0.604167 0.320019
vt 0.625000 0.312500
vt 0.625000 0.320019
vt 0.625000 0.504229
vt 0.375000 0.504229
vt 0.395833 0.504229
vt 0.416667 0.504229
vt 0.437500 0.504229
vt 0.458333 0.504229
vt 0.479167 0.504229
vt 0.500000 0.504229
vt 0.520833 0.504229
vt 0.541667 0.504229
vt 0.562500 0.504229
vt 0.583333 0.504229
vt 0.604167 0.504229
vt 0.625000 0.504229
vt 0.375000 0.504229
vt 0.395833 0.504229
vt 0.416667 0.504229
vt 0.437500 0.504229
vt 0.458333 0.504229
vt 0.479167 0.504229
vt 0.500000 0.504229
vt 0.520833 0.504229
vt 0.541667 0.504229
vt 0.562500 0.504229
vt 0.583333 0.504229
vt 0.604167 0.504229
vn 0.866025 0.000000 -0.500000
vn 0.500000 0.000000 -0.866025
vn 0.500000 0.000000 -0.866025
vn 0.866025 0.000000 -0.500000
vn 0.000000 0.000000 -1.000000
vn 0.000000 0.000000 -1.000000
vn -0.500000 0.000000 -0.866025
vn -0.500000 0.000000 -0.866025
vn -0.866025 0.000000 -0.500000
vn -0.866025 0.000000 -0.500000
vn -1.000000 0.000000 0.000000
vn -1.000000 0.000000 0.000000
vn -0.866025 0.000000 0.500000
vn -0.866025 0.000000 0.500000
vn -0.500000 0.000000 0.866025
vn -0.500000 0.000000 0.866025
vn -0.000000 0.000000 1.000000
vn -0.000000 0.000000 1.000000
vn 0.500000 0.000000 0.866025
vn 0.500000 0.000000 0.866025
vn 0.866025 0.000000 0.500000
vn 0.866025 0.000000 0.500000
vn 1.000000 0.000000 0.000000
vn 1.000000 0.000000 0.000000
vn 0.498191 0.084956 -0.862896
vn 0.862894 0.084956 -0.498193
vn 0.000000 1.000000 0.000000
vn 0.000000 1.000000 0.000000
vn 0.000000 0.084956 -0.996385
vn 0.000000 1.000000 0.000000
vn -0.498191 0.084956 -0.862896
vn 0.000000 1.000000 0.000000
vn -0.862894 0.084956 -0.498193
vn 0.000000 1.000000 0.000000
vn -0.996385 0.084955 0.000000
vn 0.000000 1.000000 0.000000
vn -0.862895 0.084955 0.498192
vn 0.000000 1.000000 0.000000
vn -0.498191 0.084956 0.862895
vn 0.000000 1.000000 -0.000000
vn 0.000000 0.084955 0.996385
vn 0.000000 1.000000 0.000000
vn 0.498191 0.084956 0.862896
vn 0.000000 1.000000 0.000000
vn 0.862895 0.084955 0.498192
vn 0.000000 1.000000 0.000000
vn 0.996385 0.084956 0.000000
vn 0.000000 1.000000 0.000000
vn 0.866025 0.000000 -0.500000
vn 0.500000 0.000000 -0.866025
vn 0.500000 0.000000 -0.866025
vn 0.866025 0.000000 -0.500000
vn -0.000000 0.000000 -1.000000
vn -0.000000 0.000000 -1.000000
vn -0.500000 0.000000 -0.866025
vn -0.500000 0.000000 -0.866025
vn -0.866025 0.000000 -0.500000
vn -0.866025 0.000000 -0.500000
vn -1.000000 0.000000 0.000000
vn -1.000000 0.000000 0.000000
vn -0.866025 0.000000 0.500000
vn -0.866025 0.000000 0.500000
vn -0.500000 0.000000 0.866026
vn -0.500000 0.000000 0.866026
vn 0.000000 0.000000 1.000000
vn 0.000000 0.000000 1.000000
vn 0.500000 0.000000 0.866026
vn 0.500000 0.000000 0.866026
vn 0.866025 0.000000 0.500000
vn 0.866025 0.000000 0.500000
vn 1.000000 0.000000 0.000000
vn 1.000000 0.000000 0.000000
vn 0.498192 0.084956 -0.862895
vn 0.862895 0.084956 -0.498193
vn 0.000000 1.000000 0.000000
vn 0.000000 1.000000 0.000000
vn 0.000000 0.084955 -0.996385
vn 0.000000 1.000000 0.000000
vn -0.498192 0.084956 -0.862895
vn 0.000000 1.000000 0.000000
vn -0.862895 0.084956 -0.498192
vn 0.000000 1.000000 0.000000
vn -0.996385 0.084956 0.000000
vn 0.000000 1.000000 0.000000
vn -0.862895 0.084956 0.498192
vn 0.000000 1.000000 0.000000
vn -0.498193 0.084956 0.862894
vn 0.000000 1.000000 -0.000000
vn 0.000000 0.084955 0.996385
vn 0.000000 1.000000 0.000000
vn 0.498192 0.084955 0.862895
vn 0.000000 1.000000 0.000000
vn 0.862894 0.084956 0.498192
vn 0.000000 1.000000 0.000000
vn 0.996385 0.084956 0.000000
vn 0.000000 1.000000 0.000000
vn 0.499998 0.000000 -0.866026
vn 0.866025 0.000000 -0.500001
vn 0.000000 0.000000 -1.000000
vn -0.499998 0.000000 -0.866026
vn -0.866025 0.000000 -0.500001
vn -1.000000 0.000000 0.000000
vn -0.866026 0.000000 0.500000
vn -0.499998 0.000000 0.866026
vn 0.000000 0.000000 1.000000
vn 0.499998 0.000000 0.866026
vn 0.866026 0.000000 0.500000
vn 1.000000 0.000000 0.000000
vn 0.500000 0.000000 -0.866026
vn 0.866025 0.000000 -0.500000
vn 0.000000 0.000000 -1.000000
vn -0.500000 0.000000 -0.866026
vn -0.866026 0.000000 -0.500000
vn -1.000000 0.000000 0.000000
vn -0.866026 0.000000 0.500000
vn -0.500000 0.000000 0.866025
vn 0.000000 0.000000 1.000000
vn 0.500000 0.000000 0.866025
vn 0.866025 0.000000 0.500000
vn 1.000000 0.000000 0.000000
s 1
g Light Warehouse Supports
usemtl initialShadingGroup
f 67/82/115 68/83/116 69/84/117 70/85/118
f 68/83/116 71/86/119 72/87/120 69/84/117
f 71/86/119 73/88/121 74/89/122 72/87/120
f 73/88/121 75/90/123 76/91/124 74/89/122
f 75/90/123 77/92/125 78/93/126 76/91/124
f 77/92/125 79/94/127 80/95/128 78/93/126
f 79/94/127 81/96/129 82/97/130 80/95/128
f 81/96/129 83/98/131 84/99/132 82/97/130
f 83/98/131 85/100/133 86/101/134 84/99/132
f 85/100/133 87/102/135 88/103/136 86/101/134
f 87/102/135 89/104/137 90/105/138 88/103/136
f 89/104/137 67/106/115 70/107/118 90/105/138
s 2
f 56/71/139 55/70/140 70/85/141 69/84/142
f 57/72/143 56/71/139 69/84/142 72/87/144
f 58/73/145 57/72/143 72/87/144 74/89/146
f 59/74/147 58/73/145 74/89/146 76/91/148
f 60/75/149 59/74/147 76/91/148 78/93/150
f 61/76/151 60/75/149 78/93/150 80/95/152
f 62/77/153 61/76/151 80/95/152 82/97/154
f 63/78/155 62/77/153 82/97/154 84/99/156
f 64/79/157 63/78/155 84/99/156 86/101/158
f 65/80/159 64/79/157 86/101/158 88/103/160
f 66/81/161 65/80/159 88/103/160 90/105/162
f 55/69/140 66/81/161 90/105/162 70/107/141
s 3
f 103/121/163 104/122/164 105/123/165 106/124/166
f 104/122/164 107/125/167 108/126/168 105/123/165
f 107/125/167 109/127/169 110/128/170 108/126/168
f 109/127/169 111/129/171 112/130/172 110/128/170
f 111/129/171 113/131/173 114/132/174 112/130/172
f 113/131/173 115/133/175 116/134/176 114/132/174
f 115/133/175 117/135/177 118/136/178 116/134/176
f 117/135/177 119/137/179 120/138/180 118/136/178
f 119/137/179 121/139/181 122/140/182 120/138/180
f 121/139/181 123/141/183 124/142/184 122/140/182
f 123/141/183 125/143/185 126/144/186 124/142/184
f 125/143/185 103/145/163 106/146/166 126/144/186
s 4
f 92/109/187 91/108/188 106/124/189 105/123/190
f 93/110/191 92/109/187 105/123/190 108/126/192
f 94/111/193 93/110/191 108/126/192 110/128/194
f 95/112/195 94/111/193 110/128/194 112/130/196
f 96/113/197 95/112/195 112/130/196 114/132/198
f 97/114/199 96/113/197 114/132/198 116/134/200
f 98/115/201 97/114/199 116/134/200 118/136/202
f 99/116/203 98/115/201 118/136/202 120/138/204
f 100/117/205 99/116/203 120/138/204 122/140/206
f 101/118/207 100/117/205 122/140/206 124/142/208
f 102/119/209 101/118/207 124/142/208 126/144/210
f 91/120/188 102/119/209 126/144/210 106/146/189
s 2
f 128/149/211 127/148/212 55/70/140 56/71/139
f 129/150/213 128/149/211 56/71/139 57/72/143
f 130/151/214 129/150/213 57/72/143 58/73/145
f 131/152/215 130/151/214 58/73/145 59/74/147
f 132/153/216 131/152/215 59/74/147 60/75/149
f 133/154/217 132/153/216 60/75/149 61/76/151
f 134/155/218 133/154/217 61/76/151 62/77/153
f 135/156/219 134/155/218 62/77/153 63/78/155
f 136/157/220 135/156/219 63/78/155 64/79/157
f 137/158/221 136/157/220 64/79/157 65/80/159
f 138/159/222 137/158/221 65/80/159 66/81/161
f 55/69/140 127/147/212 138/159/222 66/81/161
s 4
f 140/162/223 139/161/224 91/108/188 92/109/187
f 141/163/225 140/162/223 92/109/187 93/110/191
f 142/164/226 141/163/225 93/110/191 94/111/193
f 143/165/227 142/164/226 94/111/193 95/112/195
f 144/166/228 143/165/227 95/112/195 96/113/197
f 145/167/229 144/166/228 96/113/197 97/114/199
f 146/168/230 145/167/229 97/114/199 98/115/201
f 147/169/231 146/168/230 98/115/201 99/116/203
f 148/170/232 147/169/231 99/116/203 100/117/205
f 149/171/233 148/170/232 100/117/205 101/118/207
f 150/172/234 149/171/233 101/118/207 102/119/209
f 91/120/188 139/160/224 150/172/234 102/119/209
g default
v -0.229069 0.013076 1.821527
v 0.229069 0.013076 1.821527
v -0.375000 0.177034 2.000000
v 0.375000 0.177034 2.000000
v -0.375000 0.177034 -2.000000
v 0.375000 0.177034 -2.000000
v -0.229069 0.013076 -1.821525
v 0.229069 0.013076 -1.821525
vt 0.375000 0.000000
vt 0.625000 0.000000
vt 0.375000 0.250000
vt 0.625000 0.250000
vt 0.375000 0.500000
vt 0.625000 0.500000
vt 0.375000 0.750000
vt 0.625000 0.750000
vt 0.375000 1.000000
vt 0.625000 1.000000
vt 0.875000 0.000000
vt 0.875000 0.250000
vt 0.125000 0.000000
vt 0.125000 0.250000
vn 0.000000 -0.736419 0.676526
vn 0.000000 -0.736419 0.676526
vn 0.000000 -0.736419 0.676526
vn 0.000000 -0.736419 0.676526
vn 0.000000 -0.736421 -0.676524
vn 0.000000 -0.736421 -0.676524
vn 0.000000 -0.736421 -0.676524
vn 0.000000 -0.736421 -0.676524
vn 0.000000 -1.000000 0.000000
vn 0.000000 -1.000000 0.000000
vn 0.000000 -1.000000 0.000000
vn 0.000000 -1.000000 0.000000
vn 0.746978 -0.664849 0.000000
vn 0.746978 -0.664849 0.000000
vn 0.746978 -0.664849 0.000000
vn 0.746978 -0.664849 0.000000
vn -0.746979 -0.664848 0.000000
vn -0.746979 -0.664848 0.000000
vn -0.746979 -0.664848 0.000000
vn -0.746979 -0.664848 0.000000
s off
g Light Warehouse Bulb
usemtl initialShadingGroup
f 151/173/235 152/174/236 154/176/237 153/175/238
f 155/177/239 156/178/240 158/180/241 157/179/242
f 157/179/243 158/180/244 152/182/245 151/181/246
f 152/174/247 158/183/248 156/184/249 154/176/250
f 157/185/251 151/173/252 153/175/253 155/186/254
