# This file uses centimeters as units for non-parametric coordinates.

mtllib Reactor_middle_wall_door.mtl
g default
v -39.151691 0.000000 0.000000
v -39.151691 10.000702 0.000000
v -31.031699 0.003496 8.260843
v -30.986431 10.003960 8.279551
v -27.572980 0.003158 8.309814
v -27.575846 10.002106 8.279551
v -26.575846 0.001404 5.424156
v -26.575846 9.695245 7.424156
v -39.151691 5.000351 0.000000
v -30.636507 5.001755 8.424156
v -27.575846 5.001755 8.424156
v -26.575846 5.001755 5.424156
v -25.575846 10.002106 8.279551
v -25.575845 9.695245 7.424156
v -25.575845 0.001404 5.424156
v -25.575845 5.001755 5.424156
v 0.000000 0.000000 0.000000
v 0.000000 10.000702 0.000000
v -8.119992 0.003496 8.260843
v -8.165260 10.003960 8.279551
v -11.578712 0.003158 8.309814
v -11.575846 10.002106 8.279551
v -12.575846 -0.000486 5.424128
v -12.575846 9.695245 7.424156
v 0.000000 5.000351 0.000000
v -8.515184 5.001755 8.424156
v -11.575846 5.001755 8.424156
v -12.575846 5.001755 5.424156
v -13.575846 10.002106 8.279551
v -13.575847 9.695245 7.424156
v -13.575847 -0.000486 5.424128
v -13.575847 5.001755 5.424156
v -2.192968 0.000231 2.200432
v -2.160603 5.000566 2.112562
v -2.148092 10.001056 2.125128
v -5.643731 9.990671 5.580608
v -5.691397 4.991903 5.653069
v -5.723700 0.001209 5.740768
v -36.958723 0.000231 2.200432
v -36.935474 5.000586 2.169060
v -36.912228 10.000632 2.137691
v -33.396987 10.001736 5.693582
v -33.404743 5.001520 5.709398
v -33.427992 0.001209 5.740768
vt 0.000000 0.500000
vt 0.000000 1.000000
vt 0.000000 1.000000
vt 0.000000 0.500000
vt 0.000000 1.000000
vt 0.000000 1.000000
vt 0.000000 0.500000
vt 0.000000 0.500000
vt 0.000000 0.000000
vt 0.000000 1.000000
vt 0.500000 1.000000
vt 0.500000 0.000000
vt 0.000000 0.000000
vt 0.000000 0.000000
vt 0.000000 0.000000
vt 0.000000 0.000000
vt 1.000000 1.000000
vt 1.000000 0.000000
vt 0.000000 0.000000
vt 0.000000 1.000000
vt 1.000000 1.000000
vt 1.000000 0.000000
vt 0.000000 0.000000
vt 0.000000 1.000000
vt 1.000000 1.000000
vt 1.000000 0.000000
vt 0.000000 0.000000
vt 0.000000 1.000000
vt 1.000000 1.000000
vt 1.000000 0.000000
vt 0.000000 0.500000
vt 0.000000 0.500000
vt 0.000000 1.000000
vt 0.000000 1.000000
vt 0.000000 1.000000
vt 0.000000 0.500000
vt 0.000000 0.500000
vt 0.000000 1.000000
vt 0.000000 0.000000
vt 0.500000 0.000000
vt 0.500000 1.000000
vt 0.000000 1.000000
vt 0.000000 0.000000
vt 0.000000 0.000000
vt 0.000000 0.000000
vt 0.000000 0.000000
vt 1.000000 0.000000
vt 1.000000 1.000000
vt 0.000000 0.000000
vt 1.000000 0.000000
vt 1.000000 1.000000
vt 0.000000 1.000000
vt 0.000000 0.000000
vt 1.000000 0.000000
vt 1.000000 1.000000
vt 0.000000 1.000000
vt 0.000000 0.000000
vt 1.000000 0.000000
vt 1.000000 1.000000
vt 0.000000 1.000000
vt 0.000000 0.500000
vt 0.000000 0.000000
vt 0.000000 1.000000
vt 0.000000 0.000000
vt 0.000000 0.500000
vt 0.000000 1.000000
vn 0.704050 -0.004892 -0.710133
vn 0.704042 -0.004891 -0.710142
vn 0.712030 0.002468 -0.702144
vn 0.712034 0.002478 -0.702141
vn -0.000008 -0.028902 -0.999582
vn -0.000008 -0.028902 -0.999582
vn -0.000008 -0.028902 -0.999582
vn -0.000008 -0.028902 -0.999582
vn -0.881250 0.088852 -0.464224
vn -0.881250 0.088852 -0.464224
vn -0.881250 0.088852 -0.464223
vn -0.881250 0.088852 -0.464224
vn 0.706463 -0.006246 -0.707723
vn 0.706460 -0.006244 -0.707725
vn 0.709621 -0.013141 -0.704461
vn 0.709623 -0.013149 -0.704458
vn 0.007510 0.027468 -0.999595
vn 0.007510 0.027468 -0.999594
vn 0.007510 0.027468 -0.999594
vn 0.007510 0.027468 -0.999594
vn -0.946963 0.003403 -0.321326
vn -0.946963 0.003403 -0.321326
vn -0.946963 0.003403 -0.321326
vn -0.946963 0.003403 -0.321326
vn 0.000000 0.941266 -0.337666
vn 0.000000 0.941266 -0.337666
vn 0.000000 0.941266 -0.337666
vn 0.000000 0.941266 -0.337666
vn 0.000000 0.000000 -1.000000
vn 0.000000 0.000000 -1.000000
vn 0.000000 0.000000 -1.000000
vn 0.000000 0.000000 -1.000000
vn 0.000000 0.392015 -0.919959
vn 0.000000 0.392015 -0.919959
vn 0.000000 0.392015 -0.919959
vn 0.000000 0.392015 -0.919959
vn -0.701207 0.001773 -0.712956
vn -0.703922 0.000672 -0.710277
vn -0.703919 0.000673 -0.710280
vn -0.701207 0.001773 -0.712956
vn 0.000008 -0.028902 -0.999582
vn 0.000008 -0.028902 -0.999582
vn 0.000008 -0.028902 -0.999582
vn 0.000008 -0.028902 -0.999582
vn 0.881250 0.088852 -0.464224
vn 0.881250 0.088852 -0.464224
vn 0.881250 0.088852 -0.464224
vn 0.881250 0.088852 -0.464224
vn -0.703783 -0.003964 -0.710404
vn -0.706451 -0.006377 -0.707733
vn -0.706407 -0.006337 -0.707778
vn -0.703783 -0.003964 -0.710404
vn -0.007510 0.027468 -0.999594
vn -0.007510 0.027468 -0.999594
vn -0.007510 0.027468 -0.999595
vn -0.007510 0.027468 -0.999594
vn 0.946963 0.003403 -0.321326
vn 0.946963 0.003403 -0.321326
vn 0.946963 0.003403 -0.321326
vn 0.946963 0.003403 -0.321326
vn 0.000000 0.941266 -0.337666
vn 0.000000 0.941266 -0.337666
vn 0.000000 0.941266 -0.337666
vn 0.000000 0.941266 -0.337666
vn 0.000000 0.000006 -1.000000
vn 0.000000 0.000006 -1.000000
vn 0.000000 0.000006 -1.000000
vn 0.000000 0.000006 -1.000000
vn 0.000000 0.392015 -0.919959
vn 0.000000 0.392015 -0.919959
vn 0.000000 0.392015 -0.919959
vn 0.000000 0.392015 -0.919959
vn 0.000000 0.392015 -0.919959
vn 0.000000 0.392015 -0.919959
vn 0.000000 0.392015 -0.919959
vn 0.000000 0.392015 -0.919959
vn 0.000000 0.941266 -0.337666
vn 0.000000 0.941266 -0.337667
vn 0.000000 0.941266 -0.337667
vn 0.000000 0.941266 -0.337666
vn -0.709621 -0.013182 -0.704461
vn -0.709659 -0.013314 -0.704419
vn -0.711746 -0.020542 -0.702137
vn -0.711746 -0.020542 -0.702137
vn -0.709713 0.005710 -0.704467
vn -0.709812 0.005846 -0.704367
vn -0.715122 0.013261 -0.698874
vn -0.715122 0.013261 -0.698874
vn -0.703919 0.000673 -0.710280
vn -0.703922 0.000672 -0.710277
vn -0.709812 0.005846 -0.704367
vn -0.709713 0.005710 -0.704467
vn -0.706407 -0.006337 -0.707778
vn -0.706451 -0.006377 -0.707733
vn -0.709659 -0.013314 -0.704419
vn -0.709621 -0.013182 -0.704461
vn 0.703897 -0.003865 -0.710291
vn 0.703897 -0.003865 -0.710291
vn 0.706460 -0.006244 -0.707725
vn 0.706463 -0.006246 -0.707723
vn 0.694983 -0.003871 -0.719016
vn 0.694983 -0.003871 -0.719016
vn 0.704042 -0.004891 -0.710142
vn 0.704050 -0.004892 -0.710133
vn 0.712034 0.002478 -0.702141
vn 0.712030 0.002468 -0.702144
vn 0.715220 0.013259 -0.698774
vn 0.715220 0.013259 -0.698774
vn 0.709623 -0.013149 -0.704458
vn 0.709621 -0.013141 -0.704461
vn 0.711726 -0.020520 -0.702157
vn 0.711726 -0.020520 -0.702157
s off
g Reactor_middle_wall_door1
usemtl Reactor_middle_wall_door:initialShadingGroup
f 40/1/1 41/2/2 42/3/3 43/4/4
f 4/5/5 6/6/6 11/7/7 10/8/8
f 6/9/9 8/10/10 12/11/11 11/12/12
f 39/13/13 40/1/14 43/4/15 44/14/16
f 11/7/17 5/15/18 3/16/19 10/8/20
f 12/11/21 7/17/22 5/18/23 11/12/24
f 6/19/25 13/20/26 14/21/27 8/22/28
f 12/23/29 16/24/30 15/25/31 7/26/32
f 8/27/33 14/28/34 16/29/35 12/30/36
f 25/31/37 34/32/38 35/33/39 18/34/40
f 20/35/41 26/36/42 27/37/43 22/38/44
f 22/39/45 27/40/46 28/41/47 24/42/48
f 17/43/49 33/44/50 34/32/51 25/31/52
f 27/37/53 26/36/54 19/45/55 21/46/56
f 28/41/57 27/40/58 21/47/59 23/48/60
f 22/49/61 24/50/62 30/51/63 29/52/64
f 28/53/65 23/54/66 31/55/67 32/56/68
f 24/57/69 28/58/70 32/59/71 30/60/72
f 16/29/73 14/28/74 30/60/75 32/59/76
f 14/21/77 13/20/78 29/52/79 30/51/80
f 37/61/81 38/62/82 19/45/83 26/36/84
f 36/63/85 37/61/86 26/36/87 20/35/88
f 35/33/89 34/32/90 37/61/91 36/63/92
f 34/32/93 33/44/94 38/62/95 37/61/96
f 1/64/97 9/65/98 40/1/99 39/13/100
f 9/65/101 2/66/102 41/2/103 40/1/104
f 43/4/105 42/3/106 4/5/107 10/8/108
f 44/14/109 43/4/110 10/8/111 3/16/112
