# This file uses centimeters as units for non-parametric coordinates.

mtllib Reactor_roof.mtl
g default
v -3.000000 -0.000002 7.500000
v 3.000000 -0.000002 7.500000
v -7.500000 -0.000002 3.000000
v 7.500000 -0.000002 3.000000
v -7.500000 -0.000002 -3.000000
v 7.500000 -0.000002 -3.000000
v -3.000000 -0.000002 -7.500000
v 3.000000 -0.000002 -7.500000
v -6.553264 -4.497917 16.197674
v 6.553264 -4.497917 16.197678
v -16.197666 -4.497919 6.553272
v -16.197666 -4.497917 -6.553257
v 16.197666 -4.497919 6.553272
v 16.197666 -4.497917 -6.553257
v -6.553266 -4.497917 -16.197659
v 6.553266 -4.497917 -16.197659
v -5.250000 -0.000002 -5.250000
v -11.316425 -4.500317 -11.316418
v 0.000000 -0.000002 -7.500000
v 0.000000 -4.499475 -16.319237
v 5.250000 -0.000002 -5.250000
v 11.316426 -4.500317 -11.316418
v 7.500000 -0.000002 0.000000
v 16.319246 -4.499475 0.000008
v 5.250000 -0.000002 5.250000
v 11.316424 -4.500317 11.316435
v 0.000000 -0.000002 7.500000
v -0.000002 -4.499475 16.319256
v -5.250000 -0.000002 5.250000
v -11.316429 -4.500315 11.316427
v -7.500000 -0.000002 0.000000
v -16.319246 -4.499475 0.000008
v 0.000000 0.000000 0.000000
vt 0.000000 0.500000
vt 0.494868 0.499953
vt 0.150000 0.150000
vt 0.000000 0.300000
vt 1.000000 1.000000
vt 1.000000 0.000000
vt 0.500000 0.000000
vt 0.500000 1.000000
vt 0.537520 0.000051
vt 0.500000 1.000000
vt 1.000000 1.000000
vt 1.000000 0.000000
vt 0.500000 0.000000
vt 0.500000 1.000000
vt 1.000000 1.000000
vt 1.000000 0.000000
vt 1.000000 1.000000
vt 1.000000 0.000000
vt 0.500000 0.000000
vt 0.500000 1.000000
vt 0.500000 0.000000
vt 0.500000 1.000000
vt 1.000000 1.000000
vt 1.000000 0.000000
vt 1.000000 1.000000
vt 1.000000 0.000000
vt 0.500000 0.000000
vt 0.500000 1.000000
vt 1.000000 1.000000
vt 1.000000 0.000000
vt 0.500000 0.000000
vt 0.500000 1.000000
vt 0.500000 0.000000
vt 0.500000 1.000000
vt 1.000000 1.000000
vt 1.000000 0.000000
vt 0.000000 0.000000
vt 0.000000 1.000000
vt 0.000000 0.000000
vt 0.000000 1.000000
vt 0.000000 0.000000
vt 0.000000 1.000000
vt 0.000000 0.000000
vt 0.000000 1.000000
vt 0.000000 0.000000
vt 0.000000 1.000000
vt 0.000000 0.000000
vt 0.000000 1.000000
vt 0.000000 0.000000
vt 0.000000 1.000000
vt 0.000000 0.000000
vt 0.000000 1.000000
vt 0.500000 1.000000
vt 0.150000 0.850000
vt 0.300000 1.000000
vt 1.000000 0.500000
vt 1.000000 0.300000
vt 0.850000 0.150000
vt 0.500151 0.000061
vt 0.300000 0.000000
vt 0.000000 0.700000
vt 0.850000 0.850000
vt 1.000000 0.700000
vt 0.700000 1.000000
vt 0.700000 0.000000
vn 0.000000 -1.000000 0.000000
vn 0.000000 -1.000000 0.000000
vn 0.000000 -1.000000 0.000000
vn 0.000000 -1.000000 0.000000
vn 0.329994 -0.885302 -0.327633
vn 0.329994 -0.885302 -0.327633
vn 0.328814 -0.885304 -0.328814
vn 0.328814 -0.885304 -0.328814
vn 0.000000 -0.890768 -0.454459
vn 0.000000 -0.890768 -0.454459
vn 0.000000 -0.890768 -0.454459
vn 0.000000 -0.890768 -0.454459
vn 0.454459 -0.890768 0.000000
vn 0.454459 -0.890768 0.000000
vn 0.454459 -0.890768 0.000000
vn 0.454459 -0.890768 0.000000
vn -0.327633 -0.885302 -0.329994
vn -0.327633 -0.885302 -0.329994
vn -0.328814 -0.885304 -0.328814
vn -0.328814 -0.885304 -0.328814
vn -0.454459 -0.890768 0.000000
vn -0.454459 -0.890768 0.000000
vn -0.454459 -0.890768 0.000000
vn -0.454459 -0.890768 0.000000
vn 0.327634 -0.885302 0.329995
vn 0.327634 -0.885302 0.329995
vn 0.328814 -0.885303 0.328815
vn 0.328815 -0.885303 0.328815
vn -0.329995 -0.885302 0.327633
vn -0.329995 -0.885302 0.327633
vn -0.328814 -0.885303 0.328815
vn -0.328814 -0.885304 0.328814
vn 0.000000 -0.890768 0.454459
vn 0.000000 -0.890768 0.454459
vn 0.000000 -0.890768 0.454459
vn 0.000000 -0.890768 0.454459
vn 0.328815 -0.885303 0.328815
vn 0.328814 -0.885303 0.328815
vn 0.329995 -0.885302 0.327634
vn 0.329995 -0.885302 0.327634
vn 0.000000 -0.890768 0.454459
vn 0.000000 -0.890768 0.454459
vn 0.000000 -0.890768 0.454459
vn 0.000000 -0.890768 0.454459
vn -0.328814 -0.885304 0.328814
vn -0.328814 -0.885303 0.328815
vn -0.327633 -0.885302 0.329995
vn -0.327633 -0.885302 0.329995
vn -0.454459 -0.890768 0.000000
vn -0.454459 -0.890768 0.000000
vn -0.454459 -0.890768 0.000000
vn -0.454459 -0.890768 0.000000
vn -0.328814 -0.885304 -0.328814
vn -0.328814 -0.885304 -0.328814
vn -0.329995 -0.885302 -0.327633
vn -0.329994 -0.885302 -0.327633
vn 0.000000 -0.890768 -0.454459
vn 0.000000 -0.890768 -0.454459
vn 0.000000 -0.890768 -0.454459
vn 0.000000 -0.890768 -0.454459
vn 0.328814 -0.885304 -0.328814
vn 0.328814 -0.885304 -0.328814
vn 0.327633 -0.885302 -0.329995
vn 0.327633 -0.885302 -0.329995
vn 0.454459 -0.890768 0.000000
vn 0.454459 -0.890768 0.000000
vn 0.454459 -0.890768 0.000000
vn 0.454459 -0.890768 0.000000
vn 0.000000 -1.000000 0.000000
vn 0.000000 -1.000000 0.000000
vn 0.000000 -1.000000 0.000000
vn 0.000000 -1.000000 0.000000
vn 0.000000 -1.000000 0.000000
vn 0.000000 -1.000000 0.000000
vn 0.000000 -1.000000 0.000000
vn 0.000000 -1.000000 0.000000
vn 0.000000 -1.000000 0.000000
vn 0.000000 -1.000000 0.000000
vn 0.000000 -1.000000 0.000000
vn 0.000000 -1.000000 0.000000
vn 0.000000 -1.000000 0.000000
vn 0.000000 -1.000000 0.000000
vn 0.000000 -1.000000 0.000000
vn 0.000000 -1.000000 0.000000
vn 0.000000 -1.000000 0.000000
vn 0.000000 -1.000000 0.000000
vn 0.000000 -1.000000 0.000000
vn 0.000000 -1.000000 0.000000
vn 0.000000 -1.000000 0.000000
vn 0.000000 -1.000000 0.000000
vn 0.000000 -1.000000 0.000000
vn 0.000000 -1.000000 0.000000
vn 0.000000 -1.000000 0.000000
vn 0.000000 -1.000000 0.000000
vn 0.000000 -1.000000 0.000000
vn 0.000000 -1.000000 0.000000
s off
g Reactor_roof1
usemtl Reactor_roof:initialShadingGroup
f 31/1/1 33/2/2 29/3/3 3/4/4
f 11/5/5 3/6/6 29/7/7 30/8/8
f 27/9/9 28/10/10 9/11/11 1/12/12
f 31/13/13 32/14/14 12/15/15 5/16/16
f 10/17/17 2/18/18 25/19/19 26/20/20
f 23/21/21 24/22/22 13/23/23 4/24/24
f 15/25/25 7/26/26 17/27/27 18/28/28
f 14/29/29 6/30/30 21/31/31 22/32/32
f 19/33/33 20/34/34 16/35/35 8/36/36
f 18/28/37 17/27/38 5/37/39 12/38/40
f 7/39/41 15/40/42 20/34/43 19/33/44
f 22/32/45 21/31/46 8/41/47 16/42/48
f 6/43/49 14/44/50 24/22/51 23/21/52
f 26/20/53 25/19/54 4/45/55 13/46/56
f 2/47/57 10/48/58 28/10/59 27/9/60
f 30/8/61 29/7/62 1/49/63 9/50/64
f 3/51/65 11/52/66 32/14/67 31/13/68
f 19/53/69 33/2/70 17/54/71 7/55/72
f 33/2/73 23/56/74 4/57/75 25/58/76
f 29/3/77 33/2/78 27/59/79 1/60/80
f 17/54/81 33/2/82 31/1/83 5/61/84
f 33/2/85 21/62/86 6/63/87 23/56/88
f 8/64/89 21/62/90 33/2/91 19/53/92
f 27/59/93 33/2/94 25/58/95 2/65/96
