# This file uses centimeters as units for non-parametric coordinates.

mtllib Warehouse_stairs.mtl
g default
v 0.000000 0.198453 0.000000
v 0.000000 0.198453 -1.000000
v 0.000000 0.130573 -0.071250
v 0.000000 0.121972 -1.000000
v 0.000000 0.198453 -0.154338
v 0.000000 0.121972 -0.154338
v 0.000000 0.062694 -0.225588
v 0.000000 0.062694 -1.000000
v 1.500000 0.198453 0.000000
v 1.500000 0.130573 -0.071250
v 1.500000 0.130573 -0.154338
v 1.500000 0.062694 -0.225588
v 1.500000 0.062694 -1.000000
v 1.500000 0.130573 -1.000000
v 1.500000 0.198453 -1.000000
v 1.500000 0.198453 -0.154338
v 0.000000 0.805330 -0.491530
v 0.000000 0.805330 -1.491530
v 0.000000 0.737450 -0.562780
v 0.000000 0.728848 -1.491530
v 0.000000 0.805330 -0.645869
v 0.000000 0.728848 -0.645869
v 0.000000 0.669570 -0.717118
v 0.000000 0.669570 -1.491530
v 1.500000 0.805330 -0.491530
v 1.500000 0.737450 -0.562780
v 1.500000 0.737450 -0.645869
v 1.500000 0.669570 -0.717118
v 1.500000 0.669570 -1.491530
v 1.500000 0.737450 -1.491530
v 1.500000 0.805330 -1.491530
v 1.500000 0.805330 -0.645869
v 0.000000 2.486291 -1.979105
v 0.000000 2.486291 -3.000000
v 0.000000 2.418411 -2.050354
v 0.000000 2.409809 -3.000000
v 0.000000 2.486291 -2.133443
v 0.000000 2.409809 -2.133443
v 0.000000 2.350531 -2.204692
v 0.000000 2.350531 -2.979105
v 1.500000 2.486291 -1.979105
v 1.500000 2.418411 -2.050354
v 1.500000 2.418411 -2.133443
v 1.500000 2.350531 -2.204692
v 1.500000 2.350531 -2.979105
v 1.500000 2.418411 -3.000000
v 1.500000 2.486291 -3.000000
v 1.500000 2.486291 -2.133443
v 0.000000 1.989198 -1.440494
v 0.000000 1.989198 -2.440494
v 0.000000 1.921318 -1.511744
v 0.000000 1.912716 -2.440494
v 0.000000 1.989198 -1.594832
v 0.000000 1.912716 -1.594832
v 0.000000 1.853438 -1.666082
v 0.000000 1.853438 -2.440494
v 1.500000 1.989198 -1.440494
v 1.500000 1.921318 -1.511744
v 1.500000 1.921318 -1.594832
v 1.500000 1.853438 -1.666082
v 1.500000 1.853438 -2.440494
v 1.500000 1.921318 -2.440494
v 1.500000 1.989198 -2.440494
v 1.500000 1.989198 -1.594832
v 0.000000 1.426903 -0.991530
v 0.000000 1.426903 -1.991530
v 0.000000 1.359023 -1.062780
v 0.000000 1.350421 -1.991530
v 0.000000 1.426903 -1.145869
v 0.000000 1.350421 -1.145869
v 0.000000 1.291143 -1.217118
v 0.000000 1.291143 -1.991530
v 1.500000 1.426903 -0.991530
v 1.500000 1.359023 -1.062780
v 1.500000 1.359023 -1.145869
v 1.500000 1.291143 -1.217118
v 1.500000 1.291143 -1.991530
v 1.500000 1.359023 -1.991530
v 1.500000 1.426903 -1.991530
v 1.500000 1.426903 -1.145869
v 0.606470 0.000000 -0.901455
v 0.906469 0.000000 -0.901455
v 0.679919 -0.000001 -1.073983
v 0.833020 -0.000001 -1.073983
v 0.906469 -0.000002 -0.960749
v 0.606470 -0.000002 -0.960749
v 0.606470 2.460315 -2.880988
v 0.906469 2.460315 -2.880988
v 0.679919 2.350531 -2.979105
v 0.833020 2.350531 -2.979105
v 0.906469 2.448474 -2.948684
v 0.606470 2.448474 -2.948684
vt 0.044775 0.940352
vt 0.044775 0.702971
vt 0.066243 0.702971
vt 0.066243 0.940352
vt 0.047189 0.679648
vt 0.066243 0.659648
vt 0.028135 0.722971
vt 0.028135 0.940352
vt 0.967497 0.574336
vt 0.967497 0.594998
vt 0.532502 0.594998
vt 0.532502 0.574336
vt 0.967497 0.550241
vt 0.532502 0.550241
vt 0.967497 0.529578
vt 0.532502 0.529578
vt 0.541869 0.218837
vt 0.541869 0.200000
vt 0.958131 0.197613
vt 0.958131 0.218837
vt 0.952591 0.968394
vt 0.447409 0.968394
vt 0.447409 0.916415
vt 0.952591 0.916415
vt 0.532503 0.305002
vt 0.967497 0.305002
vt 0.447409 0.631606
vt 0.952591 0.631606
vt 0.541869 0.181163
vt 0.958131 0.181163
vt 0.044775 0.940352
vt 0.044775 0.702972
vt 0.066244 0.702972
vt 0.066244 0.940352
vt 0.047189 0.679648
vt 0.066244 0.659648
vt 0.028135 0.722971
vt 0.028135 0.940352
vt 0.967497 0.574336
vt 0.967497 0.594998
vt 0.532502 0.594998
vt 0.532503 0.574336
vt 0.967497 0.550240
vt 0.532502 0.550240
vt 0.967497 0.529579
vt 0.532502 0.529579
vt 0.541870 0.218837
vt 0.541870 0.200000
vt 0.958130 0.197613
vt 0.958131 0.218837
vt 0.952591 0.968394
vt 0.447409 0.968394
vt 0.447409 0.916414
vt 0.952591 0.916414
vt 0.532503 0.305002
vt 0.967497 0.305002
vt 0.447409 0.631606
vt 0.952591 0.631606
vt 0.541870 0.181163
vt 0.958130 0.181163
vt 0.131856 0.543285
vt 0.131856 0.300038
vt 0.153324 0.300038
vt 0.153324 0.543285
vt 0.134270 0.276715
vt 0.153324 0.256715
vt 0.115216 0.320038
vt 0.115216 0.537420
vt 0.967497 0.574336
vt 0.967497 0.594998
vt 0.532502 0.594998
vt 0.532502 0.574336
vt 0.967497 0.550241
vt 0.532502 0.550241
vt 0.967497 0.529579
vt 0.532502 0.529579
vt 0.541870 0.218837
vt 0.541870 0.200000
vt 0.958131 0.197613
vt 0.958130 0.218837
vt 0.950498 0.970487
vt 0.449503 0.970488
vt 0.449502 0.918939
vt 0.950498 0.918939
vt 0.532503 0.305002
vt 0.967497 0.305002
vt 0.449503 0.629513
vt 0.950498 0.629513
vt 0.541870 0.181163
vt 0.958130 0.181163
vt 0.044775 0.940352
vt 0.044775 0.702971
vt 0.066244 0.702971
vt 0.066244 0.940352
vt 0.047189 0.679648
vt 0.066244 0.659648
vt 0.028135 0.722971
vt 0.028135 0.940352
vt 0.967497 0.574336
vt 0.967497 0.594998
vt 0.532503 0.594998
vt 0.532503 0.574336
vt 0.967497 0.550241
vt 0.532502 0.550241
vt 0.967497 0.529579
vt 0.532502 0.529579
vt 0.541870 0.218837
vt 0.541870 0.200000
vt 0.958130 0.197613
vt 0.958130 0.218837
vt 0.952591 0.968394
vt 0.447409 0.968394
vt 0.447409 0.916415
vt 0.952591 0.916415
vt 0.532503 0.305002
vt 0.967497 0.305002
vt 0.447409 0.631606
vt 0.952591 0.631606
vt 0.541870 0.181163
vt 0.958130 0.181163
vt 0.044775 0.940352
vt 0.044775 0.702971
vt 0.066244 0.702971
vt 0.066244 0.940352
vt 0.047189 0.679648
vt 0.066244 0.659648
vt 0.028135 0.722971
vt 0.028135 0.940352
vt 0.967497 0.574336
vt 0.967497 0.594998
vt 0.532502 0.594998
vt 0.532502 0.574336
vt 0.967497 0.550241
vt 0.532502 0.550241
vt 0.967497 0.529579
vt 0.532502 0.529579
vt 0.541870 0.218837
vt 0.541870 0.200000
vt 0.958130 0.197613
vt 0.958130 0.218837
vt 0.952591 0.968394
vt 0.447409 0.968394
vt 0.447409 0.916415
vt 0.952591 0.916415
vt 0.532503 0.305002
vt 0.967497 0.305002
vt 0.447409 0.631606
vt 0.952591 0.631606
vt 0.541870 0.181163
vt 0.958130 0.181163
vt 0.115730 0.659647
vt 0.115730 0.897029
vt 0.096676 0.877029
vt 0.096676 0.659647
vt 0.134784 0.659647
vt 0.134784 0.897029
vt 0.115730 0.920352
vt 0.134784 0.940353
vt 0.065730 0.523285
vt 0.065730 0.499962
vt 0.084784 0.499962
vt 0.084784 0.543285
vt 0.065730 0.256715
vt 0.046676 0.479962
vt 0.046676 0.262580
vt 0.084784 0.256715
vt 0.115730 0.659647
vt 0.115730 0.897029
vt 0.096676 0.877029
vt 0.096676 0.659647
vt 0.115730 0.920352
vt 0.134784 0.897029
vt 0.134784 0.940353
vt 0.134784 0.659647
vt 0.115730 0.659647
vt 0.115730 0.897029
vt 0.096676 0.877029
vt 0.096676 0.659647
vt 0.115730 0.920352
vt 0.134784 0.897029
vt 0.134784 0.940353
vt 0.134784 0.659647
vt 0.115729 0.659647
vt 0.115729 0.897029
vt 0.096676 0.877029
vt 0.096676 0.659647
vt 0.115729 0.920352
vt 0.134784 0.897029
vt 0.134784 0.940353
vt 0.134784 0.659647
vt 0.365040 0.709052
vt 0.365040 0.721194
vt 0.303608 0.721194
vt 0.303608 0.709052
vt 0.350000 0.744381
vt 0.318649 0.744381
vt 0.294148 0.701441
vt 0.291288 0.055619
vt 0.303609 0.062419
vt 0.270626 0.686930
vt 0.268282 0.067364
vt 0.429373 0.687048
vt 0.398022 0.686930
vt 0.400368 0.067365
vt 0.431718 0.067483
vt 0.365041 0.062420
vt 0.377361 0.055619
vt 0.374500 0.701441
vn -1.000000 0.000000 0.000000
vn -1.000000 0.000000 0.000000
vn -1.000000 0.000000 0.000000
vn -1.000000 0.000000 0.000000
vn -1.000000 0.000000 0.000000
vn -1.000000 0.000000 0.000000
vn -1.000000 0.000000 0.000000
vn -1.000000 0.000000 0.000000
vn -1.000000 0.000000 0.000000
vn -1.000000 0.000000 0.000000
vn -1.000000 0.000000 0.000000
vn -1.000000 0.000000 0.000000
vn 0.000000 -0.724021 0.689778
vn 0.000000 -0.724021 0.689778
vn 0.000000 -0.724021 0.689778
vn 0.000000 -0.724021 0.689778
vn 0.002863 -0.998659 0.051693
vn 0.002863 -0.998659 0.051693
vn 0.002863 -0.998659 0.051693
vn 0.002863 -0.998659 0.051693
vn 0.002139 -0.746127 0.665800
vn 0.002139 -0.746127 0.665800
vn 0.002139 -0.746127 0.665800
vn 0.002139 -0.746127 0.665800
vn 0.000000 0.000000 -1.000000
vn 0.000000 0.000000 -1.000000
vn 0.000000 0.000000 -1.000000
vn 0.000000 0.000000 -1.000000
vn 0.000000 1.000000 0.000000
vn 0.000000 1.000000 0.000000
vn 0.000000 1.000000 0.000000
vn 0.000000 1.000000 0.000000
vn 0.000000 -1.000000 0.000000
vn 0.000000 -1.000000 0.000000
vn 0.000000 -1.000000 0.000000
vn 0.000000 -1.000000 0.000000
vn 0.000000 1.000000 0.000000
vn 0.000000 1.000000 0.000000
vn 0.000000 1.000000 0.000000
vn 0.000000 1.000000 0.000000
vn 0.000000 0.000000 -1.000000
vn 0.000000 0.000000 -1.000000
vn 0.000000 0.000000 -1.000000
vn 0.000000 0.000000 -1.000000
vn -1.000000 0.000000 0.000000
vn -1.000000 0.000000 0.000000
vn -1.000000 0.000000 0.000000
vn -1.000000 0.000000 0.000000
vn -1.000000 0.000000 0.000000
vn -1.000000 0.000000 0.000000
vn -1.000000 0.000000 0.000000
vn -1.000000 0.000000 0.000000
vn -1.000000 0.000000 0.000000
vn -1.000000 0.000000 0.000000
vn -1.000000 0.000000 0.000000
vn -1.000000 0.000000 0.000000
vn 0.000000 -0.724022 0.689777
vn 0.000000 -0.724022 0.689777
vn 0.000000 -0.724022 0.689777
vn 0.000000 -0.724022 0.689777
vn 0.002863 -0.998659 0.051693
vn 0.002863 -0.998659 0.051693
vn 0.002863 -0.998659 0.051693
vn 0.002863 -0.998659 0.051693
vn 0.002139 -0.746127 0.665800
vn 0.002139 -0.746127 0.665800
vn 0.002139 -0.746127 0.665800
vn 0.002139 -0.746127 0.665800
vn 0.000000 0.000000 -1.000000
vn -0.000000 0.000000 -1.000000
vn -0.000000 0.000000 -1.000000
vn 0.000000 0.000000 -1.000000
vn 0.000000 1.000000 0.000000
vn 0.000000 1.000000 0.000000
vn 0.000000 1.000000 0.000000
vn 0.000000 1.000000 0.000000
vn 0.000000 -1.000000 0.000000
vn 0.000000 -1.000000 0.000000
vn 0.000000 -1.000000 0.000000
vn 0.000000 -1.000000 0.000000
vn 0.000000 1.000000 0.000000
vn 0.000000 1.000000 0.000000
vn 0.000000 1.000000 0.000000
vn 0.000000 1.000000 0.000000
vn -0.000000 0.000000 -1.000000
vn -0.000000 0.000000 -1.000000
vn -0.000000 0.000000 -1.000000
vn -0.000000 0.000000 -1.000000
vn -1.000000 0.000000 0.000000
vn -1.000000 0.000000 0.000000
vn -1.000000 0.000000 0.000000
vn -1.000000 0.000000 0.000000
vn -1.000000 0.000000 0.000000
vn -1.000000 0.000000 0.000000
vn -1.000000 0.000000 0.000000
vn -1.000000 0.000000 0.000000
vn -1.000000 0.000000 0.000000
vn -1.000000 0.000000 0.000000
vn -1.000000 0.000000 0.000000
vn -1.000000 0.000000 0.000000
vn 0.000000 -0.724022 0.689777
vn 0.000000 -0.724022 0.689777
vn 0.000000 -0.724022 0.689777
vn 0.000000 -0.724022 0.689777
vn 0.002863 -0.998659 0.051695
vn 0.002863 -0.998659 0.051695
vn 0.002863 -0.998659 0.051695
vn 0.002863 -0.998659 0.051695
vn 0.002139 -0.746126 0.665801
vn 0.002139 -0.746126 0.665801
vn 0.002139 -0.746126 0.665801
vn 0.002139 -0.746126 0.665801
vn 0.000000 0.000000 -1.000000
vn 0.000435 -0.151675 -0.988430
vn 0.000437 -0.152568 -0.988293
vn 0.000000 0.000000 -1.000000
vn 0.000000 1.000000 0.000000
vn 0.000000 1.000000 0.000000
vn 0.000000 1.000000 0.000000
vn 0.000000 1.000000 0.000000
vn 0.000000 -1.000000 0.000000
vn 0.000000 -1.000000 0.000000
vn 0.000000 -1.000000 0.000000
vn 0.000000 -1.000000 0.000000
vn 0.000000 1.000000 0.000000
vn 0.000000 1.000000 0.000000
vn 0.000000 1.000000 0.000000
vn 0.000000 1.000000 0.000000
vn 0.000435 -0.151675 -0.988430
vn 0.000895 -0.312224 -0.950008
vn 0.000895 -0.312224 -0.950008
vn 0.000437 -0.152568 -0.988293
vn -1.000000 0.000000 0.000000
vn -1.000000 0.000000 0.000000
vn -1.000000 0.000000 0.000000
vn -1.000000 0.000000 0.000000
vn -1.000000 0.000000 0.000000
vn -1.000000 0.000000 0.000000
vn -1.000000 0.000000 0.000000
vn -1.000000 0.000000 0.000000
vn -1.000000 0.000000 0.000000
vn -1.000000 0.000000 0.000000
vn -1.000000 0.000000 0.000000
vn -1.000000 0.000000 0.000000
vn 0.000000 -0.724020 0.689779
vn 0.000000 -0.724020 0.689779
vn 0.000000 -0.724020 0.689779
vn 0.000000 -0.724020 0.689779
vn 0.002863 -0.998659 0.051692
vn 0.002863 -0.998659 0.051692
vn 0.002863 -0.998659 0.051692
vn 0.002863 -0.998659 0.051692
vn 0.002139 -0.746127 0.665800
vn 0.002139 -0.746127 0.665800
vn 0.002139 -0.746127 0.665800
vn 0.002139 -0.746127 0.665800
vn 0.000000 0.000000 -1.000000
vn 0.000000 0.000000 -1.000000
vn 0.000000 0.000000 -1.000000
vn 0.000000 0.000000 -1.000000
vn 0.000000 1.000000 0.000000
vn 0.000000 1.000000 0.000000
vn 0.000000 1.000000 0.000000
vn 0.000000 1.000000 0.000000
vn 0.000000 -1.000000 0.000000
vn 0.000000 -1.000000 0.000000
vn 0.000000 -1.000000 0.000000
vn 0.000000 -1.000000 0.000000
vn 0.000000 1.000000 0.000000
vn 0.000000 1.000000 0.000000
vn 0.000000 1.000000 0.000000
vn 0.000000 1.000000 0.000000
vn 0.000000 0.000000 -1.000000
vn -0.000000 0.000000 -1.000000
vn -0.000000 0.000000 -1.000000
vn 0.000000 0.000000 -1.000000
vn -1.000000 0.000000 0.000000
vn -1.000000 0.000000 0.000000
vn -1.000000 0.000000 0.000000
vn -1.000000 0.000000 0.000000
vn -1.000000 0.000000 0.000000
vn -1.000000 0.000000 0.000000
vn -1.000000 0.000000 0.000000
vn -1.000000 0.000000 0.000000
vn -1.000000 0.000000 0.000000
vn -1.000000 0.000000 0.000000
vn -1.000000 0.000000 0.000000
vn -1.000000 0.000000 0.000000
vn 0.000000 -0.724021 0.689778
vn 0.000000 -0.724021 0.689778
vn 0.000000 -0.724021 0.689778
vn 0.000000 -0.724021 0.689778
vn 0.002863 -0.998659 0.051693
vn 0.002863 -0.998659 0.051693
vn 0.002863 -0.998659 0.051693
vn 0.002863 -0.998659 0.051693
vn 0.002139 -0.746128 0.665799
vn 0.002139 -0.746128 0.665799
vn 0.002139 -0.746128 0.665799
vn 0.002139 -0.746128 0.665799
vn 0.000000 0.000000 -1.000000
vn -0.000000 0.000000 -1.000000
vn -0.000000 0.000000 -1.000000
vn 0.000000 0.000000 -1.000000
vn 0.000000 1.000000 0.000000
vn 0.000000 1.000000 0.000000
vn 0.000000 1.000000 0.000000
vn 0.000000 1.000000 0.000000
vn 0.000000 -1.000000 0.000000
vn 0.000000 -1.000000 0.000000
vn 0.000000 -1.000000 0.000000
vn 0.000000 -1.000000 0.000000
vn 0.000000 1.000000 0.000000
vn 0.000000 1.000000 0.000000
vn 0.000000 1.000000 0.000000
vn 0.000000 1.000000 0.000000
vn -0.000000 0.000000 -1.000000
vn -0.000000 0.000000 -1.000000
vn -0.000000 0.000000 -1.000000
vn -0.000000 0.000000 -1.000000
vn 1.000000 0.000000 0.000000
vn 1.000000 0.000000 0.000000
vn 1.000000 0.000000 0.000000
vn 1.000000 0.000000 0.000000
vn 1.000000 0.000000 0.000000
vn 1.000000 0.000000 0.000000
vn 1.000000 0.000000 0.000000
vn 1.000000 0.000000 0.000000
vn 1.000000 0.000000 0.000000
vn 1.000000 0.000000 0.000000
vn 1.000000 0.000000 0.000000
vn 1.000000 0.000000 0.000000
vn 1.000000 0.000000 0.000000
vn 1.000000 0.000000 0.000000
vn 1.000000 0.000000 0.000000
vn 1.000000 0.000000 0.000000
vn 1.000000 0.000000 0.000000
vn 1.000000 0.000000 0.000000
vn 1.000000 0.000000 0.000000
vn 1.000000 0.000000 0.000000
vn 1.000000 0.000000 0.000000
vn 1.000000 0.000000 0.000000
vn 1.000000 0.000000 0.000000
vn 1.000000 0.000000 0.000000
vn 1.000000 0.000000 0.000000
vn 1.000000 0.000000 0.000000
vn 1.000000 0.000000 0.000000
vn 1.000000 0.000000 0.000000
vn 1.000000 0.000000 0.000000
vn 1.000000 0.000000 0.000000
vn 1.000000 0.000000 0.000000
vn 1.000000 0.000000 0.000000
vn 1.000000 0.000000 0.000000
vn 1.000000 0.000000 0.000000
vn 1.000000 0.000000 0.000000
vn 1.000000 0.000000 0.000000
vn 1.000000 0.000000 0.000000
vn 1.000000 0.000000 0.000000
vn 1.000000 0.000000 0.000000
vn 1.000000 0.000000 0.000000
vn 1.000000 0.000000 0.000000
vn 1.000000 0.000000 0.000000
vn 1.000000 0.000000 0.000000
vn 1.000000 0.000000 0.000000
vn 1.000000 0.000000 0.000000
vn 1.000000 0.000000 0.000000
vn 1.000000 0.000000 0.000000
vn 1.000000 0.000000 0.000000
vn 1.000000 0.000000 0.000000
vn 1.000000 0.000000 0.000000
vn 1.000000 0.000000 0.000000
vn 1.000000 0.000000 0.000000
vn 1.000000 0.000000 0.000000
vn 1.000000 0.000000 0.000000
vn 1.000000 0.000000 0.000000
vn 1.000000 0.000000 0.000000
vn 1.000000 0.000000 0.000000
vn 1.000000 0.000000 0.000000
vn 1.000000 0.000000 0.000000
vn 1.000000 0.000000 0.000000
vn 0.000000 -1.000000 0.000031
vn 0.000000 -1.000000 0.000014
vn 0.000000 -1.000000 0.000014
vn 0.000000 -1.000000 0.000031
vn 0.000000 -1.000000 0.000014
vn 0.000000 -1.000000 0.000014
vn 0.000000 -1.000000 -0.000005
vn 0.000000 -1.000000 -0.000005
vn 1.000000 -0.000001 0.000000
vn 0.950213 -0.196308 -0.241990
vn 0.864183 -0.316999 -0.390767
vn 1.000000 -0.000001 0.000000
vn 0.950213 -0.196308 -0.241990
vn 0.762757 -0.407408 -0.502216
vn 0.762757 -0.407408 -0.502216
vn 0.864183 -0.316999 -0.390767
vn 0.000000 -0.629659 -0.776871
vn 0.000000 -0.629659 -0.776871
vn 0.000000 -0.629659 -0.776871
vn 0.000000 -0.629659 -0.776871
vn 0.000000 0.626871 0.779123
vn 0.000000 0.626871 0.779123
vn 0.000000 0.626871 0.779123
vn 0.000000 0.626871 0.779123
vn -1.000000 0.000000 0.000000
vn -1.000000 0.000000 0.000000
vn -0.864183 -0.316999 -0.390767
vn -0.950213 -0.196307 -0.241990
vn -0.950213 -0.196307 -0.241990
vn -0.864183 -0.316999 -0.390767
vn -0.762757 -0.407408 -0.502216
vn -0.762757 -0.407408 -0.502216
s off
g Warehouse_stairs1
usemtl lambert2SG
f 4/1/1 6/2/2 5/3/3 2/4/4
f 5/3/5 6/2/6 3/5/7 1/6/8
f 7/7/9 6/2/10 4/1/11 8/8/12
f 10/9/13 9/10/14 1/11/15 3/12/16
f 11/13/17 10/9/18 3/12/19 6/14/20
f 12/15/21 11/13/22 6/14/23 7/16/24
f 15/17/25 14/18/26 4/19/27 2/20/28
f 1/21/29 9/22/30 16/23/31 5/24/32
f 12/15/33 7/16/34 8/25/35 13/26/36
f 5/24/37 16/23/38 15/27/39 2/28/40
f 14/18/41 13/29/42 8/30/43 4/19/44
f 20/31/45 22/32/46 21/33/47 18/34/48
f 21/33/49 22/32/50 19/35/51 17/36/52
f 23/37/53 22/32/54 20/31/55 24/38/56
f 26/39/57 25/40/58 17/41/59 19/42/60
f 27/43/61 26/39/62 19/42/63 22/44/64
f 28/45/65 27/43/66 22/44/67 23/46/68
f 31/47/69 30/48/70 20/49/71 18/50/72
f 17/51/73 25/52/74 32/53/75 21/54/76
f 28/45/77 23/46/78 24/55/79 29/56/80
f 21/54/81 32/53/82 31/57/83 18/58/84
f 30/48/85 29/59/86 24/60/87 20/49/88
f 36/61/89 38/62/90 37/63/91 34/64/92
f 37/63/93 38/62/94 35/65/95 33/66/96
f 39/67/97 38/62/98 36/61/99 40/68/100
f 42/69/101 41/70/102 33/71/103 35/72/104
f 43/73/105 42/69/106 35/72/107 38/74/108
f 44/75/109 43/73/110 38/74/111 39/76/112
f 47/77/113 46/78/114 36/79/115 34/80/116
f 33/81/117 41/82/118 48/83/119 37/84/120
f 44/75/121 39/76/122 40/85/123 45/86/124
f 37/84/125 48/83/126 47/87/127 34/88/128
f 46/78/129 45/89/130 40/90/131 36/79/132
f 52/91/133 54/92/134 53/93/135 50/94/136
f 53/93/137 54/92/138 51/95/139 49/96/140
f 55/97/141 54/92/142 52/91/143 56/98/144
f 58/99/145 57/100/146 49/101/147 51/102/148
f 59/103/149 58/99/150 51/102/151 54/104/152
f 60/105/153 59/103/154 54/104/155 55/106/156
f 63/107/157 62/108/158 52/109/159 50/110/160
f 49/111/161 57/112/162 64/113/163 53/114/164
f 60/105/165 55/106/166 56/115/167 61/116/168
f 53/114/169 64/113/170 63/117/171 50/118/172
f 62/108/173 61/119/174 56/120/175 52/109/176
f 68/121/177 70/122/178 69/123/179 66/124/180
f 69/123/181 70/122/182 67/125/183 65/126/184
f 71/127/185 70/122/186 68/121/187 72/128/188
f 74/129/189 73/130/190 65/131/191 67/132/192
f 75/133/193 74/129/194 67/132/195 70/134/196
f 76/135/197 75/133/198 70/134/199 71/136/200
f 79/137/201 78/138/202 68/139/203 66/140/204
f 65/141/205 73/142/206 80/143/207 69/144/208
f 76/135/209 71/136/210 72/145/211 77/146/212
f 69/144/213 80/143/214 79/147/215 66/148/216
f 78/138/217 77/149/218 72/150/219 68/139/220
f 62/151/221 59/152/222 60/153/223 61/154/224
f 63/155/225 64/156/226 59/152/227 62/151/228
f 58/157/229 59/152/230 64/156/231 57/158/232
f 42/159/233 43/160/234 48/161/235 41/162/236
f 46/163/237 43/160/238 44/164/239 45/165/240
f 47/166/241 48/161/242 43/160/243 46/163/244
f 78/167/245 75/168/246 76/169/247 77/170/248
f 74/171/249 75/168/250 80/172/251 73/173/252
f 79/174/253 80/172/254 75/168/255 78/167/256
f 30/175/257 27/176/258 28/177/259 29/178/260
f 26/179/261 27/176/262 32/180/263 25/181/264
f 31/182/265 32/180/266 27/176/267 30/175/268
f 14/183/269 11/184/270 12/185/271 13/186/272
f 10/187/273 11/184/274 16/188/275 9/189/276
f 15/190/277 16/188/278 11/184/279 14/183/280
f 81/191/281 86/192/282 85/193/283 82/194/284
f 85/193/285 86/192/286 83/195/287 84/196/288
f 82/194/289 85/197/290 91/198/291 88/199/292
f 85/197/293 84/200/294 90/201/295 91/198/296
f 84/202/297 83/203/298 89/204/299 90/205/300
f 82/194/301 88/199/302 87/206/303 81/191/304
f 81/191/305 87/206/306 92/207/307 86/208/308
f 86/208/309 92/207/310 89/204/311 83/203/312
