# This file uses centimeters as units for non-parametric coordinates.

mtllib Warehouse_wall_half.mtl
g default
v 0.000000 2.500000 0.000000
v 6.000000 2.500000 0.000000
v 2.625000 2.500000 0.000000
v 3.375000 2.500000 0.000000
v 0.000000 0.312500 0.000000
v 2.625000 0.312500 0.000000
v 3.375000 0.312500 0.000000
v 6.000000 0.312500 0.000000
v 1.312500 2.500000 0.000000
v 1.968750 0.312500 0.000000
v 4.687500 2.500000 0.000000
v 4.031250 0.312500 0.000000
v 0.492188 0.312500 0.000000
v 2.625000 2.089844 0.000000
v 3.375000 2.089844 0.000000
v 4.687500 2.089844 0.000000
v 0.492188 2.089844 0.000000
v 1.312500 2.089844 0.000000
v 5.507813 0.312500 0.000000
v 5.507813 2.089844 0.000000
v 6.000000 0.000000 0.000000
v 0.000000 0.000000 0.000000
v 0.492188 0.000000 0.000000
v 1.968750 0.000000 0.000000
v 2.625000 0.000000 0.000000
v 3.375000 0.000000 0.000000
v 4.031250 0.000000 0.000000
v 5.507813 0.000000 0.000000
v 4.031250 0.312500 -0.124582
v 5.507813 2.089844 -0.124582
v 5.507813 0.312500 -0.124582
v 3.375000 0.312500 -0.124582
v 4.687500 2.089844 -0.124582
v 3.375000 2.089844 -0.124582
v 2.625000 0.312500 -0.124582
v 1.312500 2.089844 -0.124582
v 2.625000 2.089844 -0.124582
v 0.492188 0.312500 -0.124582
v 0.492188 2.089844 -0.124582
v 1.968750 0.312500 -0.124582
v 0.000000 2.500000 -0.124582
v 6.000000 2.500000 -0.124582
v 0.000000 0.000000 -0.124582
v 6.000000 0.000000 -0.124582
vt 0.441008 0.602521
vt 0.558992 0.602521
vt 0.558992 0.882117
vt 0.441008 0.882117
vt 0.105493 0.553361
vt 0.337773 0.553361
vt 0.337773 0.602521
vt 0.105493 0.602521
vt 0.441008 0.553361
vt 0.558992 0.553361
vt 0.662227 0.553361
vt 0.894507 0.553361
vt 0.894507 0.602521
vt 0.662227 0.602521
vt 0.971934 0.602521
vt 0.971934 0.553361
vt 0.894507 0.882117
vt 0.971934 0.946639
vt 0.028066 0.946639
vt 0.028066 0.602521
vt 0.105493 0.882117
vt 0.028066 0.553361
vt 0.441008 0.946639
vt 0.558992 0.946639
vt 0.234537 0.882117
vt 0.234537 0.946639
vt 0.765463 0.946639
vt 0.765463 0.882117
vt 0.339798 0.109799
vt 0.060202 0.109799
vt 0.060202 0.090201
vt 0.339798 0.090201
vt 0.060202 0.090201
vt 0.339798 0.090201
vt 0.339798 0.109799
vt 0.060202 0.109799
vt 0.603235 0.109799
vt 0.396765 0.109799
vt 0.396765 0.090201
vt 0.603235 0.090201
vt 0.339798 0.109799
vt 0.060202 0.109799
vt 0.060202 0.090201
vt 0.339798 0.090201
vt 0.339798 0.109799
vt 0.060202 0.109799
vt 0.060202 0.090201
vt 0.339798 0.090201
vt 0.683860 0.090201
vt 0.916140 0.090201
vt 0.916140 0.109799
vt 0.683860 0.109799
vt 0.339798 0.109799
vt 0.060202 0.109799
vt 0.060202 0.090201
vt 0.339798 0.090201
vt 0.339798 0.109799
vt 0.060202 0.109799
vt 0.060202 0.090201
vt 0.339798 0.090201
vt 0.683860 0.090201
vt 0.916140 0.090201
vt 0.916140 0.109799
vt 0.683860 0.109799
vt 0.060202 0.090201
vt 0.339798 0.090201
vt 0.339798 0.109799
vt 0.060202 0.109799
vt 0.396765 0.090201
vt 0.603235 0.090201
vt 0.603235 0.109799
vt 0.396765 0.109799
vt 0.060202 0.090201
vt 0.339798 0.090201
vt 0.339798 0.109799
vt 0.060202 0.109799
vt 0.028066 0.153361
vt 0.971934 0.153361
vt 0.971934 0.546639
vt 0.028066 0.546639
vn 0.000000 0.000000 1.000000
vn 0.000000 0.000000 1.000000
vn 0.000000 0.000000 1.000000
vn 0.000000 0.000000 1.000000
vn 0.000000 0.000000 1.000000
vn 0.000000 0.000000 1.000000
vn 0.000000 0.000000 1.000000
vn 0.000000 0.000000 1.000000
vn 0.000000 0.000000 1.000000
vn 0.000000 0.000000 1.000000
vn 0.000000 0.000000 1.000000
vn 0.000000 0.000000 1.000000
vn 0.000000 0.000000 1.000000
vn 0.000000 0.000000 1.000000
vn 0.000000 0.000000 1.000000
vn 0.000000 0.000000 1.000000
vn 0.000000 0.000000 1.000000
vn 0.000000 0.000000 1.000000
vn 0.000000 0.000000 1.000000
vn 0.000000 0.000000 1.000000
vn 0.000000 0.000000 1.000000
vn 0.000000 0.000000 1.000000
vn 0.000000 0.000000 1.000000
vn 0.000000 0.000000 1.000000
vn 0.000000 0.000000 1.000000
vn 0.000000 0.000000 1.000000
vn 0.000000 0.000000 1.000000
vn 0.000000 0.000000 1.000000
vn 0.000000 0.000000 1.000000
vn 0.000000 0.000000 1.000000
vn 0.000000 0.000000 1.000000
vn 0.000000 0.000000 1.000000
vn 0.000000 0.000000 1.000000
vn 0.000000 0.000000 1.000000
vn 0.000000 0.000000 1.000000
vn 0.000000 0.000000 1.000000
vn 0.000000 0.000000 1.000000
vn 0.000000 0.000000 1.000000
vn 0.000000 0.000000 1.000000
vn 0.000000 0.000000 1.000000
vn 0.000000 0.000000 1.000000
vn 0.000000 0.000000 1.000000
vn 0.000000 0.000000 1.000000
vn 0.000000 0.000000 1.000000
vn 0.000000 0.000000 1.000000
vn 0.000000 0.000000 1.000000
vn 0.000000 0.000000 1.000000
vn 0.000000 0.000000 1.000000
vn 0.000000 0.000000 1.000000
vn 0.000000 0.000000 1.000000
vn 0.000000 0.000000 1.000000
vn 0.000000 0.000000 1.000000
vn 0.000000 0.000000 1.000000
vn 0.000000 0.000000 1.000000
vn 0.000000 0.000000 1.000000
vn 0.000000 0.000000 1.000000
vn 0.000000 0.000000 1.000000
vn 0.000000 0.000000 1.000000
vn 0.000000 0.000000 1.000000
vn 0.000000 0.000000 1.000000
vn 0.000000 0.000000 1.000000
vn 0.000000 0.000000 1.000000
vn 0.000000 0.000000 1.000000
vn 0.000000 0.000000 1.000000
vn 0.000000 0.000000 1.000000
vn 0.000000 0.000000 1.000000
vn 0.000000 0.000000 1.000000
vn 0.000000 0.000000 1.000000
vn -1.000000 0.000000 0.000000
vn -1.000000 0.000000 0.000000
vn -1.000000 0.000000 0.000000
vn -1.000000 0.000000 0.000000
vn 0.804433 0.594043 0.000000
vn 0.804433 0.594043 0.000000
vn 0.804433 0.594043 0.000000
vn 0.804433 0.594043 0.000000
vn 0.000000 -1.000000 0.000000
vn 0.000000 -1.000000 0.000000
vn 0.000000 -1.000000 0.000000
vn 0.000000 -1.000000 0.000000
vn 0.769190 -0.639020 0.000000
vn 0.769190 -0.639020 0.000000
vn 0.769190 -0.639020 0.000000
vn 0.769190 -0.639020 0.000000
vn -1.000000 0.000000 0.000000
vn -1.000000 0.000000 0.000000
vn -1.000000 0.000000 0.000000
vn -1.000000 0.000000 0.000000
vn 0.000000 1.000000 0.000000
vn 0.000000 1.000000 0.000000
vn 0.000000 1.000000 0.000000
vn 0.000000 1.000000 0.000000
vn 1.000000 0.000000 0.000000
vn 1.000000 0.000000 0.000000
vn 1.000000 0.000000 0.000000
vn 1.000000 0.000000 0.000000
vn -0.769190 -0.639020 0.000000
vn -0.769190 -0.639020 0.000000
vn -0.769190 -0.639020 0.000000
vn -0.769190 -0.639020 0.000000
vn 0.000000 1.000000 0.000000
vn 0.000000 1.000000 0.000000
vn 0.000000 1.000000 0.000000
vn 0.000000 1.000000 0.000000
vn -0.804433 0.594043 0.000000
vn -0.804433 0.594043 0.000000
vn -0.804433 0.594043 0.000000
vn -0.804433 0.594043 0.000000
vn 0.000000 -1.000000 0.000000
vn 0.000000 -1.000000 0.000000
vn 0.000000 -1.000000 0.000000
vn 0.000000 -1.000000 0.000000
vn 1.000000 0.000000 0.000000
vn 1.000000 0.000000 0.000000
vn 1.000000 0.000000 0.000000
vn 1.000000 0.000000 0.000000
vn 0.000000 0.000000 1.000000
vn 0.000000 0.000000 1.000000
vn 0.000000 0.000000 1.000000
vn 0.000000 0.000000 1.000000
s off
g Warehouse_wall_half1
usemtl lambert2SG
f 6/1/1 7/2/2 15/3/3 14/4/4
f 23/5/5 24/6/6 10/7/7 13/8/8
f 25/9/9 26/10/10 7/2/11 6/1/12
f 27/11/13 28/12/14 19/13/15 12/14/16
f 26/10/17 27/11/18 12/14/19 7/2/20
f 8/15/21 19/13/22 28/12/23 21/16/24
f 20/17/25 19/13/26 8/15/27 2/18/28
f 1/19/29 5/20/30 13/8/31 17/21/32
f 22/22/33 23/5/34 13/8/35 5/20/36
f 3/23/37 14/4/38 15/3/39 4/24/40
f 18/25/41 14/4/42 3/23/43 9/26/44
f 17/21/45 18/25/46 9/26/47 1/19/48
f 2/18/49 11/27/50 16/28/51 20/17/52
f 4/24/53 15/3/54 16/28/55 11/27/56
f 10/7/57 6/1/58 18/25/59 17/21/60
f 20/17/61 16/28/62 7/2/63 12/14/64
f 10/7/65 24/6/66 25/9/67 6/1/68
f 37/29/69 35/30/70 6/31/71 14/32/72
f 18/33/73 6/34/74 35/35/75 36/36/76
f 36/37/77 37/38/78 14/39/79 18/40/80
f 29/41/81 30/42/82 20/43/83 12/44/84
f 30/45/85 31/46/86 19/47/87 20/48/88
f 31/49/89 29/50/90 12/51/91 19/52/92
f 38/53/93 39/54/94 17/55/95 13/56/96
f 39/57/97 40/58/98 10/59/99 17/60/100
f 40/61/101 38/62/102 13/63/103 10/64/104
f 7/65/105 16/66/106 33/67/107 32/68/108
f 16/69/109 15/70/110 34/71/111 33/72/112
f 15/73/113 7/74/114 32/75/115 34/76/116
f 43/77/117 44/78/118 42/79/119 41/80/120
