# This file uses centimeters as units for non-parametric coordinates.

mtllib Hallway_wall_door.mtl
g default
v 0.000000 0.000000 0.062593
v 0.000000 4.999998 0.062593
v 0.000000 3.962376 0.062595
v 1.036758 5.000002 0.062593
v 1.036758 3.962376 0.062595
v 1.036758 0.000000 0.062593
v 6.000000 0.000000 0.062593
v 6.000000 4.999998 0.062593
v 6.000000 3.962376 0.062595
v 4.963242 5.000002 0.062593
v 4.963240 3.962376 0.062595
v 4.963240 0.000000 0.062593
vt 0.364652 0.447848
vt 0.635348 0.447848
vt 0.543419 0.447848
vt 0.633560 0.456859
vt 0.542845 0.456860
vt 0.366440 0.456859
vt 0.364652 0.447848
vt 0.543419 0.447848
vt 0.542845 0.456860
vt 0.366440 0.456859
vt 0.633560 0.456859
vt 0.635348 0.447848
vn 0.000000 -0.000000 1.000000
vn 0.000000 -0.000000 1.000000
vn 0.000000 0.000001 1.000000
vn 0.000000 -0.000000 1.000000
vn 0.000000 0.000002 1.000000
vn 0.000000 0.000002 1.000000
vn -0.000000 0.000002 1.000000
vn -0.000000 0.000001 1.000000
vn 0.000000 -0.000000 1.000000
vn -0.000000 -0.000000 1.000000
vn 0.000000 -0.000000 1.000000
vn -0.000000 0.000002 1.000000
s 1
g polySurface2824
usemtl initialShadingGroup
f 1/1/1 6/6/2 5/5/3 3/3/4
f 4/4/5 2/2/6 3/3/4 5/5/3
f 10/11/7 4/4/5 5/5/3 11/9/8
f 7/7/9 9/8/10 11/9/8 12/10/11
f 10/11/7 11/9/8 9/8/10 8/12/12
