# This file uses centimeters as units for non-parametric coordinates.

mtllib Hallway_wall_stair.mtl
g default
v -0.000004 4.000000 -7.000002
v 0.000000 0.000000 0.000000
v 0.000000 5.000000 0.000000
v -0.000006 9.000000 -7.000000
v 0.000000 2.500000 0.000000
v -0.000006 6.500000 -7.000000
v -0.000006 7.750000 -7.000000
v 0.000000 3.750000 0.000000
v 0.000000 1.250000 0.000000
v -0.000004 5.250000 -7.000000
v 0.000000 3.125000 0.000000
v -0.000006 7.125000 -7.000000
v -0.000004 5.875000 -7.000000
v 0.000000 1.875000 0.000000
v 0.000000 3.500000 -6.125000
v -0.000004 4.750000 -6.125000
v -0.000004 5.375000 -6.125000
v -0.000004 6.000000 -6.125000
v -0.000006 6.625000 -6.125000
v -0.000006 7.250000 -6.125000
v -0.000006 8.500000 -6.125000
v -0.000004 5.500000 -0.875000
v 0.000000 4.250000 -0.875000
v 0.000000 3.625000 -0.875000
v 0.000000 3.000000 -0.875000
v 0.000000 2.375000 -0.875000
v 0.000000 1.750000 -0.875000
v 0.000000 0.500000 -0.875000
v -0.000006 8.062500 -7.000000
v -0.000006 7.562500 -6.125000
v 0.000000 4.562500 -0.875000
v 0.000000 4.062500 0.000000
v -0.000006 7.437500 -7.000000
v -0.000006 6.937500 -6.125000
v 0.000000 3.937500 -0.875000
v 0.000000 3.437500 0.000000
v 0.000000 2.812500 0.000000
v 0.000000 3.312500 -0.875000
v -0.000006 6.312500 -6.125000
v -0.000006 6.812500 -7.000000
v -0.000004 6.187500 -7.000000
v -0.000004 5.687500 -6.125000
v 0.000000 2.687500 -0.875000
v 0.000000 2.187500 0.000000
v 0.000000 1.562500 0.000000
v 0.000000 2.062500 -0.875000
v -0.000004 5.062500 -6.125000
v -0.000004 5.562500 -7.000000
v 0.199999 5.062500 -6.125000
v 0.199999 4.750000 -6.125000
v 0.199999 2.062500 -0.875000
v 0.199999 1.750000 -0.875000
v 0.199997 6.312500 -6.125000
v 0.199999 6.000000 -6.125000
v 0.199999 3.312500 -0.875000
v 0.199999 3.000000 -0.875000
v 0.199997 7.562500 -6.125000
v 0.199997 7.250000 -6.125000
v 0.199999 4.562500 -0.875000
v 0.199999 4.250000 -0.875000
v 0.199997 6.937500 -6.125000
v 0.199997 6.625000 -6.125000
v 0.199999 3.937500 -0.875000
v 0.199999 3.625000 -0.875000
v 0.199999 5.687500 -6.125000
v 0.199999 5.375000 -6.125000
v 0.199999 2.687500 -0.875000
v 0.199999 2.375000 -0.875000
vt 0.399944 0.457626
vt 0.366592 0.457626
vt 0.364652 0.447848
vt 0.398489 0.447848
vt 0.601511 0.447848
vt 0.635348 0.447848
vt 0.633408 0.457626
vt 0.600056 0.457626
vt 0.598116 0.470665
vt 0.630821 0.470665
vt 0.630174 0.473924
vt 0.597631 0.473924
vt 0.402369 0.473924
vt 0.369826 0.473924
vt 0.369179 0.470665
vt 0.401884 0.470665
vt 0.402855 0.477183
vt 0.370473 0.477183
vt 0.629527 0.477183
vt 0.597145 0.477183
vt 0.400914 0.464145
vt 0.367886 0.464145
vt 0.367239 0.460886
vt 0.400429 0.460886
vt 0.599571 0.460886
vt 0.632761 0.460886
vt 0.632114 0.464145
vt 0.599086 0.464145
vt 0.596175 0.483702
vt 0.628234 0.483702
vt 0.627587 0.486962
vt 0.595690 0.486962
vt 0.404310 0.486962
vt 0.372413 0.486962
vt 0.371766 0.483702
vt 0.403825 0.483702
vt 0.597631 0.473924
vt 0.402369 0.473924
vt 0.401884 0.470665
vt 0.598116 0.470665
vt 0.595690 0.486962
vt 0.404310 0.486962
vt 0.403825 0.483702
vt 0.596175 0.483702
vt 0.599571 0.460886
vt 0.400429 0.460886
vt 0.399944 0.457626
vt 0.600056 0.457626
vt 0.631468 0.467405
vt 0.598601 0.467405
vt 0.598601 0.467405
vt 0.401399 0.467405
vt 0.400914 0.464145
vt 0.599086 0.464145
vt 0.401399 0.467405
vt 0.368533 0.467405
vt 0.628881 0.480443
vt 0.596660 0.480443
vt 0.596660 0.480443
vt 0.403340 0.480443
vt 0.402855 0.477183
vt 0.597145 0.477183
vt 0.403340 0.480443
vt 0.371119 0.480443
vt 0.375000 0.500000
vt 0.406250 0.500000
vt 0.593750 0.500000
vt 0.625000 0.500000
vt 0.565087 0.473924
vt 0.500000 0.473924
vt 0.500000 0.473924
vt 0.565087 0.473924
vt 0.564117 0.483702
vt 0.564117 0.483702
vt 0.565410 0.470665
vt 0.565410 0.470665
vt 0.500000 0.486962
vt 0.436207 0.486962
vt 0.436207 0.486962
vt 0.500000 0.486962
vt 0.500000 0.483702
vt 0.500000 0.483702
vt 0.565087 0.473924
vt 0.565087 0.473924
vt 0.598116 0.470665
vt 0.598116 0.470665
vt 0.565410 0.470665
vt 0.598116 0.470665
vt 0.598116 0.470665
vt 0.565410 0.470665
vt 0.402369 0.473924
vt 0.402369 0.473924
vt 0.404310 0.486962
vt 0.404310 0.486962
vt 0.404310 0.486962
vt 0.403825 0.483702
vt 0.403825 0.483702
vt 0.404310 0.486962
vt 0.403825 0.483702
vt 0.403825 0.483702
vn -1.000000 -0.000001 0.000001
vn -1.000000 -0.000001 0.000001
vn -1.000000 -0.000001 0.000001
vn -1.000000 -0.000001 0.000001
vn -1.000000 0.000000 -0.000000
vn -1.000000 0.000000 -0.000000
vn -1.000000 0.000000 -0.000000
vn -1.000000 0.000000 -0.000000
vn -1.000000 -0.000003 -0.000001
vn -1.000000 -0.000003 -0.000001
vn -1.000000 -0.000003 -0.000001
vn -1.000000 -0.000003 -0.000001
vn -1.000000 0.000000 -0.000000
vn -1.000000 0.000000 -0.000000
vn -1.000000 0.000000 -0.000000
vn -1.000000 0.000000 -0.000000
vn -1.000000 0.000000 -0.000000
vn -1.000000 0.000000 -0.000000
vn -1.000000 0.000000 -0.000000
vn -1.000000 0.000000 -0.000000
vn -1.000000 -0.000003 -0.000001
vn -1.000000 -0.000003 -0.000001
vn -1.000000 -0.000003 -0.000001
vn -1.000000 -0.000003 -0.000001
vn -1.000000 0.000000 -0.000000
vn -1.000000 0.000000 -0.000000
vn -1.000000 0.000000 -0.000000
vn -1.000000 0.000000 -0.000000
vn -1.000000 0.000000 -0.000000
vn -1.000000 0.000000 -0.000000
vn -1.000000 0.000000 -0.000000
vn -1.000000 0.000000 -0.000000
vn -1.000000 0.000000 -0.000000
vn -1.000000 0.000000 -0.000000
vn -1.000000 0.000000 -0.000000
vn -1.000000 0.000000 -0.000000
vn -1.000000 0.000000 -0.000000
vn -1.000000 0.000000 -0.000000
vn -1.000000 0.000000 -0.000000
vn -1.000000 0.000000 -0.000000
vn -1.000000 0.000000 0.000000
vn -1.000000 0.000000 0.000000
vn -1.000000 0.000000 0.000000
vn -1.000000 0.000000 0.000000
vn -1.000000 0.000000 0.000001
vn -1.000000 0.000000 0.000001
vn -1.000000 0.000000 0.000001
vn -1.000000 0.000000 0.000001
vn -1.000000 -0.000001 0.000000
vn -1.000000 -0.000001 0.000000
vn -1.000000 -0.000001 0.000000
vn -1.000000 -0.000001 0.000000
vn -1.000000 -0.000002 -0.000001
vn -1.000000 -0.000002 -0.000001
vn -1.000000 -0.000002 -0.000001
vn -1.000000 -0.000002 -0.000001
vn -1.000000 0.000000 0.000000
vn -1.000000 0.000000 0.000000
vn -1.000000 0.000000 0.000000
vn -1.000000 0.000000 0.000000
vn -1.000000 0.000000 -0.000000
vn -1.000000 0.000000 -0.000000
vn -1.000000 0.000000 -0.000000
vn -1.000000 0.000000 -0.000000
vn -1.000000 0.000000 0.000001
vn -1.000000 0.000000 0.000001
vn -1.000000 0.000000 0.000001
vn -1.000000 0.000000 0.000001
vn -1.000000 0.000000 -0.000000
vn -1.000000 0.000000 -0.000000
vn -1.000000 0.000000 -0.000000
vn -1.000000 0.000000 -0.000000
vn -1.000000 0.000000 -0.000000
vn -1.000000 0.000000 -0.000000
vn -1.000000 0.000000 -0.000000
vn -1.000000 0.000000 -0.000000
vn -1.000000 0.000000 0.000001
vn -1.000000 0.000000 0.000001
vn -1.000000 0.000000 0.000001
vn -1.000000 0.000000 0.000001
vn -1.000000 0.000000 -0.000000
vn -1.000000 0.000000 -0.000000
vn -1.000000 0.000000 -0.000000
vn -1.000000 0.000000 -0.000000
vn -1.000000 0.000000 -0.000000
vn -1.000000 0.000000 -0.000000
vn -1.000000 0.000000 -0.000000
vn -1.000000 0.000000 -0.000000
vn -1.000000 0.000000 0.000001
vn -1.000000 0.000000 0.000001
vn -1.000000 0.000000 0.000001
vn -1.000000 0.000000 0.000001
vn -1.000000 0.000000 -0.000000
vn -1.000000 0.000000 -0.000000
vn -1.000000 0.000000 -0.000000
vn -1.000000 0.000000 -0.000000
vn -1.000000 0.000000 -0.000000
vn -1.000000 0.000000 -0.000000
vn -1.000000 0.000000 -0.000000
vn -1.000000 0.000000 -0.000000
vn -1.000000 0.000000 0.000000
vn -1.000000 0.000000 0.000000
vn -1.000000 0.000000 0.000000
vn -1.000000 0.000000 0.000000
vn -1.000000 0.000000 -0.000000
vn -1.000000 0.000000 -0.000000
vn -1.000000 0.000000 -0.000000
vn -1.000000 0.000000 -0.000000
vn -1.000000 0.000000 -0.000000
vn -1.000000 0.000000 -0.000000
vn -1.000000 0.000000 -0.000000
vn -1.000000 0.000000 -0.000000
vn -1.000000 0.000000 0.000000
vn -1.000000 0.000000 0.000000
vn -1.000000 0.000000 0.000000
vn -1.000000 0.000000 0.000000
vn -1.000000 0.000000 -0.000000
vn -1.000000 0.000000 -0.000000
vn -1.000000 0.000000 -0.000000
vn -1.000000 0.000000 -0.000000
vn -1.000000 0.000000 0.000000
vn -1.000000 0.000000 -0.000000
vn -1.000000 0.000000 -0.000000
vn -1.000000 0.000000 -0.000000
vn -1.000000 -0.000001 0.000000
vn -1.000000 -0.000001 0.000000
vn -1.000000 -0.000001 0.000000
vn -1.000000 -0.000001 0.000000
vn -1.000000 -0.000001 0.000001
vn -1.000000 -0.000001 0.000001
vn -1.000000 0.000000 0.000000
vn -1.000000 -0.000001 0.000001
vn 0.000000 0.000000 1.000000
vn 0.000000 0.000000 1.000000
vn 0.000000 0.000000 1.000000
vn 0.000000 0.000000 1.000000
vn 0.000000 0.868243 0.496139
vn 0.000000 0.868243 0.496139
vn 0.000000 0.868243 0.496139
vn 0.000000 0.868243 0.496139
vn 0.000000 0.000000 -1.000000
vn 0.000000 0.000000 -1.000000
vn 0.000000 0.000000 -1.000000
vn 0.000000 0.000000 -1.000000
vn 0.000000 -0.868243 -0.496139
vn 0.000000 -0.868243 -0.496139
vn 0.000000 -0.868243 -0.496139
vn 0.000000 -0.868243 -0.496139
vn 0.000000 0.000000 1.000000
vn 0.000000 0.000000 1.000000
vn 0.000000 0.000000 1.000000
vn 0.000000 0.000000 1.000000
vn 0.000000 0.868243 0.496139
vn 0.000000 0.868243 0.496139
vn 0.000000 0.868243 0.496139
vn 0.000000 0.868243 0.496139
vn 0.000000 0.000000 -1.000000
vn 0.000000 0.000000 -1.000000
vn 0.000000 0.000000 -1.000000
vn 0.000000 0.000000 -1.000000
vn 0.000000 -0.868243 -0.496139
vn 0.000000 -0.868243 -0.496139
vn 0.000000 -0.868243 -0.496139
vn 0.000000 -0.868243 -0.496139
vn 0.000000 0.000000 1.000000
vn 0.000000 0.000000 1.000000
vn 0.000000 0.000000 1.000000
vn 0.000000 0.000000 1.000000
vn 0.000000 0.868243 0.496139
vn 0.000000 0.868244 0.496138
vn 0.000000 0.868243 0.496139
vn 0.000000 0.868244 0.496138
vn 0.000000 0.000000 -1.000000
vn 0.000000 0.000000 -1.000000
vn 0.000000 0.000000 -1.000000
vn 0.000000 0.000000 -1.000000
vn 0.000000 -0.868243 -0.496139
vn 0.000000 -0.868243 -0.496139
vn 0.000000 -0.868243 -0.496139
vn 0.000000 -0.868243 -0.496139
vn 0.000000 0.000000 1.000000
vn 0.000000 0.000000 1.000000
vn 0.000000 0.000000 1.000000
vn 0.000000 0.000000 1.000000
vn 0.000000 0.868243 0.496139
vn 0.000000 0.868244 0.496138
vn 0.000000 0.868243 0.496139
vn 0.000000 0.868244 0.496138
vn 0.000000 0.000000 -1.000000
vn 0.000000 0.000000 -1.000000
vn 0.000000 0.000000 -1.000000
vn 0.000000 0.000000 -1.000000
vn 0.000000 -0.868243 -0.496139
vn 0.000000 -0.868243 -0.496139
vn 0.000000 -0.868243 -0.496139
vn 0.000000 -0.868243 -0.496139
vn 0.000000 0.000000 1.000000
vn 0.000000 0.000000 1.000000
vn 0.000000 0.000000 1.000000
vn 0.000000 0.000000 1.000000
vn 0.000000 0.868243 0.496139
vn 0.000000 0.868243 0.496139
vn 0.000000 0.868243 0.496139
vn 0.000000 0.868243 0.496139
vn 0.000000 0.000000 -1.000000
vn 0.000000 0.000000 -1.000000
vn 0.000000 0.000000 -1.000000
vn 0.000000 0.000000 -1.000000
vn 0.000000 -0.868243 -0.496139
vn 0.000000 -0.868243 -0.496139
vn 0.000000 -0.868243 -0.496139
vn 0.000000 -0.868243 -0.496139
s off
g Hallway_wall_stair2
usemtl Hallway_wall_stair1:initialShadingGroup
f 31/1/1 32/2/2 3/3/3 22/4/4
f 21/5/5 4/6/6 29/7/7 30/8/8
f 39/9/9 40/10/10 6/11/11 18/12/12
f 25/13/13 5/14/14 37/15/15 38/16/16
f 43/17/17 44/18/18 5/14/19 25/13/20
f 18/12/21 6/11/22 41/19/23 42/20/24
f 35/21/25 36/22/26 8/23/27 23/24/28
f 20/25/29 7/26/30 33/27/31 34/28/32
f 47/29/33 48/30/34 10/31/35 16/32/36
f 27/33/37 9/34/38 45/35/39 46/36/40
f 18/12/41 42/20/42 43/17/43 25/13/44
f 20/25/45 34/28/46 35/21/47 23/24/48
f 31/1/49 22/4/50 21/5/51 30/8/52
f 54/37/53 56/38/54 55/39/55 53/40/56
f 50/41/57 52/42/58 51/43/59 49/44/60
f 29/7/61 7/26/62 20/25/63 30/8/64
f 58/45/65 60/46/66 59/47/67 57/48/68
f 23/24/69 8/23/70 32/2/71 31/1/72
f 33/27/73 12/49/74 19/50/75 34/28/76
f 62/51/77 64/52/78 63/53/79 61/54/80
f 24/55/81 11/56/82 36/22/83 35/21/84
f 37/15/85 11/56/86 24/55/87 38/16/88
f 19/50/89 39/9/90 38/16/91 24/55/92
f 19/50/93 12/49/94 40/10/95 39/9/96
f 41/19/97 13/57/98 17/58/99 42/20/100
f 66/59/101 68/60/102 67/61/103 65/62/104
f 26/63/105 14/64/106 44/18/107 43/17/108
f 45/35/109 14/64/110 26/63/111 46/36/112
f 17/58/113 47/29/114 46/36/115 26/63/116
f 17/58/117 13/57/118 48/30/119 47/29/120
f 2/65/121 9/34/122 27/33/123 28/66/124
f 27/33/125 16/32/126 15/67/127 28/66/128
f 16/32/129 10/31/130 1/68/131 15/67/132
f 47/69/133 16/70/134 50/71/135 49/72/136
f 50/73/137 16/74/138 27/83/139 52/84/140
f 27/75/141 46/85/142 51/86/143 52/76/144
f 49/87/145 51/88/146 46/89/147 47/90/148
f 39/77/149 18/78/150 54/79/151 53/80/152
f 54/91/153 18/92/154 25/93/155 56/94/156
f 25/95/157 38/96/158 55/97/159 56/98/160
f 53/81/161 55/99/162 38/100/163 39/82/164
f 30/8/165 20/25/166 58/45/167 57/48/168
f 58/45/169 20/25/170 23/24/171 60/46/172
f 23/24/173 31/1/174 59/47/175 60/46/176
f 57/48/177 59/47/178 31/1/179 30/8/180
f 34/28/181 19/50/182 62/51/183 61/54/184
f 62/51/185 19/50/186 24/55/187 64/52/188
f 24/55/189 35/21/190 63/53/191 64/52/192
f 61/54/193 63/53/194 35/21/195 34/28/196
f 42/20/197 17/58/198 66/59/199 65/62/200
f 66/59/201 17/58/202 26/63/203 68/60/204
f 26/63/205 43/17/206 67/61/207 68/60/208
f 65/62/209 67/61/210 43/17/211 42/20/212
