# This file uses centimeters as units for non-parametric coordinates.

mtllib Server_room_wall_door_large.mtl
g default
v -0.388157 0.000000 8.000000
v -0.388157 0.000000 0.000000
v -0.388157 6.000000 0.000000
v -0.388157 6.000000 8.000000
v -0.388157 3.750000 0.000000
v -0.388157 3.750000 8.000000
v -0.388157 5.250000 8.000000
v -0.388157 5.250000 0.000000
v -0.388157 0.000000 7.000000
v -0.388157 3.750000 7.000000
v -0.388157 5.250000 7.000000
v -0.388157 6.000000 7.000000
v -0.388157 6.000000 1.000000
v -0.388157 5.250000 1.000000
v -0.388157 3.750000 1.000000
v -0.388157 0.000000 1.000000
v -0.388157 4.875000 0.000000
v -0.388157 4.875000 1.000000
v -0.388157 4.875000 7.000000
v -0.388157 4.875000 8.000000
v -0.388157 4.125000 8.000000
v -0.388157 4.125000 7.000000
v -0.388157 4.125000 1.000000
v -0.388157 4.125000 0.000000
v -0.388157 0.000000 6.500000
v -0.388157 3.750000 6.500000
v -0.388157 4.125000 6.500000
v -0.388157 4.875000 6.500000
v -0.388157 5.250000 6.500000
v -0.388157 6.000000 6.500000
v -0.388157 6.000000 0.500000
v -0.388157 5.250000 0.500000
v -0.388157 4.875000 0.500000
v -0.388157 4.125000 0.500000
v -0.388157 3.750000 0.500000
v -0.388157 0.000000 0.500000
v -0.388157 0.000000 7.500000
v -0.388157 3.750000 7.500000
v -0.388157 4.125000 7.500000
v -0.388157 4.875000 7.500000
v -0.388157 5.250000 7.500000
v -0.388157 6.000000 7.500000
v -0.388157 6.000000 1.500000
v -0.388157 5.250000 1.500000
v -0.388157 4.875000 1.500000
v -0.388157 4.125000 1.500000
v -0.388157 3.750000 1.500000
v -0.388157 0.000000 1.500000
v -0.188156 5.250000 0.500000
v -0.188156 4.875000 0.500000
v -0.188156 5.250000 1.000000
v -0.188156 4.875000 1.000000
v -0.188156 4.125000 0.500000
v -0.188156 4.125000 1.000000
v -0.188156 3.750000 0.500000
v -0.188156 3.750000 1.000000
v -0.188156 3.750000 7.000000
v -0.188156 4.125000 7.000000
v -0.188156 4.125000 7.500000
v -0.188156 3.750000 7.500000
v -0.188156 4.875000 7.000000
v -0.188156 4.875000 7.500000
v -0.188156 5.250000 7.500000
v -0.188156 5.250000 7.000000
v -0.588157 4.936119 6.372414
v -0.588157 5.188881 6.372414
v -0.588157 4.936119 1.627586
v -0.588157 5.188881 1.627586
v -0.588157 4.063881 6.372414
v -0.588157 3.811119 6.372414
v -0.588157 4.063881 1.627586
v -0.588157 3.811119 1.627586
v -0.388157 0.750000 0.000000
v -0.388157 0.750000 0.500000
v -0.388157 0.750000 1.000000
v -0.388157 0.750000 1.500000
v -0.388157 0.750000 6.500000
v -0.388157 0.750000 7.000000
v -0.388157 0.750000 7.500000
v -0.388157 0.750000 8.000000
v -0.388157 2.250000 8.000000
v -0.388157 2.250000 7.500000
v -0.388157 2.250000 7.000000
v -0.388157 2.250000 6.500000
v -0.388157 2.250000 1.500000
v -0.388157 2.250000 1.000000
v -0.388157 2.250000 0.500000
v -0.388157 2.250000 0.000000
v -0.188156 0.750000 7.000000
v -0.188156 0.750000 7.500000
v -0.188156 2.250000 7.000000
v -0.188156 2.250000 7.500000
v -0.588157 5.138882 6.322414
v -0.588157 5.138882 1.677586
v -0.588157 4.986118 6.322414
v -0.588157 4.986118 1.677586
v -0.588157 3.861118 1.677586
v -0.588157 3.861118 6.322414
v -0.588157 4.013882 1.677586
v -0.588157 4.013882 6.322414
v -0.578157 5.138882 6.322414
v -0.578157 5.138882 1.677586
v -0.578157 4.986118 6.322414
v -0.578157 4.986118 1.677586
v -0.578157 3.861118 1.677586
v -0.578157 3.861118 6.322414
v -0.578157 4.013882 1.677586
v -0.578157 4.013882 6.322414
vt 0.063949 0.011679
vt 0.063949 0.094457
vt 0.008764 0.094457
vt 0.008764 0.011679
vt 0.063949 0.591125
vt 0.063949 0.673903
vt 0.008764 0.673903
vt 0.008764 0.591125
vt 0.063949 0.549736
vt 0.008764 0.549736
vt 0.008764 0.466958
vt 0.063949 0.466958
vt 0.891730 0.094457
vt 0.836544 0.094457
vt 0.836544 0.011679
vt 0.891730 0.011679
vt 0.891730 0.466958
vt 0.891730 0.549736
vt 0.836544 0.549736
vt 0.836544 0.466958
vt 0.891730 0.591125
vt 0.891730 0.673903
vt 0.836544 0.673903
vt 0.836544 0.591125
vt 0.174320 0.011679
vt 0.174320 0.094457
vt 0.119134 0.094457
vt 0.119134 0.011679
vt 0.174320 0.466958
vt 0.174320 0.549736
vt 0.119134 0.549736
vt 0.119134 0.466958
vt 0.174320 0.591125
vt 0.174320 0.673903
vt 0.119134 0.673903
vt 0.119134 0.591125
vt 0.781359 0.591125
vt 0.781359 0.673903
vt 0.726174 0.673903
vt 0.726174 0.591125
vt 0.781359 0.549736
vt 0.726174 0.549736
vt 0.726174 0.466958
vt 0.781359 0.466958
vt 0.781359 0.011679
vt 0.781359 0.094457
vt 0.726174 0.094457
vt 0.726174 0.011679
vt 0.063949 0.425569
vt 0.008764 0.425569
vt 0.174320 0.425569
vt 0.119134 0.425569
vt 0.781359 0.425569
vt 0.726174 0.425569
vt 0.836544 0.425569
vt 0.891730 0.425569
vt 0.960798 0.380627
vt 0.960798 0.422016
vt 0.905612 0.422016
vt 0.905612 0.380627
vt 0.905612 0.297849
vt 0.960798 0.297849
vt 0.960798 0.256460
vt 0.905612 0.256460
vt 0.960798 0.256460
vt 0.960798 0.297849
vt 0.905612 0.297849
vt 0.905612 0.256460
vt 0.960798 0.380627
vt 0.905612 0.380627
vt 0.905612 0.422016
vt 0.960798 0.422016
vt 0.968038 0.299975
vt 0.968038 0.258586
vt 0.990112 0.258586
vt 0.990112 0.299975
vt 0.955837 0.451425
vt 0.900652 0.451425
vt 0.900652 0.429350
vt 0.955837 0.429350
vt 0.968038 0.424142
vt 0.968038 0.382753
vt 0.990112 0.382753
vt 0.990112 0.424142
vt 0.968038 0.299975
vt 0.990112 0.299975
vt 0.990112 0.382753
vt 0.968038 0.382753
vt 0.968038 0.424142
vt 0.990112 0.424142
vt 0.968038 0.258586
vt 0.990112 0.258586
vt 0.900652 0.429350
vt 0.955837 0.429350
vt 0.955837 0.451425
vt 0.900652 0.451425
vt 0.968038 0.424142
vt 0.968038 0.382753
vt 0.990112 0.382753
vt 0.990112 0.424142
vt 0.968038 0.299975
vt 0.968038 0.258586
vt 0.990112 0.258586
vt 0.990112 0.299975
vt 0.900652 0.429350
vt 0.955837 0.429350
vt 0.955837 0.451425
vt 0.900652 0.451425
vt 0.968038 0.299975
vt 0.990112 0.299975
vt 0.990112 0.382753
vt 0.968038 0.382753
vt 0.968038 0.424142
vt 0.990112 0.424142
vt 0.968038 0.258586
vt 0.990112 0.258586
vt 0.900652 0.429350
vt 0.955837 0.429350
vt 0.955837 0.451425
vt 0.900652 0.451425
vt 0.200566 0.556482
vt 0.200566 0.584380
vt 0.601047 0.736156
vt 0.077357 0.736156
vt 0.063275 0.714082
vt 0.615129 0.714082
vt 0.699927 0.584380
vt 0.699927 0.556482
vt 0.077357 0.736156
vt 0.063275 0.714082
vt 0.615129 0.714082
vt 0.601047 0.736156
vt 0.200566 0.432315
vt 0.200566 0.460213
vt 0.077357 0.736156
vt 0.063275 0.714082
vt 0.615129 0.714082
vt 0.601047 0.736156
vt 0.699927 0.460213
vt 0.699927 0.432315
vt 0.601047 0.736156
vt 0.077357 0.736156
vt 0.063275 0.714082
vt 0.615129 0.714082
vt 0.836544 0.260013
vt 0.891730 0.260013
vt 0.781359 0.260013
vt 0.726174 0.260013
vt 0.174320 0.260013
vt 0.119134 0.260013
vt 0.063949 0.260013
vt 0.008764 0.260013
vt 0.904011 0.082969
vt 0.959197 0.082969
vt 0.959197 0.248525
vt 0.904011 0.248525
vt 0.955837 0.451425
vt 0.900652 0.451425
vt 0.900652 0.429350
vt 0.955837 0.429350
vt 0.990382 0.248306
vt 0.968308 0.248306
vt 0.968308 0.082750
vt 0.990382 0.082750
vt 0.955837 0.451425
vt 0.900652 0.451425
vt 0.900652 0.429350
vt 0.955837 0.429350
vt 0.968308 0.248306
vt 0.968308 0.082750
vt 0.990382 0.082750
vt 0.990382 0.248306
vt 0.205828 0.578861
vt 0.694665 0.578861
vt 0.205828 0.562001
vt 0.694665 0.562001
vt 0.694665 0.437833
vt 0.205828 0.437833
vt 0.694665 0.454694
vt 0.205828 0.454694
vt 0.554258 0.793602
vt 0.110605 0.793602
vt 0.110605 0.792647
vt 0.554258 0.792647
vt 0.554258 0.793602
vt 0.110605 0.793602
vt 0.110605 0.792647
vt 0.554258 0.792647
vt 0.554258 0.793602
vt 0.110605 0.793602
vt 0.110605 0.792647
vt 0.554258 0.792647
vt 0.554258 0.793602
vt 0.110605 0.793602
vt 0.110605 0.792647
vt 0.554258 0.792647
vt 0.103487 0.793064
vt 0.076913 0.793064
vt 0.076913 0.791324
vt 0.103487 0.791324
vt 0.103487 0.793064
vt 0.076913 0.793064
vt 0.076913 0.791324
vt 0.103487 0.791324
vt 0.103487 0.793064
vt 0.076913 0.793064
vt 0.076913 0.791324
vt 0.103487 0.791324
vt 0.103487 0.793064
vt 0.076913 0.793064
vt 0.076913 0.791324
vt 0.103487 0.791324
vn -1.000000 0.000000 0.000000
vn -1.000000 0.000000 0.000000
vn -1.000000 0.000000 0.000000
vn -1.000000 0.000000 0.000000
vn -1.000000 0.000000 0.000000
vn -1.000000 0.000000 0.000000
vn -1.000000 0.000000 0.000000
vn -1.000000 0.000000 0.000000
vn -1.000000 0.000000 0.000000
vn -1.000000 0.000000 0.000000
vn -1.000000 0.000000 0.000000
vn -1.000000 0.000000 0.000000
vn -1.000000 0.000000 0.000000
vn -1.000000 0.000000 0.000000
vn -1.000000 0.000000 0.000000
vn -1.000000 0.000000 0.000000
vn -1.000000 0.000000 0.000000
vn -1.000000 0.000000 0.000000
vn -1.000000 0.000000 0.000000
vn -1.000000 0.000000 0.000000
vn -1.000000 0.000000 0.000000
vn -1.000000 0.000000 0.000000
vn -1.000000 0.000000 0.000000
vn -1.000000 0.000000 0.000000
vn -1.000000 0.000000 0.000000
vn -1.000000 0.000000 0.000000
vn -1.000000 0.000000 0.000000
vn -1.000000 0.000000 0.000000
vn -1.000000 0.000000 0.000000
vn -1.000000 0.000000 0.000000
vn -1.000000 0.000000 0.000000
vn -1.000000 0.000000 0.000000
vn -1.000000 0.000000 0.000000
vn -1.000000 0.000000 0.000000
vn -1.000000 0.000000 0.000000
vn -1.000000 0.000000 0.000000
vn -1.000000 0.000000 0.000000
vn -1.000000 0.000000 0.000000
vn -1.000000 0.000000 0.000000
vn -1.000000 0.000000 0.000000
vn -1.000000 0.000000 0.000000
vn -1.000000 0.000000 0.000000
vn -1.000000 0.000000 0.000000
vn -1.000000 0.000000 0.000000
vn -1.000000 0.000000 0.000000
vn -1.000000 0.000000 0.000000
vn -1.000000 0.000000 0.000000
vn -1.000000 0.000000 0.000000
vn -1.000000 0.000000 0.000000
vn -1.000000 0.000000 0.000000
vn -1.000000 0.000000 0.000000
vn -1.000000 0.000000 0.000000
vn -1.000000 0.000000 0.000000
vn -1.000000 0.000000 0.000000
vn -1.000000 0.000000 0.000000
vn -1.000000 0.000000 0.000000
vn -1.000000 0.000000 0.000000
vn -1.000000 0.000000 0.000000
vn -1.000000 0.000000 0.000000
vn -1.000000 0.000000 0.000000
vn -1.000000 0.000000 0.000000
vn -1.000000 0.000000 0.000000
vn -1.000000 0.000000 0.000000
vn -1.000000 0.000000 0.000000
vn -1.000000 0.000000 0.000000
vn -1.000000 0.000000 0.000000
vn -1.000000 0.000000 0.000000
vn -1.000000 0.000000 0.000000
vn -1.000000 0.000000 0.000000
vn -1.000000 0.000000 0.000000
vn -1.000000 0.000000 0.000000
vn -1.000000 0.000000 0.000000
vn -1.000000 0.000000 0.000000
vn -1.000000 0.000000 0.000000
vn -1.000000 0.000000 0.000000
vn -1.000000 0.000000 0.000000
vn -1.000000 0.000000 0.000000
vn -1.000000 0.000000 0.000000
vn -1.000000 0.000000 0.000000
vn -1.000000 0.000000 0.000000
vn -1.000000 0.000000 0.000000
vn -1.000000 0.000000 0.000000
vn -1.000000 0.000000 0.000000
vn -1.000000 0.000000 0.000000
vn -1.000000 0.000000 0.000000
vn -1.000000 0.000000 0.000000
vn -1.000000 0.000000 0.000000
vn -1.000000 0.000000 0.000000
vn -1.000000 0.000000 0.000000
vn -1.000000 0.000000 0.000000
vn -1.000000 0.000000 0.000000
vn -1.000000 0.000000 0.000000
vn -1.000000 0.000000 0.000000
vn -1.000000 0.000000 0.000000
vn -1.000000 0.000000 0.000000
vn -1.000000 0.000000 0.000000
vn -1.000000 0.000000 0.000000
vn -1.000000 0.000000 0.000000
vn -1.000000 0.000000 0.000000
vn -1.000000 0.000000 0.000000
vn -1.000000 0.000000 0.000000
vn -1.000000 0.000000 0.000000
vn -1.000000 0.000000 0.000000
vn -1.000000 0.000000 0.000000
vn -1.000000 0.000000 0.000000
vn -1.000000 0.000000 0.000000
vn -1.000000 0.000000 0.000000
vn -1.000000 0.000000 0.000000
vn -1.000000 0.000000 0.000000
vn -1.000000 0.000000 0.000000
vn -1.000000 0.000000 0.000000
vn -1.000000 0.000000 0.000000
vn -1.000000 0.000000 0.000000
vn -1.000000 0.000000 0.000000
vn -1.000000 0.000000 0.000000
vn -1.000000 0.000000 0.000000
vn -1.000000 0.000000 0.000000
vn -1.000000 0.000000 0.000000
vn -1.000000 0.000000 0.000000
vn -1.000000 0.000000 0.000000
vn -1.000000 0.000000 0.000000
vn -1.000000 0.000000 0.000000
vn -1.000000 0.000000 0.000000
vn -1.000000 0.000000 0.000000
vn -1.000000 0.000000 0.000000
vn -1.000000 0.000000 0.000000
vn -1.000000 0.000000 0.000000
vn -1.000000 0.000000 0.000000
vn -1.000000 0.000000 0.000000
vn -1.000000 0.000000 0.000000
vn -1.000000 0.000000 0.000000
vn -1.000000 0.000000 0.000000
vn 0.000000 0.000000 1.000000
vn 0.000000 0.000000 1.000000
vn 0.000000 0.000000 1.000000
vn 0.000000 0.000000 1.000000
vn 0.000000 -1.000000 0.000000
vn 0.000000 -1.000000 0.000000
vn 0.000000 -1.000000 0.000000
vn 0.000000 -1.000000 0.000000
vn 0.000000 0.000000 -1.000000
vn 0.000000 0.000000 -1.000000
vn 0.000000 0.000000 -1.000000
vn 0.000000 0.000000 -1.000000
vn 0.000000 0.000000 -1.000000
vn 0.000000 0.000000 -1.000000
vn 0.000000 0.000000 -1.000000
vn 0.000000 0.000000 -1.000000
vn 0.000000 0.000000 1.000000
vn 0.000000 0.000000 1.000000
vn 0.000000 0.000000 1.000000
vn 0.000000 0.000000 1.000000
vn 0.000000 0.000000 1.000000
vn 0.000000 0.000000 1.000000
vn 0.000000 0.000000 1.000000
vn 0.000000 0.000000 1.000000
vn 0.000000 0.000000 -1.000000
vn 0.000000 0.000000 -1.000000
vn 0.000000 0.000000 -1.000000
vn 0.000000 0.000000 -1.000000
vn 0.000000 1.000000 0.000000
vn 0.000000 1.000000 0.000000
vn 0.000000 1.000000 0.000000
vn 0.000000 1.000000 0.000000
vn 0.000000 0.000000 1.000000
vn 0.000000 0.000000 1.000000
vn 0.000000 0.000000 1.000000
vn 0.000000 0.000000 1.000000
vn 0.000000 0.000000 -1.000000
vn 0.000000 0.000000 -1.000000
vn 0.000000 0.000000 -1.000000
vn 0.000000 0.000000 -1.000000
vn 0.000000 1.000000 0.000000
vn 0.000000 1.000000 0.000000
vn 0.000000 1.000000 0.000000
vn 0.000000 1.000000 0.000000
vn 0.000000 0.000000 1.000000
vn 0.000000 0.000000 1.000000
vn 0.000000 0.000000 1.000000
vn 0.000000 0.000000 1.000000
vn 0.000000 0.000000 -1.000000
vn 0.000000 0.000000 -1.000000
vn 0.000000 0.000000 -1.000000
vn 0.000000 0.000000 -1.000000
vn 0.000000 0.000000 -1.000000
vn 0.000000 0.000000 -1.000000
vn 0.000000 0.000000 -1.000000
vn 0.000000 0.000000 -1.000000
vn 0.000000 0.000000 1.000000
vn 0.000000 0.000000 1.000000
vn 0.000000 0.000000 1.000000
vn 0.000000 0.000000 1.000000
vn 0.000000 -1.000000 0.000000
vn 0.000000 -1.000000 0.000000
vn 0.000000 -1.000000 0.000000
vn 0.000000 -1.000000 0.000000
vn -0.537819 0.000000 0.843061
vn -0.537819 0.000000 0.843060
vn -0.537819 0.000000 0.843060
vn -0.537819 0.000000 0.843061
vn -0.292253 -0.956341 0.000000
vn -0.292253 -0.956341 0.000000
vn -0.292253 -0.956341 0.000000
vn -0.292253 -0.956341 0.000000
vn -0.537815 0.000000 -0.843063
vn -0.537815 0.000000 -0.843063
vn -0.537815 0.000000 -0.843063
vn -0.537815 0.000000 -0.843063
vn -0.292253 0.956341 0.000000
vn -0.292253 0.956341 0.000000
vn -0.292253 0.956341 0.000000
vn -0.292253 0.956341 0.000000
vn -0.537818 0.000000 0.843061
vn -0.537818 0.000000 0.843061
vn -0.537818 0.000000 0.843061
vn -0.537818 0.000000 0.843061
vn -0.292253 -0.956341 0.000000
vn -0.292253 -0.956341 0.000000
vn -0.292253 -0.956341 0.000000
vn -0.292253 -0.956341 0.000000
vn -0.537815 0.000000 -0.843063
vn -0.537815 0.000000 -0.843063
vn -0.537815 0.000000 -0.843063
vn -0.537815 0.000000 -0.843063
vn -0.292253 0.956341 0.000000
vn -0.292253 0.956341 0.000000
vn -0.292253 0.956341 0.000000
vn -0.292253 0.956341 0.000000
vn -1.000000 0.000000 0.000000
vn -1.000000 0.000000 0.000000
vn -1.000000 0.000000 0.000000
vn -1.000000 0.000000 0.000000
vn -1.000000 0.000000 0.000000
vn -1.000000 0.000000 0.000000
vn -1.000000 0.000000 0.000000
vn -1.000000 0.000000 0.000000
vn -1.000000 0.000000 0.000000
vn -1.000000 0.000000 0.000000
vn -1.000000 0.000000 0.000000
vn -1.000000 0.000000 0.000000
vn -1.000000 0.000000 0.000000
vn -1.000000 0.000000 0.000000
vn -1.000000 0.000000 0.000000
vn -1.000000 0.000000 0.000000
vn -1.000000 0.000000 0.000000
vn -1.000000 0.000000 0.000000
vn -1.000000 0.000000 0.000000
vn -1.000000 0.000000 0.000000
vn -1.000000 0.000000 0.000000
vn -1.000000 0.000000 0.000000
vn -1.000000 0.000000 0.000000
vn -1.000000 0.000000 0.000000
vn -1.000000 0.000000 0.000000
vn -1.000000 0.000000 0.000000
vn -1.000000 0.000000 0.000000
vn -1.000000 0.000000 0.000000
vn -1.000000 0.000000 0.000000
vn -1.000000 0.000000 0.000000
vn -1.000000 0.000000 0.000000
vn -1.000000 0.000000 0.000000
vn -1.000000 0.000000 0.000000
vn -1.000000 0.000000 0.000000
vn -1.000000 0.000000 0.000000
vn -1.000000 0.000000 0.000000
vn -1.000000 0.000000 0.000000
vn -1.000000 0.000000 0.000000
vn -1.000000 0.000000 0.000000
vn -1.000000 0.000000 0.000000
vn -1.000000 0.000000 0.000000
vn -1.000000 0.000000 0.000000
vn -1.000000 0.000000 0.000000
vn -1.000000 0.000000 0.000000
vn -1.000000 0.000000 0.000000
vn -1.000000 0.000000 0.000000
vn -1.000000 0.000000 0.000000
vn -1.000000 0.000000 0.000000
vn -1.000000 0.000000 0.000000
vn -1.000000 0.000000 0.000000
vn -1.000000 0.000000 0.000000
vn -1.000000 0.000000 0.000000
vn -1.000000 0.000000 0.000000
vn -1.000000 0.000000 0.000000
vn -1.000000 0.000000 0.000000
vn -1.000000 0.000000 0.000000
vn 0.000000 1.000000 0.000000
vn 0.000000 1.000000 0.000000
vn 0.000000 1.000000 0.000000
vn 0.000000 1.000000 0.000000
vn 0.000000 0.000000 1.000000
vn 0.000000 0.000000 1.000000
vn 0.000000 0.000000 1.000000
vn 0.000000 0.000000 1.000000
vn 0.000000 -1.000000 0.000000
vn 0.000000 -1.000000 0.000000
vn 0.000000 -1.000000 0.000000
vn 0.000000 -1.000000 0.000000
vn 0.000000 0.000000 -1.000000
vn 0.000000 0.000000 -1.000000
vn 0.000000 0.000000 -1.000000
vn 0.000000 0.000000 -1.000000
vn -1.000000 0.000001 0.000000
vn -1.000000 0.000001 0.000000
vn -1.000000 0.000001 0.000000
vn -1.000000 0.000001 0.000000
vn -1.000000 0.000000 0.000000
vn -1.000000 0.000000 0.000000
vn -1.000000 0.000000 0.000000
vn -1.000000 0.000000 0.000000
vn -1.000000 -0.000001 0.000000
vn -1.000000 -0.000001 0.000000
vn -1.000000 -0.000001 0.000000
vn -1.000000 -0.000001 0.000000
vn -1.000000 0.000000 0.000000
vn -1.000000 0.000000 0.000000
vn -1.000000 0.000000 0.000000
vn -1.000000 0.000000 0.000000
vn -1.000000 -0.000001 0.000000
vn -1.000000 -0.000001 0.000000
vn -1.000000 -0.000001 0.000000
vn -1.000000 -0.000001 0.000000
vn -1.000000 0.000000 0.000000
vn -1.000000 0.000000 0.000000
vn -1.000000 0.000000 0.000000
vn -1.000000 0.000000 0.000000
vn -1.000000 0.000001 0.000000
vn -1.000000 0.000001 0.000000
vn -1.000000 0.000001 0.000000
vn -1.000000 0.000001 0.000000
vn -1.000000 0.000000 0.000000
vn -1.000000 0.000000 0.000000
vn -1.000000 0.000000 0.000000
vn -1.000000 0.000000 0.000000
vn 0.000000 -1.000000 0.000000
vn 0.000000 -1.000000 0.000000
vn 0.000000 -1.000000 0.000000
vn 0.000000 -1.000000 0.000000
vn 0.000000 0.000000 -1.000000
vn 0.000000 0.000000 -1.000000
vn 0.000000 0.000000 -1.000000
vn 0.000000 0.000000 -1.000000
vn 0.000000 1.000000 0.000000
vn 0.000000 1.000000 0.000000
vn 0.000000 1.000000 0.000000
vn 0.000000 1.000000 0.000000
vn 0.000000 0.000000 1.000000
vn 0.000000 0.000000 1.000000
vn 0.000000 0.000000 1.000000
vn 0.000000 0.000000 1.000000
vn 0.000000 1.000000 0.000000
vn 0.000000 1.000000 0.000000
vn 0.000000 1.000000 0.000000
vn 0.000000 1.000000 0.000000
vn 0.000000 0.000000 1.000000
vn 0.000000 0.000000 1.000000
vn 0.000000 0.000000 1.000000
vn 0.000000 0.000000 1.000000
vn 0.000000 -1.000000 0.000000
vn 0.000000 -1.000000 0.000000
vn 0.000000 -1.000000 0.000000
vn 0.000000 -1.000000 0.000000
vn 0.000000 0.000000 -1.000000
vn 0.000000 0.000000 -1.000000
vn 0.000000 0.000000 -1.000000
vn 0.000000 0.000000 -1.000000
s off
g Server_room_wall_door_large1:Server_room_wall_door_large1
usemtl lambert2SG
f 37/1/1 1/4/2 80/3/3 79/2/4
f 41/5/5 7/8/6 4/7/7 42/6/8
f 40/9/9 39/12/10 21/11/11 20/10/12
f 73/13/13 2/16/14 36/15/15 74/14/16
f 24/17/17 34/20/18 33/19/19 17/18/20
f 8/21/21 32/24/22 31/23/23 3/22/24
f 25/25/25 9/28/26 78/27/27 77/26/28
f 27/29/29 22/32/30 19/31/31 28/30/32
f 29/33/33 11/36/34 12/35/35 30/34/36
f 14/37/37 44/40/38 43/39/39 13/38/40
f 18/41/41 23/44/42 46/43/43 45/42/44
f 16/45/45 48/48/46 76/47/47 75/46/48
f 8/21/49 17/18/50 33/19/51 32/24/52
f 44/40/53 14/37/54 18/41/55 45/42/56
f 19/31/57 11/36/58 29/33/59 28/30/60
f 20/10/61 7/8/62 41/5/63 40/9/64
f 38/49/65 6/50/66 21/11/67 39/12/68
f 26/51/69 10/52/70 22/32/71 27/29/72
f 15/53/73 47/54/74 46/43/75 23/44/76
f 24/17/77 5/56/78 35/55/79 34/20/80
f 31/23/81 32/24/82 14/37/83 13/38/84
f 50/57/85 52/60/86 51/59/87 49/58/88
f 50/57/89 53/62/90 54/61/91 52/60/92
f 55/63/93 56/64/94 54/61/95 53/62/96
f 36/15/97 16/45/98 75/46/99 74/14/100
f 9/28/101 37/1/102 79/2/103 78/27/104
f 57/65/105 60/68/106 59/67/107 58/66/108
f 58/66/109 59/67/110 62/70/111 61/69/112
f 63/71/113 64/72/114 61/69/115 62/70/116
f 11/36/117 41/5/118 42/6/119 12/35/120
f 44/40/121 29/33/122 30/34/123 43/39/124
f 46/43/125 27/29/126 28/30/127 45/42/128
f 25/25/129 77/26/130 76/47/131 48/48/132
f 33/73/133 50/76/134 49/75/135 32/74/136
f 32/77/137 49/80/138 51/79/139 14/78/140
f 14/81/141 51/84/142 52/83/143 18/82/144
f 52/83/145 54/86/146 23/85/147 18/82/148
f 50/76/149 33/73/150 34/88/151 53/87/152
f 35/89/153 55/90/154 53/87/155 34/88/156
f 23/85/157 54/86/158 56/92/159 15/91/160
f 15/93/161 56/96/162 55/95/163 35/94/164
f 10/97/165 57/100/166 58/99/167 22/98/168
f 39/101/169 59/104/170 60/103/171 38/102/172
f 38/105/173 60/108/174 57/107/175 10/106/176
f 58/99/177 61/110/178 19/109/179 22/98/180
f 59/104/181 39/101/182 40/112/183 62/111/184
f 41/113/185 63/114/186 62/111/187 40/112/188
f 19/109/189 61/110/190 64/116/191 11/115/192
f 11/117/193 64/120/194 63/119/195 41/118/196
f 29/33/197 66/122/198 65/121/199 28/30/200
f 67/123/201 45/126/202 28/125/203 65/124/204
f 45/42/205 67/128/206 68/127/207 44/40/208
f 68/129/209 66/132/210 29/131/211 44/130/212
f 27/29/213 69/134/214 70/133/215 26/51/216
f 70/135/217 72/138/218 47/137/219 26/136/220
f 47/54/221 72/140/222 71/139/223 46/43/224
f 69/141/225 27/144/226 46/143/227 71/142/228
f 35/55/229 5/56/230 88/146/231 87/145/232
f 15/53/233 35/55/234 87/145/235 86/147/236
f 47/54/237 15/53/238 86/147/239 85/148/240
f 47/54/241 85/148/242 84/149/243 26/51/244
f 10/52/245 26/51/246 84/149/247 83/150/248
f 38/49/249 10/52/250 83/150/251 82/151/252
f 6/50/253 38/49/254 82/151/255 81/152/256
f 74/14/257 87/145/258 88/146/259 73/13/260
f 75/46/261 86/147/262 87/145/263 74/14/264
f 76/47/265 85/148/266 86/147/267 75/46/268
f 77/26/269 84/149/270 85/148/271 76/47/272
f 78/27/273 83/150/274 84/149/275 77/26/276
f 90/153/277 92/156/278 91/155/279 89/154/280
f 81/152/281 82/151/282 79/2/283 80/3/284
f 79/157/285 90/160/286 89/159/287 78/158/288
f 89/161/289 91/164/290 83/163/291 78/162/292
f 83/165/293 91/168/294 92/167/295 82/166/296
f 90/169/297 79/172/298 82/171/299 92/170/300
f 68/127/301 94/174/302 93/173/303 66/122/304
f 66/122/305 93/173/306 95/175/307 65/121/308
f 65/121/309 95/175/310 96/176/311 67/128/312
f 67/128/313 96/176/314 94/174/315 68/127/316
f 70/133/317 98/178/318 97/177/319 72/140/320
f 72/140/321 97/177/322 99/179/323 71/139/324
f 71/139/325 99/179/326 100/180/327 69/134/328
f 69/134/329 100/180/330 98/178/331 70/133/332
f 93/181/333 94/182/334 102/183/335 101/184/336
f 95/197/337 93/198/338 101/199/339 103/200/340
f 96/185/341 95/186/342 103/187/343 104/188/344
f 94/201/345 96/202/346 104/203/347 102/204/348
f 97/189/349 98/190/350 106/191/351 105/192/352
f 99/205/353 97/206/354 105/207/355 107/208/356
f 100/193/357 99/194/358 107/195/359 108/196/360
f 98/209/361 100/210/362 108/211/363 106/212/364
g default
v -0.578157 5.138882 1.677586
v -0.578157 5.138882 6.322414
v -0.578157 4.986118 6.322414
v -0.578157 4.986118 1.677586
v -0.578157 3.861118 6.322414
v -0.578157 3.861118 1.677586
v -0.578157 4.013882 1.677586
v -0.578157 4.013882 6.322414
vt 0.016308 0.883029
vt 0.938607 0.883029
vt 0.938607 0.913362
vt 0.016308 0.913362
vt 0.016308 0.883029
vt 0.938607 0.883029
vt 0.938607 0.913362
vt 0.016308 0.913362
vn -1.000000 0.000000 0.000000
vn -1.000000 0.000000 0.000000
vn -1.000000 0.000000 0.000000
vn -1.000000 0.000000 0.000000
vn -1.000000 0.000000 0.000000
vn -1.000000 0.000000 0.000000
vn -1.000000 0.000000 0.000000
vn -1.000000 0.000000 0.000000
s off
g Server_room_wall_door_large1:Server_room_wall_door_large1 Server_room_wall_door_large1:Server_room_wall_door_large1Server_room_wall_door_large_light
usemtl lambert2SG
f 109/213/365 112/216/366 111/215/367 110/214/368
f 113/217/369 116/220/370 115/219/371 114/218/372
