# This file uses centimeters as units for non-parametric coordinates.

mtllib Warehouse_stairs.mtl
g default
v 0.000000 0.198453 -0.000000
v 0.000000 0.198453 -1.000000
v 0.000000 0.130573 -0.071250
v 0.000000 0.121972 -1.000000
v 0.000000 0.198453 -0.154338
v 0.000000 0.121972 -0.154338
v 0.000000 0.062694 -0.225588
v 0.000000 0.062694 -1.000000
v 1.500000 0.198453 -0.000000
v 1.500000 0.130573 -0.071250
v 1.500000 0.130573 -0.154338
v 1.500000 0.062694 -0.225588
v 1.500000 0.062694 -1.000000
v 1.500000 0.130573 -1.000000
v 1.500000 0.198453 -1.000000
v 1.500000 0.198453 -0.154338
v 0.000000 0.805330 -0.491530
v 0.000000 0.805330 -1.491530
v 0.000000 0.737450 -0.562780
v 0.000000 0.728848 -1.491530
v 0.000000 0.805330 -0.645869
v 0.000000 0.728848 -0.645869
v 0.000000 0.669570 -0.717118
v 0.000000 0.669570 -1.491530
v 1.500000 0.805330 -0.491530
v 1.500000 0.737450 -0.562780
v 1.500000 0.737450 -0.645869
v 1.500000 0.669570 -0.717118
v 1.500000 0.669570 -1.491530
v 1.500000 0.737450 -1.491530
v 1.500000 0.805330 -1.491530
v 1.500000 0.805330 -0.645869
v 0.000000 2.486291 -1.979105
v 0.000000 2.486291 -3.000000
v 0.000000 2.418411 -2.050354
v 0.000000 2.409809 -3.000000
v 0.000000 2.486291 -2.133443
v 0.000000 2.409809 -2.133443
v 0.000000 2.350531 -2.204692
v 0.000000 2.350531 -2.979105
v 1.500000 2.486291 -1.979105
v 1.500000 2.418411 -2.050354
v 1.500000 2.418411 -2.133443
v 1.500000 2.350531 -2.204692
v 1.500000 2.350531 -2.979105
v 1.500000 2.418411 -3.000000
v 1.500000 2.486291 -3.000000
v 1.500000 2.486291 -2.133443
v 0.000000 1.989198 -1.440494
v 0.000000 1.989198 -2.440494
v 0.000000 1.921318 -1.511744
v 0.000000 1.912716 -2.440494
v 0.000000 1.989198 -1.594832
v 0.000000 1.912716 -1.594832
v 0.000000 1.853438 -1.666082
v 0.000000 1.853438 -2.440494
v 1.500000 1.989198 -1.440494
v 1.500000 1.921318 -1.511744
v 1.500000 1.921318 -1.594832
v 1.500000 1.853438 -1.666082
v 1.500000 1.853438 -2.440494
v 1.500000 1.921318 -2.440494
v 1.500000 1.989198 -2.440494
v 1.500000 1.989198 -1.594832
v 0.000000 1.426903 -0.991530
v 0.000000 1.426903 -1.991530
v 0.000000 1.359023 -1.062780
v 0.000000 1.350421 -1.991530
v 0.000000 1.426903 -1.145869
v 0.000000 1.350421 -1.145869
v 0.000000 1.291143 -1.217118
v 0.000000 1.291143 -1.991530
v 1.500000 1.426903 -0.991530
v 1.500000 1.359023 -1.062780
v 1.500000 1.359023 -1.145869
v 1.500000 1.291143 -1.217118
v 1.500000 1.291143 -1.991530
v 1.500000 1.359023 -1.991530
v 1.500000 1.426903 -1.991530
v 1.500000 1.426903 -1.145869
v 0.606470 0.000000 -0.901455
v 0.906469 0.000000 -0.901455
v 0.679919 -0.000001 -1.073983
v 0.833020 -0.000001 -1.073983
v 0.906469 -0.000002 -0.960749
v 0.606470 -0.000002 -0.960749
v 0.606470 2.460315 -2.880988
v 0.906469 2.460315 -2.880988
v 0.679919 2.350531 -2.979105
v 0.833020 2.350531 -2.979105
v 0.906469 2.448474 -2.948684
v 0.606470 2.448474 -2.948684
vt 0.375000 0.250000
vt 0.375000 0.500000
vt 0.125000 0.250000
vt 0.375000 0.125000
vt 0.250000 0.375000
vt 0.348701 0.250000
vt 0.375000 0.276299
vt 0.361851 0.151299
vt 0.361851 0.151299
vt 0.250000 0.375000
vt 0.500000 0.250000
vt 0.500000 0.125000
vt 0.499691 0.174827
vt 0.500000 0.151299
vt 0.500000 0.375000
vt 0.500000 0.375000
vt 0.500000 0.500000
vt 0.500000 0.276299
vt 0.361851 0.151299
vt 0.348701 0.250000
vt 0.375000 0.125000
vt 0.375000 0.250000
vt 0.361851 0.151299
vt 0.499691 0.174827
vt 0.500000 0.125000
vt 0.500000 0.250000
vt 0.500000 0.276299
vt 0.500000 0.500000
vt 0.500000 0.375000
vt 0.500000 0.375000
vt 0.500000 0.151299
vt 0.250000 0.375000
vt 0.250000 0.375000
vt 0.375000 0.500000
vt 0.375000 0.276299
vt 0.125000 0.250000
vt 0.361851 0.151299
vt 0.348701 0.250000
vt 0.375000 0.125000
vt 0.375000 0.250000
vt 0.361851 0.151299
vt 0.499691 0.174827
vt 0.500000 0.125000
vt 0.500000 0.250000
vt 0.500000 0.276299
vt 0.500000 0.500000
vt 0.495969 0.387304
vt 0.500000 0.375000
vt 0.500000 0.151299
vt 0.250000 0.375000
vt 0.250000 0.375000
vt 0.375000 0.500000
vt 0.375000 0.276299
vt 0.125000 0.250000
vt 0.361851 0.151299
vt 0.348701 0.250000
vt 0.375000 0.125000
vt 0.375000 0.250000
vt 0.361851 0.151299
vt 0.499691 0.174827
vt 0.500000 0.125000
vt 0.500000 0.250000
vt 0.500000 0.276299
vt 0.500000 0.500000
vt 0.500000 0.375000
vt 0.500000 0.375000
vt 0.500000 0.151299
vt 0.250000 0.375000
vt 0.250000 0.375000
vt 0.375000 0.500000
vt 0.375000 0.276299
vt 0.125000 0.250000
vt 0.361851 0.151299
vt 0.348701 0.250000
vt 0.375000 0.125000
vt 0.375000 0.250000
vt 0.361851 0.151299
vt 0.499691 0.174827
vt 0.500000 0.125000
vt 0.500000 0.250000
vt 0.500000 0.276299
vt 0.500000 0.500000
vt 0.500000 0.375000
vt 0.500000 0.375000
vt 0.500000 0.151299
vt 0.250000 0.375000
vt 0.250000 0.375000
vt 0.375000 0.500000
vt 0.375000 0.276299
vt 0.125000 0.250000
vt 0.500000 0.437500
vt 0.500000 0.204263
vt 0.500000 0.444316
vt 0.500000 0.204263
vt 0.500000 0.437500
vt 0.500000 0.204263
vt 0.500000 0.437500
vt 0.500000 0.204263
vt 0.500000 0.437500
vt 0.500000 0.204263
vt 0.625000 0.500000
vt 0.625000 0.625000
vt 0.625000 0.750000
vt 0.875000 0.125000
vt 0.875000 0.250000
vt 0.125000 0.125000
vt 0.125000 0.250000
vt 0.375000 0.750000
vt 0.375000 0.500000
vt 0.375000 0.625000
vt 0.875000 0.000000
vt 0.125000 0.000000
vt 0.625000 0.500000
vt 0.625000 0.625000
vt 0.625000 0.750000
vt 0.875000 0.125000
vt 0.875000 0.250000
vt 0.125000 0.250000
vt 0.125000 0.125000
vt 0.375000 0.750000
vt 0.375000 0.500000
vt 0.375000 0.625000
vt 0.875000 0.000000
vt 0.125000 0.000000
vn -1.000000 0.000000 0.000000
vn -1.000000 0.000000 0.000000
vn -1.000000 0.000000 0.000000
vn -1.000000 0.000000 0.000000
vn -1.000000 0.000000 0.000000
vn -1.000000 0.000000 0.000000
vn -1.000000 0.000000 0.000000
vn -1.000000 0.000000 0.000000
vn 0.000000 -0.724021 0.689778
vn 0.000000 -0.724021 0.689778
vn 0.000000 -0.724021 0.689778
vn 0.000000 -0.724021 0.689778
vn 0.002863 -0.998659 0.051693
vn 0.002863 -0.998659 0.051693
vn 0.002863 -0.998659 0.051693
vn 0.002863 -0.998659 0.051693
vn 0.002139 -0.746127 0.665800
vn 0.002139 -0.746127 0.665800
vn 0.002139 -0.746127 0.665800
vn 0.002139 -0.746127 0.665800
vn 0.000000 0.000000 -1.000000
vn 0.000000 0.000000 -1.000000
vn 0.000000 0.000000 -1.000000
vn 0.000000 0.000000 -1.000000
vn 0.000000 1.000000 0.000000
vn 0.000000 1.000000 0.000000
vn 0.000000 1.000000 0.000000
vn 0.000000 1.000000 0.000000
vn 0.000000 -1.000000 0.000000
vn 0.000000 -1.000000 0.000000
vn 0.000000 -1.000000 0.000000
vn 0.000000 -1.000000 0.000000
vn 0.000000 1.000000 0.000000
vn 0.000000 1.000000 0.000000
vn 0.000000 0.000000 -1.000000
vn 0.000000 0.000000 -1.000000
vn -1.000000 0.000000 0.000000
vn -1.000000 0.000000 0.000000
vn -1.000000 0.000000 0.000000
vn -1.000000 0.000000 0.000000
vn -1.000000 0.000000 0.000000
vn -1.000000 0.000000 0.000000
vn -1.000000 0.000000 0.000000
vn -1.000000 0.000000 0.000000
vn 0.000000 -0.724022 0.689777
vn 0.000000 -0.724022 0.689777
vn 0.000000 -0.724022 0.689777
vn 0.000000 -0.724022 0.689777
vn 0.002863 -0.998659 0.051693
vn 0.002863 -0.998659 0.051693
vn 0.002863 -0.998659 0.051693
vn 0.002863 -0.998659 0.051693
vn 0.002139 -0.746127 0.665800
vn 0.002139 -0.746127 0.665800
vn 0.002139 -0.746127 0.665800
vn 0.002139 -0.746127 0.665800
vn 0.000000 0.000000 -1.000000
vn -0.000000 0.000000 -1.000000
vn -0.000000 0.000000 -1.000000
vn 0.000000 0.000000 -1.000000
vn 0.000000 1.000000 0.000000
vn 0.000000 1.000000 0.000000
vn 0.000000 1.000000 0.000000
vn 0.000000 1.000000 0.000000
vn 0.000000 -1.000000 0.000000
vn 0.000000 -1.000000 0.000000
vn 0.000000 -1.000000 0.000000
vn 0.000000 -1.000000 0.000000
vn 0.000000 1.000000 0.000000
vn 0.000000 1.000000 0.000000
vn -0.000000 0.000000 -1.000000
vn -0.000000 0.000000 -1.000000
vn -1.000000 0.000000 0.000000
vn -1.000000 0.000000 0.000000
vn -1.000000 0.000000 0.000000
vn -1.000000 0.000000 0.000000
vn -1.000000 0.000000 0.000000
vn -1.000000 0.000000 0.000000
vn -1.000000 0.000000 0.000000
vn -1.000000 0.000000 0.000000
vn 0.000000 -0.724022 0.689777
vn 0.000000 -0.724022 0.689777
vn 0.000000 -0.724022 0.689777
vn 0.000000 -0.724022 0.689777
vn 0.002863 -0.998659 0.051695
vn 0.002863 -0.998659 0.051695
vn 0.002863 -0.998659 0.051695
vn 0.002863 -0.998659 0.051695
vn 0.002139 -0.746126 0.665801
vn 0.002139 -0.746126 0.665801
vn 0.002139 -0.746126 0.665801
vn 0.002139 -0.746126 0.665801
vn 0.000000 0.000000 -1.000000
vn 0.000435 -0.151675 -0.988430
vn 0.000437 -0.152568 -0.988293
vn 0.000000 0.000000 -1.000000
vn 0.000000 1.000000 0.000000
vn 0.000000 1.000000 0.000000
vn 0.000000 1.000000 0.000000
vn 0.000000 1.000000 0.000000
vn 0.000000 -1.000000 0.000000
vn 0.000000 -1.000000 0.000000
vn 0.000000 -1.000000 0.000000
vn 0.000000 -1.000000 0.000000
vn 0.000000 1.000000 0.000000
vn 0.000000 1.000000 0.000000
vn 0.000895 -0.312224 -0.950008
vn 0.000895 -0.312224 -0.950008
vn -1.000000 0.000000 0.000000
vn -1.000000 0.000000 0.000000
vn -1.000000 0.000000 0.000000
vn -1.000000 0.000000 0.000000
vn -1.000000 0.000000 0.000000
vn -1.000000 0.000000 0.000000
vn -1.000000 0.000000 0.000000
vn -1.000000 0.000000 0.000000
vn 0.000000 -0.724020 0.689779
vn 0.000000 -0.724020 0.689779
vn 0.000000 -0.724020 0.689779
vn 0.000000 -0.724020 0.689779
vn 0.002863 -0.998659 0.051692
vn 0.002863 -0.998659 0.051692
vn 0.002863 -0.998659 0.051692
vn 0.002863 -0.998659 0.051692
vn 0.002139 -0.746127 0.665800
vn 0.002139 -0.746127 0.665800
vn 0.002139 -0.746127 0.665800
vn 0.002139 -0.746127 0.665800
vn 0.000000 0.000000 -1.000000
vn 0.000000 0.000000 -1.000000
vn 0.000000 0.000000 -1.000000
vn 0.000000 0.000000 -1.000000
vn 0.000000 1.000000 0.000000
vn 0.000000 1.000000 0.000000
vn 0.000000 1.000000 0.000000
vn 0.000000 1.000000 0.000000
vn 0.000000 -1.000000 0.000000
vn 0.000000 -1.000000 0.000000
vn 0.000000 -1.000000 0.000000
vn 0.000000 -1.000000 0.000000
vn 0.000000 1.000000 0.000000
vn 0.000000 1.000000 0.000000
vn -0.000000 0.000000 -1.000000
vn -0.000000 0.000000 -1.000000
vn -1.000000 0.000000 0.000000
vn -1.000000 0.000000 0.000000
vn -1.000000 0.000000 0.000000
vn -1.000000 0.000000 0.000000
vn -1.000000 0.000000 0.000000
vn -1.000000 0.000000 0.000000
vn -1.000000 0.000000 0.000000
vn -1.000000 0.000000 0.000000
vn 0.000000 -0.724021 0.689778
vn 0.000000 -0.724021 0.689778
vn 0.000000 -0.724021 0.689778
vn 0.000000 -0.724021 0.689778
vn 0.002863 -0.998659 0.051693
vn 0.002863 -0.998659 0.051693
vn 0.002863 -0.998659 0.051693
vn 0.002863 -0.998659 0.051693
vn 0.002139 -0.746128 0.665799
vn 0.002139 -0.746128 0.665799
vn 0.002139 -0.746128 0.665799
vn 0.002139 -0.746128 0.665799
vn 0.000000 0.000000 -1.000000
vn -0.000000 0.000000 -1.000000
vn -0.000000 0.000000 -1.000000
vn 0.000000 0.000000 -1.000000
vn 0.000000 1.000000 0.000000
vn 0.000000 1.000000 0.000000
vn 0.000000 1.000000 0.000000
vn 0.000000 1.000000 0.000000
vn 0.000000 -1.000000 0.000000
vn 0.000000 -1.000000 0.000000
vn 0.000000 -1.000000 0.000000
vn 0.000000 -1.000000 0.000000
vn 0.000000 1.000000 0.000000
vn 0.000000 1.000000 0.000000
vn -0.000000 0.000000 -1.000000
vn -0.000000 0.000000 -1.000000
vn 1.000000 0.000000 0.000000
vn 1.000000 0.000000 0.000000
vn 1.000000 0.000000 0.000000
vn 1.000000 0.000000 0.000000
vn 1.000000 0.000000 0.000000
vn 1.000000 0.000000 0.000000
vn 1.000000 0.000000 0.000000
vn 1.000000 0.000000 0.000000
vn 1.000000 0.000000 0.000000
vn 1.000000 0.000000 0.000000
vn 1.000000 0.000000 0.000000
vn 1.000000 0.000000 0.000000
vn 1.000000 0.000000 0.000000
vn 1.000000 0.000000 0.000000
vn 1.000000 0.000000 0.000000
vn 1.000000 0.000000 0.000000
vn 1.000000 0.000000 0.000000
vn 1.000000 0.000000 0.000000
vn 1.000000 0.000000 0.000000
vn 1.000000 0.000000 0.000000
vn 1.000000 0.000000 0.000000
vn 1.000000 0.000000 0.000000
vn 1.000000 0.000000 0.000000
vn 1.000000 0.000000 0.000000
vn 1.000000 0.000000 0.000000
vn 1.000000 0.000000 0.000000
vn 1.000000 0.000000 0.000000
vn 1.000000 0.000000 0.000000
vn 1.000000 0.000000 0.000000
vn 1.000000 0.000000 0.000000
vn 1.000000 0.000000 0.000000
vn 1.000000 0.000000 0.000000
vn 1.000000 0.000000 0.000000
vn 1.000000 0.000000 0.000000
vn 1.000000 0.000000 0.000000
vn 1.000000 0.000000 0.000000
vn 1.000000 0.000000 0.000000
vn 1.000000 0.000000 0.000000
vn 1.000000 0.000000 0.000000
vn 1.000000 0.000000 0.000000
vn 1.000000 0.000000 0.000000
vn 1.000000 0.000000 0.000000
vn 1.000000 0.000000 0.000000
vn 1.000000 0.000000 0.000000
vn 1.000000 0.000000 0.000000
vn 1.000000 0.000000 0.000000
vn 1.000000 0.000000 0.000000
vn 1.000000 0.000000 0.000000
vn 1.000000 0.000000 0.000000
vn 1.000000 0.000000 0.000000
vn 0.000000 -1.000000 0.000031
vn 0.000000 -1.000000 0.000014
vn 0.000000 -1.000000 0.000014
vn 0.000000 -1.000000 0.000031
vn 0.000000 -1.000000 -0.000005
vn 0.000000 -1.000000 -0.000005
vn 1.000000 -0.000001 0.000000
vn 0.950213 -0.196308 -0.241990
vn 0.864183 -0.316999 -0.390767
vn 1.000000 -0.000001 0.000000
vn 0.762757 -0.407408 -0.502216
vn 0.762757 -0.407408 -0.502216
vn 0.000000 -0.629659 -0.776871
vn 0.000000 -0.629659 -0.776871
vn 0.000000 -0.629659 -0.776871
vn 0.000000 -0.629659 -0.776871
vn 0.000000 0.626871 0.779123
vn 0.000000 0.626871 0.779123
vn 0.000000 0.626871 0.779123
vn 0.000000 0.626871 0.779123
vn 0.000000 0.985045 -0.172300
vn 0.000000 0.838590 -0.544764
vn 0.000000 0.838590 -0.544764
vn 0.000000 0.985045 -0.172300
vn -1.000000 -0.000000 0.000000
vn -1.000000 -0.000000 0.000000
vn -0.864183 -0.316999 -0.390767
vn -0.950213 -0.196307 -0.241990
vn 0.000000 0.296618 -0.954996
vn 0.000000 0.296618 -0.954996
vn -0.762757 -0.407408 -0.502216
vn -0.762757 -0.407408 -0.502216
s 1
g Stair_01 Warehouse
usemtl initialShadingGroup
f 4/5/1 6/8/2 5/6/3 2/3/4
f 5/6/3 6/8/2 3/4/5 1/1/6
f 7/9/7 6/8/2 4/5/1 8/10/8
s off
f 10/12/9 9/11/10 1/1/11 3/4/12
f 11/13/13 10/12/14 3/4/15 6/8/16
f 12/14/17 11/13/18 6/8/19 7/9/20
s 2
f 15/17/21 14/16/22 4/5/23 2/2/24
s 3
f 1/1/25 9/11/26 16/18/27 5/7/28
s off
f 12/14/29 7/9/30 8/10/31 13/15/32
s 3
f 5/7/28 16/18/27 15/17/33 2/2/34
s 2
f 14/16/22 13/15/35 8/10/36 4/5/23
s 4
f 20/32/37 22/19/38 21/20/39 18/36/40
f 21/20/39 22/19/38 19/21/41 17/22/42
f 23/23/43 22/19/38 20/32/37 24/33/44
s off
f 26/25/45 25/26/46 17/22/47 19/21/48
f 27/24/49 26/25/50 19/21/51 22/19/52
f 28/31/53 27/24/54 22/19/55 23/23/56
s 5
f 31/28/57 30/29/58 20/32/59 18/34/60
s 6
f 17/22/61 25/26/62 32/27/63 21/35/64
s off
f 28/31/65 23/23/66 24/33/67 29/30/68
s 6
f 21/35/64 32/27/63 31/28/69 18/34/70
s 5
f 30/29/58 29/30/71 24/33/72 20/32/59
s 7
f 36/50/73 38/37/74 37/38/75 34/54/76
f 37/38/75 38/37/74 35/39/77 33/40/78
f 39/41/79 38/37/74 36/50/73 40/51/80
s off
f 42/43/81 41/44/82 33/40/83 35/39/84
f 43/42/85 42/43/86 35/39/87 38/37/88
f 44/49/89 43/42/90 38/37/91 39/41/92
s 8
f 47/46/93 46/47/94 36/50/95 34/52/96
s 9
f 33/40/97 41/44/98 48/45/99 37/53/100
s off
f 44/49/101 39/41/102 40/51/103 45/48/104
s 9
f 37/53/100 48/45/99 47/46/105 34/52/106
s 8
f 46/47/94 45/48/107 40/51/108 36/50/95
s 10
f 52/68/109 54/55/110 53/56/111 50/72/112
f 53/56/111 54/55/110 51/57/113 49/58/114
f 55/59/115 54/55/110 52/68/109 56/69/116
s off
f 58/61/117 57/62/118 49/58/119 51/57/120
f 59/60/121 58/61/122 51/57/123 54/55/124
f 60/67/125 59/60/126 54/55/127 55/59/128
s 11
f 63/64/129 62/65/130 52/68/131 50/70/132
s 12
f 49/58/133 57/62/134 64/63/135 53/71/136
s off
f 60/67/137 55/59/138 56/69/139 61/66/140
s 12
f 53/71/136 64/63/135 63/64/141 50/70/142
s 11
f 62/65/130 61/66/143 56/69/144 52/68/131
s 13
f 68/86/145 70/73/146 69/74/147 66/90/148
f 69/74/147 70/73/146 67/75/149 65/76/150
f 71/77/151 70/73/146 68/86/145 72/87/152
s off
f 74/79/153 73/80/154 65/76/155 67/75/156
f 75/78/157 74/79/158 67/75/159 70/73/160
f 76/85/161 75/78/162 70/73/163 71/77/164
s 14
f 79/82/165 78/83/166 68/86/167 66/88/168
s 15
f 65/76/169 73/80/170 80/81/171 69/89/172
s off
f 76/85/173 71/77/174 72/87/175 77/84/176
s 15
f 69/89/172 80/81/171 79/82/177 66/88/178
s 14
f 78/83/166 77/84/179 72/87/180 68/86/167
s 16
f 62/91/181 59/92/182 60/67/183 61/66/184
f 63/64/185 64/63/186 59/92/182 62/91/181
s off
f 58/61/187 59/60/188 64/63/189 57/62/190
f 42/43/191 43/42/192 48/45/193 41/44/194
s 17
f 46/93/195 43/94/196 44/49/197 45/48/198
f 47/46/199 48/45/200 43/94/196 46/93/195
s 18
f 78/95/201 75/96/202 76/85/203 77/84/204
s off
f 74/79/205 75/78/206 80/81/207 73/80/208
s 18
f 79/82/209 80/81/210 75/96/202 78/95/201
s 19
f 30/97/211 27/98/212 28/31/213 29/30/214
s off
f 26/25/215 27/24/216 32/27/217 25/26/218
s 19
f 31/28/219 32/27/220 27/98/212 30/97/211
s 20
f 14/99/221 11/100/222 12/14/223 13/15/224
s off
f 10/12/225 11/13/226 16/18/227 9/11/228
s 20
f 15/17/229 16/18/230 11/100/222 14/99/221
s 21
f 81/109/231 86/110/232 85/102/233 82/101/234
f 85/102/233 86/110/232 83/108/235 84/103/236
s 22
f 82/105/237 85/104/238 91/116/239 88/117/240
f 85/104/238 84/111/241 90/123/242 91/116/239
s off
f 84/103/243 83/108/244 89/120/245 90/115/246
f 82/101/247 88/113/248 87/121/249 81/109/250
s 23
f 88/113/251 91/114/252 92/122/253 87/121/254
s 24
f 81/107/255 87/118/256 92/119/257 86/106/258
s 23
f 91/114/252 90/115/259 89/120/260 92/122/253
s 24
f 86/106/258 92/119/257 89/124/261 83/112/262
