# This file uses centimeters as units for non-parametric coordinates.

mtllib Warehouse_wall_half.mtl
g default
v 0.000000 2.500000 -0.000000
v 6.000000 2.500000 -0.000000
v 2.625000 2.500000 -0.000000
v 3.375000 2.500000 -0.000000
v 0.000000 0.312500 -0.000000
v 2.625000 0.312500 -0.000000
v 3.375000 0.312500 -0.000000
v 6.000000 0.312500 -0.000000
v 1.312500 2.500000 -0.000000
v 1.968750 0.312500 -0.000000
v 4.687500 2.500000 -0.000000
v 4.031250 0.312500 -0.000000
v 0.492188 0.312500 -0.000000
v 2.625000 2.089844 -0.000000
v 3.375000 2.089844 -0.000000
v 4.687500 2.089844 -0.000000
v 0.492188 2.089844 -0.000000
v 1.312500 2.089844 -0.000000
v 5.507813 0.312500 -0.000000
v 5.507813 2.089844 -0.000000
v 6.000000 0.000000 -0.000000
v 0.000000 0.000000 -0.000000
v 0.492188 0.000000 -0.000000
v 1.968750 0.000000 -0.000000
v 2.625000 0.000000 -0.000000
v 3.375000 0.000000 -0.000000
v 4.031250 0.000000 -0.000000
v 5.507813 0.000000 -0.000000
v 4.031250 0.312500 -0.124582
v 5.507813 2.089844 -0.124582
v 5.507813 0.312500 -0.124582
v 3.375000 0.312500 -0.124582
v 4.687500 2.089844 -0.124582
v 3.375000 2.089844 -0.124582
v 2.625000 0.312500 -0.124582
v 1.312500 2.089844 -0.124582
v 2.625000 2.089844 -0.124582
v 0.492188 0.312500 -0.124582
v 0.492188 2.089844 -0.124582
v 1.968750 0.312500 -0.124582
v 0.000000 2.500000 -0.124582
v 6.000000 2.500000 -0.124582
v 0.000000 0.000000 -0.124582
v 6.000000 0.000000 -0.124582
vt 0.367429 0.242430
vt 0.617495 0.257507
vt 0.484375 0.250000
vt 0.515625 0.250000
vt 0.375000 0.140625
vt 0.484375 0.140625
vt 0.515625 0.140625
vt 0.625000 0.140625
vt 0.429688 0.250000
vt 0.457031 0.140624
vt 0.570313 0.250000
vt 0.542970 0.140624
vt 0.395508 0.140625
vt 0.484375 0.229492
vt 0.515625 0.229492
vt 0.570313 0.229492
vt 0.395508 0.229492
vt 0.429688 0.229492
vt 0.604492 0.140625
vt 0.604491 0.229492
vt 0.625000 0.125000
vt 0.375000 0.125000
vt 0.395508 0.125000
vt 0.457031 0.125000
vt 0.484375 0.125000
vt 0.515625 0.125000
vt 0.542970 0.125000
vt 0.604492 0.125000
vt 0.542969 0.374999
vt 0.604491 0.375000
vt 0.604492 0.375001
vt 0.515625 0.375000
vt 0.570313 0.375000
vt 0.515625 0.375000
vt 0.484375 0.375000
vt 0.429688 0.375000
vt 0.484375 0.375000
vt 0.395508 0.375000
vt 0.395508 0.375000
vt 0.457031 0.375000
vt 0.375000 0.125000
vt 0.625000 0.125000
vt 0.625000 0.250000
vt 0.375000 0.250000
vn 0.000000 0.000000 1.000000
vn 0.000000 0.000000 1.000000
vn 0.000000 0.000000 1.000000
vn 0.000000 0.000000 1.000000
vn 0.000000 0.000000 1.000000
vn 0.000000 0.000000 1.000000
vn 0.000000 0.000000 1.000000
vn 0.000000 0.000000 1.000000
vn 0.000000 0.000000 1.000000
vn 0.000000 0.000000 1.000000
vn 0.000000 0.000000 1.000000
vn 0.000000 0.000000 1.000000
vn 0.000000 0.000000 1.000000
vn 0.000000 0.000000 1.000000
vn 0.000000 0.000000 1.000000
vn 0.000000 0.000000 1.000000
vn 0.000000 0.000000 1.000000
vn 0.000000 0.000000 1.000000
vn 0.000000 0.000000 1.000000
vn 0.000000 0.000000 1.000000
vn 0.000000 0.000000 1.000000
vn 0.000000 0.000000 1.000000
vn 0.000000 0.000000 1.000000
vn 0.000000 0.000000 1.000000
vn 0.000000 0.000000 1.000000
vn 0.000000 0.000000 1.000000
vn 0.000000 0.000000 1.000000
vn 0.000000 0.000000 1.000000
vn -1.000000 0.000000 0.000000
vn -1.000000 0.000000 0.000000
vn -1.000000 0.000000 0.000000
vn -1.000000 0.000000 0.000000
vn 0.804433 0.594043 0.000000
vn 0.804433 0.594043 0.000000
vn 0.804433 0.594043 0.000000
vn 0.804433 0.594043 0.000000
vn 0.000000 -1.000000 0.000000
vn 0.000000 -1.000000 0.000000
vn 0.000000 -1.000000 0.000000
vn 0.000000 -1.000000 0.000000
vn 0.769190 -0.639020 0.000000
vn 0.769190 -0.639020 0.000000
vn 0.769190 -0.639020 0.000000
vn 0.769190 -0.639020 0.000000
vn -1.000000 0.000000 0.000000
vn -1.000000 0.000000 0.000000
vn -1.000000 0.000000 0.000000
vn -1.000000 0.000000 0.000000
vn 0.000000 1.000000 0.000000
vn 0.000000 1.000000 0.000000
vn 0.000000 1.000000 0.000000
vn 0.000000 1.000000 0.000000
vn 1.000000 0.000000 0.000000
vn 1.000000 0.000000 0.000000
vn 1.000000 0.000000 0.000000
vn 1.000000 0.000000 0.000000
vn -0.769190 -0.639020 0.000000
vn -0.769190 -0.639020 0.000000
vn -0.769190 -0.639020 0.000000
vn -0.769190 -0.639020 0.000000
vn 0.000000 1.000000 0.000000
vn 0.000000 1.000000 0.000000
vn 0.000000 1.000000 0.000000
vn 0.000000 1.000000 0.000000
vn -0.804433 0.594043 0.000000
vn -0.804433 0.594043 0.000000
vn -0.804433 0.594043 0.000000
vn -0.804433 0.594043 0.000000
vn 0.000000 -1.000000 0.000000
vn 0.000000 -1.000000 0.000000
vn 0.000000 -1.000000 0.000000
vn 0.000000 -1.000000 0.000000
vn 1.000000 0.000000 0.000000
vn 1.000000 0.000000 0.000000
vn 1.000000 0.000000 0.000000
vn 1.000000 0.000000 0.000000
vn 0.000000 0.000000 1.000000
vn 0.000000 0.000000 1.000000
vn 0.000000 0.000000 1.000000
vn 0.000000 0.000000 1.000000
s 1
g Wall_01_half Warehouse
usemtl initialShadingGroup
f 6/6/1 7/7/2 15/15/3 14/14/4
f 23/23/5 24/24/6 10/10/7 13/13/8
f 25/25/9 26/26/10 7/7/2 6/6/1
f 27/27/11 28/28/12 19/19/13 12/12/14
f 26/26/10 27/27/11 12/12/14 7/7/2
f 8/8/15 19/19/13 28/28/12 21/21/16
f 20/20/17 19/19/13 8/8/15 2/2/18
f 1/1/19 5/5/20 13/13/8 17/17/21
f 22/22/22 23/23/5 13/13/8 5/5/20
f 3/3/23 14/14/4 15/15/3 4/4/24
f 18/18/25 14/14/4 3/3/23 9/9/26
f 17/17/21 18/18/25 9/9/26 1/1/19
f 2/2/18 11/11/27 16/16/28 20/20/17
f 4/4/24 15/15/3 16/16/28 11/11/27
f 10/10/7 6/6/1 18/18/25 17/17/21
f 20/20/17 16/16/28 7/7/2 12/12/14
f 10/10/7 24/24/6 25/25/9 6/6/1
s off
f 37/37/29 35/35/30 6/6/31 14/14/32
f 18/18/33 6/6/34 35/35/35 36/36/36
f 36/36/37 37/37/38 14/14/39 18/18/40
f 29/29/41 30/30/42 20/20/43 12/12/44
f 30/30/45 31/31/46 19/19/47 20/20/48
f 31/31/49 29/29/50 12/12/51 19/19/52
f 38/38/53 39/39/54 17/17/55 13/13/56
f 39/39/57 40/40/58 10/10/59 17/17/60
f 40/40/61 38/38/62 13/13/63 10/10/64
f 7/7/65 16/16/66 33/33/67 32/32/68
f 16/16/69 15/15/70 34/34/71 33/33/72
f 15/15/73 7/7/74 32/32/75 34/34/76
f 43/41/77 44/42/78 42/43/79 41/44/80
