# This file uses centimeters as units for non-parametric coordinates.

mtllib Control_room_wall_large.mtl
g default
v -7.999996 0.000000 0.000000
v 0.000000 0.000000 0.000000
v -7.999996 7.000000 0.000000
v 0.000000 7.000000 0.000000
v -5.999996 0.000000 0.000000
v -5.999996 7.000000 0.000000
v -2.000000 0.000000 0.000000
v -2.000000 7.000000 0.000000
v -6.999996 0.000000 0.000000
v -6.999996 7.000000 0.000000
v -6.499996 0.000000 0.000000
v -7.499996 0.000000 0.000000
v -7.499996 7.000000 0.000000
v -1.000000 0.000000 0.000000
v -1.000000 7.000000 0.000000
v -1.500000 0.000000 0.000000
v -0.500000 0.000000 0.000000
v -0.500000 7.000000 0.000000
v -7.999996 5.250000 0.000000
v -7.499996 5.250000 0.000000
v -6.999996 5.250000 0.000000
v -6.499996 5.250000 0.000000
v -1.500000 5.250000 0.000000
v -1.000000 5.250000 0.000000
v -0.500000 5.250000 0.000000
v 0.000000 5.250000 0.000000
v -7.999996 1.750000 0.000000
v -7.499996 1.750000 0.000000
v -6.999996 1.750000 0.000000
v -6.499996 1.750000 0.000000
v -5.999996 1.750000 0.000000
v -2.000000 1.750000 0.000000
v -1.500000 1.750000 0.000000
v -1.000000 1.750000 0.000000
v -0.500000 1.750000 0.000000
v 0.000000 1.750000 0.000000
v -7.999996 6.125000 0.000000
v -7.499996 6.125000 0.000000
v -6.999996 6.125000 0.000000
v -5.999996 6.125000 0.000000
v -2.000000 6.125000 0.000000
v -1.000000 6.125000 0.000000
v -0.500000 6.125000 0.000000
v 0.000000 6.125000 0.000000
v -7.999996 0.875000 0.000000
v -7.499996 0.875000 0.000000
v -6.999996 0.875000 0.000000
v -6.499996 0.875000 0.000000
v -5.999996 0.875000 0.000000
v -2.000000 0.875000 0.000000
v -1.500000 0.875000 0.000000
v -1.000000 0.875000 0.000000
v -0.500000 0.875000 0.000000
v 0.000000 0.875000 0.000000
v -7.410313 1.846068 0.199997
v -7.089680 1.846068 0.199997
v -7.410313 5.153933 0.199997
v -7.089680 5.153933 0.199997
v -0.910316 1.846068 0.199997
v -0.589684 1.846068 0.199997
v -0.910316 5.153933 0.199997
v -0.589684 5.153933 0.199997
v -2.000000 1.750000 -0.199997
v -5.999996 1.750000 -0.199997
v -1.500000 1.750000 -0.199997
v -6.499996 1.750000 -0.199997
v -6.499996 5.250000 -0.199997
v -5.999996 6.125000 -0.199997
v -2.000000 6.125000 -0.199997
v -1.500000 5.250000 -0.199997
v -5.999996 0.875000 -0.199997
v -2.000000 0.875000 -0.199997
vt 0.000000 0.875000
vt 0.062500 0.875000
vt 0.062500 1.000000
vt 0.000000 1.000000
vt 0.750003 0.999995
vt 0.249997 0.999996
vt 0.249998 0.875000
vt 0.750002 0.875000
vt 0.125000 1.000000
vt 0.125000 0.875000
vt 0.875000 1.000000
vt 0.875000 0.875000
vt 0.937500 0.875000
vt 0.937500 1.000000
vt 1.000000 0.875000
vt 1.000000 1.000000
vt 0.062500 0.750000
vt 0.000000 0.750000
vt 0.000000 0.250000
vt 0.062500 0.250000
vt 0.125000 0.250000
vt 0.125000 0.750000
vt 0.062500 0.750000
vt 0.062500 0.250000
vt 0.187500 0.750000
vt 0.125000 0.750000
vt 0.125000 0.250000
vt 0.187500 0.250000
vt 0.250000 0.250000
vt 0.250000 0.874998
vt 0.187500 0.750000
vt 0.187500 0.250000
vt 0.750000 0.250000
vt 0.750000 0.874998
vt 0.812500 0.250000
vt 0.812500 0.750000
vt 0.875000 0.750000
vt 0.812500 0.750000
vt 0.812500 0.250000
vt 0.875000 0.250000
vt 0.937500 0.250000
vt 0.937500 0.750000
vt 0.875000 0.750000
vt 0.875000 0.250000
vt 1.000000 0.250000
vt 1.000000 0.750000
vt 0.937500 0.750000
vt 0.937500 0.250000
vt 0.000000 0.125000
vt 0.062500 0.125000
vt 0.125000 0.125000
vt 0.187500 0.125000
vt 0.250000 0.250000
vt 0.250000 0.125000
vt 0.250000 0.125000
vt 0.750000 0.125000
vt 0.750000 0.125000
vt 0.812500 0.125000
vt 0.750000 0.250000
vt 0.875000 0.125000
vt 0.937500 0.125000
vt 1.000000 0.125000
vt 0.000000 0.000000
vt 0.062500 0.000000
vt 0.125000 0.000000
vt 0.187500 0.000000
vt 0.250000 0.000000
vt 0.750000 0.000000
vt 0.812500 0.000000
vt 0.875000 0.000000
vt 0.937500 0.000000
vt 1.000000 0.000000
vt 0.875000 0.250000
vt 0.875000 0.250000
vt 0.875000 0.250000
vt 0.937500 0.250000
vt 0.937500 0.250000
vt 0.875000 0.250000
vt 0.937500 0.250000
vt 0.937500 0.250000
vt 0.125000 0.750000
vt 0.062500 0.750000
vt 0.062500 0.750000
vt 0.125000 0.750000
vt 0.062500 0.750000
vt 0.062500 0.750000
vt 0.125000 0.750000
vt 0.125000 0.750000
vn 0.000000 0.000000 1.000000
vn 0.000000 0.000000 1.000000
vn 0.000000 0.000000 1.000000
vn 0.000000 0.000000 1.000000
vn 0.000000 -0.000000 1.000000
vn 0.000000 -0.000000 1.000000
vn 0.000000 -0.000000 1.000000
vn 0.000000 -0.000000 1.000000
vn 0.000000 -0.000000 1.000000
vn 0.000000 -0.000000 1.000000
vn 0.000000 -0.000000 1.000000
vn 0.000000 -0.000000 1.000000
vn 0.000000 -0.000000 1.000000
vn 0.000000 -0.000000 1.000000
vn 0.000000 -0.000000 1.000000
vn 0.000000 -0.000000 1.000000
vn 0.000000 -0.000000 1.000000
vn 0.000000 -0.000000 1.000000
vn 0.000000 -0.000000 1.000000
vn 0.000000 -0.000000 1.000000
vn 0.000000 -0.000000 1.000000
vn 0.000000 -0.000000 1.000000
vn 0.000000 -0.000000 1.000000
vn 0.000000 -0.000000 1.000000
vn 0.000000 -0.000000 1.000000
vn 0.000000 -0.000000 1.000000
vn 0.000000 -0.000000 1.000000
vn 0.000000 -0.000000 1.000000
vn 0.000000 -0.000000 1.000000
vn 0.000000 -0.000000 1.000000
vn 0.000000 -0.000000 1.000000
vn 0.000000 -0.000000 1.000000
vn 0.000000 -0.000000 1.000000
vn 0.000000 -0.000000 1.000000
vn 0.000000 -0.000000 1.000000
vn 0.000000 -0.000000 1.000000
vn 0.000000 -0.000000 1.000000
vn 0.000000 -0.000000 1.000000
vn 0.000000 -0.000000 1.000000
vn 0.000000 -0.000000 1.000000
vn 0.000000 -0.000000 1.000000
vn 0.000000 -0.000000 1.000000
vn 0.000000 -0.000000 1.000000
vn 0.000000 -0.000000 1.000000
vn 0.000000 -0.000000 1.000000
vn 0.000000 -0.000000 1.000000
vn 0.000000 -0.000000 1.000000
vn 0.000000 -0.000000 1.000000
vn 0.000000 -0.000000 1.000000
vn 0.000000 -0.000000 1.000000
vn 0.000000 -0.000000 1.000000
vn 0.000000 -0.000000 1.000000
vn 0.000000 -0.000000 1.000000
vn 0.000000 -0.000000 1.000000
vn 0.000000 -0.000000 1.000000
vn 0.000000 -0.000000 1.000000
vn 0.000000 -0.000000 1.000000
vn 0.000000 -0.000000 1.000000
vn 0.000000 -0.000000 1.000000
vn 0.000000 -0.000000 1.000000
vn 0.000000 -0.000000 1.000000
vn 0.000000 -0.000000 1.000000
vn 0.000000 -0.000000 1.000000
vn 0.000000 -0.000000 1.000000
vn 0.000000 -0.000000 1.000000
vn 0.000000 -0.000000 1.000000
vn 0.000000 -0.000000 1.000000
vn 0.000000 -0.000000 1.000000
vn 0.000000 -0.000000 1.000000
vn 0.000000 -0.000000 1.000000
vn 0.000000 -0.000000 1.000000
vn 0.000000 -0.000000 1.000000
vn 0.000000 -0.000000 1.000000
vn 0.000000 -0.000000 1.000000
vn 0.000000 -0.000000 1.000000
vn 0.000000 -0.000000 1.000000
vn 0.000000 -0.000000 1.000000
vn 0.000000 -0.000000 1.000000
vn 0.000000 -0.000000 1.000000
vn 0.000000 -0.000000 1.000000
vn 0.000000 -0.000000 1.000000
vn 0.000000 -0.000000 1.000000
vn 0.000000 -0.000000 1.000000
vn 0.000000 -0.000000 1.000000
vn 0.000000 -0.000000 1.000000
vn 0.000000 -0.000000 1.000000
vn 0.000000 -0.000000 1.000000
vn 0.000000 -0.000000 1.000000
vn 0.000000 -0.000000 1.000000
vn 0.000000 -0.000000 1.000000
vn 0.000000 -0.000000 1.000000
vn 0.000000 -0.000000 1.000000
vn 0.000000 -0.000000 1.000000
vn 0.000000 -0.000000 1.000000
vn 0.000000 -0.000000 1.000000
vn 0.000000 -0.000000 1.000000
vn 0.000000 -0.000000 1.000000
vn 0.000000 -0.000000 1.000000
vn 0.000000 -0.000000 1.000000
vn 0.000000 -0.000000 1.000000
vn 0.000000 -0.000000 1.000000
vn 0.000000 -0.000000 1.000000
vn 0.000000 -0.000000 1.000000
vn 0.000000 -0.000000 1.000000
vn 0.000000 -0.000000 1.000000
vn 0.000000 -0.000000 1.000000
vn 0.000000 -0.000000 1.000000
vn 0.000000 -0.000000 1.000000
vn 0.000000 -0.000000 1.000000
vn 0.000000 -0.000000 1.000000
vn 0.000000 -0.000000 1.000000
vn 0.000000 -0.000000 1.000000
vn 0.000000 -0.000000 1.000000
vn 0.000000 -0.000000 1.000000
vn 0.000000 -0.000000 1.000000
vn 0.000000 -0.000000 1.000000
vn 0.000000 -0.000000 1.000000
vn 0.000000 -0.000000 1.000000
vn 0.000000 -0.000000 1.000000
vn 0.000000 -0.000000 1.000000
vn 0.000000 -0.000000 1.000000
vn 0.000000 -0.000000 1.000000
vn 0.000000 -0.000000 1.000000
vn 0.000000 -0.000000 1.000000
vn 0.000000 -0.000000 1.000000
vn 0.000000 -0.000000 1.000000
vn 0.000000 -0.000000 1.000000
vn 0.000000 -0.000000 1.000000
vn 0.000000 -0.000000 1.000000
vn 0.000000 -0.000000 1.000000
vn 0.000000 -0.000000 1.000000
vn 0.000000 -0.000000 1.000000
vn 0.000000 -0.000000 1.000000
vn 0.000000 -0.000000 1.000000
vn 0.000000 -0.000000 1.000000
vn 0.000000 -0.000000 1.000000
vn 0.000000 -0.000000 1.000000
vn 0.000000 -0.000000 1.000000
vn 0.000000 -0.000000 1.000000
vn 0.000000 -0.000000 1.000000
vn 0.000000 -0.000000 1.000000
vn 0.000000 -0.000000 1.000000
vn 0.000000 -0.000000 1.000000
vn 0.000000 -0.000000 1.000000
vn 0.000000 -0.000000 1.000000
vn 0.000000 -0.000000 1.000000
vn 0.000000 -0.000000 1.000000
vn 0.000000 -0.000000 1.000000
vn 0.000000 -0.000000 1.000000
vn 0.000000 -0.000000 1.000000
vn 0.000000 -0.000000 1.000000
vn 0.000000 -0.000000 1.000000
vn 0.000000 -0.000000 1.000000
vn 0.000000 -0.000000 1.000000
vn 0.000000 -0.000000 1.000000
vn 0.000000 -0.000000 1.000000
vn 0.000000 -0.000000 1.000000
vn 0.000000 -0.000000 1.000000
vn 0.000000 -0.000000 1.000000
vn 0.000000 -0.000000 1.000000
vn 0.000000 -0.901400 0.432987
vn 0.000000 -0.901400 0.432987
vn 0.000000 -0.901400 0.432987
vn 0.000000 -0.901400 0.432987
vn 0.912459 -0.000000 0.409169
vn 0.912459 -0.000000 0.409169
vn 0.912459 -0.000000 0.409169
vn 0.912459 -0.000000 0.409169
vn 0.000000 0.901402 0.432983
vn 0.000000 0.901402 0.432983
vn 0.000000 0.901402 0.432983
vn 0.000000 0.901402 0.432983
vn -0.912458 0.000000 0.409170
vn -0.912458 0.000000 0.409170
vn -0.912458 0.000000 0.409170
vn -0.912458 0.000000 0.409170
vn 0.000000 -0.901400 0.432987
vn 0.000000 -0.901400 0.432987
vn 0.000000 -0.901400 0.432987
vn 0.000000 -0.901400 0.432987
vn 0.912459 -0.000000 0.409169
vn 0.912459 -0.000000 0.409169
vn 0.912459 -0.000000 0.409169
vn 0.912459 -0.000000 0.409169
vn 0.000000 0.901402 0.432983
vn 0.000000 0.901402 0.432983
vn 0.000000 0.901402 0.432983
vn 0.000000 0.901402 0.432983
vn -0.912459 0.000000 0.409169
vn -0.912459 0.000000 0.409169
vn -0.912459 0.000000 0.409169
vn -0.912459 0.000000 0.409169
vn 0.000000 1.000000 0.000000
vn 0.000000 1.000000 0.000000
vn 0.000000 1.000000 0.000000
vn 0.000000 1.000000 0.000000
vn -1.000000 0.000000 0.000000
vn -1.000000 0.000000 0.000000
vn -1.000000 0.000000 0.000000
vn -1.000000 0.000000 0.000000
vn 0.000000 1.000000 0.000000
vn 0.000000 1.000000 0.000000
vn 0.000000 1.000000 0.000000
vn 0.000000 1.000000 0.000000
vn 1.000000 0.000000 0.000000
vn 1.000000 0.000000 0.000000
vn 1.000000 0.000000 0.000000
vn 1.000000 0.000000 0.000000
vn 1.000000 0.000000 0.000000
vn 1.000000 0.000000 0.000000
vn 1.000000 0.000000 0.000000
vn 1.000000 0.000000 0.000000
vn 0.000000 1.000000 0.000000
vn 0.000000 1.000000 0.000000
vn 0.000000 1.000000 0.000000
vn 0.000000 1.000000 0.000000
vn -1.000000 0.000000 0.000000
vn -1.000000 0.000000 0.000000
vn -1.000000 0.000000 0.000000
vn -1.000000 0.000000 0.000000
vn 0.000000 -1.000000 0.000000
vn 0.000000 -1.000000 0.000000
vn 0.000000 -1.000000 0.000000
vn 0.000000 -1.000000 0.000000
vn 0.868243 -0.496139 0.000000
vn 0.868243 -0.496139 0.000000
vn 0.868243 -0.496139 0.000000
vn 0.868243 -0.496139 0.000000
vn -0.868243 -0.496139 0.000000
vn -0.868243 -0.496139 0.000000
vn -0.868243 -0.496139 0.000000
vn -0.868243 -0.496139 0.000000
s off
g Control_room_wall
usemtl Server_room_wall_door_top:initialShadingGroup20
f 37/1/1 38/2/2 13/3/3 3/4/4
f 8/5/5 6/6/6 40/7/7 41/8/8
f 10/9/9 39/10/10 40/7/11 6/6/12
f 13/3/13 38/2/14 39/10/15 10/9/16
f 15/11/17 42/12/18 43/13/19 18/14/20
f 8/5/21 41/8/22 42/12/23 15/11/24
f 18/14/25 43/13/26 44/15/27 4/16/28
f 20/17/29 19/18/30 27/19/31 28/20/32
f 56/21/33 58/22/34 57/23/35 55/24/36
f 22/25/37 21/26/38 29/27/39 30/28/40
f 64/29/41 68/30/42 67/31/43 66/32/44
f 68/30/45 64/29/46 63/33/47 69/34/48
f 65/35/49 70/36/50 69/34/51 63/33/52
f 24/37/53 23/38/54 33/39/55 34/40/56
f 60/41/57 62/42/58 61/43/59 59/44/60
f 36/45/61 26/46/62 25/47/63 35/48/64
f 45/49/65 46/50/66 28/20/67 27/19/68
f 29/27/69 28/20/70 46/50/71 47/51/72
f 30/28/73 29/27/74 47/51/75 48/52/76
f 31/53/77 30/28/78 48/52/79 49/54/80
f 63/33/81 64/29/82 71/55/83 72/56/84
f 50/57/85 51/58/86 33/39/87 32/59/88
f 51/58/89 52/60/90 34/40/91 33/39/92
f 52/60/93 53/61/94 35/48/95 34/40/96
f 36/45/97 35/48/98 53/61/99 54/62/100
f 19/18/101 20/17/102 38/2/103 37/1/104
f 39/10/105 38/2/106 20/17/107 21/26/108
f 40/7/109 39/10/110 21/26/111 22/25/112
f 42/12/113 41/8/114 23/38/115 24/37/116
f 43/13/117 42/12/118 24/37/119 25/47/120
f 44/15/121 43/13/122 25/47/123 26/46/124
f 1/63/125 12/64/126 46/50/127 45/49/128
f 47/51/129 46/50/130 12/64/131 9/65/132
f 48/52/133 47/51/134 9/65/135 11/66/136
f 49/54/137 48/52/138 11/66/139 5/67/140
f 49/54/141 5/67/142 7/68/143 50/57/144
f 16/69/145 51/58/146 50/57/147 7/68/148
f 14/70/149 52/60/150 51/58/151 16/69/152
f 17/71/153 53/61/154 52/60/155 14/70/156
f 54/62/157 53/61/158 17/71/159 2/72/160
f 28/20/161 29/27/162 56/21/163 55/24/164
f 56/21/165 29/27/166 21/73/167 58/74/168
f 21/75/169 20/76/170 57/77/171 58/78/172
f 55/24/173 57/79/174 20/80/175 28/20/176
f 34/81/177 35/82/178 60/83/179 59/84/180
f 60/85/181 35/86/182 25/47/183 62/42/184
f 25/47/185 24/37/186 61/43/187 62/42/188
f 59/87/189 61/43/190 24/37/191 34/88/192
f 32/59/193 33/39/194 65/35/195 63/33/196
f 65/35/197 33/39/198 23/38/199 70/36/200
f 30/28/201 31/53/202 64/29/203 66/32/204
f 66/32/205 67/31/206 22/25/207 30/28/208
f 31/53/209 49/54/210 71/55/211 64/29/212
f 71/55/213 49/54/214 50/57/215 72/56/216
f 50/57/217 32/59/218 63/33/219 72/56/220
f 68/30/221 69/34/222 41/8/223 40/7/224
f 40/7/225 22/25/226 67/31/227 68/30/228
f 23/38/229 41/8/230 69/34/231 70/36/232
