# This file uses centimeters as units for non-parametric coordinates.

mtllib Hallway_floor_small.mtl
g default
v 0.000000 0.000000 0.000000
v -2.000000 0.000000 0.000000
v -2.000000 0.000000 4.000000
v 0.000000 0.000000 4.000000
vt 0.033999 0.760048
vt 0.033999 0.289804
vt 0.974488 0.289804
vt 0.974488 0.760048
vn 0.000000 1.000000 0.000000
vn 0.000000 1.000000 0.000000
vn 0.000000 1.000000 0.000000
vn 0.000000 1.000000 0.000000
s off
g Hallway_floor_small1
usemtl lambert2SG
f 3/1/1 4/2/2 1/3/3 2/4/4
