# This file uses centimeters as units for non-parametric coordinates.

mtllib Hallway_roof_short.mtl
g default
v -2.000000 0.000000 0.000000
v 0.000000 0.000000 0.000000
v 0.000000 0.000000 4.000000
v -2.000000 0.000000 4.000000
vt 0.705186 0.961706
vt 0.253450 0.961706
vt 0.253450 0.058235
vt 0.705186 0.058235
vn 0.000000 -1.000000 0.000000
vn 0.000000 -1.000000 0.000000
vn 0.000000 -1.000000 0.000000
vn 0.000000 -1.000000 0.000000
s off
g Hallway_roof_short1
usemtl lambert2SG
f 3/1/1 4/2/2 1/3/3 2/4/4
