# This file uses centimeters as units for non-parametric coordinates.

mtllib Hallway_roof_stair.mtl
g default
v -6.000000 4.000000 -7.000000
v 0.000000 4.000000 -7.000000
v 0.000000 0.000000 0.000000
v -6.000000 0.000000 0.000000
v -1.500000 0.000000 0.000000
v -1.500000 4.000000 -7.000000
v -4.500000 4.000000 -7.000000
v -4.500000 0.000000 0.000000
v -3.750000 0.000000 0.000000
v -3.750000 4.000000 -7.000000
v -2.250000 4.000000 -7.000000
v -2.250000 0.000000 0.000000
v -0.375000 3.500000 -6.125000
v -1.500000 3.500000 -6.125000
v -2.250000 3.500000 -6.125000
v -3.750000 3.500000 -6.125000
v -4.500000 3.500000 -6.125000
v -5.625000 3.500000 -6.125000
v -5.625000 0.500000 -0.875000
v -4.500000 0.500000 -0.875000
v -3.750000 0.500000 -0.875000
v -2.250000 0.500000 -0.875000
v -1.500000 0.500000 -0.875000
v -0.375000 0.500000 -0.875000
v -0.375000 3.673649 -6.025772
v -1.500000 3.673649 -6.025772
v -1.500000 0.673649 -0.775772
v -0.375000 0.673649 -0.775772
v -2.250000 3.673649 -6.025772
v -3.750000 3.673649 -6.025772
v -3.750000 0.673649 -0.775772
v -2.250000 0.673649 -0.775772
v -4.500000 3.673649 -6.025772
v -5.625000 3.673649 -6.025772
v -5.625000 0.673649 -0.775772
v -4.500000 0.673649 -0.775772
vt 0.355300 0.839188
vt 0.336391 0.839104
vt 0.338937 0.267431
vt 0.357845 0.267515
vt 0.336391 0.839104
vt 0.338937 0.267431
vt 0.357845 0.267515
vt 0.355300 0.839188
vt 0.355300 0.839188
vt 0.336391 0.839104
vt 0.338937 0.267431
vt 0.357845 0.267515
vt 0.336391 0.839104
vt 0.338937 0.267431
vt 0.357845 0.267515
vt 0.355300 0.839188
vt 0.355300 0.839188
vt 0.336391 0.839104
vt 0.338937 0.267431
vt 0.357845 0.267515
vt 0.336391 0.839104
vt 0.338937 0.267431
vt 0.357845 0.267515
vt 0.355300 0.839188
vt 0.605283 0.249599
vt 0.605283 0.166873
vt 0.747099 0.166873
vt 0.747099 0.249599
vt 0.534375 0.249599
vt 0.534375 0.166873
vt 0.818007 0.166873
vt 0.818007 0.249599
vt 0.605283 0.745955
vt 0.534375 0.745955
vt 0.441655 0.249599
vt 0.385644 0.166873
vt 0.967577 0.166873
vt 0.909932 0.249599
vt 0.818007 0.745955
vt 0.747099 0.745955
vt 0.605283 0.828681
vt 0.534375 0.828681
vt 0.441655 0.745955
vt 0.385644 0.828681
vt 0.967577 0.828681
vt 0.909932 0.745955
vt 0.818007 0.828681
vt 0.747099 0.828681
vt 0.196891 0.803464
vt 0.196891 0.307108
vt 0.303253 0.307108
vt 0.303253 0.803464
vt 0.029128 0.800125
vt 0.029128 0.303769
vt 0.170944 0.303769
vt 0.170944 0.800125
vt 0.196891 0.803464
vt 0.196891 0.307108
vt 0.303253 0.307108
vt 0.303253 0.803464
vt 0.194426 0.821063
vt 0.300788 0.821063
vt 0.300788 0.837481
vt 0.194426 0.837481
vt 0.194426 0.821063
vt 0.300788 0.821063
vt 0.300788 0.837481
vt 0.194426 0.837481
vt 0.026965 0.822094
vt 0.168781 0.822094
vt 0.168782 0.838512
vt 0.026965 0.838512
vt 0.026965 0.822094
vt 0.168781 0.822094
vt 0.168781 0.838512
vt 0.026965 0.838512
vt 0.194426 0.821063
vt 0.300789 0.821063
vt 0.300789 0.837481
vt 0.194426 0.837481
vt 0.194426 0.821063
vt 0.300788 0.821063
vt 0.300788 0.837481
vt 0.194426 0.837481
vn 0.000000 -0.868243 -0.496139
vn 0.000000 -0.868243 -0.496139
vn 0.000000 -0.868243 -0.496139
vn 0.000000 -0.868243 -0.496139
vn 0.000000 -0.868243 -0.496139
vn 0.000000 -0.868243 -0.496139
vn 0.000000 -0.868243 -0.496139
vn 0.000000 -0.868243 -0.496139
vn 0.000000 -0.868243 -0.496139
vn 0.000000 -0.868243 -0.496139
vn 0.000000 -0.868243 -0.496139
vn 0.000000 -0.868243 -0.496139
vn 0.000000 -0.868243 -0.496139
vn 0.000000 -0.868243 -0.496139
vn 0.000000 -0.868243 -0.496139
vn 0.000000 -0.868243 -0.496139
vn 0.000000 -0.868243 -0.496139
vn 0.000000 -0.868243 -0.496139
vn 0.000000 -0.868243 -0.496139
vn 0.000000 -0.868243 -0.496139
vn 0.000000 -0.868243 -0.496139
vn 0.000000 -0.868243 -0.496139
vn 0.000000 -0.868243 -0.496139
vn 0.000000 -0.868243 -0.496139
vn 0.000000 -0.868243 -0.496139
vn 0.000000 -0.868243 -0.496139
vn 0.000000 -0.868243 -0.496139
vn 0.000000 -0.868243 -0.496139
vn 0.000000 -0.868243 -0.496139
vn 0.000000 -0.868243 -0.496139
vn 0.000000 -0.868243 -0.496139
vn 0.000000 -0.868243 -0.496139
vn 0.000000 -0.868243 -0.496139
vn 0.000000 -0.868243 -0.496139
vn 0.000000 -0.868243 -0.496139
vn 0.000000 -0.868243 -0.496139
vn 0.000000 -0.868243 -0.496139
vn 0.000000 -0.868243 -0.496139
vn 0.000000 -0.868243 -0.496139
vn 0.000000 -0.868243 -0.496139
vn 0.000000 -0.868243 -0.496139
vn 0.000000 -0.868243 -0.496139
vn 0.000000 -0.868243 -0.496139
vn 0.000000 -0.868243 -0.496139
vn 0.000000 -0.868243 -0.496139
vn 0.000000 -0.868243 -0.496139
vn 0.000000 -0.868243 -0.496139
vn 0.000000 -0.868243 -0.496139
vn 0.000000 -0.868243 -0.496139
vn 0.000000 -0.868243 -0.496139
vn 0.000000 -0.868243 -0.496139
vn 0.000000 -0.868243 -0.496139
vn 0.000000 -0.868243 -0.496139
vn 0.000000 -0.868243 -0.496139
vn 0.000000 -0.868243 -0.496139
vn 0.000000 -0.868243 -0.496139
vn 0.000000 -0.868243 -0.496139
vn 0.000000 -0.868243 -0.496139
vn 0.000000 -0.868243 -0.496139
vn 0.000000 -0.868243 -0.496139
vn 0.000000 -0.868243 -0.496139
vn 0.000000 -0.868243 -0.496139
vn 0.000000 -0.868243 -0.496139
vn 0.000000 -0.868243 -0.496139
vn 0.000001 -0.868244 -0.496138
vn 0.000001 -0.868244 -0.496138
vn 0.000001 -0.868244 -0.496138
vn 0.000001 -0.868244 -0.496138
vn -1.000000 0.000000 0.000000
vn -1.000000 0.000000 0.000000
vn -1.000000 0.000000 0.000000
vn -1.000000 0.000000 0.000000
vn 0.000000 -0.496139 0.868243
vn 0.000000 -0.496139 0.868243
vn 0.000000 -0.496139 0.868243
vn 0.000000 -0.496139 0.868243
vn 1.000000 -0.000001 0.000000
vn 1.000000 -0.000001 0.000000
vn 1.000000 -0.000001 0.000000
vn 1.000000 -0.000001 0.000000
vn -0.000000 0.496138 -0.868244
vn -0.000000 0.496138 -0.868244
vn -0.000000 0.496138 -0.868244
vn -0.000000 0.496138 -0.868244
vn -1.000000 0.000000 0.000000
vn -1.000000 0.000000 0.000000
vn -1.000000 0.000000 0.000000
vn -1.000000 0.000000 0.000000
vn 0.000000 -0.496139 0.868243
vn 0.000000 -0.496139 0.868243
vn 0.000000 -0.496139 0.868243
vn 0.000000 -0.496139 0.868243
vn 1.000000 -0.000005 0.000000
vn 1.000000 -0.000005 0.000000
vn 1.000000 -0.000005 0.000000
vn 1.000000 -0.000005 0.000000
vn -0.000000 0.496139 -0.868243
vn -0.000000 0.496139 -0.868243
vn -0.000000 0.496139 -0.868243
vn -0.000000 0.496139 -0.868243
vn -1.000000 0.000000 0.000000
vn -1.000000 0.000000 0.000000
vn -1.000000 0.000000 0.000000
vn -1.000000 0.000000 0.000000
vn 0.000000 -0.496139 0.868243
vn 0.000000 -0.496139 0.868243
vn 0.000000 -0.496139 0.868243
vn 0.000000 -0.496139 0.868243
vn 1.000000 -0.000003 0.000000
vn 1.000000 -0.000003 0.000000
vn 1.000000 -0.000003 0.000000
vn 1.000000 -0.000003 0.000000
vn -0.000000 0.496138 -0.868244
vn -0.000000 0.496138 -0.868244
vn -0.000000 0.496138 -0.868244
vn -0.000000 0.496138 -0.868244
s off
g Halway_roof_stairs Server_room___Hallway Building_blocks
usemtl texturedFacets55
f 16/25/1 10/26/2 11/27/3 15/28/4
f 10/26/5 16/25/6 17/29/7 7/30/8
f 6/31/9 14/32/10 15/28/11 11/27/12
f 18/35/13 1/36/14 7/30/15 17/29/16
f 6/31/17 2/37/18 13/38/19 14/32/20
f 24/46/21 3/45/22 5/47/23 23/39/24
f 22/40/25 23/39/26 5/47/27 12/48/28
f 12/48/29 9/41/30 21/33/31 22/40/32
f 20/34/33 21/33/34 9/41/35 8/42/36
f 8/42/37 4/44/38 19/43/39 20/34/40
f 19/43/41 4/44/42 1/36/43 18/35/44
f 35/49/45 34/50/46 33/51/47 36/52/48
f 21/33/49 20/34/50 17/29/51 16/25/52
f 31/53/53 30/54/54 29/55/55 32/56/56
f 23/39/57 22/40/58 15/28/59 14/32/60
f 25/57/61 28/58/62 27/59/63 26/60/64
f 2/37/65 3/45/66 24/46/67 13/38/68
f 25/1/69 13/2/70 24/3/71 28/4/72
f 25/61/73 26/62/74 14/63/75 13/64/76
f 26/5/77 27/6/78 23/7/79 14/8/80
f 27/65/81 28/66/82 24/67/83 23/68/84
f 29/9/85 15/10/86 22/11/87 32/12/88
f 29/69/89 30/70/90 16/71/91 15/72/92
f 30/13/93 31/14/94 21/15/95 16/16/96
f 31/73/97 32/74/98 22/75/99 21/76/100
f 33/17/101 17/18/102 20/19/103 36/20/104
f 33/77/105 34/78/106 18/79/107 17/80/108
f 34/21/109 35/22/110 19/23/111 18/24/112
f 35/81/113 36/82/114 20/83/115 19/84/116
