# This file uses centimeters as units for non-parametric coordinates.

mtllib Server_room_roof_lip.mtl
g default
v 4.000000 1.000000 8.000000
v 0.000000 0.000000 8.000000
v 0.000000 0.000000 0.000000
v 4.000000 1.000000 4.000000
v 8.000000 0.000000 0.000000
v 8.000000 1.000000 4.000000
v 2.000000 0.000000 8.000000
v 2.000000 0.000000 2.000000
v 8.000000 0.000000 2.000000
v 3.000000 1.000000 3.000000
v 8.000000 1.000000 3.000000
v 3.000000 1.000000 8.000000
v 8.000000 0.250000 2.250000
v 2.250000 0.250000 2.250000
v 2.250000 0.250000 8.000000
v 0.000000 0.000000 7.000000
v 2.000000 0.000000 7.000000
v 2.250000 0.250000 7.000000
v 3.000000 1.000000 7.000000
v 4.000000 1.000000 7.000000
v 7.000000 0.000000 0.000000
v 7.000000 0.000000 2.000000
v 7.000000 0.250000 2.250000
v 7.000000 1.000000 3.000000
v 7.000000 1.000000 4.000000
v 4.000000 1.000000 4.500000
v 3.000000 1.000000 4.500000
v 2.250000 0.250000 4.500000
v 2.000000 0.000000 4.500000
v 0.000000 0.000000 4.500000
v 4.500000 0.000000 0.000000
v 4.500000 0.000000 2.000000
v 4.500000 0.250000 2.250000
v 4.500000 1.000000 3.000000
v 4.500000 1.000000 4.000000
v 2.320709 0.179289 7.000000
v 3.070709 0.929289 7.000000
v 3.070709 0.929289 4.500000
v 2.320709 0.179289 4.500000
v 7.000000 0.179289 2.320711
v 7.000000 0.929289 3.070711
v 4.500000 0.179289 2.320711
v 4.500000 0.929289 3.070711
v 2.391422 0.249999 6.900002
v 2.999996 0.858577 6.900002
v 2.999996 0.858577 4.600000
v 2.391422 0.249999 4.600000
v 6.900000 0.249999 2.391422
v 6.900000 0.858578 3.000000
v 4.600002 0.249999 2.391422
v 4.600002 0.858578 3.000000
v 2.356068 0.285354 6.900002
v 2.964642 0.893932 6.900002
v 2.964642 0.893932 4.600000
v 2.356068 0.285354 4.600000
v 6.900000 0.285355 2.356068
v 6.900000 0.893934 2.964645
v 4.600002 0.285355 2.356068
v 4.600002 0.893934 2.964645
vt 0.339055 0.816699
vt 0.339055 0.718847
vt 0.427213 0.723694
vt 0.427213 0.826393
vt 0.427213 0.415598
vt 0.339055 0.327440
vt 0.485832 0.327440
vt 0.478562 0.415598
vt 0.216859 0.827609
vt 0.041867 0.801442
vt 0.038433 0.707405
vt 0.213425 0.727030
vt 0.483925 0.043990
vt 0.487196 0.218981
vt 0.225445 0.220699
vt 0.050453 0.045707
vt 0.485832 0.247182
vt 0.251929 0.247182
vt 0.246777 0.718847
vt 0.246777 0.816699
vt 0.222010 0.475581
vt 0.047019 0.472310
vt 0.251929 0.474218
vt 0.339055 0.474218
vt 0.427213 0.466947
vt 0.813057 0.026818
vt 0.839224 0.201810
vt 0.738644 0.200093
vt 0.719019 0.025101
vt 0.828313 0.231728
vt 0.730462 0.231728
vt 0.828313 0.327440
vt 0.730462 0.327440
vt 0.735309 0.415598
vt 0.838007 0.415598
vt 0.908453 0.602829
vt 0.919939 0.602828
vt 0.919940 0.889974
vt 0.908454 0.889974
vt 0.908454 0.481003
vt 0.919940 0.481003
vt 0.908453 0.193857
vt 0.919939 0.193857
vt 0.908451 0.072032
vt 0.919937 0.072032
vt 0.908453 0.481003
vt 0.919939 0.481003
vt 0.919939 0.602829
vt 0.908453 0.602829
vt 0.919939 0.889974
vt 0.908452 0.889974
vt 0.908453 0.193857
vt 0.919939 0.193857
vt 0.908453 0.072032
vt 0.919939 0.072032
vt 0.460976 0.767701
vt 0.449256 0.781359
vt 0.449256 0.439884
vt 0.460976 0.453543
vt 0.561847 0.767701
vt 0.573568 0.781359
vt 0.561847 0.453543
vt 0.573568 0.439884
vt 0.460976 0.453543
vt 0.449256 0.439884
vt 0.573568 0.439884
vt 0.561848 0.453543
vt 0.573568 0.781359
vt 0.561848 0.767700
vt 0.460976 0.767700
vt 0.449256 0.781359
vt 0.960578 0.364109
vt 0.954835 0.364109
vt 0.954840 0.099934
vt 0.960582 0.099934
vt 0.960577 0.462963
vt 0.954834 0.462963
vt 0.960573 0.727138
vt 0.954830 0.727138
vt 0.960570 0.825992
vt 0.954827 0.825992
vt 0.960571 0.462962
vt 0.954828 0.462963
vt 0.954829 0.364108
vt 0.960572 0.364108
vt 0.954829 0.099934
vt 0.960572 0.099934
vt 0.960576 0.727137
vt 0.954834 0.727137
vt 0.960581 0.825991
vt 0.954838 0.825992
vn 0.000000 -1.000000 0.000000
vn 0.000000 -1.000000 0.000000
vn 0.000000 -1.000000 0.000000
vn 0.000000 -1.000000 0.000000
vn 0.000000 -1.000000 0.000000
vn 0.000000 -1.000000 0.000000
vn 0.000000 -1.000000 0.000000
vn 0.000000 -1.000000 0.000000
vn 0.000000 -1.000000 0.000000
vn 0.000000 -1.000000 0.000000
vn 0.000000 -1.000000 0.000000
vn 0.000000 -1.000000 0.000000
vn 0.000000 -1.000000 0.000000
vn 0.000000 -1.000000 0.000000
vn 0.000000 -1.000000 0.000000
vn 0.000000 -1.000000 0.000000
vn 0.000000 -0.707107 0.707107
vn 0.000000 -0.707107 0.707107
vn 0.000000 -0.707107 0.707107
vn 0.000000 -0.707107 0.707107
vn 0.707107 -0.707107 0.000000
vn 0.707107 -0.707107 0.000000
vn 0.707107 -0.707107 0.000000
vn 0.707107 -0.707107 0.000000
vn 0.000000 -0.707107 0.707107
vn 0.000000 -0.707107 0.707107
vn 0.000000 -0.707107 0.707107
vn 0.000000 -0.707107 0.707107
vn 0.707107 -0.707107 0.000000
vn 0.707107 -0.707107 0.000000
vn 0.707107 -0.707107 0.000000
vn 0.707107 -0.707107 0.000000
vn 0.000000 -1.000000 0.000000
vn 0.000000 -1.000000 0.000000
vn 0.000000 -1.000000 0.000000
vn 0.000000 -1.000000 0.000000
vn 0.707107 -0.707107 0.000000
vn 0.707107 -0.707107 0.000000
vn 0.707107 -0.707107 0.000000
vn 0.707107 -0.707107 0.000000
vn 0.707108 -0.707106 0.000000
vn 0.707108 -0.707106 0.000000
vn 0.707108 -0.707106 0.000000
vn 0.707108 -0.707106 0.000000
vn 0.000000 -1.000000 0.000000
vn 0.000000 -1.000000 0.000000
vn 0.000000 -1.000000 0.000000
vn 0.000000 -1.000000 0.000000
vn 0.000000 -1.000000 0.000000
vn 0.000000 -1.000000 0.000000
vn 0.000000 -1.000000 0.000000
vn 0.000000 -1.000000 0.000000
vn 0.000000 -0.707107 0.707107
vn 0.000000 -0.707107 0.707107
vn 0.000000 -0.707107 0.707107
vn 0.000000 -0.707107 0.707107
vn 0.000000 -0.707107 0.707107
vn 0.000000 -0.707107 0.707107
vn 0.000000 -0.707107 0.707107
vn 0.000000 -0.707107 0.707107
vn 0.000000 -1.000000 0.000000
vn 0.000000 -1.000000 0.000000
vn 0.000000 -1.000000 0.000000
vn 0.000000 -1.000000 0.000000
vn 0.000000 -1.000000 0.000000
vn 0.000000 -1.000000 0.000000
vn 0.000000 -1.000000 0.000000
vn 0.000000 -1.000000 0.000000
vn 0.707107 -0.707107 0.000000
vn 0.707107 -0.707107 0.000000
vn 0.707107 -0.707107 0.000000
vn 0.707107 -0.707107 0.000000
vn 0.000000 -1.000000 0.000000
vn 0.000000 -1.000000 0.000000
vn 0.000000 -1.000000 0.000000
vn 0.000000 -1.000000 0.000000
vn 0.000000 -1.000000 0.000000
vn 0.000000 -1.000000 0.000000
vn 0.000000 -1.000000 0.000000
vn 0.000000 -1.000000 0.000000
vn 0.000000 -0.707107 0.707107
vn 0.000000 -0.707107 0.707107
vn 0.000000 -0.707107 0.707107
vn 0.000000 -0.707107 0.707107
vn 0.000000 -1.000000 0.000000
vn 0.000000 -1.000000 0.000000
vn 0.000000 -1.000000 0.000000
vn 0.000000 -1.000000 0.000000
vn -0.707116 -0.707097 0.000000
vn -0.707116 -0.707097 0.000000
vn -0.707116 -0.707097 0.000000
vn -0.707116 -0.707097 0.000000
vn 0.000000 -0.000000 1.000000
vn 0.000000 -0.000000 1.000000
vn 0.000000 -0.000000 1.000000
vn 0.000000 -0.000000 1.000000
vn 0.707116 0.707097 0.000000
vn 0.707116 0.707097 0.000000
vn 0.707116 0.707097 0.000000
vn 0.707116 0.707097 0.000000
vn 0.000000 0.000000 -1.000000
vn 0.000000 0.000000 -1.000000
vn 0.000000 0.000000 -1.000000
vn 0.000000 0.000000 -1.000000
vn 1.000000 0.000000 0.000000
vn 1.000000 0.000000 0.000000
vn 1.000000 0.000000 0.000000
vn 1.000000 0.000000 0.000000
vn 0.000000 0.707107 0.707107
vn 0.000000 0.707107 0.707107
vn 0.000000 0.707107 0.707107
vn 0.000000 0.707107 0.707107
vn 0.000000 -0.707109 -0.707105
vn 0.000000 -0.707109 -0.707105
vn 0.000000 -0.707109 -0.707105
vn 0.000000 -0.707109 -0.707105
vn -1.000000 0.000000 -0.000000
vn -1.000000 0.000000 -0.000000
vn -1.000000 0.000000 -0.000000
vn -1.000000 0.000000 -0.000000
vn 0.707099 -0.707115 0.000000
vn 0.707099 -0.707115 0.000000
vn 0.707099 -0.707115 0.000000
vn 0.707099 -0.707115 0.000000
vn 0.707112 -0.707102 0.000004
vn 0.707112 -0.707102 0.000004
vn 0.707112 -0.707102 0.000004
vn 0.707112 -0.707102 0.000004
vn 0.707104 -0.707110 0.000000
vn 0.707104 -0.707110 0.000000
vn 0.707104 -0.707110 0.000000
vn 0.707104 -0.707110 0.000000
vn 0.707106 -0.707108 -0.000002
vn 0.707106 -0.707108 -0.000002
vn 0.707106 -0.707108 -0.000002
vn 0.707106 -0.707108 -0.000002
vn 0.000000 -0.707092 0.707121
vn 0.000000 -0.707092 0.707121
vn 0.000000 -0.707092 0.707121
vn 0.000000 -0.707092 0.707121
vn 0.000000 -0.707110 0.707104
vn 0.000000 -0.707110 0.707104
vn 0.000000 -0.707110 0.707104
vn 0.000000 -0.707110 0.707104
vn 0.000000 -0.707110 0.707104
vn 0.000000 -0.707110 0.707104
vn 0.000000 -0.707110 0.707104
vn 0.000000 -0.707110 0.707104
vn 0.000000 -0.707105 0.707108
vn 0.000000 -0.707105 0.707108
vn 0.000000 -0.707105 0.707108
vn 0.000000 -0.707105 0.707108
vn 0.707123 0.707091 0.000000
vn 0.707123 0.707091 0.000000
vn 0.707123 0.707091 0.000000
vn 0.707123 0.707091 0.000000
vn 0.000000 0.000000 -1.000000
vn 0.000000 0.000000 -1.000000
vn 0.000000 0.000000 -1.000000
vn 0.000000 0.000000 -1.000000
vn -0.707080 -0.707133 0.000000
vn -0.707080 -0.707133 0.000000
vn -0.707080 -0.707133 0.000000
vn -0.707080 -0.707133 0.000000
vn -0.000011 0.000000 1.000000
vn -0.000011 0.000000 1.000000
vn -0.000011 0.000000 1.000000
vn -0.000011 0.000000 1.000000
vn -1.000000 0.000000 -0.000000
vn -1.000000 0.000000 -0.000000
vn -1.000000 0.000000 -0.000000
vn -1.000000 0.000000 -0.000000
vn 0.000000 -0.707096 -0.707117
vn 0.000000 -0.707096 -0.707117
vn 0.000000 -0.707096 -0.707117
vn 0.000000 -0.707096 -0.707117
vn 0.000000 0.707101 0.707113
vn 0.000000 0.707101 0.707113
vn 0.000000 0.707101 0.707113
vn 0.000000 0.707101 0.707113
vn 1.000000 0.000017 0.000000
vn 1.000000 0.000017 0.000000
vn 1.000000 0.000017 0.000000
vn 1.000000 0.000017 0.000000
s off
g Server_room_roof_lip1
usemtl lambert2SG
f 12/1/1 19/2/2 20/3/3 1/4/4
f 4/5/5 10/6/6 34/7/7 35/8/8
f 7/9/9 2/10/10 16/11/11 17/12/12
f 31/13/13 32/14/14 8/15/15 3/16/16
f 32/14/17 33/17/18 14/18/19 8/15/20
f 7/9/21 17/12/22 18/19/23 15/20/24
f 10/6/25 14/18/26 33/17/27 34/7/28
f 12/1/29 15/20/30 18/19/31 19/2/32
f 29/21/33 30/22/34 3/16/35 8/15/36
f 28/23/37 29/21/38 8/15/39 14/18/40
f 10/6/41 27/24/42 28/23/43 14/18/44
f 26/25/45 27/24/46 10/6/47 4/5/48
f 5/26/49 9/27/50 22/28/51 21/29/52
f 13/30/53 23/31/54 22/28/55 9/27/56
f 13/30/57 11/32/58 24/33/59 23/31/60
f 25/34/61 24/33/62 11/32/63 6/35/64
f 27/24/65 26/25/66 20/3/67 19/2/68
f 29/21/69 28/23/70 18/19/71 17/12/72
f 16/11/73 30/22/74 29/21/75 17/12/76
f 22/28/77 32/14/78 31/13/79 21/29/80
f 33/17/81 32/14/82 22/28/83 23/31/84
f 25/34/85 35/8/86 34/7/87 24/33/88
f 36/36/89 18/37/90 28/38/91 39/39/92
f 37/40/93 19/41/94 18/37/95 36/36/96
f 38/42/97 27/43/98 19/41/99 37/40/100
f 39/44/101 28/45/102 27/43/103 38/42/104
f 40/46/105 23/47/106 24/48/107 41/49/108
f 41/49/109 24/48/110 34/50/111 43/51/112
f 42/52/113 33/53/114 23/47/115 40/46/116
f 43/54/117 34/55/118 33/53/119 42/52/120
f 44/56/121 36/57/122 39/58/123 47/59/124
f 45/60/125 37/61/126 36/57/127 44/56/128
f 46/62/129 38/63/130 37/61/131 45/60/132
f 47/59/133 39/58/134 38/63/135 46/62/136
f 48/64/137 40/65/138 41/66/139 49/67/140
f 49/67/141 41/66/142 43/68/143 51/69/144
f 50/70/145 42/71/146 40/65/147 48/64/148
f 51/69/149 43/68/150 42/71/151 50/70/152
f 52/72/153 44/73/154 47/74/155 55/75/156
f 52/72/157 53/76/158 45/77/159 44/73/160
f 53/76/161 54/78/162 46/79/163 45/77/164
f 54/78/165 55/80/166 47/81/167 46/79/168
f 56/82/169 48/83/170 49/84/171 57/85/172
f 57/85/173 49/84/174 51/86/175 59/87/176
f 56/82/177 58/88/178 50/89/179 48/83/180
f 58/88/181 59/90/182 51/91/183 50/89/184
g default
v 2.356068 0.285354 6.900002
v 2.964642 0.893932 6.900002
v 2.964642 0.893932 4.600000
v 2.356068 0.285354 4.600000
v 6.900000 0.285355 2.356068
v 6.900000 0.893934 2.964645
v 4.600002 0.285355 2.356068
v 4.600002 0.893934 2.964645
vt 0.689157 0.460011
vt 0.689157 0.774168
vt 0.606032 0.774168
vt 0.606032 0.460011
vt 0.689157 0.460011
vt 0.689157 0.774168
vt 0.606032 0.774168
vt 0.606032 0.460011
vn 0.707109 -0.707105 0.000000
vn 0.707109 -0.707105 0.000000
vn 0.707109 -0.707105 0.000000
vn 0.707109 -0.707105 0.000000
vn 0.000000 -0.707106 0.707108
vn 0.000000 -0.707106 0.707108
vn 0.000000 -0.707106 0.707108
vn 0.000000 -0.707106 0.707108
s off
g Server_room_roof_lip1 Server_room_roof_lip_light
usemtl lambert2SG
f 62/92/185 61/93/186 60/94/187 63/95/188
f 66/96/189 64/97/190 65/98/191 67/99/192
