# This file uses centimeters as units for non-parametric coordinates.

mtllib Server_room_wall_lower.mtl
g default
v -8.000000 0.000000 0.000000
v 0.000000 0.000000 0.000000
v 0.000000 2.000000 0.000000
v -8.000000 2.000000 0.000000
vt 0.965408 0.590256
vt 0.034174 0.590256
vt 0.034174 0.357448
vt 0.965408 0.357448
vn 0.000000 0.000000 1.000000
vn 0.000000 0.000000 1.000000
vn 0.000000 0.000000 1.000000
vn 0.000000 0.000000 1.000000
s off
g Server_room_wall_lower1
usemtl lambert2SG
f 3/1/1 4/2/2 1/3/3 2/4/4
