# This file uses centimeters as units for non-parametric coordinates.

mtllib Server_room__upper_floor_small.mtl
g default
v -0.388157 0.000000 0.000000
v -4.219818 0.000000 0.000000
v -4.219818 0.000000 4.000000
v -0.388157 0.000000 4.000000
vt 0.081917 0.085515
vt 0.875999 0.085515
vt 0.875999 0.914485
vt 0.081917 0.914485
vn 0.000000 1.000000 0.000000
vn 0.000000 1.000000 0.000000
vn 0.000000 1.000000 0.000000
vn 0.000000 1.000000 0.000000
s off
g Server_room_upper_floor
usemtl lambert2SG
f 3/1/1 4/2/2 1/3/3 2/4/4
