# This file uses centimeters as units for non-parametric coordinates.

mtllib Server_room_floor.mtl
g default
v 0.000000 0.000000 0.000000
v -4.000000 0.000000 0.000000
v -4.000000 0.000000 4.000000
v 0.000000 0.000000 4.000000
vt 0.057519 0.057519
vt 0.942481 0.057519
vt 0.942481 0.942481
vt 0.057519 0.942481
vn 0.000000 1.000000 0.000000
vn 0.000000 1.000000 0.000000
vn 0.000000 1.000000 0.000000
vn 0.000000 1.000000 0.000000
s off
g Server_room_floor1
usemtl lambert2SG
f 3/1/1 4/2/2 1/3/3 2/4/4
