# This file uses centimeters as units for non-parametric coordinates.

mtllib Server_room_roof_tile.mtl
g default
v 4.000000 0.000000 4.000000
v 0.000000 0.000000 4.000000
v 0.000000 0.000000 0.000000
v 4.000000 0.000000 0.000000
v 1.000000 0.000000 0.000000
v 1.000000 0.000000 4.000000
v 3.000000 0.000000 4.000000
v 3.000000 0.000000 0.000000
v 0.000000 0.000000 3.000000
v 1.160507 0.000000 2.849655
v 2.839493 0.000000 2.849655
v 4.000000 0.000000 3.000000
v 4.000000 0.000000 1.000000
v 2.839493 0.000000 1.150345
v 1.160507 0.000000 1.150345
v 0.000000 0.000000 1.000000
v 0.000000 0.000000 3.500000
v 1.000000 0.000000 3.500000
v 3.000000 0.000000 3.500000
v 4.000000 0.000000 3.500000
v 0.500000 0.000000 0.000000
v 0.500000 0.000000 1.000000
v 0.500000 0.000000 3.000000
v 0.500000 0.000000 3.500000
v 0.500000 0.000000 4.000000
v 3.500000 0.000000 4.000000
v 3.500000 0.000000 3.500000
v 3.500000 0.000000 3.000000
v 3.500000 0.000000 1.000000
v 3.500000 0.000000 0.000000
v 4.000000 0.000000 0.500000
v 3.500000 0.000000 0.500000
v 3.000000 0.000000 0.500000
v 1.000000 0.000000 0.500000
v 0.500000 0.000000 0.500000
v 0.000000 0.000000 0.500000
v 1.000000 0.200000 3.500000
v 1.000000 0.200000 3.000000
v 3.000000 0.200000 3.500000
v 3.000000 0.200000 3.000000
v 0.500000 0.200000 1.000000
v 1.000000 0.200000 1.000000
v 0.500000 0.200000 3.000000
v 0.500000 0.200000 3.500000
v 3.500000 0.200000 3.500000
v 3.500000 0.200000 3.000000
v 3.500000 0.200000 1.000000
v 3.000000 0.200000 1.000000
v 3.500000 0.200000 0.500000
v 3.000000 0.200000 0.500000
v 1.000000 0.200000 0.500000
v 0.500000 0.200000 0.500000
vt 0.461489 0.511169
vt 0.461489 0.448852
vt 0.523806 0.448852
vt 0.523806 0.511169
vt 0.025266 0.448852
vt 0.087583 0.448852
vt 0.087583 0.511169
vt 0.025266 0.511169
vt 0.399171 0.448852
vt 0.399171 0.511169
vt 0.149901 0.511169
vt 0.149901 0.448852
vt 0.025265 0.012629
vt 0.087583 0.012629
vt 0.087583 0.074946
vt 0.025265 0.074946
vt 0.149901 0.012629
vt 0.399171 0.012629
vt 0.399171 0.074946
vt 0.149901 0.074946
vt 0.523806 0.074946
vt 0.461489 0.074946
vt 0.461489 0.012629
vt 0.523806 0.012629
vt 0.087583 0.386534
vt 0.025266 0.386534
vt 0.025265 0.137264
vt 0.087583 0.137264
vt 0.312276 0.857020
vt 0.103016 0.857020
vt 0.103016 0.645226
vt 0.312276 0.645226
vt 0.523806 0.137264
vt 0.523806 0.386534
vt 0.461489 0.386534
vt 0.461489 0.137264
vt 0.081312 0.881975
vt 0.339809 0.882297
vt 0.339728 0.946921
vt 0.081232 0.946599
vt 0.081634 0.623479
vt 0.016688 0.881895
vt 0.017010 0.623398
vt 0.016608 0.946519
vt 0.404433 0.882377
vt 0.404352 0.947001
vt 0.340130 0.623800
vt 0.404754 0.623881
vt 0.340211 0.559176
vt 0.404835 0.559257
vt 0.081714 0.558855
vt 0.017090 0.558774
vt 0.145206 0.397623
vt 0.171944 0.370183
vt 0.380855 0.369625
vt 0.407576 0.396943
vt 0.478651 0.623017
vt 0.478651 0.872287
vt 0.453724 0.872287
vt 0.453724 0.623017
vt 0.145273 0.133173
vt 0.171458 0.160736
vt 0.478651 0.623017
vt 0.478651 0.872287
vt 0.453724 0.872287
vt 0.453724 0.623017
vt 0.453724 0.934605
vt 0.478651 0.934605
vt 0.453724 0.560700
vt 0.478651 0.560700
vt 0.453724 0.623017
vt 0.453724 0.560700
vt 0.478651 0.560700
vt 0.478651 0.623017
vt 0.453724 0.934605
vt 0.478651 0.934605
vt 0.380379 0.160942
vt 0.407621 0.133754
vt 0.478651 0.872287
vt 0.453724 0.872287
vt 0.453725 0.623017
vt 0.453725 0.560700
vt 0.478651 0.560700
vt 0.478651 0.623017
vt 0.453724 0.934605
vt 0.478651 0.934605
vt 0.478651 0.872287
vt 0.453724 0.872287
vt 0.453724 0.560700
vt 0.478651 0.560700
vt 0.453724 0.934605
vt 0.478651 0.934605
vn 0.000000 -1.000000 0.000000
vn 0.000000 -1.000000 0.000000
vn 0.000000 -1.000000 0.000000
vn 0.000000 -1.000000 0.000000
vn 0.000000 -1.000000 0.000000
vn 0.000000 -1.000000 0.000000
vn 0.000000 -1.000000 0.000000
vn 0.000000 -1.000000 0.000000
vn 0.000000 -1.000000 0.000000
vn 0.000000 -1.000000 0.000000
vn 0.000000 -1.000000 0.000000
vn 0.000000 -1.000000 0.000000
vn 0.000000 -1.000000 0.000000
vn 0.000000 -1.000000 0.000000
vn 0.000000 -1.000000 0.000000
vn 0.000000 -1.000000 0.000000
vn 0.000000 -1.000000 0.000000
vn 0.000000 -1.000000 0.000000
vn 0.000000 -1.000000 0.000000
vn 0.000000 -1.000000 0.000000
vn 0.000000 -1.000000 0.000000
vn 0.000000 -1.000000 0.000000
vn 0.000000 -1.000000 0.000000
vn 0.000000 -1.000000 0.000000
vn 0.000000 -1.000000 0.000000
vn 0.000000 -1.000000 0.000000
vn 0.000000 -1.000000 0.000000
vn 0.000000 -1.000000 0.000000
vn 0.000000 -1.000000 0.000000
vn 0.000000 -1.000000 0.000000
vn 0.000000 -1.000000 0.000000
vn 0.000000 -1.000000 0.000000
vn 0.000000 -1.000000 0.000000
vn 0.000000 -1.000000 0.000000
vn 0.000000 -1.000000 0.000000
vn 0.000000 -1.000000 0.000000
vn 0.000000 -1.000000 0.000000
vn 0.000000 -1.000000 0.000000
vn 0.000000 -1.000000 0.000000
vn 0.000000 -1.000000 0.000000
vn 0.000000 -1.000000 0.000000
vn 0.000000 -1.000000 0.000000
vn 0.000000 -1.000000 0.000000
vn 0.000000 -1.000000 0.000000
vn 0.000000 -1.000000 0.000000
vn 0.000000 -1.000000 0.000000
vn 0.000000 -1.000000 0.000000
vn 0.000000 -1.000000 0.000000
vn 0.000000 -1.000000 0.000000
vn 0.000000 -1.000000 0.000000
vn 0.000000 -1.000000 0.000000
vn 0.000000 -1.000000 0.000000
vn 0.000000 -1.000000 0.000000
vn 0.000000 -1.000000 0.000000
vn 0.000000 -1.000000 0.000000
vn 0.000000 -1.000000 0.000000
vn 0.000000 -1.000000 0.000000
vn 0.000000 -1.000000 0.000000
vn 0.000000 -1.000000 0.000000
vn 0.000000 -1.000000 0.000000
vn 0.000000 -1.000000 0.000000
vn 0.000000 -1.000000 0.000000
vn 0.000000 -1.000000 0.000000
vn 0.000000 -1.000000 0.000000
vn 0.000000 -1.000000 0.000000
vn 0.000000 -1.000000 0.000000
vn 0.000000 -1.000000 0.000000
vn 0.000000 -1.000000 0.000000
vn 0.000000 -1.000000 0.000000
vn 0.000000 -1.000000 0.000000
vn 0.000000 -1.000000 0.000000
vn 0.000000 -1.000000 0.000000
vn 0.000000 -1.000000 0.000000
vn 0.000000 -1.000000 0.000000
vn 0.000000 -1.000000 0.000000
vn 0.000000 -1.000000 0.000000
vn 0.000000 -1.000000 0.000000
vn 0.000000 -1.000000 0.000000
vn 0.000000 -1.000000 0.000000
vn 0.000000 -1.000000 0.000000
vn 0.000000 -1.000000 0.000000
vn 0.000000 -1.000000 0.000000
vn 0.000000 -1.000000 0.000000
vn 0.000000 -1.000000 0.000000
vn 0.000000 -1.000000 0.000000
vn 0.000000 -1.000000 0.000000
vn 0.000000 -1.000000 0.000000
vn 0.000000 -1.000000 0.000000
vn 0.000000 -1.000000 0.000000
vn 0.000000 -1.000000 0.000000
vn 0.000000 -1.000000 0.000000
vn 0.000000 -1.000000 0.000000
vn 0.000000 -1.000000 0.000000
vn 0.000000 -1.000000 0.000000
vn 0.000000 -1.000000 0.000000
vn 0.000000 -1.000000 0.000000
vn 0.000000 -1.000000 0.000000
vn 0.000000 -1.000000 0.000000
vn 0.000000 -1.000000 0.000000
vn 0.000000 -1.000000 0.000000
vn 0.000000 -0.600883 0.799337
vn 0.000000 -0.600883 0.799337
vn 0.000000 -0.600883 0.799337
vn 0.000000 -0.600883 0.799337
vn 0.000000 0.000000 -1.000000
vn 0.000000 0.000000 -1.000000
vn 0.000000 0.000000 -1.000000
vn 0.000000 0.000000 -1.000000
vn -0.779903 -0.625901 0.000000
vn -0.779903 -0.625901 0.000000
vn -0.779903 -0.625901 0.000000
vn -0.779903 -0.625901 0.000000
vn 1.000000 -0.000000 0.000000
vn 1.000000 -0.000000 0.000000
vn 1.000000 -0.000000 0.000000
vn 1.000000 -0.000000 0.000000
vn 1.000000 -0.000000 0.000000
vn 1.000000 -0.000000 0.000000
vn 1.000000 -0.000000 0.000000
vn 1.000000 -0.000000 0.000000
vn 0.000000 0.000000 -1.000000
vn 0.000000 0.000000 -1.000000
vn 0.000000 0.000000 -1.000000
vn 0.000000 0.000000 -1.000000
vn -1.000000 0.000000 0.000000
vn -1.000000 0.000000 0.000000
vn -1.000000 0.000000 0.000000
vn -1.000000 0.000000 0.000000
vn 0.000000 0.000000 -1.000000
vn 0.000000 0.000000 -1.000000
vn 0.000000 0.000000 -1.000000
vn 0.000000 0.000000 -1.000000
vn 0.779903 -0.625901 0.000000
vn 0.779903 -0.625901 0.000000
vn 0.779903 -0.625901 0.000000
vn 0.779903 -0.625901 0.000000
vn -1.000000 0.000000 0.000000
vn -1.000000 0.000000 0.000000
vn -1.000000 0.000000 0.000000
vn -1.000000 0.000000 0.000000
vn 0.000000 0.000000 1.000000
vn 0.000000 0.000000 1.000000
vn 0.000000 0.000000 1.000000
vn 0.000000 0.000000 1.000000
vn -1.000000 0.000000 0.000000
vn -1.000000 0.000000 0.000000
vn -1.000000 0.000000 0.000000
vn -1.000000 0.000000 0.000000
vn 0.000000 -0.600883 -0.799337
vn 0.000000 -0.600883 -0.799337
vn 0.000000 -0.600883 -0.799337
vn 0.000000 -0.600883 -0.799337
vn 0.000000 0.000000 1.000000
vn 0.000000 0.000000 1.000000
vn 0.000000 0.000000 1.000000
vn 0.000000 0.000000 1.000000
vn 1.000000 -0.000000 0.000000
vn 1.000000 -0.000000 0.000000
vn 1.000000 -0.000000 0.000000
vn 1.000000 -0.000000 0.000000
vn 0.000000 0.000000 1.000000
vn 0.000000 0.000000 1.000000
vn 0.000000 0.000000 1.000000
vn 0.000000 0.000000 1.000000
s off
g Server_room_roof_tile1
usemtl lambert2SG
f 26/1/1 27/2/2 20/3/3 1/4/4
f 17/5/5 24/6/6 25/7/7 2/8/8
f 19/9/9 7/10/10 6/11/11 18/12/12
f 3/13/13 21/14/14 35/15/15 36/16/16
f 5/17/17 8/18/18 33/19/19 34/20/20
f 31/21/21 32/22/22 30/23/23 4/24/24
f 23/25/25 9/26/26 16/27/27 22/28/28
f 11/29/29 10/30/30 15/31/31 14/32/32
f 13/33/33 12/34/34 28/35/35 29/36/36
f 9/26/37 23/25/38 24/6/39 17/5/40
f 38/37/41 40/38/42 39/39/43 37/40/44
f 20/3/45 27/2/46 28/35/47 12/34/48
f 34/20/49 35/15/50 21/14/51 5/17/52
f 42/41/53 38/37/54 43/42/55 41/43/56
f 44/44/57 43/42/58 38/37/59 37/40/60
f 25/7/61 24/6/62 18/12/63 6/11/64
f 7/10/65 19/9/66 27/2/67 26/1/68
f 46/45/69 45/46/70 39/39/71 40/38/72
f 46/45/73 40/38/74 48/47/75 47/48/76
f 30/23/77 32/22/78 33/19/79 8/18/80
f 13/33/81 29/36/82 32/22/83 31/21/84
f 50/49/85 49/50/86 47/48/87 48/47/88
f 50/49/89 48/47/90 42/41/91 51/51/92
f 41/43/93 52/52/94 51/51/95 42/41/96
f 36/16/97 35/15/98 22/28/99 16/27/100
f 38/53/101 10/54/102 11/55/103 40/56/104
f 37/57/105 39/58/106 19/59/107 18/60/108
f 42/61/109 15/62/110 10/54/111 38/53/112
f 41/63/113 43/64/114 23/65/115 22/66/116
f 24/67/117 23/65/118 43/64/119 44/68/120
f 18/60/121 24/69/122 44/70/123 37/57/124
f 28/71/125 27/72/126 45/73/127 46/74/128
f 27/75/129 19/59/130 39/58/131 45/76/132
f 40/56/133 11/55/134 14/77/135 48/78/136
f 46/74/137 47/79/138 29/80/139 28/71/140
f 33/81/141 32/82/142 49/83/143 50/84/144
f 32/85/145 29/80/146 47/79/147 49/86/148
f 48/78/149 14/77/150 15/62/151 42/61/152
f 50/84/153 51/87/154 34/88/155 33/81/156
f 22/66/157 35/89/158 52/90/159 41/63/160
f 35/91/161 34/88/162 51/87/163 52/92/164
