# This file uses centimeters as units for non-parametric coordinates.

mtllib Server_room_wall_back.mtl
g default
v -8.000000 0.000000 0.000000
v 0.000000 0.000000 0.000000
v 0.000000 6.000000 0.000000
v -8.000000 6.000000 0.000000
vt 0.971627 0.861400
vt 0.031139 0.861399
vt 0.031138 0.156033
vt 0.971627 0.156033
vn 0.000000 0.000000 1.000000
vn 0.000000 0.000000 1.000000
vn 0.000000 0.000000 1.000000
vn 0.000000 0.000000 1.000000
s off
g Server_room_wall_back1
usemtl lambert2SG
f 3/1/1 4/2/2 1/3/3 2/4/4
