# This file uses centimeters as units for non-parametric coordinates.

mtllib Reactor_walkway_pole.mtl
g default
v 0.058682 0.000000 -0.019066
v 0.049916 0.000000 -0.036266
v 0.049916 1.183342 -0.036266
v 0.058682 1.183342 -0.019066
v 0.036267 0.000000 -0.049915
v 0.036267 1.183342 -0.049915
v 0.019066 0.000000 -0.058677
v 0.019066 1.183342 -0.058677
v 0.000000 0.000000 -0.061699
v 0.000000 1.183342 -0.061699
v -0.019066 0.000000 -0.058677
v -0.019066 1.183342 -0.058677
v -0.036266 0.000000 -0.049915
v -0.036266 1.183342 -0.049915
v -0.049915 0.000000 -0.036266
v -0.049915 1.183342 -0.036266
v -0.058677 0.000000 -0.019066
v -0.058677 1.183342 -0.019066
v -0.061699 0.000000 0.000000
v -0.061699 1.183342 0.000000
v -0.058677 0.000000 0.019066
v -0.058677 1.183342 0.019066
v -0.049915 0.000000 0.036267
v -0.049915 1.183342 0.036267
v -0.036266 0.000000 0.049916
v -0.036266 1.183342 0.049916
v -0.019066 0.000000 0.058678
v -0.019066 1.183342 0.058678
v 0.000000 0.000000 0.061699
v 0.000000 1.183342 0.061699
v 0.019066 0.000000 0.058678
v 0.019066 1.183342 0.058678
v 0.036267 0.000000 0.049916
v 0.036267 1.183342 0.049916
v 0.049916 0.000000 0.036267
v 0.049916 1.183342 0.036267
v 0.058682 0.000000 0.019066
v 0.058682 1.183342 0.019066
v 0.061699 0.000000 0.000000
v 0.061699 1.183342 0.000000
vt 0.375000 0.312500
vt 0.387500 0.312500
vt 0.387500 0.688440
vt 0.375000 0.688440
vt 0.400000 0.312500
vt 0.400000 0.688440
vt 0.412500 0.312500
vt 0.412500 0.688440
vt 0.425000 0.312500
vt 0.425000 0.688440
vt 0.437500 0.312500
vt 0.437500 0.688440
vt 0.450000 0.312500
vt 0.450000 0.688440
vt 0.462500 0.312500
vt 0.462500 0.688440
vt 0.475000 0.312500
vt 0.475000 0.688440
vt 0.487500 0.312500
vt 0.487500 0.688440
vt 0.500000 0.312500
vt 0.500000 0.688440
vt 0.512500 0.312500
vt 0.512500 0.688440
vt 0.525000 0.312500
vt 0.525000 0.688440
vt 0.537500 0.312500
vt 0.537500 0.688440
vt 0.550000 0.312500
vt 0.550000 0.688440
vt 0.562500 0.312500
vt 0.562500 0.688440
vt 0.575000 0.312500
vt 0.575000 0.688440
vt 0.587500 0.312500
vt 0.587500 0.688440
vt 0.600000 0.312500
vt 0.600000 0.688440
vt 0.612500 0.312500
vt 0.612500 0.688440
vt 0.625000 0.312500
vt 0.625000 0.688440
vt 0.375000 0.312500
vt 0.387500 0.312500
vt 0.387500 0.688440
vt 0.375000 0.688440
vt 0.400000 0.312500
vt 0.400000 0.688440
vt 0.412500 0.312500
vt 0.412500 0.688440
vt 0.425000 0.312500
vt 0.425000 0.688440
vt 0.437500 0.312500
vt 0.437500 0.688440
vt 0.450000 0.312500
vt 0.450000 0.688440
vt 0.462500 0.312500
vt 0.462500 0.688440
vt 0.475000 0.312500
vt 0.475000 0.688440
vt 0.487500 0.312500
vt 0.487500 0.688440
vt 0.500000 0.312500
vt 0.500000 0.688440
vt 0.512500 0.312500
vt 0.512500 0.688440
vt 0.525000 0.312500
vt 0.525000 0.688440
vt 0.537500 0.312500
vt 0.537500 0.688440
vt 0.550000 0.312500
vt 0.550000 0.688440
vt 0.562500 0.312500
vt 0.562500 0.688440
vt 0.575000 0.312500
vt 0.575000 0.688440
vt 0.587500 0.312500
vt 0.587500 0.688440
vt 0.600000 0.312500
vt 0.600000 0.688440
vt 0.612500 0.312500
vt 0.612500 0.688440
vt 0.625000 0.312500
vt 0.625000 0.688440
vn 0.951057 0.000000 -0.309017
vn 0.809028 0.000000 -0.587770
vn 0.809028 0.000000 -0.587770
vn 0.951057 0.000000 -0.309017
vn 0.809028 0.000000 -0.587770
vn 0.587742 0.000000 -0.809049
vn 0.587742 0.000000 -0.809049
vn 0.809028 0.000000 -0.587770
vn 0.587742 0.000000 -0.809049
vn 0.308997 0.000000 -0.951063
vn 0.308997 0.000000 -0.951063
vn 0.587742 0.000000 -0.809049
vn 0.308997 0.000000 -0.951063
vn 0.000000 0.000000 -1.000000
vn 0.000000 0.000000 -1.000000
vn 0.308997 0.000000 -0.951063
vn 0.000000 0.000000 -1.000000
vn -0.308997 0.000000 -0.951063
vn -0.308997 0.000000 -0.951063
vn 0.000000 0.000000 -1.000000
vn -0.308997 0.000000 -0.951063
vn -0.587742 0.000000 -0.809049
vn -0.587742 0.000000 -0.809049
vn -0.308997 0.000000 -0.951063
vn -0.587742 0.000000 -0.809049
vn -0.809028 0.000000 -0.587770
vn -0.809028 0.000000 -0.587770
vn -0.587742 0.000000 -0.809049
vn -0.809028 0.000000 -0.587770
vn -0.951057 0.000000 -0.309017
vn -0.951057 0.000000 -0.309017
vn -0.809028 0.000000 -0.587770
vn -0.951057 0.000000 -0.309017
vn -1.000000 0.000000 0.000000
vn -1.000000 0.000000 0.000000
vn -0.951057 0.000000 -0.309017
vn -1.000000 0.000000 0.000000
vn -0.951057 0.000000 0.309017
vn -0.951057 0.000000 0.309017
vn -1.000000 0.000000 0.000000
vn -0.951057 0.000000 0.309017
vn -0.808999 0.000000 0.587810
vn -0.808999 0.000000 0.587810
vn -0.951057 0.000000 0.309017
vn -0.808999 0.000000 0.587810
vn -0.587742 0.000000 0.809049
vn -0.587742 0.000000 0.809049
vn -0.808999 0.000000 0.587810
vn -0.587742 0.000000 0.809049
vn -0.309073 0.000000 0.951038
vn -0.309073 0.000000 0.951038
vn -0.587742 0.000000 0.809049
vn -0.309073 0.000000 0.951038
vn 0.000000 0.000000 1.000000
vn 0.000000 0.000000 1.000000
vn -0.309073 0.000000 0.951038
vn 0.000000 0.000000 1.000000
vn 0.309073 0.000000 0.951038
vn 0.309073 0.000000 0.951038
vn 0.000000 0.000000 1.000000
vn 0.309073 0.000000 0.951038
vn 0.587742 0.000000 0.809049
vn 0.587742 0.000000 0.809049
vn 0.309073 0.000000 0.951038
vn 0.587742 0.000000 0.809049
vn 0.808999 0.000000 0.587810
vn 0.808999 0.000000 0.587810
vn 0.587742 0.000000 0.809049
vn 0.808999 0.000000 0.587810
vn 0.951057 0.000000 0.309017
vn 0.951057 0.000000 0.309017
vn 0.808999 0.000000 0.587810
vn 0.951057 0.000000 0.309017
vn 1.000000 0.000000 0.000000
vn 1.000000 0.000000 0.000000
vn 0.951057 0.000000 0.309017
vn 1.000000 0.000000 0.000000
vn 0.951057 0.000000 -0.309017
vn 0.951057 0.000000 -0.309017
vn 1.000000 0.000000 0.000000
vn 0.951057 0.000000 -0.309017
vn 0.809028 0.000000 -0.587770
vn 0.809028 0.000000 -0.587770
vn 0.951057 0.000000 -0.309017
vn 0.809028 0.000000 -0.587770
vn 0.587742 0.000000 -0.809049
vn 0.587742 0.000000 -0.809049
vn 0.809028 0.000000 -0.587770
vn 0.587742 0.000000 -0.809049
vn 0.308997 0.000000 -0.951063
vn 0.308997 0.000000 -0.951063
vn 0.587742 0.000000 -0.809049
vn 0.308997 0.000000 -0.951063
vn 0.000000 0.000000 -1.000000
vn 0.000000 0.000000 -1.000000
vn 0.308997 0.000000 -0.951063
vn 0.000000 0.000000 -1.000000
vn -0.308997 0.000000 -0.951063
vn -0.308997 0.000000 -0.951063
vn 0.000000 0.000000 -1.000000
vn -0.308997 0.000000 -0.951063
vn -0.587742 0.000000 -0.809049
vn -0.587742 0.000000 -0.809049
vn -0.308997 0.000000 -0.951063
vn -0.587742 0.000000 -0.809049
vn -0.809028 0.000000 -0.587770
vn -0.809028 0.000000 -0.587770
vn -0.587742 0.000000 -0.809049
vn -0.809028 0.000000 -0.587770
vn -0.951057 0.000000 -0.309017
vn -0.951057 0.000000 -0.309017
vn -0.809028 0.000000 -0.587770
vn -0.951057 0.000000 -0.309017
vn -1.000000 0.000000 0.000000
vn -1.000000 0.000000 0.000000
vn -0.951057 0.000000 -0.309017
vn -1.000000 0.000000 0.000000
vn -0.951057 0.000000 0.309017
vn -0.951057 0.000000 0.309017
vn -1.000000 0.000000 0.000000
vn -0.951057 0.000000 0.309017
vn -0.808999 0.000000 0.587810
vn -0.808999 0.000000 0.587810
vn -0.951057 0.000000 0.309017
vn -0.808999 0.000000 0.587810
vn -0.587742 0.000000 0.809049
vn -0.587742 0.000000 0.809049
vn -0.808999 0.000000 0.587810
vn -0.587742 0.000000 0.809049
vn -0.309073 0.000000 0.951038
vn -0.309073 0.000000 0.951038
vn -0.587742 0.000000 0.809049
vn -0.309073 0.000000 0.951038
vn 0.000000 0.000000 1.000000
vn 0.000000 0.000000 1.000000
vn -0.309073 0.000000 0.951038
vn 0.000000 0.000000 1.000000
vn 0.309073 0.000000 0.951038
vn 0.309073 0.000000 0.951038
vn 0.000000 0.000000 1.000000
vn 0.309073 0.000000 0.951038
vn 0.587742 0.000000 0.809049
vn 0.587742 0.000000 0.809049
vn 0.309073 0.000000 0.951038
vn 0.587742 0.000000 0.809049
vn 0.808999 0.000000 0.587810
vn 0.808999 0.000000 0.587810
vn 0.587742 0.000000 0.809049
vn 0.808999 0.000000 0.587810
vn 0.951057 0.000000 0.309017
vn 0.951057 0.000000 0.309017
vn 0.808999 0.000000 0.587810
vn 0.951057 0.000000 0.309017
vn 1.000000 0.000000 0.000000
vn 1.000000 0.000000 0.000000
vn 0.951057 0.000000 0.309017
vn 1.000000 0.000000 0.000000
vn 0.951057 0.000000 -0.309017
vn 0.951057 0.000000 -0.309017
vn 1.000000 0.000000 0.000000
s off
g Reactor_walkway_pole Reactor_walkway1
usemtl Reactor_walkway:initialShadingGroup
f 1/1/1 2/2/2 3/3/3 4/4/4
f 2/2/5 5/5/6 6/6/7 3/3/8
f 5/5/9 7/7/10 8/8/11 6/6/12
f 7/7/13 9/9/14 10/10/15 8/8/16
f 9/9/17 11/11/18 12/12/19 10/10/20
f 11/11/21 13/13/22 14/14/23 12/12/24
f 13/13/25 15/15/26 16/16/27 14/14/28
f 15/15/29 17/17/30 18/18/31 16/16/32
f 17/17/33 19/19/34 20/20/35 18/18/36
f 19/19/37 21/21/38 22/22/39 20/20/40
f 21/21/41 23/23/42 24/24/43 22/22/44
f 23/23/45 25/25/46 26/26/47 24/24/48
f 25/25/49 27/27/50 28/28/51 26/26/52
f 27/27/53 29/29/54 30/30/55 28/28/56
f 29/29/57 31/31/58 32/32/59 30/30/60
f 31/31/61 33/33/62 34/34/63 32/32/64
f 33/33/65 35/35/66 36/36/67 34/34/68
f 35/35/69 37/37/70 38/38/71 36/36/72
f 37/37/73 39/39/74 40/40/75 38/38/76
f 39/39/77 1/41/78 4/42/79 40/40/80
f 1/43/81 2/44/82 3/45/83 4/46/84
f 2/44/85 5/47/86 6/48/87 3/45/88
f 5/47/89 7/49/90 8/50/91 6/48/92
f 7/49/93 9/51/94 10/52/95 8/50/96
f 9/51/97 11/53/98 12/54/99 10/52/100
f 11/53/101 13/55/102 14/56/103 12/54/104
f 13/55/105 15/57/106 16/58/107 14/56/108
f 15/57/109 17/59/110 18/60/111 16/58/112
f 17/59/113 19/61/114 20/62/115 18/60/116
f 19/61/117 21/63/118 22/64/119 20/62/120
f 21/63/121 23/65/122 24/66/123 22/64/124
f 23/65/125 25/67/126 26/68/127 24/66/128
f 25/67/129 27/69/130 28/70/131 26/68/132
f 27/69/133 29/71/134 30/72/135 28/70/136
f 29/71/137 31/73/138 32/74/139 30/72/140
f 31/73/141 33/75/142 34/76/143 32/74/144
f 33/75/145 35/77/146 36/78/147 34/76/148
f 35/77/149 37/79/150 38/80/151 36/78/152
f 37/79/153 39/81/154 40/82/155 38/80/156
f 39/81/157 1/83/158 4/84/159 40/82/160
