# This file uses centimeters as units for non-parametric coordinates.

mtllib Reactor_upper_wall_control.mtl
g default
v 11.585608 7.498603 -1.000000
v 8.329010 -0.003327 18.575846
v 16.588428 7.497762 10.316425
v 0.049461 -0.000070 10.410587
v 11.707188 7.500161 5.553265
v 10.887936 2.497023 16.016918
v 3.660917 2.500010 8.904898
v 3.523775 2.498252 -1.000000
v 10.887936 -0.003153 16.016918
v 3.665594 -0.000105 8.916214
v 16.588430 4.997586 10.316423
v 11.711864 5.000047 5.564583
v 11.585608 4.998427 -1.000000
v 14.147808 7.498961 7.934847
v 14.150146 4.998816 7.940502
v 7.274426 2.498517 12.460909
v 7.276764 -0.001629 12.466566
v 4.189236 -0.001698 14.493216
v 3.592346 2.499131 3.952450
v 11.648735 4.999237 2.282291
v 11.646397 7.499381 2.276634
v 13.738182 3.747304 13.166672
v 10.712286 3.748667 10.200706
v 7.686390 3.750029 7.234739
v 7.620541 3.749185 3.117371
v 7.554691 3.748340 -1.000000
v 10.887936 1.246935 16.016918
v 7.275595 1.248445 12.463737
v 3.663256 1.249953 8.910557
v 3.593515 1.249059 3.955276
v 3.523775 1.248164 -1.000000
v 11.671532 7.499703 4.612553
v 11.674837 4.999572 4.612556
v 7.647768 3.749534 5.079201
v 3.620699 2.499496 5.545845
v 3.622353 1.249429 6.064543
v 3.624004 -0.000638 6.064543
v 0.000000 0.000000 6.251120
vt 0.000000 1.000000
vt 0.000000 0.750000
vt 0.000000 0.750000
vt 0.000000 1.000000
vt 0.000000 1.000000
vt 0.000000 0.750000
vt 0.000000 0.750000
vt 0.000000 1.000000
vt 0.000000 0.500000
vt 0.000000 0.375000
vt 0.000000 0.375000
vt 0.000000 0.500000
vt 0.000000 0.500000
vt 0.000000 0.375000
vt 0.000000 0.375000
vt 0.000000 0.500000
vt 0.000000 0.250000
vt 0.000000 0.000000
vt 0.000000 0.000000
vt 0.000000 0.250000
vt 0.000000 0.625000
vt 0.000000 0.625000
vt 0.000000 0.625000
vt 0.000000 0.625000
vt 0.000000 0.750000
vt 0.000000 1.000000
vt 0.000000 0.625000
vt 0.000000 0.375000
vt 0.000000 0.500000
vt 0.000000 0.000000
vt 0.000000 0.250000
vt 0.000000 0.500000
vt 0.000000 0.375000
vt 0.000000 0.750000
vt 0.000000 0.625000
vt 0.000000 1.000000
vt 0.000000 0.250000
vt 0.000000 0.000000
vn 0.698143 -0.000968 -0.715958
vn 0.698143 -0.000966 -0.715958
vn 0.698142 -0.001451 -0.715958
vn 0.698142 -0.001451 -0.715958
vn 0.999821 0.001230 -0.018892
vn 0.999821 0.001229 -0.018888
vn 0.999821 0.000893 -0.018890
vn 0.999821 0.000892 -0.018890
vn 0.701329 -0.000958 -0.712838
vn 0.701244 -0.000958 -0.712920
vn 0.701244 -0.001436 -0.712920
vn 0.701328 -0.001436 -0.712837
vn 0.999897 -0.001617 -0.014255
vn 0.999905 -0.001395 -0.013697
vn 0.999901 0.000903 -0.014073
vn 0.999902 0.000903 -0.013959
vn -0.000151 -1.000000 -0.000260
vn -0.000148 -1.000000 -0.000263
vn -0.000138 -1.000000 -0.000273
vn -0.000138 -1.000000 -0.000273
vn 0.207392 -0.954876 -0.212603
vn 0.207663 -0.954885 -0.212297
vn 0.207955 -0.954784 -0.212469
vn 0.207702 -0.954738 -0.212920
vn 0.295478 -0.955337 -0.004848
vn 0.295419 -0.955355 -0.005036
vn 0.295523 -0.955325 -0.004530
vn 0.295488 -0.955334 -0.004937
vn 0.698143 -0.000483 -0.715958
vn 0.698143 -0.000966 -0.715958
vn 0.698143 -0.000968 -0.715958
vn 0.698143 -0.000483 -0.715958
vn 0.207414 -0.954995 -0.212047
vn 0.207663 -0.954885 -0.212297
vn 0.207392 -0.954876 -0.212603
vn 0.207155 -0.954982 -0.212360
vn 0.701245 -0.000479 -0.712921
vn 0.701244 -0.000958 -0.712920
vn 0.701329 -0.000958 -0.712838
vn 0.701329 -0.000478 -0.712838
vn -0.000160 -1.000000 -0.000250
vn -0.000148 -1.000000 -0.000263
vn -0.000151 -1.000000 -0.000260
vn -0.000160 -1.000000 -0.000250
vn 0.999902 0.000452 -0.013959
vn 0.999902 0.000903 -0.013959
vn 0.999901 0.000903 -0.014073
vn 0.999901 0.000452 -0.014073
vn 0.295824 -0.955230 -0.004943
vn 0.295488 -0.955334 -0.004937
vn 0.295523 -0.955325 -0.004530
vn 0.295864 -0.955219 -0.004532
vn 0.999821 0.000892 -0.018890
vn 0.999821 0.000893 -0.018890
vn 0.999821 0.000446 -0.018890
vn 0.999821 0.000446 -0.018890
vn 0.207630 -0.955006 -0.211787
vn 0.207884 -0.954893 -0.212045
vn 0.207663 -0.954885 -0.212297
vn 0.207414 -0.954995 -0.212047
vn 0.207955 -0.954784 -0.212469
vn 0.207663 -0.954885 -0.212297
vn 0.207884 -0.954893 -0.212045
vn 0.208081 -0.954806 -0.212245
vn 0.295550 -0.955318 -0.004199
vn 0.295523 -0.955325 -0.004530
vn 0.295624 -0.955295 -0.004211
vn 0.295610 -0.955299 -0.004189
vn 0.295864 -0.955219 -0.004532
vn 0.295523 -0.955325 -0.004530
vn 0.295550 -0.955318 -0.004199
vn 0.295895 -0.955211 -0.004204
vn 0.701160 -0.000479 -0.713003
vn 0.701160 -0.000957 -0.713003
vn 0.701244 -0.000958 -0.712920
vn 0.701245 -0.000479 -0.712921
vn 0.701244 -0.001436 -0.712920
vn 0.701244 -0.000958 -0.712920
vn 0.701160 -0.000957 -0.713003
vn 0.701160 -0.001437 -0.713003
vn 0.999821 0.001339 -0.018890
vn 0.999821 0.001339 -0.018890
vn 0.999821 0.001229 -0.018888
vn 0.999821 0.001230 -0.018892
vn 0.295206 -0.955423 -0.004443
vn 0.295419 -0.955355 -0.005036
vn 0.295478 -0.955337 -0.004848
vn 0.295068 -0.955464 -0.004930
vn 0.295610 -0.955299 -0.004189
vn 0.295624 -0.955295 -0.004211
vn 0.295206 -0.955423 -0.004443
vn 0.295277 -0.955402 -0.004195
vn 0.999900 0.001355 -0.014073
vn 0.999905 -0.001395 -0.013697
vn 0.999897 -0.001617 -0.014255
vn 0.999902 0.001355 -0.013959
vn 0.999894 0.001563 -0.014477
vn 0.999894 0.001563 -0.014477
vn 0.999900 0.001355 -0.014073
vn 0.999898 0.001355 -0.014187
vn -0.000077 -1.000000 0.000067
vn -0.000077 -1.000000 0.000067
vn 0.000046 -1.000000 0.000172
vn 0.000046 -1.000000 0.000172
s off
g Reactor_upper_wall_control:Reactor_upper_wall11Roof
usemtl Reactor_upper_wall_control:initialShadingGroup
f 14/1/1 15/2/2 12/3/3 5/4/4
f 32/5/5 33/6/6 20/7/7 21/8/8
f 16/9/9 28/10/10 29/11/11 7/12/12
f 35/13/13 36/14/14 30/15/15 19/16/16
f 17/17/17 18/18/18 4/19/19 10/20/20
f 15/2/21 23/21/22 24/22/23 12/3/24
f 33/6/25 34/23/26 25/24/27 20/7/28
f 11/25/29 15/2/30 14/1/31 3/26/32
f 22/27/33 23/21/34 15/2/35 11/25/36
f 27/28/37 28/10/38 16/9/39 6/29/40
f 2/30/41 18/18/42 17/17/43 9/31/44
f 8/32/45 19/16/46 30/15/47 31/33/48
f 13/34/49 20/7/50 25/24/51 26/35/52
f 21/8/53 20/7/54 13/34/55 1/36/56
f 6/29/57 16/9/58 23/21/59 22/27/60
f 24/22/61 23/21/62 16/9/63 7/12/64
f 19/16/65 25/24/66 34/23/67 35/13/68
f 26/35/69 25/24/70 19/16/71 8/32/72
f 9/31/73 17/17/74 28/10/75 27/28/76
f 29/11/77 28/10/78 17/17/79 10/20/80
f 5/4/81 12/3/82 33/6/83 32/5/84
f 24/22/85 34/23/86 33/6/87 12/3/88
f 35/13/89 34/23/90 24/22/91 7/12/92
f 29/11/93 36/14/94 35/13/95 7/12/96
f 37/37/97 36/14/98 29/11/99 10/20/100
f 38/38/101 37/37/102 10/20/103 4/19/104
