# This file uses centimeters as units for non-parametric coordinates.

mtllib Reactor_lower_wall.mtl
g default
v -10.282961 0.001499 0.116934
v -11.455853 9.002092 -2.836687
v -11.071678 4.501932 -1.849340
v -15.303301 0.000000 5.303301
v -16.717514 4.500000 3.889088
v -17.382877 8.998827 3.223724
v -11.061493 6.752063 -1.853548
v -16.717514 6.750000 3.889088
v -10.272777 2.251446 0.112726
v -15.303301 2.250000 5.303301
v -11.767767 0.000000 1.767767
v -11.767767 2.250001 1.767767
v -13.181980 4.500000 0.353554
v -13.181980 6.750000 0.353554
v -13.852146 8.999805 -0.316612
v -11.458866 2.416091 2.076668
v -14.994400 2.416091 5.612202
v -11.414213 0.000000 2.121321
v -14.949747 0.000000 5.656855
v -12.873079 4.666091 0.662455
v -16.408613 4.666091 4.197989
v -12.843662 6.851535 0.691872
v -16.379196 6.851535 4.227406
v -13.566006 8.889696 -0.030472
v -17.101540 8.889696 3.505062
v -19.575846 8.998596 5.424156
v -18.914215 6.750000 6.085787
v -18.914215 4.500000 6.085787
v -17.500000 2.250001 7.500000
v -17.500000 0.000001 7.500000
v -2.500000 0.000000 0.000000
v -2.500000 4.500000 -2.000000
v -2.500000 8.985949 -2.969286
v -2.500000 6.750000 -2.000000
v -2.500000 2.250000 0.000000
v -7.500000 0.000000 0.000000
v -7.500000 2.250000 0.000000
v -7.500000 4.500000 -2.000000
v -7.500000 6.750000 -2.000000
v -7.500000 9.000700 -2.898104
v -7.500000 2.416091 0.436852
v -2.500000 2.416091 0.436852
v -7.500000 0.000000 0.500000
v -2.500000 0.000000 0.500000
v -7.500000 4.666091 -1.563148
v -2.500000 4.666091 -1.563148
v -7.500000 6.851535 -1.521547
v -2.500000 6.851535 -1.521547
v -7.500000 8.889696 -2.543095
v -2.500000 8.889696 -2.543095
v 0.000000 0.000000 0.000000
v 0.000000 2.250000 0.000000
v 0.000000 4.500000 -2.000000
v 0.000000 6.750000 -2.000000
v 0.000000 9.000000 -3.000000
v -15.617512 8.999316 1.453556
v -15.333773 8.889696 1.737295
v -14.611429 6.851535 2.459639
v -14.640846 4.666091 2.430222
v -13.226633 2.416091 3.844435
v -13.181980 0.000000 3.889088
vt 0.125000 1.000000
vt 0.125000 0.750000
vt 0.000000 0.750000
vt 0.000000 1.000000
vt 0.000000 0.500000
vt 0.125000 0.500000
vt 0.125000 0.250000
vt 0.000000 0.250000
vt 0.375000 0.500000
vt 0.375000 0.250000
vt 0.375000 1.000000
vt 0.375000 0.750000
vt 0.125000 0.000000
vt 0.000000 0.000000
vt 0.375000 0.000000
vt 0.375000 0.250000
vt 0.375000 0.000000
vt 0.125000 0.000000
vt 0.125000 0.250000
vt 0.375000 0.500000
vt 0.125000 0.500000
vt 0.375000 0.750000
vt 0.125000 0.750000
vt 0.375000 1.000000
vt 0.125000 1.000000
vt 0.375000 1.000000
vt 0.375000 0.750000
vt 0.375000 0.500000
vt 0.375000 0.250000
vt 0.375000 0.000000
vt 0.125000 1.000000
vt 0.000000 1.000000
vt 0.000000 0.750000
vt 0.125000 0.750000
vt 0.000000 0.500000
vt 0.000000 0.250000
vt 0.125000 0.250000
vt 0.125000 0.500000
vt 0.375000 0.250000
vt 0.375000 0.500000
vt 0.375000 0.500000
vt 0.375000 0.250000
vt 0.375000 0.750000
vt 0.375000 1.000000
vt 0.375000 1.000000
vt 0.375000 0.750000
vt 0.000000 0.000000
vt 0.125000 0.000000
vt 0.375000 0.000000
vt 0.375000 0.000000
vt 0.375000 0.250000
vt 0.125000 0.250000
vt 0.125000 0.000000
vt 0.375000 0.000000
vt 0.375000 0.500000
vt 0.125000 0.500000
vt 0.375000 0.750000
vt 0.125000 0.750000
vt 0.375000 1.000000
vt 0.125000 1.000000
vt 0.250000 1.000000
vt 0.250000 1.000000
vt 0.250000 0.750000
vt 0.250000 0.500000
vt 0.250000 0.250000
vt 0.250000 0.000000
vn 0.528498 0.664364 0.528498
vn 0.528498 0.664364 0.528498
vn 0.528498 0.664364 0.528498
vn 0.528498 0.664364 0.528498
vn 0.653117 0.385093 0.652029
vn 0.653117 0.385093 0.652029
vn 0.653117 0.385093 0.652029
vn 0.653117 0.385093 0.652029
vn 0.707107 0.000000 0.707107
vn 0.707107 0.000000 0.707107
vn 0.707107 0.000000 0.707107
vn 0.707107 0.000000 0.707107
vn 0.707107 0.000000 0.707107
vn 0.707107 0.000000 0.707107
vn 0.707107 0.000000 0.707107
vn 0.707107 0.000000 0.707107
vn 0.665257 0.391059 0.636008
vn 0.665257 0.391059 0.636008
vn 0.665257 0.391059 0.636008
vn 0.665257 0.391059 0.636008
vn 0.550485 0.657063 0.515010
vn 0.550485 0.657063 0.515010
vn 0.550485 0.657063 0.515010
vn 0.550485 0.657063 0.515010
vn 0.721617 -0.000986 0.692292
vn 0.721617 -0.000986 0.692292
vn 0.721617 -0.000986 0.692292
vn 0.721617 -0.000986 0.692292
vn 0.742790 -0.001055 0.669523
vn 0.742790 -0.001055 0.669523
vn 0.742790 -0.001055 0.669523
vn 0.742790 -0.001055 0.669523
vn 0.706865 0.026128 0.706865
vn 0.706865 0.026128 0.706865
vn 0.706865 0.026128 0.706866
vn 0.706865 0.026128 0.706866
vn 0.528498 0.664364 0.528498
vn 0.528498 0.664364 0.528498
vn 0.528499 0.664364 0.528498
vn 0.528499 0.664364 0.528498
vn 0.706979 -0.019032 0.706979
vn 0.706979 -0.019032 0.706979
vn 0.706979 -0.019032 0.706978
vn 0.706979 -0.019032 0.706978
vn 0.632149 0.448079 0.632149
vn 0.632149 0.448079 0.632149
vn 0.632149 0.448079 0.632149
vn 0.632149 0.448079 0.632149
vn 0.707106 -0.000001 -0.707108
vn 0.707106 -0.000001 -0.707108
vn 0.707107 0.000000 -0.707106
vn 0.707107 0.000000 -0.707106
vn -0.707109 0.000000 0.707104
vn -0.707109 0.000000 0.707104
vn -0.707107 -0.000001 0.707107
vn -0.707107 -0.000001 0.707107
vn 0.707106 -0.000001 -0.707107
vn 0.707106 -0.000001 -0.707107
vn -0.707105 -0.000001 0.707108
vn -0.707105 -0.000001 0.707108
vn 0.707106 -0.000000 -0.707108
vn 0.707106 -0.000000 -0.707108
vn -0.707107 0.000001 0.707107
vn -0.707107 0.000001 0.707107
vn 0.186402 0.964652 0.186282
vn 0.186402 0.964652 0.186282
vn 0.186056 0.964785 0.185938
vn 0.186056 0.964785 0.185938
vn 0.707104 -0.000001 -0.707110
vn 0.707104 -0.000001 -0.707110
vn -0.707107 0.000001 0.707106
vn -0.707107 0.000001 0.707106
vn 0.025660 0.387439 0.921538
vn 0.025660 0.387439 0.921538
vn 0.025660 0.387439 0.921538
vn 0.025660 0.387439 0.921538
vn 0.031383 0.663589 0.747439
vn 0.031383 0.663589 0.747439
vn 0.031383 0.663589 0.747439
vn 0.031383 0.663589 0.747439
vn 0.000000 0.664364 0.747409
vn 0.000000 0.664364 0.747409
vn 0.000000 0.664364 0.747409
vn 0.000000 0.664364 0.747409
vn 0.004496 0.401960 0.915646
vn 0.004496 0.401960 0.915646
vn 0.004496 0.401960 0.915646
vn 0.004496 0.401960 0.915646
vn 0.041617 0.000840 0.999133
vn 0.041617 0.000840 0.999133
vn 0.041617 0.000840 0.999133
vn 0.041617 0.000840 0.999133
vn 0.000000 0.000000 1.000000
vn 0.000000 0.000000 1.000000
vn 0.000000 0.000000 1.000000
vn 0.000000 0.000000 1.000000
vn 0.041302 0.000841 0.999146
vn 0.041302 0.000841 0.999146
vn 0.041302 0.000841 0.999146
vn 0.041302 0.000841 0.999146
vn 0.000000 0.000000 1.000000
vn 0.000000 0.000000 1.000000
vn 0.000000 0.000000 1.000000
vn 0.000000 0.000000 1.000000
vn 0.000000 0.026128 0.999659
vn 0.000000 0.026128 0.999659
vn 0.000000 0.026128 0.999659
vn 0.000000 0.026128 0.999659
vn 0.000000 0.664364 0.747409
vn 0.000000 0.664364 0.747409
vn 0.000000 0.664364 0.747409
vn 0.000000 0.664364 0.747409
vn 0.000000 -0.019032 0.999819
vn 0.000000 -0.019032 0.999819
vn 0.000000 -0.019032 0.999819
vn 0.000000 -0.019032 0.999819
vn 0.000000 0.448079 0.893994
vn 0.000000 0.448079 0.893994
vn 0.000000 0.448079 0.893994
vn 0.000000 0.448079 0.893994
vn -1.000000 0.000000 0.000000
vn -1.000000 0.000000 0.000000
vn -1.000000 0.000000 0.000000
vn -1.000000 0.000000 0.000000
vn 1.000000 0.000000 0.000000
vn 1.000000 0.000000 0.000000
vn 1.000000 0.000000 0.000000
vn 1.000000 0.000000 0.000000
vn -1.000000 0.000000 0.000000
vn -1.000000 0.000000 0.000000
vn 1.000000 0.000000 0.000000
vn 1.000000 0.000000 0.000000
vn -1.000000 0.000000 0.000000
vn -1.000000 0.000000 0.000000
vn 1.000000 0.000000 -0.000000
vn 1.000000 0.000000 -0.000000
vn 0.003251 0.966556 0.256433
vn 0.003251 0.966556 0.256433
vn 0.003251 0.966556 0.256433
vn 0.003251 0.966556 0.256433
vn -1.000000 0.000000 0.000000
vn -1.000000 0.000000 0.000000
vn 1.000000 0.000000 -0.000000
vn 1.000000 0.000000 -0.000000
vn 0.186751 0.964517 0.186629
vn 0.186751 0.964517 0.186629
vn 0.632149 0.448079 0.632149
vn 0.632149 0.448079 0.632149
vn 0.706979 -0.019032 0.706979
vn 0.706979 -0.019032 0.706979
vn 0.528498 0.664364 0.528498
vn 0.528498 0.664364 0.528498
vn 0.706866 0.026128 0.706865
vn 0.706866 0.026128 0.706865
s off
g Reactor_lower_wall7
usemtl initialShadingGroup
f 10/10/1 5/9/2 28/28/3 29/29/4
f 8/12/5 6/11/6 26/26/7 27/27/8
f 5/9/9 8/12/10 27/27/11 28/28/12
f 29/29/13 30/30/14 4/15/15 10/10/16
f 15/1/17 14/2/18 7/3/19 2/4/20
f 3/5/21 13/6/22 12/7/23 9/8/24
f 7/3/25 14/2/26 13/6/27 3/5/28
f 9/8/29 12/7/30 11/13/31 1/14/32
s 1
f 60/65/33 61/66/34 18/18/35 16/19/36
s 2
f 59/64/37 60/65/38 16/19/39 20/21/40
s 3
f 58/63/41 59/64/42 20/21/43 22/23/44
s 4
f 57/62/45 58/63/46 22/23/47 24/25/48
s 5
f 12/7/49 16/19/50 18/18/51 11/13/52
s 6
f 4/15/53 19/17/54 17/16/55 10/10/56
s 5
f 13/6/57 20/21/58 16/19/50 12/7/49
s 6
f 10/10/56 17/16/55 21/20/59 5/9/60
s 5
f 14/2/61 22/23/62 20/21/58 13/6/57
s 6
f 5/9/60 21/20/59 23/22/63 8/12/64
s 7
f 56/61/65 57/62/66 24/25/67 15/1/68
s 5
f 15/1/69 24/25/70 22/23/62 14/2/61
s 6
f 8/12/64 23/22/63 25/24/71 6/11/72
s off
f 40/31/73 2/32/74 7/33/75 39/34/76
f 3/35/77 9/36/78 37/37/79 38/38/80
f 52/39/81 53/40/82 32/41/83 35/42/84
f 54/43/85 55/44/86 33/45/87 34/46/88
f 7/33/89 3/35/90 38/38/91 39/34/92
f 53/40/93 54/43/94 34/46/95 32/41/96
f 9/36/97 1/47/98 36/48/99 37/37/100
f 51/49/101 52/39/102 35/42/103 31/50/104
f 42/51/105 41/52/106 43/53/107 44/54/108
f 46/55/109 45/56/110 41/52/111 42/51/112
f 48/57/113 47/58/114 45/56/115 46/55/116
f 50/59/117 49/60/118 47/58/119 48/57/120
s 8
f 37/37/121 36/48/122 43/53/123 41/52/124
s 9
f 31/50/125 35/42/126 42/51/127 44/54/128
s 8
f 38/38/129 37/37/121 41/52/124 45/56/130
s 9
f 35/42/126 32/41/131 46/55/132 42/51/127
s 8
f 39/34/133 38/38/129 45/56/130 47/58/134
s 9
f 32/41/131 34/46/135 48/57/136 46/55/132
s off
f 33/45/137 40/31/138 49/60/139 50/59/140
s 8
f 40/31/141 39/34/133 47/58/134 49/60/142
s 9
f 34/46/135 33/45/143 50/59/144 48/57/136
s 7
f 6/11/145 25/24/146 57/62/66 56/61/65
s 4
f 25/24/147 23/22/148 58/63/46 57/62/45
s 3
f 23/22/149 21/20/150 59/64/42 58/63/41
s 2
f 21/20/151 17/16/152 60/65/38 59/64/37
s 1
f 17/16/153 19/17/154 61/66/34 60/65/33
