# This file uses centimeters as units for non-parametric coordinates.

mtllib Control_room_wall_door.mtl
g default
v 0.000000 0.000000 0.000000
v 0.000000 7.000000 0.000000
v -6.000000 0.000000 0.000000
v -6.017921 7.000000 0.000000
v -4.500000 0.000000 0.000000
v -3.753174 7.000000 0.000000
v -1.500000 0.000000 0.000000
v -2.251904 7.000000 0.000000
v -5.250000 0.000000 0.000000
v -5.254444 7.000000 0.000000
v -0.750000 0.000000 0.000000
v -0.750633 7.000000 0.000000
v -3.750000 0.000000 0.000000
v -2.250000 0.000000 0.000000
v 0.000000 1.997089 0.000000
v -0.750000 1.997453 0.000000
v -1.500000 1.997817 0.000000
v -2.250000 1.998181 0.000000
v -3.750000 1.998909 0.000000
v -4.500000 1.999272 0.000000
v -5.250000 1.999636 0.000000
v -6.000000 2.000000 0.000000
v 0.000000 0.998545 0.000000
v -0.750000 0.998727 0.000000
v -1.500000 0.998909 0.000000
v -2.250000 0.999090 0.000000
v -3.750000 0.999454 0.000000
v -4.500000 0.999636 0.000000
v -5.250000 0.999818 0.000000
v -6.000000 1.000000 0.000000
v -6.002541 5.500000 0.000000
v -5.252220 5.499636 0.000000
v -4.501904 5.499272 0.000000
v -1.500633 5.497817 0.000000
v -0.750317 5.497454 0.000000
v 0.000000 5.497089 0.000000
v -6.017286 6.250000 0.000000
v -5.253334 6.249818 0.000000
v -3.752380 6.249454 0.000000
v -2.251427 6.249090 0.000000
v -0.750477 6.248727 0.000000
v 0.000000 6.248545 0.000000
v -1.125000 0.000000 0.000000
v -1.125000 0.998817 0.000000
v -1.125000 1.997635 0.000000
v -1.125477 5.497635 0.000000
v -1.125713 6.248817 0.000000
v -1.125954 7.000000 0.000000
v -4.875000 0.000000 0.000000
v -4.875000 0.999727 0.000000
v -4.875000 1.999454 0.000000
v -4.877064 5.499454 0.000000
v -4.878094 6.249727 0.000000
v -4.879128 7.000000 0.000000
v -5.189499 2.179148 -0.199997
v -4.935501 2.178999 -0.199997
v -4.937241 5.364759 -0.199997
v -5.191345 5.364908 -0.199997
v -1.064499 2.176967 -0.199997
v -0.810501 2.176818 -0.199997
v -1.064884 5.362728 -0.199997
v -0.810772 5.362579 -0.199997
v -2.250000 1.998181 0.200001
v -1.500000 1.997817 0.200001
v -3.750000 1.998909 0.200001
v -4.500000 1.999272 0.200001
v -2.250000 0.999090 0.200001
v -3.750000 0.999454 0.200001
v -4.501904 5.499272 0.200001
v -3.752380 6.249454 0.200001
v -2.251427 6.249090 0.200001
v -1.500633 5.497817 0.200001
v 0.000000 3.962353 0.000000
v -0.750158 3.962353 0.000000
v -0.810637 3.962354 -0.199997
v -1.064692 3.962354 -0.199997
v -1.125238 3.962353 0.000000
v -1.500317 3.962353 0.000000
v -1.500317 3.962353 0.200001
v -2.250713 3.962357 0.200001
v -3.751190 3.962357 0.200001
v -4.500952 3.962353 0.200001
v -4.500952 3.962353 0.000000
v -4.876032 3.962353 0.000000
v -4.936371 3.962353 -0.199997
v -5.190422 3.962353 -0.199997
v -5.251110 3.962353 0.000000
v -6.001270 3.962353 0.000000
v -8.005100 6.229619 0.000000
v -8.005928 6.998316 0.000000
v -7.990356 5.479639 0.000000
v -7.989277 3.960711 0.000000
vt 0.502578 0.435305
vt 0.502578 0.343226
vt 0.571650 0.343225
vt 0.571650 0.435321
vt 0.573301 0.987896
vt 0.502988 0.987896
vt 0.502886 0.918807
vt 0.573243 0.918824
vt 0.364435 0.435271
vt 0.364435 0.343226
vt 0.433507 0.343226
vt 0.433507 0.435288
vt 0.122684 0.343226
vt 0.157220 0.343226
vt 0.157220 0.435221
vt 0.122684 0.435212
vt 0.226467 0.987896
vt 0.122772 0.987896
vt 0.122750 0.918715
vt 0.226423 0.918740
vt 0.468043 0.343226
vt 0.468043 0.435296
vt 0.468423 0.987896
vt 0.468328 0.918799
vt 0.019076 0.435187
vt 0.019076 0.343226
vt 0.088148 0.343226
vt 0.088148 0.435204
vt 0.088206 0.987896
vt 0.019076 0.987896
vt 0.019076 0.918690
vt 0.088192 0.918707
vt 0.226291 0.435237
vt 0.226291 0.343226
vt 0.364654 0.918773
vt 0.364727 0.987896
vt 0.019076 0.527149
vt 0.088148 0.527182
vt 0.157220 0.527216
vt 0.122684 0.527199
vt 0.226291 0.527249
vt 0.669110 0.280742
vt 0.669110 0.188730
vt 0.807254 0.188763
vt 0.807254 0.280809
vt 0.364435 0.527316
vt 0.433507 0.527350
vt 0.502578 0.527383
vt 0.468043 0.527367
vt 0.571650 0.527417
vt 0.472936 0.706193
vt 0.497850 0.706193
vt 0.497941 0.827873
vt 0.473021 0.827860
vt 0.807363 0.461634
vt 0.876413 0.461634
vt 0.876501 0.603177
vt 0.807473 0.672266
vt 0.669241 0.672232
vt 0.669176 0.461634
vt 0.600067 0.461634
vt 0.600097 0.603043
vt 0.122728 0.849534
vt 0.122706 0.708141
vt 0.157249 0.708141
vt 0.157278 0.849551
vt 0.019076 0.708141
vt 0.088162 0.708141
vt 0.088177 0.849517
vt 0.019076 0.849484
vt 0.502783 0.849718
vt 0.571884 0.849752
vt 0.468233 0.849702
vt 0.093128 0.706193
vt 0.117733 0.706193
vt 0.117752 0.827684
vt 0.093141 0.827671
vt 0.433682 0.849685
vt 0.433594 0.708141
vt 0.468138 0.708141
vt 0.497760 0.551490
vt 0.472851 0.551477
vt 0.197912 0.191541
vt 0.216331 0.191541
vt 0.216331 0.320697
vt 0.197912 0.333101
vt 0.156024 0.191625
vt 0.174443 0.191625
vt 0.174443 0.333202
vt 0.156024 0.320794
vt 0.117715 0.551301
vt 0.093115 0.551288
vt 0.197912 0.191725
vt 0.216331 0.191725
vt 0.216331 0.320680
vt 0.197912 0.333102
vt 0.156024 0.191809
vt 0.174443 0.191809
vt 0.174443 0.333202
vt 0.156024 0.320778
vt 0.046036 0.237097
vt 0.027617 0.237097
vt 0.027617 0.168025
vt 0.046036 0.168025
vt 0.910657 0.399423
vt 0.929076 0.399423
vt 0.929076 0.540832
vt 0.910657 0.540832
vt 0.046036 0.237097
vt 0.027617 0.237097
vt 0.027617 0.168025
vt 0.046036 0.168025
vt 0.061797 0.168026
vt 0.080216 0.168026
vt 0.080216 0.260038
vt 0.061797 0.260038
vt 0.080214 0.260041
vt 0.061800 0.260041
vt 0.061800 0.168023
vt 0.080214 0.168023
vt 0.103320 0.152854
vt 0.121739 0.152854
vt 0.121739 0.290998
vt 0.103320 0.290998
vt 0.910655 0.399335
vt 0.929078 0.399335
vt 0.929078 0.540914
vt 0.910655 0.540914
vt 0.103325 0.152849
vt 0.121734 0.152849
vt 0.121734 0.291004
vt 0.103325 0.291004
vt 0.929078 0.630416
vt 0.910655 0.630416
vt 0.929076 0.630418
vt 0.910657 0.630418
vt 0.502681 0.708141
vt 0.571767 0.708141
vt 0.216331 0.027285
vt 0.197912 0.010766
vt 0.156024 0.027382
vt 0.174443 0.010866
vt 0.929076 0.218497
vt 0.910657 0.218497
vt 0.600038 0.280708
vt 0.876325 0.280842
vt 0.910655 0.218500
vt 0.929078 0.218500
vt 0.216331 0.027302
vt 0.197912 0.010766
vt 0.156024 0.027399
vt 0.174443 0.010867
vt 0.756311 0.916947
vt 0.756388 0.987740
vt 0.754954 0.847877
vt 0.754854 0.707990
vn 0.000000 0.000000 -1.000000
vn 0.000000 0.000000 -1.000000
vn 0.000000 0.000000 -1.000000
vn 0.000000 0.000000 -1.000000
vn 0.000000 0.000000 -1.000000
vn 0.000000 0.000000 -1.000000
vn 0.000000 0.000000 -1.000000
vn 0.000000 0.000000 -1.000000
vn 0.000000 0.000000 -1.000000
vn 0.000000 0.000000 -1.000000
vn 0.000000 0.000000 -1.000000
vn 0.000000 0.000000 -1.000000
vn 0.000000 0.000000 -1.000000
vn 0.000000 0.000000 -1.000000
vn 0.000000 0.000000 -1.000000
vn 0.000000 0.000000 -1.000000
vn 0.000000 0.000000 -1.000000
vn 0.000000 0.000000 -1.000000
vn 0.000000 0.000000 -1.000000
vn 0.000000 0.000000 -1.000000
vn 0.000000 0.000000 -1.000000
vn 0.000000 0.000000 -1.000000
vn 0.000000 0.000000 -1.000000
vn 0.000000 0.000000 -1.000000
vn 0.000000 0.000000 -1.000000
vn 0.000000 0.000000 -1.000000
vn 0.000000 0.000000 -1.000000
vn 0.000000 0.000000 -1.000000
vn 0.000000 0.000000 -1.000000
vn 0.000000 0.000000 -1.000000
vn 0.000000 0.000000 -1.000000
vn 0.000000 0.000000 -1.000000
vn 0.000000 0.000000 -1.000000
vn 0.000000 0.000000 -1.000000
vn 0.000000 0.000000 -1.000000
vn 0.000000 0.000000 -1.000000
vn 0.000000 0.000000 -1.000000
vn 0.000000 0.000000 -1.000000
vn 0.000000 0.000000 -1.000000
vn 0.000000 0.000000 -1.000000
vn 0.000000 0.000000 -1.000000
vn 0.000000 0.000000 -1.000000
vn 0.000000 0.000000 -1.000000
vn 0.000000 0.000000 -1.000000
vn 0.000000 0.000000 -1.000000
vn 0.000000 0.000000 -1.000000
vn 0.000000 0.000000 -1.000000
vn 0.000000 0.000000 -1.000000
vn 0.000000 0.000000 -1.000000
vn 0.000000 0.000000 -1.000000
vn 0.000000 0.000000 -1.000000
vn 0.000000 0.000000 -1.000000
vn 0.000000 0.000000 -1.000000
vn 0.000000 0.000000 -1.000000
vn 0.000000 0.000000 -1.000000
vn 0.000000 0.000000 -1.000000
vn 0.000000 0.000000 -1.000000
vn 0.000000 0.000000 -1.000000
vn 0.000000 0.000000 -1.000000
vn 0.000000 0.000000 -1.000000
vn 0.000000 0.000000 -1.000000
vn 0.000000 0.000000 -1.000000
vn 0.000000 0.000000 -1.000000
vn 0.000000 0.000000 -1.000000
vn 0.000000 0.000000 -1.000000
vn 0.000000 0.000000 -1.000000
vn 0.000000 0.000000 -1.000000
vn 0.000000 0.000000 -1.000000
vn 0.000000 0.000000 -1.000000
vn 0.000000 0.000000 -1.000000
vn 0.000000 0.000000 -1.000000
vn 0.000000 0.000000 -1.000000
vn 0.000000 0.000000 -1.000000
vn 0.000000 0.000000 -1.000000
vn 0.000000 0.000000 -1.000000
vn 0.000000 0.000000 -1.000000
vn 0.000000 0.000000 -1.000000
vn 0.000000 0.000000 -1.000000
vn 0.000000 0.000000 -1.000000
vn 0.000000 0.000000 -1.000000
vn 0.000001 0.000000 -1.000000
vn 0.000001 0.000000 -1.000000
vn 0.000000 0.000000 -1.000000
vn 0.000000 0.000000 -1.000000
vn 0.000002 0.000000 -1.000000
vn 0.000002 0.000000 -1.000000
vn 0.000001 0.000000 -1.000000
vn 0.000001 0.000000 -1.000000
vn -0.000001 0.000000 -1.000000
vn -0.000001 0.000000 -1.000000
vn -0.000003 0.000000 -1.000000
vn -0.000003 0.000000 -1.000000
vn 0.000000 0.000000 -1.000000
vn 0.000000 0.000000 -1.000000
vn 0.000000 0.000000 -1.000000
vn 0.000000 0.000000 -1.000000
vn 0.000000 0.000000 -1.000000
vn 0.000000 0.000000 -1.000000
vn 0.000000 0.000000 -1.000000
vn 0.000000 0.000000 -1.000000
vn 0.000000 0.000000 -1.000000
vn 0.000000 0.000000 -1.000000
vn 0.000000 0.000000 -1.000000
vn 0.000000 0.000000 -1.000000
vn 0.000000 0.000000 -1.000000
vn 0.000000 0.000000 -1.000000
vn 0.000000 0.000000 -1.000000
vn 0.000000 0.000000 -1.000000
vn 0.000000 0.000000 -1.000000
vn 0.000000 0.000000 -1.000000
vn 0.000000 0.000000 -1.000000
vn 0.000000 0.000000 -1.000000
vn 0.000000 0.000000 -1.000000
vn 0.000000 0.000000 -1.000000
vn 0.000000 0.000000 -1.000000
vn 0.000000 0.000000 -1.000000
vn 0.000000 0.000000 -1.000000
vn 0.000000 0.000000 -1.000000
vn 0.000000 0.000000 -1.000000
vn 0.000000 0.000000 -1.000000
vn 0.000000 0.000000 -1.000000
vn 0.000000 0.000000 -1.000000
vn 0.000000 0.000000 -1.000000
vn 0.000000 0.000000 -1.000000
vn 0.000000 0.000000 -1.000000
vn 0.000000 0.000000 -1.000000
vn 0.000000 0.000000 -1.000000
vn 0.000000 0.000000 -1.000000
vn 0.000000 0.000000 -1.000000
vn 0.000000 0.000000 -1.000000
vn 0.000000 0.000000 -1.000000
vn 0.000000 0.000000 -1.000000
vn 0.000000 0.000000 -1.000000
vn 0.000000 0.000000 -1.000000
vn 0.000000 0.000000 -1.000000
vn 0.000000 0.000000 -1.000000
vn 0.000000 0.000000 -1.000000
vn 0.000000 0.000000 -1.000000
vn 0.000000 0.000000 -1.000000
vn 0.000000 0.000000 -1.000000
vn 0.000000 0.000000 -1.000000
vn 0.000000 0.000000 -1.000000
vn 0.000000 0.000000 -1.000000
vn 0.000000 0.000000 -1.000000
vn 0.000000 0.000000 -1.000000
vn 0.000000 0.000000 -1.000000
vn 0.000000 0.000000 -1.000000
vn 0.000000 0.000000 -1.000000
vn 0.000000 0.000000 -1.000000
vn 0.000000 0.000000 -1.000000
vn 0.000000 0.000000 -1.000000
vn 0.000000 0.000000 -1.000000
vn 0.000000 0.000000 -1.000000
vn 0.000000 0.000000 -1.000000
vn 0.000000 0.000000 -1.000000
vn 0.000000 0.000000 -1.000000
vn -0.000395 -0.744159 -0.668002
vn -0.000395 -0.744159 -0.668002
vn -0.000395 -0.744159 -0.668002
vn -0.000395 -0.744159 -0.668002
vn 0.957373 0.000544 -0.288855
vn 0.957373 0.000544 -0.288855
vn 0.957427 0.000620 -0.288676
vn 0.957427 0.000620 -0.288676
vn 0.000434 0.829401 -0.558653
vn 0.000434 0.829401 -0.558653
vn 0.000434 0.829401 -0.558653
vn 0.000434 0.829401 -0.558653
vn -0.956920 -0.000582 -0.290350
vn -0.956920 -0.000582 -0.290350
vn -0.956852 -0.000661 -0.290576
vn -0.956852 -0.000661 -0.290576
vn -0.000395 -0.744495 -0.667628
vn -0.000395 -0.744495 -0.667628
vn -0.000395 -0.744495 -0.667628
vn -0.000395 -0.744495 -0.667628
vn 0.957192 0.000084 -0.289452
vn 0.957192 0.000084 -0.289452
vn 0.957200 0.000096 -0.289429
vn 0.957199 0.000096 -0.289429
vn 0.000433 0.829055 -0.559166
vn 0.000433 0.829056 -0.559166
vn 0.000433 0.829056 -0.559166
vn 0.000433 0.829056 -0.559166
vn -0.957103 -0.000124 -0.289747
vn -0.957103 -0.000124 -0.289747
vn -0.957084 -0.000140 -0.289810
vn -0.957084 -0.000140 -0.289810
vn 0.000485 1.000000 0.000000
vn 0.000485 1.000000 0.000000
vn 0.000485 1.000000 0.000000
vn 0.000485 1.000000 0.000000
vn -1.000000 -0.000181 0.000000
vn -1.000000 -0.000181 0.000000
vn -1.000000 -0.000207 0.000000
vn -1.000000 -0.000207 0.000000
vn 0.000484 1.000000 0.000000
vn 0.000484 1.000000 0.000000
vn 0.000484 1.000000 0.000000
vn 0.000484 1.000000 0.000000
vn -1.000000 0.000000 0.000000
vn -1.000000 0.000000 0.000000
vn -1.000000 0.000000 0.000000
vn -1.000000 0.000000 0.000000
vn 1.000000 0.000000 0.000000
vn 1.000000 0.000000 0.000000
vn 1.000000 0.000000 0.000000
vn 1.000000 0.000000 0.000000
vn 0.000243 1.000000 0.000000
vn 0.000243 1.000000 0.000000
vn 0.000243 1.000000 0.000000
vn 0.000243 1.000000 0.000000
vn 1.000000 0.000544 0.000000
vn 1.000000 0.000544 0.000000
vn 1.000000 0.000619 0.000000
vn 1.000000 0.000619 0.000000
vn -0.000242 -1.000000 0.000000
vn -0.000242 -1.000000 0.000000
vn -0.000242 -1.000000 0.000000
vn -0.000242 -1.000000 0.000000
vn 0.707419 -0.706794 0.000000
vn 0.707419 -0.706794 0.000000
vn 0.707419 -0.706794 0.000000
vn 0.707419 -0.706794 0.000000
vn -0.707334 -0.706880 0.000000
vn -0.707334 -0.706880 0.000000
vn -0.707334 -0.706880 0.000000
vn -0.707334 -0.706880 0.000000
vn 0.000000 0.000000 -1.000000
vn 0.000000 0.000000 -1.000000
vn 0.000000 0.000000 -1.000000
vn 0.000000 0.000000 -1.000000
vn 0.000000 0.000000 -1.000000
vn 0.000000 0.000000 -1.000000
vn 0.000000 0.000000 -1.000000
vn 0.000000 0.000000 -1.000000
vn 0.957187 0.000074 -0.289471
vn 0.957192 0.000084 -0.289452
vn 0.957192 0.000084 -0.289452
vn 0.957187 0.000074 -0.289470
vn 0.000000 0.000000 -1.000000
vn 0.000000 0.000000 -1.000000
vn 0.000000 0.000000 -1.000000
vn 0.000000 0.000000 -1.000000
vn -0.957118 -0.000111 -0.289697
vn -0.957118 -0.000111 -0.289697
vn -0.957103 -0.000124 -0.289747
vn -0.957103 -0.000124 -0.289747
vn 0.000000 0.000000 -1.000000
vn 0.000000 0.000000 -1.000000
vn 0.000000 0.000000 -1.000000
vn 0.000000 0.000000 -1.000000
vn -1.000000 -0.000161 0.000000
vn -1.000000 -0.000181 0.000000
vn -1.000000 -0.000181 0.000000
vn -1.000000 -0.000161 0.000000
vn 0.000000 0.000000 -1.000000
vn 0.000000 0.000000 -1.000000
vn -0.000001 0.000000 -1.000000
vn -0.000001 0.000000 -1.000000
vn 0.000001 0.000000 -1.000000
vn 0.000001 0.000000 -1.000000
vn 0.000000 0.000000 -1.000000
vn 0.000000 0.000000 -1.000000
vn 0.000003 0.000000 -1.000000
vn 0.000003 0.000000 -1.000000
vn 0.000001 0.000000 -1.000000
vn 0.000001 0.000000 -1.000000
vn 1.000000 0.000485 0.000000
vn 1.000000 0.000485 0.000000
vn 1.000000 0.000544 0.000000
vn 1.000000 0.000544 0.000000
vn 0.000000 0.000000 -1.000000
vn 0.000000 0.000000 -1.000000
vn 0.000000 0.000000 -1.000000
vn 0.000000 0.000000 -1.000000
vn 0.957331 0.000485 -0.288995
vn 0.957373 0.000544 -0.288855
vn 0.957373 0.000544 -0.288855
vn 0.957331 0.000485 -0.288995
vn 0.000000 0.000000 -1.000000
vn 0.000000 0.000000 -1.000000
vn 0.000000 0.000000 -1.000000
vn 0.000000 0.000000 -1.000000
vn -0.956974 -0.000520 -0.290173
vn -0.956974 -0.000520 -0.290173
vn -0.956920 -0.000582 -0.290350
vn -0.956920 -0.000582 -0.290350
vn 0.000000 0.000000 -1.000000
vn 0.000000 0.000000 -1.000000
vn 0.000000 0.000000 -1.000000
vn 0.000000 0.000000 -1.000000
vn 0.000000 0.000000 -1.000000
vn 0.000000 0.000000 -1.000000
vn 0.000000 0.000000 -1.000000
vn 0.000000 0.000000 -1.000000
vn 0.000000 0.000000 -1.000000
vn 0.000000 0.000000 -1.000000
vn 0.000000 0.000000 -1.000000
vn 0.000000 0.000000 -1.000000
vn 0.000000 0.000000 -1.000000
vn 0.000000 0.000000 -1.000000
vn 0.000000 0.000000 -1.000000
vn 0.000000 0.000000 -1.000000
s off
g Control_room_wall_door1
usemtl lambert2SG
f 29/1/1 9/2/2 3/3/3 30/4/4
f 4/5/5 10/6/6 38/7/7 37/8/8
f 27/9/9 13/10/10 5/11/11 28/12/12
f 43/13/13 7/14/14 25/15/15 44/16/16
f 8/17/17 48/18/18 47/19/19 40/20/20
f 49/21/21 9/2/22 29/1/23 50/22/24
f 10/6/25 54/23/26 53/24/27 38/7/28
f 23/25/29 1/26/30 11/27/31 24/28/32
f 12/29/33 2/30/34 42/31/35 41/32/36
f 27/9/37 26/33/38 14/34/39 13/10/40
f 8/17/41 40/20/42 39/35/43 6/36/44
f 25/15/45 7/14/46 14/34/47 26/33/48
f 15/37/49 23/25/50 24/28/51 16/38/52
f 44/16/53 25/15/54 17/39/55 45/40/56
f 17/39/57 25/15/58 26/33/59 18/41/60
f 63/42/61 67/43/62 68/44/63 65/45/64
f 19/46/65 27/9/66 28/12/67 20/47/68
f 50/22/69 29/1/70 21/48/71 51/49/72
f 21/48/73 29/1/74 30/4/75 22/50/76
f 85/51/77 86/52/78 58/53/79 57/54/80
f 81/55/81 82/56/82 69/57/83 70/58/84
f 70/58/85 71/59/86 80/60/87 81/55/88
f 79/61/89 80/60/90 71/59/91 72/62/92
f 46/63/93 77/64/94 78/65/95 34/66/96
f 73/67/97 74/68/98 35/69/99 36/70/100
f 38/7/101 32/71/102 31/72/103 37/8/104
f 52/73/105 32/71/106 38/7/107 53/24/108
f 46/63/109 34/66/110 40/20/111 47/19/112
f 42/31/113 36/70/114 35/69/115 41/32/116
f 24/28/117 11/27/118 43/13/119 44/16/120
f 16/38/121 24/28/122 44/16/123 45/40/124
f 75/74/125 76/75/126 61/76/127 62/77/128
f 41/32/129 35/69/130 46/63/131 47/19/132
f 48/18/133 12/29/134 41/32/135 47/19/136
f 28/12/137 5/11/138 49/21/139 50/22/140
f 20/47/141 28/12/142 50/22/143 51/49/144
f 33/78/145 83/79/146 84/80/147 52/73/148
f 39/35/149 33/78/150 52/73/151 53/24/152
f 54/23/153 6/36/154 39/35/155 53/24/156
f 21/48/157 55/81/158 56/82/159 51/49/160
f 84/83/161 85/84/162 57/85/163 52/86/164
f 52/73/165 57/54/166 58/53/167 32/71/168
f 86/87/169 87/88/170 32/89/171 58/90/172
f 45/40/173 59/91/174 60/92/175 16/38/176
f 74/93/177 75/94/178 62/95/179 35/96/180
f 35/69/181 62/77/182 61/76/183 46/63/184
f 76/97/185 77/98/186 46/99/187 61/100/188
f 18/101/189 63/102/190 64/103/191 17/104/192
f 78/105/193 79/106/194 72/107/195 34/108/196
f 20/109/197 66/110/198 65/111/199 19/112/200
f 26/113/201 67/114/202 63/115/203 18/116/204
f 19/117/205 65/118/206 68/119/207 27/120/208
f 67/121/209 26/122/210 27/123/211 68/124/212
f 82/125/213 83/126/214 33/127/215 69/128/216
f 70/129/217 39/130/218 40/131/219 71/132/220
f 39/133/221 70/134/222 69/128/223 33/127/224
f 34/108/225 72/107/226 71/135/227 40/136/228
f 87/137/229 88/138/230 31/72/231 32/71/232
f 15/37/233 16/38/234 74/68/235 73/67/236
f 60/139/237 75/94/238 74/93/239 16/140/240
f 60/92/241 59/91/242 76/75/243 75/74/244
f 59/141/245 45/142/246 77/98/247 76/97/248
f 78/65/249 77/64/250 45/40/251 17/39/252
f 64/143/253 79/106/254 78/105/255 17/144/256
f 64/145/257 63/42/258 80/60/259 79/61/260
f 81/55/261 80/60/262 63/42/263 65/45/264
f 65/45/265 66/146/266 82/56/267 81/55/268
f 66/147/269 20/148/270 83/126/271 82/125/272
f 84/80/273 83/79/274 20/47/275 51/49/276
f 56/149/277 85/84/278 84/83/279 51/150/280
f 56/82/281 55/81/282 86/52/283 85/51/284
f 55/151/285 21/152/286 87/88/287 86/87/288
f 22/50/289 88/138/290 87/137/291 21/48/292
f 4/5/293 37/8/294 89/153/295 90/154/296
f 37/8/297 31/72/298 91/155/299 89/153/300
f 31/72/301 88/138/302 92/156/303 91/155/304
