# This file uses centimeters as units for non-parametric coordinates.

mtllib Server_room_wall_light.mtl
g default
v -1.999998 -0.301919 0.544342
v 1.999998 -0.301919 0.544342
v -1.999998 0.301919 0.544342
v 1.999998 0.301919 0.544342
v -1.999998 0.301919 0.000000
v 1.999998 0.301919 0.000000
v -1.999998 -0.301919 0.000000
v 1.999998 -0.301919 0.000000
v -1.999998 0.301919 0.272171
v 1.999998 0.301919 0.272171
v 1.999998 -0.301919 0.272171
v -1.999998 -0.301919 0.272171
v -1.249999 -0.301919 0.272171
v -1.249999 -0.301919 0.000000
v -1.249999 0.301919 0.000000
v -1.249999 0.301919 0.272171
v 1.249999 -0.301919 0.272171
v 1.249999 0.301919 0.272171
v 1.249999 0.301919 0.000000
v 1.249999 -0.301919 0.000000
v -1.499999 0.301919 0.544342
v -1.499999 -0.301919 0.544342
v 1.499999 -0.301919 0.544342
v 1.499999 0.301919 0.544342
vt 0.497060 0.249773
vt 0.497060 0.061219
vt 0.555710 0.061219
vt 0.555710 0.249773
vt 0.438410 0.061219
vt 0.438410 0.249773
vt 0.438410 0.061219
vt 0.497060 0.061219
vt 0.497060 0.249773
vt 0.438410 0.249773
vt 0.555710 0.061219
vt 0.555710 0.249773
vt 0.162235 0.230638
vt 0.162235 0.769362
vt 0.103585 0.769362
vt 0.103585 0.230638
vt 0.103585 0.930979
vt 0.162235 0.930979
vt 0.103585 0.069021
vt 0.162235 0.069021
vt 0.044935 0.930979
vt 0.044935 0.823234
vt 0.044935 0.176766
vt 0.044935 0.069021
vt 0.103585 0.769362
vt 0.103585 0.230638
vt 0.162235 0.230638
vt 0.162235 0.769362
vt 0.162235 0.069022
vt 0.103585 0.069022
vt 0.162235 0.930979
vt 0.103585 0.930979
vt 0.044935 0.176766
vt 0.044935 0.069022
vt 0.044935 0.823234
vt 0.044935 0.930979
vt 0.202577 0.930978
vt 0.202577 0.823234
vt 0.391130 0.823234
vt 0.391130 0.930978
vt 0.391130 0.769361
vt 0.202577 0.769361
vt 0.391130 0.230638
vt 0.202577 0.230638
vt 0.391130 0.176766
vt 0.202577 0.176766
vt 0.202577 0.069021
vt 0.391130 0.069021
vn 0.000000 1.000000 0.000000
vn 0.000000 1.000000 0.000000
vn 0.000000 1.000000 0.000000
vn 0.000000 1.000000 0.000000
vn 0.000000 -1.000000 0.000000
vn 0.000000 -1.000000 0.000000
vn 0.000000 -1.000000 0.000000
vn 0.000000 -1.000000 0.000000
vn 1.000000 0.000000 0.000000
vn 1.000000 0.000000 0.000000
vn 1.000000 0.000000 0.000000
vn 1.000000 0.000000 0.000000
vn -1.000000 0.000000 0.000000
vn -1.000000 0.000000 0.000000
vn -1.000000 0.000000 0.000000
vn -1.000000 0.000000 0.000000
vn 1.000000 0.000000 0.000000
vn 1.000000 0.000000 0.000000
vn 1.000000 0.000000 0.000000
vn 1.000000 0.000000 0.000000
vn -1.000000 0.000000 0.000000
vn -1.000000 0.000000 0.000000
vn -1.000000 0.000000 0.000000
vn -1.000000 0.000000 0.000000
vn 0.000000 -1.000000 0.000000
vn 0.000000 -1.000000 0.000000
vn 0.000000 -1.000000 0.000000
vn 0.000000 -1.000000 0.000000
vn 0.000000 -1.000000 0.000000
vn 0.000000 -1.000000 0.000000
vn 0.000000 -1.000000 0.000000
vn 0.000000 -1.000000 0.000000
vn 0.000000 1.000000 0.000000
vn 0.000000 1.000000 0.000000
vn 0.000000 1.000000 0.000000
vn 0.000000 1.000000 0.000000
vn 0.000000 1.000000 0.000000
vn 0.000000 1.000000 0.000000
vn 0.000000 1.000000 0.000000
vn 0.000000 1.000000 0.000000
vn 0.000000 0.000000 1.000000
vn 0.000000 0.000000 1.000000
vn 0.000000 0.000000 1.000000
vn 0.000000 0.000000 1.000000
vn 0.000000 -1.000000 0.000000
vn 0.000000 -1.000000 0.000000
vn 0.000000 -1.000000 0.000000
vn 0.000000 -1.000000 0.000000
vn 0.000000 0.000000 1.000000
vn 0.000000 0.000000 1.000000
vn 0.000000 0.000000 1.000000
vn 0.000000 0.000000 1.000000
vn 0.000000 1.000000 0.000000
vn 0.000000 1.000000 0.000000
vn 0.000000 1.000000 0.000000
vn 0.000000 1.000000 0.000000
vn 0.000000 1.000000 0.000000
vn 0.000000 1.000000 0.000000
vn 0.000000 1.000000 0.000000
vn 0.000000 1.000000 0.000000
vn 0.000000 -1.000000 0.000000
vn 0.000000 -1.000000 0.000000
vn 0.000000 -1.000000 0.000000
vn 0.000000 -1.000000 0.000000
vn -0.736467 0.000000 0.676474
vn -0.736467 0.000000 0.676474
vn -0.736467 0.000000 0.676474
vn -0.736467 0.000000 0.676474
vn 0.000000 0.000000 1.000000
vn 0.000000 0.000000 1.000000
vn 0.000000 0.000000 1.000000
vn 0.000000 0.000000 1.000000
vn 0.736467 0.000000 0.676474
vn 0.736467 0.000000 0.676474
vn 0.736467 0.000000 0.676474
vn 0.736467 0.000000 0.676474
s off
g wall_light_frame Doodads HP
usemtl texturedFacets138
f 19/13/1 15/14/2 16/15/3 18/16/4
f 17/25/5 13/26/6 14/27/7 20/28/8
f 10/1/9 11/2/10 8/3/11 6/4/12
f 7/7/13 12/8/14 9/9/15 5/10/16
f 2/5/17 11/2/18 10/1/19 4/6/20
f 9/9/21 12/8/22 1/11/23 3/12/24
f 12/30/25 13/26/26 22/33/27 1/34/28
f 7/29/29 14/27/30 13/26/31 12/30/32
f 9/17/33 16/15/34 15/14/35 5/18/36
f 3/21/37 21/22/38 16/15/39 9/17/40
f 1/37/41 22/38/42 21/39/43 3/40/44
f 23/35/45 17/25/46 11/32/47 2/36/48
f 24/45/49 23/46/50 2/47/51 4/48/52
f 18/16/53 24/23/54 4/24/55 10/19/56
f 19/13/57 18/16/58 10/19/59 6/20/60
f 17/25/61 20/28/62 8/31/63 11/32/64
f 24/45/65 18/43/66 17/44/67 23/46/68
f 18/43/69 16/41/70 13/42/71 17/44/72
f 16/41/73 21/39/74 22/38/75 13/42/76
g default
v -1.499999 -0.274099 0.512307
v -1.499999 0.278073 0.512307
v 1.499998 -0.274099 0.512307
v 1.499998 0.278073 0.512307
v -1.249999 -0.274099 0.240137
v -1.249999 0.278073 0.240137
v 1.249999 -0.274099 0.240137
v 1.249999 0.278073 0.240137
vt 0.937122 0.104933
vt 0.976225 0.140851
vt 0.976225 0.859149
vt 0.976225 0.140851
vt 0.976225 0.859149
vt 0.937122 0.104933
vt 0.804936 0.930979
vt 0.677439 0.069021
vt 0.677439 0.930979
vt 0.937122 0.895067
vt 0.937122 0.895067
vt 0.804936 0.069021
vt 0.615485 0.930979
vt 0.898026 0.930979
vt 0.898026 0.930979
vt 0.866889 0.069021
vn 0.000000 0.000000 1.000000
vn 0.000000 0.000000 1.000000
vn 0.000000 0.000000 1.000000
vn 0.000000 0.000000 1.000000
vn 0.000000 1.000000 0.000000
vn 0.000000 1.000000 0.000000
vn 0.000000 1.000000 0.000000
vn 0.000000 1.000000 0.000000
vn 0.000000 -1.000000 0.000000
vn 0.000000 -1.000000 0.000000
vn 0.000000 -1.000000 0.000000
vn 0.000000 -1.000000 0.000000
s off
g wall_light_frame Doodads HP wall_light
usemtl texturedFacets140
f 26/57/77 25/58/78 27/59/79 28/60/80
f 32/49/81 30/50/82 26/51/83 28/52/84
f 25/53/85 29/54/86 31/55/87 27/56/88
